<svg xmlns="http://www.w3.org/2000/svg" width="22.374" height="22.375" viewBox="0 0 22.374 22.375">
  <g id="Group_382" data-name="Group 382" transform="translate(-470 -1791)">
    <g id="cib:linkedin" transform="translate(470 1791)">
      <path id="Vector" d="M19.06,19.067H15.75V13.875c0-1.238-.026-2.83-1.73-2.83-1.726,0-1.988,1.343-1.988,2.738v5.284H8.718V8.389H11.9V9.846h.043a3.487,3.487,0,0,1,3.14-1.726c3.357,0,3.98,2.21,3.98,5.084v5.863ZM4.975,6.93a1.925,1.925,0,1,1,1.07-.324,1.923,1.923,0,0,1-1.07.324Zm1.66,12.137H3.314V8.39h3.32ZM20.721,0H1.65A1.631,1.631,0,0,0,0,1.613V20.761a1.631,1.631,0,0,0,1.65,1.613H20.717a1.638,1.638,0,0,0,1.656-1.613V1.613A1.638,1.638,0,0,0,20.717,0Z" transform="translate(0 0)" fill="#fff"/>
    </g>
  </g>
</svg>
