<svg id="Layer_1" viewBox="0 0 512 512" xmlns="http://www.w3.org/2000/svg" data-name="Layer 1"><path fill="#689634" d="m504.5 395.848c0 3.866-3.134 7-7 7h-71.842c-3.866 0-7-3.134-7-7s3.134-7 7-7h71.842c3.866 0 7 3.134 7 7zm-7 17.072h-82.899l-107.359-163.016c-2.114-3.216-6.436-4.11-9.652-1.996-3.217 2.114-4.11 6.436-1.996 9.652l28.209 42.833c-17.695 11.216-38.671 17.721-61.172 17.721-56.029 0-102.647-40.267-112.511-93.438h-36.511c2.816 20.157 9.625 39.035 19.602 55.808 6.112 10.274 4.525 22.967-3.928 31.421l-3.792 3.792c-6.121-5.379-15.493-5.165-21.334.676l-87.216 87.216c-12.588 12.588-12.588 33.185 0 45.773s33.185 12.588 45.772 0l87.216-87.216c5.841-5.841 6.055-15.213.676-21.334l3.792-3.792c8.453-8.453 21.146-10.04 31.42-3.928 22.486 13.375 48.752 21.058 76.814 21.058 29.824 0 57.617-8.681 81-23.649l61.41 93.247c1.337 2.035 3.558 3.14 5.824 3.142v.03h86.634c3.866 0 7-3.134 7-7s-3.134-7-7-7zm0-48.143h-71.842c-3.866 0-7 3.134-7 7s3.134 7 7 7h71.842c3.866 0 7-3.134 7-7s-3.134-7-7-7zm-482.106-161.103c0-12.929 10.473-23.446 23.407-23.446 10.497 0 19.403 6.927 22.388 16.448h51.133c3.656-79.858 69.55-143.481 150.31-143.481 75.98 0 138.796 56.315 149.012 129.481h-36.5c-9.86-53.175-56.481-93.445-112.513-93.445-60.855 0-110.606 47.5-114.223 107.446h26.834c2.985-9.518 11.891-16.438 22.387-16.438 12.934 0 23.455 10.507 23.455 23.436 0 4.674-1.381 9.028-3.749 12.689l23.497 28.207c1.896-.782 3.917-1.319 6.023-1.58l15.493-85.13c-7.46-3.923-12.548-11.753-12.548-20.763 0-12.92 10.473-23.441 23.407-23.441s23.455 10.521 23.455 23.441c0 4.906-1.517 9.461-4.104 13.229l24.809 31.451c2.595-.991 5.408-1.539 8.348-1.539 10.457 0 19.356 6.92 22.34 16.438h128.333l-11.583-8.648c-3.137-2.312-3.765-6.694-1.448-9.792 2.317-3.099 6.708-3.74 9.797-1.429l28.523 21.25c1.786 1.332 2.799 3.407 2.799 5.618s-1.013 4.291-2.799 5.613l-28.523 21.259c-1.255.941-2.751 1.39-4.199 1.39-2.124 0-4.247-.98-5.599-2.818-2.316-3.099-1.689-7.481 1.448-9.802l11.583-8.639h-63.451c-1.853 40.42-19.647 76.677-47.249 102.632l-20.209-30.686c18.071-18.957 29.693-44.111 31.374-71.946h-28.799c-2.985 9.515-11.883 16.438-22.338 16.438-12.934 0-23.455-10.516-23.455-23.441 0-4.906 1.518-9.462 4.104-13.228l-24.807-31.448c-1.729.66-3.555 1.12-5.451 1.355l-15.453 85.147c7.457 3.928 12.554 11.75 12.554 20.747 0 12.929-10.521 23.441-23.455 23.441s-23.455-10.511-23.455-23.441c0-4.689 1.389-9.055 3.769-12.722l-23.483-28.187c-2.76 1.144-5.784 1.779-8.954 1.779-10.494 0-19.398-6.923-22.385-16.438h-114.057c-2.987 9.515-11.891 16.438-22.385 16.438-12.934 0-23.407-10.516-23.407-23.441zm243.819 62.571c0-5.208-4.247-9.44-9.459-9.44s-9.459 4.232-9.459 9.44 4.247 9.44 9.459 9.44 9.459-4.228 9.459-9.44zm66.505-72.011c-5.212 0-9.459 4.232-9.459 9.44s4.247 9.44 9.459 9.44c5.164 0 9.411-4.237 9.411-9.44s-4.247-9.44-9.411-9.44zm-61.92-57.137c0 5.207 4.199 9.44 9.411 9.44s9.459-4.233 9.459-9.44-4.247-9.44-9.459-9.44-9.411 4.237-9.411 9.44zm-75.626 66.577c0 5.203 4.247 9.44 9.459 9.44s9.411-4.237 9.411-9.44-4.199-9.44-9.411-9.44-9.459 4.232-9.459 9.44zm-158.781 0c0 5.203 4.199 9.44 9.411 9.44s9.459-4.237 9.459-9.44-4.247-9.45-9.459-9.45-9.411 4.242-9.411 9.45z" fill-rule="evenodd"/></svg>