<svg xmlns="http://www.w3.org/2000/svg" width="28.322" height="15.958" viewBox="0 0 28.322 15.958">
  <path id="android" d="M20.679,123.682a1.179,1.179,0,1,1,1.179-1.18,1.179,1.179,0,0,1-1.179,1.18m-13.035,0a1.179,1.179,0,1,1,1.179-1.18,1.179,1.179,0,0,1-1.179,1.18m13.458-7.1,2.357-4.082A.49.49,0,0,0,22.61,112h0l-2.387,4.134a14.816,14.816,0,0,0-12.124,0L5.713,112a.49.49,0,1,0-.849.49h0l2.357,4.083A13.917,13.917,0,0,0,0,127.717H28.322a13.918,13.918,0,0,0-7.22-11.139" transform="translate(0 -111.759)" fill="#fff"/>
</svg>
