<svg id="Layer_1" enable-background="new 0 0 16 16" viewBox="0 0 16 16" xmlns="http://www.w3.org/2000/svg" width="300" height="300" version="1.1" xmlns:xlink="http://www.w3.org/1999/xlink" xmlns:svgjs="http://svgjs.dev/svgjs"><g transform="matrix(1,0,0,1,0,0)"><g id="Layer_1_1_"><g fill="none" stroke="#000" stroke-linecap="round" stroke-linejoin="round" stroke-miterlimit="10"><path d="m11 14.5h-6c-1.375 0-2.5-1.125-2.5-2.5 0-1.375 1.125-2.5 2.5-2.5h6c1.375 0 2.5 1.125 2.5 2.5 0 1.375-1.125 2.5-2.5 2.5z" fill="none" fill-opacity="1" stroke="#689634" stroke-opacity="1" data-original-stroke-color="#000000ff" stroke-width="1" data-original-stroke-width="1"/><path d="m4.15 7.5h-.65c-1.1 0-2-.9-2-2h3.07" fill="none" fill-opacity="1" stroke="#689634" stroke-opacity="1" data-original-stroke-color="#000000ff" stroke-width="1" data-original-stroke-width="1"/><path d="m11.43 5.5h3.07c0 .55-.22 1.05-.59 1.41-.36.37-.86.59-1.41.59h-.65" fill="none" fill-opacity="1" stroke="#689634" stroke-opacity="1" data-original-stroke-color="#000000ff" stroke-width="1" data-original-stroke-width="1"/><path d="m3.63 9.91 1.37-6.41h6l1.37 6.41" fill="none" fill-opacity="1" stroke="#689634" stroke-opacity="1" data-original-stroke-color="#000000ff" stroke-width="1" data-original-stroke-width="1"/><circle cx="6" cy="12" r=".5" fill="none" fill-opacity="1" stroke="#689634" stroke-opacity="1" data-original-stroke-color="#000000ff" stroke-width="1" data-original-stroke-width="1"/><circle cx="10" cy="12" r=".5" fill="none" fill-opacity="1" stroke="#689634" stroke-opacity="1" data-original-stroke-color="#000000ff" stroke-width="1" data-original-stroke-width="1"/><path d="m5 3.5h-.5c-.552 0-1-.448-1-1v-1" fill="none" fill-opacity="1" stroke="#689634" stroke-opacity="1" data-original-stroke-color="#000000ff" stroke-width="1" data-original-stroke-width="1"/><path d="m11 3.5h.5c.552 0 1-.448 1-1v-1" fill="none" fill-opacity="1" stroke="#689634" stroke-opacity="1" data-original-stroke-color="#000000ff" stroke-width="1" data-original-stroke-width="1"/></g></g><g id="Layer_2"/></g></svg>