<svg xmlns="http://www.w3.org/2000/svg" xmlns:xlink="http://www.w3.org/1999/xlink" width="250" height="66" viewBox="0 0 250 66">
  <defs>
    <linearGradient id="linear-gradient" y1="0.5" x2="1" y2="0.5" gradientUnits="objectBoundingBox">
      <stop offset="0" stop-color="#689634"/>
      <stop offset="0.05" stop-color="#b60710"/>
      <stop offset="0.47" stop-color="#de1f23"/>
      <stop offset="0.8" stop-color="#f62e2f"/>
      <stop offset="1" stop-color="#f33"/>
    </linearGradient>
  </defs>
  <g id="Anitra_Logo" data-name="Anitra Logo" transform="translate(-191.71 -215.014)">
    <path id="Path_349" data-name="Path 349" d="M4718.023,555.253a4.113,4.113,0,0,1-.081.822,3.781,3.781,0,0,1-.245.771,3.586,3.586,0,0,1-.907,1.234,3.719,3.719,0,0,1-.591.423,3.6,3.6,0,0,1-.639.29,4.032,4.032,0,0,1-2.665,0,3.69,3.69,0,0,1-1.229-.713,3.522,3.522,0,0,1-.513-.557,3.6,3.6,0,0,1-.394-.677,3.717,3.717,0,0,1-.245-.771,4.192,4.192,0,0,1,0-1.647,3.829,3.829,0,0,1,.243-.773,3.64,3.64,0,0,1,.4-.676,3.478,3.478,0,0,1,.513-.558,3.658,3.658,0,0,1,.59-.425,3.816,3.816,0,0,1,.639-.289,4.031,4.031,0,0,1,2.667,0,3.753,3.753,0,0,1,.638.289,3.678,3.678,0,0,1,.592.425,3.559,3.559,0,0,1,.513.558,3.615,3.615,0,0,1,.394.676,3.762,3.762,0,0,1,.244.773A4.1,4.1,0,0,1,4718.023,555.253Z" transform="translate(-4366.711 -325.198)" fill="#231f20"/>
    <path id="Path_350" data-name="Path 350" d="M6754.022,862.931a3.113,3.113,0,0,0-.175-.568,2.673,2.673,0,0,0-.229-.428,2.418,2.418,0,0,0-.321-.392,2.591,2.591,0,0,0-.394-.323,2.813,2.813,0,0,0-1-.4,4.253,4.253,0,0,0-1.607,0,2.926,2.926,0,0,0-.568.175,2.573,2.573,0,0,0-.427.229,2.448,2.448,0,0,0-.393.323,2.41,2.41,0,0,0-.321.394,2.6,2.6,0,0,0-.228.427,3,3,0,0,0-.173.565,3.944,3.944,0,0,0-.073.629c-.313-.256-.636-.5-.972-.724a13.748,13.748,0,0,0-2.85-1.464,14.535,14.535,0,0,0-2.173-.629,14.879,14.879,0,0,0-2.242-.3c-.214-.011-.428-.02-.642-.024s-.428,0-.642,0c-.316.007-.632.024-.948.05s-.629.06-.941.1a16.026,16.026,0,0,0-1.812.364,15.462,15.462,0,0,0-1.753.579,14.775,14.775,0,0,0-3.17,1.731,14.405,14.405,0,0,0-2.64,2.454,13.826,13.826,0,0,0-1.087,1.481,14.318,14.318,0,0,0-.89,1.607,15,15,0,0,0-.71,1.777,15.959,15.959,0,0,0-.479,1.854q-.1.492-.16.989t-.1,1q-.036.515-.042,1.034c0,.344,0,.689.018,1.034a16.657,16.657,0,0,0,.209,1.976,16.333,16.333,0,0,0,.448,1.937,15.4,15.4,0,0,0,.651,1.77,14.567,14.567,0,0,0,.865,1.674,14.356,14.356,0,0,0,1.036,1.505,14.715,14.715,0,0,0,2.583,2.55,14.906,14.906,0,0,0,4.847,2.454c.3.088.6.168.908.238s.611.131.919.182a15.6,15.6,0,0,0,1.865.2c.24.014.479.019.72.019s.479,0,.719-.014c.372-.015.743-.046,1.111-.089s.733-.1,1.1-.168.725-.155,1.08-.253.712-.211,1.061-.338.691-.265,1.029-.42a13.58,13.58,0,0,0,1.61-.874,13.93,13.93,0,0,0,1.479-1.081,3.813,3.813,0,0,0,.072.614,2.985,2.985,0,0,0,.173.567,2.54,2.54,0,0,0,.548.823,2.62,2.62,0,0,0,.393.32,2.529,2.529,0,0,0,.427.229,2.89,2.89,0,0,0,.569.175,3.365,3.365,0,0,0,.4.059c.134.012.269.017.4.017s.269-.005.4-.017a3.871,3.871,0,0,0,.4-.058,2.759,2.759,0,0,0,.288-.074,2.448,2.448,0,0,0,.28-.1,2.642,2.642,0,0,0,.429-.23,2.389,2.389,0,0,0,.205-.149c.064-.055.129-.111.188-.168a2.324,2.324,0,0,0,.171-.19,2.21,2.21,0,0,0,.15-.2,2.691,2.691,0,0,0,.23-.428,2.836,2.836,0,0,0,.1-.279c.028-.094.052-.192.072-.289a3.368,3.368,0,0,0,.058-.4,3.837,3.837,0,0,0,.02-.4V863.734A3.993,3.993,0,0,0,6754.022,862.931Zm-5.721,13.638a10.5,10.5,0,0,1-.272,1.647,9.673,9.673,0,0,1-.527,1.567,8.966,8.966,0,0,1-.773,1.432,8.445,8.445,0,0,1-1.023,1.258,8.05,8.05,0,0,1-1.264,1.048,8.371,8.371,0,0,1-1.525.807,9.386,9.386,0,0,1-1.811.527,11.417,11.417,0,0,1-2.124.19,10.037,10.037,0,0,1-1.76-.153,9.184,9.184,0,0,1-1.627-.445,8.889,8.889,0,0,1-1.567-.766,8.4,8.4,0,0,1-1.284-.975,8.7,8.7,0,0,1-1.083-1.206,8.942,8.942,0,0,1-.858-1.428,9.317,9.317,0,0,1-.6-1.642c-.082-.3-.146-.611-.2-.918s-.089-.621-.115-.933c-.028-.333-.038-.666-.038-1s.018-.666.049-1c.029-.309.069-.618.126-.924s.126-.608.209-.907c.078-.279.17-.554.271-.826a8.611,8.611,0,0,1,.351-.794c.122-.247.254-.488.4-.722s.3-.462.471-.681a8.606,8.606,0,0,1,1.1-1.183c.2-.178.409-.348.625-.5s.441-.308.672-.445a8.66,8.66,0,0,1,.821-.433,8.842,8.842,0,0,1,.86-.347c.27-.091.541-.168.816-.238s.554-.122.834-.165q.217-.034.437-.056c.146-.018.292-.027.438-.038s.269-.013.4-.016.271,0,.406,0c.353,0,.706.024,1.057.058s.7.088,1.048.156a9.428,9.428,0,0,1,1.788.546,8.427,8.427,0,0,1,.773.373,8.307,8.307,0,0,1,.732.452c.224.156.441.323.65.5a8.177,8.177,0,0,1,.6.564,8.441,8.441,0,0,1,1.006,1.271c.149.228.286.464.413.7s.243.49.348.739.2.513.287.775.16.529.223.8a10.43,10.43,0,0,1,.254,1.656A10.994,10.994,0,0,1,6748.3,876.569Z" transform="translate(-6312.387 -623.841)" fill="#231f20"/>
    <path id="Path_351" data-name="Path 351" d="M2520.488,863a3.029,3.029,0,0,0-.175-.567,2.648,2.648,0,0,0-.229-.428,2.481,2.481,0,0,0-.714-.714,2.625,2.625,0,0,0-.427-.229,3.165,3.165,0,0,0-.567-.175,4.274,4.274,0,0,0-1.613,0,3.045,3.045,0,0,0-.567.177,2.642,2.642,0,0,0-.427.228,2.557,2.557,0,0,0-.393.323,2.511,2.511,0,0,0-.32.392,2.55,2.55,0,0,0-.229.427,3.031,3.031,0,0,0-.175.567,3.813,3.813,0,0,0-.073.627c-.311-.254-.636-.494-.97-.721a13.231,13.231,0,0,0-1.381-.815,14.152,14.152,0,0,0-1.468-.648,14.658,14.658,0,0,0-2.173-.63,15.306,15.306,0,0,0-2.242-.3c-.214-.01-.428-.02-.642-.024s-.428,0-.643,0q-.474.011-.947.049c-.315.027-.628.06-.941.1a16.141,16.141,0,0,0-1.809.363,15.3,15.3,0,0,0-1.753.578,14.765,14.765,0,0,0-3.168,1.729,14.412,14.412,0,0,0-4.618,5.538,14.977,14.977,0,0,0-.709,1.779,15.511,15.511,0,0,0-.479,1.852q-.1.492-.161.989t-.1,1c-.025.343-.04.688-.042,1.034s0,.689.018,1.034a16.843,16.843,0,0,0,.21,1.977,15.85,15.85,0,0,0,.448,1.937,15.115,15.115,0,0,0,1.515,3.444,14.577,14.577,0,0,0,5.122,5.064,14.779,14.779,0,0,0,1.627.824,15.147,15.147,0,0,0,1.717.622c.3.088.6.168.907.235s.611.131.92.182a15.571,15.571,0,0,0,1.864.2c.239.014.479.019.72.019s.479,0,.72-.014c.37-.015.739-.046,1.109-.088s.733-.1,1.1-.168.724-.155,1.081-.253.71-.211,1.058-.339.691-.265,1.028-.419a13.625,13.625,0,0,0,3.089-1.954,3.9,3.9,0,0,0,.073.616,2.994,2.994,0,0,0,.174.568,2.741,2.741,0,0,0,.229.428,2.55,2.55,0,0,0,1.143.944,2.875,2.875,0,0,0,.567.175,3.918,3.918,0,0,0,.4.059c.134.012.269.017.4.017s.269-.005.4-.017a3.876,3.876,0,0,0,.4-.058,2.835,2.835,0,0,0,.288-.075,2.65,2.65,0,0,0,.28-.1,2.54,2.54,0,0,0,.428-.228c.071-.047.139-.1.206-.151a2.112,2.112,0,0,0,.188-.172,2.268,2.268,0,0,0,.171-.187,2.472,2.472,0,0,0,.151-.208,2.6,2.6,0,0,0,.229-.428,2.686,2.686,0,0,0,.1-.279,2.957,2.957,0,0,0,.074-.289,3.547,3.547,0,0,0,.058-.4c.013-.134.018-.269.018-.4V863.805A3.978,3.978,0,0,0,2520.488,863Zm-5.722,13.636a10.5,10.5,0,0,1-.269,1.649,10.039,10.039,0,0,1-.526,1.565,9.232,9.232,0,0,1-.777,1.433,8.538,8.538,0,0,1-1.02,1.257,8.219,8.219,0,0,1-1.266,1.05,8.459,8.459,0,0,1-1.525.807,9.366,9.366,0,0,1-1.81.527,11.44,11.44,0,0,1-2.125.19,10.015,10.015,0,0,1-1.759-.153,9.317,9.317,0,0,1-1.627-.443,8.876,8.876,0,0,1-1.565-.768,8.489,8.489,0,0,1-1.286-.975,8.653,8.653,0,0,1-1.94-2.635,9.3,9.3,0,0,1-.6-1.641c-.081-.3-.147-.61-.2-.919s-.091-.621-.116-.933q-.04-.5-.037-1c0-.333.017-.666.048-1,.029-.309.07-.618.126-.924s.125-.608.209-.907q.117-.418.271-.824t.348-.795q.185-.37.4-.722a8.213,8.213,0,0,1,.47-.679,8.425,8.425,0,0,1,1.1-1.183,7.71,7.71,0,0,1,.626-.5q.326-.235.67-.445a8.764,8.764,0,0,1,1.684-.779c.269-.091.54-.172.815-.238s.554-.122.833-.165c.145-.022.291-.041.437-.056s.292-.029.437-.037.269-.014.406-.017.269-.005.406,0c.352,0,.706.023,1.057.057a10.388,10.388,0,0,1,1.047.156,9.361,9.361,0,0,1,1.791.547q.4.168.773.373a8.486,8.486,0,0,1,.732.452,7.939,7.939,0,0,1,.651.5,8.208,8.208,0,0,1,.6.564,8.413,8.413,0,0,1,1,1.271q.222.341.412.7t.348.739c.105.251.2.513.288.773s.159.528.223.8a10.543,10.543,0,0,1,.252,1.657A10.7,10.7,0,0,1,2514.766,876.64Z" transform="translate(-2221.286 -623.912)" fill="#231f20"/>
    <path id="Path_352" data-name="Path 352" d="M3657.01,883.053q0-4.467-.008-8.933t-.01-8.933q0-1.508,0-3.011v-3.108a.2.2,0,0,0,0-.024v-.026c0-.017,0-.034,0-.05,0-.034.005-.069.008-.1s.006-.07.01-.1l.014-.1c.005-.036.01-.07.015-.1.012-.067.025-.134.041-.2s.033-.136.054-.2c.005-.019.011-.037.017-.055s.012-.038.019-.056.013-.036.019-.055.014-.036.021-.054c.013-.034.029-.071.044-.106l.049-.1a2.4,2.4,0,0,1,.12-.218c.021-.034.043-.07.067-.1s.048-.067.072-.1.053-.067.08-.1.056-.064.085-.095a2.3,2.3,0,0,1,.185-.178c.063-.055.129-.107.2-.157a2.478,2.478,0,0,1,.212-.136,2.637,2.637,0,0,1,.432-.2,3.186,3.186,0,0,1,.7-.166c.132-.015.265-.025.4-.029.065,0,.131,0,.2,0s.131,0,.2.007a3.448,3.448,0,0,1,.822.141c.074.022.147.048.219.075a2.237,2.237,0,0,1,.212.1c.069.034.146.076.217.119a2.319,2.319,0,0,1,.2.141,2.521,2.521,0,0,1,.373.35,2.192,2.192,0,0,1,.155.2,2.413,2.413,0,0,1,.135.211,2.541,2.541,0,0,1,.163.341,2.888,2.888,0,0,1,.117.356,11.43,11.43,0,0,1,1.022-.69,12.062,12.062,0,0,1,1.429-.731,13.112,13.112,0,0,1,2.256-.73,14.805,14.805,0,0,1,2.324-.333q.293-.018.587-.025l.145,0h.418l.269.009c.09,0,.18.006.269.012s.179.008.269.013.179.013.269.02a16.179,16.179,0,0,1,2.055.292,14.424,14.424,0,0,1,1.929.542,12.834,12.834,0,0,1,1.781.794,11.976,11.976,0,0,1,1.613,1.038,11.566,11.566,0,0,1,2.611,2.778,12.084,12.084,0,0,1,.95,1.705,13.093,13.093,0,0,1,.689,1.89,14.66,14.66,0,0,1,.419,2.053,16.8,16.8,0,0,1,.14,2.2v13.943a4,4,0,0,1-.075.8,3.078,3.078,0,0,1-.176.568,2.686,2.686,0,0,1-.229.428,2.532,2.532,0,0,1-.322.394,2.448,2.448,0,0,1-.395.319,2.563,2.563,0,0,1-.427.23,3.163,3.163,0,0,1-.567.174,3.88,3.88,0,0,1-.4.058c-.134.012-.269.017-.4.017s-.269-.005-.4-.017a3.944,3.944,0,0,1-.4-.059,2.9,2.9,0,0,1-.289-.072,2.768,2.768,0,0,1-.279-.1,2.49,2.49,0,0,1-.427-.23,2.01,2.01,0,0,1-.205-.151c-.067-.054-.129-.111-.189-.168a2.111,2.111,0,0,1-.17-.191,2.262,2.262,0,0,1-.15-.2,2.71,2.71,0,0,1-.227-.428,2.676,2.676,0,0,1-.1-.278,2.925,2.925,0,0,1-.072-.288,3.485,3.485,0,0,1-.058-.4c-.012-.134-.018-.269-.018-.4V869.163a10.964,10.964,0,0,0-.129-1.729,8.314,8.314,0,0,0-.363-1.463,6.6,6.6,0,0,0-.566-1.21,5.863,5.863,0,0,0-.748-.989,5.744,5.744,0,0,0-.934-.795,6.57,6.57,0,0,0-1.135-.613,7.907,7.907,0,0,0-1.353-.427q-.389-.087-.782-.141c-.262-.036-.527-.063-.791-.08-.144-.008-.289-.015-.433-.02s-.289-.005-.433,0-.267,0-.4.01-.267.013-.4.027c-.249.024-.5.058-.742.1a7.437,7.437,0,0,0-.73.17q-.339.1-.668.224c-.219.084-.435.18-.645.285a7.239,7.239,0,0,0-1.149.725q-.266.207-.512.437c-.164.153-.319.316-.468.484s-.292.348-.426.532-.258.375-.375.571a7.823,7.823,0,0,0-.636,1.364c-.083.235-.156.471-.217.713s-.114.482-.155.728-.076.524-.1.787-.033.528-.033.794v13.408a3.925,3.925,0,0,1-.076.807,3.032,3.032,0,0,1-.176.569,2.67,2.67,0,0,1-.23.427,2.51,2.51,0,0,1-.715.712,2.59,2.59,0,0,1-.427.23,3.165,3.165,0,0,1-.567.175,3.842,3.842,0,0,1-.4.058c-.135.012-.269.017-.4.017s-.269-.005-.4-.017a3.833,3.833,0,0,1-.4-.058c-.1-.02-.193-.045-.288-.074a2.616,2.616,0,0,1-.28-.1,2.48,2.48,0,0,1-.427-.228,2.454,2.454,0,0,1-.205-.151,2.37,2.37,0,0,1-.189-.168c-.059-.059-.116-.124-.17-.188a2.281,2.281,0,0,1-.151-.2,2.659,2.659,0,0,1-.229-.428,2.955,2.955,0,0,1-.1-.279c-.028-.094-.054-.192-.074-.289a3.706,3.706,0,0,1-.058-.4A3.819,3.819,0,0,1,3657.01,883.053Z" transform="translate(-3348.697 -619.335)" fill="#231f20"/>
    <path id="Path_353" data-name="Path 353" d="M4736.379,869.866a4.111,4.111,0,0,0-.019-.411,3.457,3.457,0,0,0-.063-.424,2.9,2.9,0,0,0-.182-.569,2.574,2.574,0,0,0-.247-.444,2.433,2.433,0,0,0-.347-.4,2.477,2.477,0,0,0-.419-.319,2.9,2.9,0,0,0-.447-.218,3.272,3.272,0,0,0-.7-.172c-.137-.019-.275-.029-.414-.035l-.2,0c-.065,0-.136,0-.2.006a3.485,3.485,0,0,0-.84.141,2.811,2.811,0,0,0-.45.18,2.49,2.49,0,0,0-.437.278,2.523,2.523,0,0,0-.666.8,2.775,2.775,0,0,0-.188.445c-.021.064-.041.131-.057.2s-.032.132-.044.2-.024.14-.034.209c0,.036-.009.069-.012.1s-.007.07-.01.106c0,.018,0,.036,0,.052l0,.051v.106c0,.061,0,.122,0,.183v19.42c0,.349-.011.7-.025,1.048-.016.425-.036.85-.048,1.275-.011.4-.015.809,0,1.213q.019.641.1,1.277a2.711,2.711,0,0,0,.054.306,2.756,2.756,0,0,0,.086.292,3.112,3.112,0,0,0,.144.35,2.833,2.833,0,0,0,.2.349,3.057,3.057,0,0,0,.242.311c.04.046.082.09.124.132s.087.085.131.126a2.786,2.786,0,0,0,.3.237,2.745,2.745,0,0,0,.345.207,2.547,2.547,0,0,0,.373.154,2.6,2.6,0,0,0,.39.1c.062.012.123.019.185.028s.123.012.186.015.116.007.175.007.116,0,.175,0a3.006,3.006,0,0,0,.748-.119c.065-.02.129-.042.193-.065s.127-.051.188-.08.122-.059.182-.093.116-.067.173-.106.106-.073.157-.114a1.622,1.622,0,0,0,.15-.123c.043-.036.086-.077.127-.117s.083-.082.121-.124a2.51,2.51,0,0,0,.2-.231,3.077,3.077,0,0,0,.184-.265,3,3,0,0,0,.266-.563c.007-.018.014-.036.021-.056s.01-.038.015-.056c.013-.043.025-.086.036-.129.015-.06.029-.121.042-.182.007-.039.016-.078.021-.117,0-.02.007-.043.01-.063s0-.041.008-.061c.01-.085.021-.17.029-.253.016-.161.029-.322.039-.485s.018-.323.023-.482c.009-.3.009-.6,0-.9s-.015-.6-.027-.9c-.006-.161-.013-.324-.019-.487s-.013-.324-.019-.486c-.009-.262-.014-.523-.014-.784Z" transform="translate(-4385.921 -630.072)" fill="#231f20"/>
    <path id="Path_354" data-name="Path 354" d="M5146.378,672.216a8.762,8.762,0,0,1-1.048.311c-.2.047-.408.085-.614.112a4.907,4.907,0,0,1-.538.042h-.162c-.1,0-.19,0-.285-.006-.17-.009-.34-.022-.507-.044a4.169,4.169,0,0,1-.523-.1c-.054-.015-.108-.029-.163-.047s-.109-.035-.16-.056a2.168,2.168,0,0,1-.241-.11,1.947,1.947,0,0,1-.223-.139,1.835,1.835,0,0,1-.17-.144,1.482,1.482,0,0,1-.147-.167,1.847,1.847,0,0,1-.145-.211c-.042-.073-.082-.151-.117-.228-.027-.058-.051-.115-.073-.174s-.043-.118-.062-.178c-.039-.123-.073-.248-.1-.373s-.055-.251-.075-.38c-.051-.311-.083-.625-.1-.94-.025-.365-.034-.735-.034-1.1V653.934h6.215a3.759,3.759,0,0,0,.728-.067,2.757,2.757,0,0,0,.525-.162,2.231,2.231,0,0,0,.4-.213,2.523,2.523,0,0,0,.374-.3,2.522,2.522,0,0,0,.52-.771,2.759,2.759,0,0,0,.164-.525,3.316,3.316,0,0,0,.051-.36q.018-.182.018-.365t-.018-.364a2.794,2.794,0,0,0-.053-.36,2.628,2.628,0,0,0-.162-.524,2.548,2.548,0,0,0-.215-.4,2.313,2.313,0,0,0-.3-.372,2.419,2.419,0,0,0-.37-.3,2.253,2.253,0,0,0-.4-.213,2.725,2.725,0,0,0-.526-.162,3.572,3.572,0,0,0-.729-.07h-6.2q0-.914.007-1.83c0-.608,0-1.22,0-1.828v-.28c0-.095,0-.186,0-.277v-.557a.431.431,0,0,1,0-.05v-.078a.127.127,0,0,1,0-.027.355.355,0,0,0,0-.051.857.857,0,0,0-.007-.1c0-.034-.006-.07-.011-.1s-.009-.072-.014-.1-.011-.07-.017-.105-.013-.067-.02-.1-.016-.067-.023-.1c-.017-.067-.033-.134-.054-.2s-.054-.154-.084-.228-.067-.147-.1-.218a2.547,2.547,0,0,0-.659-.805c-.067-.055-.14-.1-.21-.151s-.147-.091-.225-.13a2.889,2.889,0,0,0-.448-.18c-.067-.022-.14-.041-.208-.058s-.143-.03-.212-.043-.14-.021-.209-.028-.141-.013-.21-.016c-.134-.009-.274-.01-.412-.007-.067,0-.139.007-.208.012s-.139.011-.207.021a3.541,3.541,0,0,0-.356.067,2.764,2.764,0,0,0-.345.107c-.078.028-.155.06-.23.1s-.147.076-.218.117a2.488,2.488,0,0,0-.419.317,2.516,2.516,0,0,0-.185.189,2.555,2.555,0,0,0-.164.209,2.351,2.351,0,0,0-.134.215,2.152,2.152,0,0,0-.115.228,2.982,2.982,0,0,0-.183.565c-.015.071-.029.141-.039.213s-.02.141-.025.212-.012.134-.016.206,0,.137,0,.206q.008,2.342.015,4.682h-2.828a3.532,3.532,0,0,0-.727.07,2.719,2.719,0,0,0-.529.162,2.336,2.336,0,0,0-.4.213,2.519,2.519,0,0,0-.372.3,2.454,2.454,0,0,0-.3.372,2.743,2.743,0,0,0-.214.4,2.774,2.774,0,0,0-.162.524,3.461,3.461,0,0,0-.054.36,3.588,3.588,0,0,0-.016.364c0,.122,0,.243.016.365a3.433,3.433,0,0,0,.053.36,2.831,2.831,0,0,0,.163.526,2.5,2.5,0,0,0,.216.4,2.307,2.307,0,0,0,.678.672,2.221,2.221,0,0,0,.4.213,2.827,2.827,0,0,0,.526.162,3.743,3.743,0,0,0,.726.067h2.843v14.354c0,.632.023,1.264.085,1.894a14.044,14.044,0,0,0,.281,1.779,10.229,10.229,0,0,0,.522,1.654,8.237,8.237,0,0,0,.448.923,7.643,7.643,0,0,0,.46.718,7.416,7.416,0,0,0,.545.662,6.989,6.989,0,0,0,.627.6,6.656,6.656,0,0,0,.706.52,7.005,7.005,0,0,0,.778.439,8.475,8.475,0,0,0,1.2.473,10.692,10.692,0,0,0,1.916.388c.347.037.7.061,1.045.075.087,0,.175,0,.264.006h.4c.046,0,.093,0,.139,0a9.679,9.679,0,0,0,1.1-.1c.206-.027.412-.064.615-.1s.406-.087.608-.139c.178-.046.355-.094.53-.149s.35-.111.524-.17l.26-.093c.086-.031.173-.064.258-.1l.1-.04.1-.042c.034-.015.067-.029.1-.042s.069-.029.1-.044c.088-.039.175-.081.26-.128.044-.024.085-.049.126-.074s.081-.052.122-.081a2.5,2.5,0,0,0,.228-.174,2.731,2.731,0,0,0,.207-.2,2.311,2.311,0,0,0,.187-.22,2.129,2.129,0,0,0,.161-.236,2.533,2.533,0,0,0,.237-.5,2.128,2.128,0,0,0,.075-.25,2.337,2.337,0,0,0,.051-.259,2.767,2.767,0,0,0,.031-.488,3.012,3.012,0,0,0-.639-1.755,3.252,3.252,0,0,0-.323-.349,2.809,2.809,0,0,0-.4-.305,2.654,2.654,0,0,0-.47-.237,2.694,2.694,0,0,0-.533-.147,2.9,2.9,0,0,0-.572-.034,2.855,2.855,0,0,0-.569.085A3.465,3.465,0,0,0,5146.378,672.216Z" transform="translate(-4771.517 -411.421)" fill="#231f20"/>
    <path id="Path_355" data-name="Path 355" d="M5998,862.981a11.923,11.923,0,0,0-2.359-.768,11.528,11.528,0,0,0-2.72-.251,13.45,13.45,0,0,0-1.8.122,12.769,12.769,0,0,0-1.46.278,12.073,12.073,0,0,0-1.8.6,10.8,10.8,0,0,0-1.719.914c-.14.094-.279.191-.417.289a2.776,2.776,0,0,0-.1-.3,2.656,2.656,0,0,0-.136-.284,2.5,2.5,0,0,0-.272-.4,2.422,2.422,0,0,0-.343-.339,2.561,2.561,0,0,0-.384-.255,2.743,2.743,0,0,0-.422-.187,3.171,3.171,0,0,0-.34-.1c-.116-.024-.23-.044-.348-.058s-.25-.021-.376-.024c-.062,0-.125,0-.187,0s-.123,0-.186.007a3.506,3.506,0,0,0-.776.127,2.887,2.887,0,0,0-.428.163,2.523,2.523,0,0,0-.4.238,2.637,2.637,0,0,0-.364.319,2.5,2.5,0,0,0-.294.384,2.7,2.7,0,0,0-.208.407,3.028,3.028,0,0,0-.163.561,3.942,3.942,0,0,0-.067.758v23.852a3.925,3.925,0,0,0,.075.8,2.927,2.927,0,0,0,.174.568,2.536,2.536,0,0,0,.55.82,2.378,2.378,0,0,0,.394.321,2.667,2.667,0,0,0,.428.23,3.13,3.13,0,0,0,.568.174,3.772,3.772,0,0,0,.4.058c.135.012.269.017.4.017s.269-.005.4-.017a3.767,3.767,0,0,0,.4-.058,2.784,2.784,0,0,0,.288-.074,2.486,2.486,0,0,0,.279-.1,2.39,2.39,0,0,0,.426-.228,2.136,2.136,0,0,0,.206-.149c.067-.055.127-.111.188-.168a1.812,1.812,0,0,0,.17-.189,2.428,2.428,0,0,0,.151-.205,2.628,2.628,0,0,0,.229-.427c.037-.09.071-.185.1-.278s.053-.193.073-.288a3.579,3.579,0,0,0,.058-.4c.012-.132.019-.269.019-.4V874.936a7.389,7.389,0,0,1,.139-1.433,7.266,7.266,0,0,1,.4-1.33,7.031,7.031,0,0,1,1.492-2.265,7.161,7.161,0,0,1,1.042-.876,7.044,7.044,0,0,1,1.192-.661,6.783,6.783,0,0,1,.656-.246,6.44,6.44,0,0,1,.678-.181,7.032,7.032,0,0,1,.719-.115c.123-.014.242-.025.364-.031.061,0,.122-.007.181-.01s.121,0,.182,0,.119,0,.177,0l.178.005c.118.007.235.013.353.026.235.022.469.056.7.1.112.022.221.045.333.071s.219.054.328.086.215.065.324.1.214.074.319.115a2.885,2.885,0,0,0,.493.194,2.713,2.713,0,0,0,1.287.058,2.558,2.558,0,0,0,.3-.078,2.388,2.388,0,0,0,.286-.111,2.782,2.782,0,0,0,.484-.28,2.868,2.868,0,0,0,.419-.37,3.141,3.141,0,0,0,.746-1.334,2.854,2.854,0,0,0,.094-.5c.011-.091.014-.18.016-.272s0-.18-.009-.272a3,3,0,0,0-.106-.565,2.841,2.841,0,0,0-.24-.566,2.7,2.7,0,0,0-.888-.935A2.991,2.991,0,0,0,5998,862.981Z" transform="translate(-5593.446 -625.325)" fill="#231f20"/>
    <path id="Path_356" data-name="Path 356" d="M297.815,220.69a11.358,11.358,0,0,0-15.2-4.33c-2.831,1.515-4.2,3.858-5.686,6.426q-2.182,3.776-4.369,7.549-8.748,15.1-17.487,30.194a1.122,1.122,0,0,0,1.449,1.575c6.75-3.146,15.354,1.242,16.373,8.686a1.124,1.124,0,0,0,2.088.4l12.508-21.783c.283-.492.693-.492.975,0q7.788,13.56,15.573,27.12a1.017,1.017,0,0,0,.7.53l15.531,3.917a1.121,1.121,0,0,0,1.393-.986q.67-7.694,1.347-15.381a1.064,1.064,0,0,0-.146-.657q-12.54-21.653-25.076-43.306" transform="translate(-61.086 0)" fill="url(#linear-gradient)"/>
    <path id="Path_357" data-name="Path 357" d="M208.77,1680.85a8.53,8.53,0,1,0-8.529,8.533A8.529,8.529,0,0,0,208.77,1680.85Z" transform="translate(0 -1408.532)" fill="#689634"/>
  </g>
</svg>
