<svg xmlns="http://www.w3.org/2000/svg" version="1.1" xmlns:xlink="http://www.w3.org/1999/xlink" width="512" height="512" x="0" y="0" viewBox="0 0 62 62" style="enable-background:new 0 0 512 512" xml:space="preserve" class=""><g><path d="M12 52H6c-1.103 0-2 .897-2 2v2c0 1.103.897 2 2 2h6c1.103 0 2-.897 2-2v-2c0-1.103-.897-2-2-2zm-6 4v-2h6l.001 2z" fill="#689634" opacity="1" data-original="#000000"></path><path d="M60 32h-6c-1.103 0-2 .897-2 2v4h-6V3c0-1.654-1.346-3-3-3H13c-1.654 0-3 1.346-3 3v33H2c-1.103 0-2 .897-2 2v24h62V34c0-1.103-.897-2-2-2zm-8 8v20h-6V40zM36 60h-6v-8h6zm2-8v-6h6v14h-6zM10 38h6v4.382l-3-1.5-3 1.5zm14 22H2V38h6v7.618l5-2.5 5 2.5V38h6zm0-24H12V3c0-.551.449-1 1-1h30c.551 0 1 .449 1 1v41h-6c-1.103 0-2 .897-2 2v4h-6c-1.103 0-2 .897-2 2v8h-2V38c0-1.103-.897-2-2-2zm36 24h-6V34h6z" fill="#689634" opacity="1" data-original="#000000"></path><path d="M54 21.899V24h2v-2h4v-3c0-2.757-2.243-5-5-5-1.654 0-3-1.346-3-3v-1h3c1.654 0 3 1.346 3 3v1h2v-1a5.01 5.01 0 0 0-4-4.899V6h-2v2h-4v3c0 2.757 2.243 5 5 5 1.654 0 3 1.346 3 3v1h-3c-1.654 0-3-1.346-3-3v-1h-2v1a5.01 5.01 0 0 0 4 4.899zM2 32h2c1.103 0 2-.897 2-2v-2c0-1.103-.897-2-2-2H2c-1.103 0-2 .897-2 2v2c0 1.103.897 2 2 2zm0-4h2l.001 2H2zM2 24h2c1.103 0 2-.897 2-2v-2c0-1.103-.897-2-2-2H2c-1.103 0-2 .897-2 2v2c0 1.103.897 2 2 2zm0-4h2l.001 2H2zM2 16h2c1.103 0 2-.897 2-2v-2c0-1.103-.897-2-2-2H2c-1.103 0-2 .897-2 2v2c0 1.103.897 2 2 2zm0-4h2l.001 2H2zM42 12V6c0-1.103-.897-2-2-2H16c-1.103 0-2 .897-2 2v6c0 1.103.897 2 2 2h24c1.103 0 2-.897 2-2zM16 6h24l.001 6H16zM20 26h-4c-1.103 0-2 .897-2 2v4c0 1.103.897 2 2 2h4c1.103 0 2-.897 2-2v-4c0-1.103-.897-2-2-2zm-4 6v-4h4l.001 4zM20 16h-4c-1.103 0-2 .897-2 2v4c0 1.103.897 2 2 2h4c1.103 0 2-.897 2-2v-4c0-1.103-.897-2-2-2zm-4 6v-4h4l.001 4zM30 34c1.103 0 2-.897 2-2v-4c0-1.103-.897-2-2-2h-4c-1.103 0-2 .897-2 2v4c0 1.103.897 2 2 2zm-4-6h4l.001 4H26zM30 16h-4c-1.103 0-2 .897-2 2v4c0 1.103.897 2 2 2h4c1.103 0 2-.897 2-2v-4c0-1.103-.897-2-2-2zm-4 6v-4h4l.001 4zM40 26h-4c-1.103 0-2 .897-2 2v12c0 1.103.897 2 2 2h4c1.103 0 2-.897 2-2V28c0-1.103-.897-2-2-2zm-4 14V28h4l.001 12zM40 16h-4c-1.103 0-2 .897-2 2v4c0 1.103.897 2 2 2h4c1.103 0 2-.897 2-2v-4c0-1.103-.897-2-2-2zm-4 6v-4h4l.001 4z" fill="#689634" opacity="1" data-original="#000000"></path></g></svg>