<svg id="cib:linkedin" xmlns="http://www.w3.org/2000/svg" width="15.689" height="15.69" viewBox="0 0 15.689 15.69">
  <path id="Vector" d="M13.365,13.371H11.045V9.729c0-.868-.018-1.984-1.213-1.984s-1.394.942-1.394,1.92V13.37H6.113V5.883H8.345V6.9h.03a2.446,2.446,0,0,1,2.2-1.21c2.354,0,2.791,1.55,2.791,3.565V13.37ZM3.488,4.86a1.35,1.35,0,1,1,.75-.227,1.348,1.348,0,0,1-.75.227Zm1.164,8.511H2.324V5.884H4.652ZM14.53,0H1.157A1.144,1.144,0,0,0,0,1.131V14.559A1.144,1.144,0,0,0,1.157,15.69H14.528a1.148,1.148,0,0,0,1.162-1.131V1.131A1.148,1.148,0,0,0,14.528,0Z" transform="translate(0 0)" fill="#fff"/>
</svg>
