<svg xmlns="http://www.w3.org/2000/svg" version="1.1" xmlns:xlink="http://www.w3.org/1999/xlink" width="512" height="512" x="0" y="0" viewBox="0 0 682.667 682.667" style="enable-background:new 0 0 512 512" xml:space="preserve"><g><defs><clipPath id="a" clipPathUnits="userSpaceOnUse"><path d="M0 512h512V0H0Z" fill="#689634" opacity="1" data-original="#000000"></path></clipPath></defs><g clip-path="url(#a)" transform="matrix(1.33333 0 0 -1.33333 0 682.667)"><path d="M0 0a7.586 7.586 0 1 0-15.172 0A7.586 7.586 0 0 0 0 0" style="fill-opacity:1;fill-rule:nonzero;stroke:none" transform="translate(183.3 79.589)" fill="#689634" data-original="#000000" opacity="1"></path><path d="M0 0a7.586 7.586 0 1 0-15.172 0A7.586 7.586 0 0 0 0 0" style="fill-opacity:1;fill-rule:nonzero;stroke:none" transform="translate(343.87 79.589)" fill="#689634" data-original="#000000" opacity="1"></path><path d="M0 0h-66.26a3.12 3.12 0 0 1-3.121-3.122c0-17.321 14.042-31.364 31.364-31.364h238.875c17.322 0 31.364 14.043 31.364 31.364A3.12 3.12 0 0 1 229.101 0H34.964" style="stroke-width:15;stroke-linecap:round;stroke-linejoin:round;stroke-miterlimit:10;stroke-dasharray:none;stroke-opacity:1" transform="translate(174.58 411.546)" fill="none" stroke="#689634" stroke-width="15" stroke-linecap="round" stroke-linejoin="round" stroke-miterlimit="10" stroke-dasharray="none" stroke-opacity="" data-original="#000000" opacity="1"></path><path d="m0 0-6.873 49.933c-3.907 28.383-30.898 47.625-59.005 42.062a202.157 202.157 0 0 0-78.506 0c-28.106 5.563-55.098-13.679-59.005-42.062L-210.262 0" style="stroke-width:15;stroke-linecap:round;stroke-linejoin:round;stroke-miterlimit:10;stroke-dasharray:none;stroke-opacity:1" transform="translate(361.13 411.546)" fill="none" stroke="#689634" stroke-width="15" stroke-linecap="round" stroke-linejoin="round" stroke-miterlimit="10" stroke-dasharray="none" stroke-opacity="" data-original="#000000" opacity="1"></path><path d="M0 0c-5.184-2.691-8.73-8.099-8.73-14.343v-8.937c0-8.927 7.236-16.163 16.163-16.163h6.113c.504-23.459 10.362-46.038 28.171-61.373 14.338-12.345 34.491-23.122 61.114-23.418 26.623.296 46.777 11.073 61.114 23.418 17.809 15.335 27.667 37.914 28.171 61.373h6.113c8.927 0 16.164 7.236 16.164 16.163v8.937c0 6.244-3.547 11.652-8.731 14.343" style="stroke-width:15;stroke-linecap:round;stroke-linejoin:round;stroke-miterlimit:10;stroke-dasharray:none;stroke-opacity:1" transform="translate(153.169 345.566)" fill="none" stroke="#689634" stroke-width="15" stroke-linecap="round" stroke-linejoin="round" stroke-miterlimit="10" stroke-dasharray="none" stroke-opacity="" data-original="#000000" opacity="1"></path><path d="M0 0v-37.788c0-2.572 3.107-3.894 4.936-2.085 8.778 8.688 22.439 8.379 22.439 8.379V0" style="stroke-width:15;stroke-linecap:round;stroke-linejoin:round;stroke-miterlimit:10;stroke-dasharray:none;stroke-opacity:1" transform="translate(331.477 377.06)" fill="none" stroke="#689634" stroke-width="15" stroke-linecap="round" stroke-linejoin="round" stroke-miterlimit="10" stroke-dasharray="none" stroke-opacity="" data-original="#000000" opacity="1"></path><path d="M0 0v-31.494s13.661.309 22.439-8.379c1.829-1.809 4.936-.487 4.936 2.085V0" style="stroke-width:15;stroke-linecap:round;stroke-linejoin:round;stroke-miterlimit:10;stroke-dasharray:none;stroke-opacity:1" transform="translate(153.149 377.06)" fill="none" stroke="#689634" stroke-width="15" stroke-linecap="round" stroke-linejoin="round" stroke-miterlimit="10" stroke-dasharray="none" stroke-opacity="" data-original="#000000" opacity="1"></path><path d="M0 0v-16.894c0-5.36-2.111-11.126-5.609-15.511h.005" style="stroke-width:15;stroke-linecap:round;stroke-linejoin:round;stroke-miterlimit:10;stroke-dasharray:none;stroke-opacity:1" transform="translate(210.32 233.755)" fill="none" stroke="#689634" stroke-width="15" stroke-linecap="round" stroke-linejoin="round" stroke-miterlimit="10" stroke-dasharray="none" stroke-opacity="" data-original="#000000" opacity="1"></path><path d="M0 0h.004c-3.498 4.386-5.608 10.151-5.608 15.512v16.893" style="stroke-width:15;stroke-linecap:round;stroke-linejoin:round;stroke-miterlimit:10;stroke-dasharray:none;stroke-opacity:1" transform="translate(307.284 201.35)" fill="none" stroke="#689634" stroke-width="15" stroke-linecap="round" stroke-linejoin="round" stroke-miterlimit="10" stroke-dasharray="none" stroke-opacity="" data-original="#000000" opacity="1"></path><path d="M0 0v35.972a46.977 46.977 0 0 1-12.313 31.706c-6.559 7.172-9.629 15.308-11.063 21.674-1.463 6.493-7.325 11.046-13.981 11.046h-203.929c-6.786 0-12.713-4.668-14.201-11.289-1.393-6.203-4.455-14.102-11.159-21.431a46.981 46.981 0 0 1-12.312-31.706V0" style="stroke-width:15;stroke-linecap:round;stroke-linejoin:round;stroke-miterlimit:10;stroke-dasharray:none;stroke-opacity:1" transform="translate(395.479 7.5)" fill="none" stroke="#689634" stroke-width="15" stroke-linecap="round" stroke-linejoin="round" stroke-miterlimit="10" stroke-dasharray="none" stroke-opacity="" data-original="#000000" opacity="1"></path><path d="m0 0-20.478-3.556c-34.932-10.285-58.918-42.35-58.918-78.766v-83.238c0-9.528 7.725-17.252 17.252-17.252h353.996c9.527 0 17.252 7.724 17.252 17.252v83.238c0 36.416-23.986 68.481-58.918 78.766L229.708 0" style="stroke-width:15;stroke-linecap:round;stroke-linejoin:round;stroke-miterlimit:10;stroke-dasharray:none;stroke-opacity:1" transform="translate(141.146 190.311)" fill="none" stroke="#689634" stroke-width="15" stroke-linecap="round" stroke-linejoin="round" stroke-miterlimit="10" stroke-dasharray="none" stroke-opacity="" data-original="#000000" opacity="1"></path><path d="M0 0v27.64a6.844 6.844 0 0 1-5.672 6.743l-20.883 3.626c-4.185.726-8.014-2.495-8.014-6.742v-88.551" style="stroke-width:15;stroke-linecap:round;stroke-linejoin:round;stroke-miterlimit:10;stroke-dasharray:none;stroke-opacity:1" transform="translate(370.854 165.183)" fill="none" stroke="#689634" stroke-width="15" stroke-linecap="round" stroke-linejoin="round" stroke-miterlimit="10" stroke-dasharray="none" stroke-opacity="" data-original="#000000" opacity="1"></path><path d="M0 0v29.967" style="stroke-width:15;stroke-linecap:round;stroke-linejoin:round;stroke-miterlimit:10;stroke-dasharray:none;stroke-opacity:1" transform="translate(370.854 100.251)" fill="none" stroke="#689634" stroke-width="15" stroke-linecap="round" stroke-linejoin="round" stroke-miterlimit="10" stroke-dasharray="none" stroke-opacity="" data-original="#000000" opacity="1"></path><path d="M0 0v88.551c0 4.247-3.829 7.469-8.014 6.742l-20.883-3.626a6.844 6.844 0 0 1-5.672-6.743V-8.062" style="stroke-width:15;stroke-linecap:round;stroke-linejoin:round;stroke-miterlimit:10;stroke-dasharray:none;stroke-opacity:1" transform="translate(175.715 107.898)" fill="none" stroke="#689634" stroke-width="15" stroke-linecap="round" stroke-linejoin="round" stroke-miterlimit="10" stroke-dasharray="none" stroke-opacity="" data-original="#000000" opacity="1"></path><path d="m0 0 23.026-5.534A32.67 32.67 0 0 1 57.979 8.312l22.306 33.996-29.001 4.902ZM0 0l-23.026-5.534A32.67 32.67 0 0 0-57.979 8.312l-22.306 33.996 29.001 4.902z" style="stroke-width:15;stroke-linecap:round;stroke-linejoin:round;stroke-miterlimit:10;stroke-dasharray:none;stroke-opacity:1" transform="translate(256 154.14)" fill="none" stroke="#689634" stroke-width="15" stroke-linecap="round" stroke-linejoin="round" stroke-miterlimit="10" stroke-dasharray="none" stroke-opacity="" data-original="#000000" opacity="1"></path></g></g></svg>