<svg width="78" height="78" viewBox="0 0 78 78" fill="none" xmlns="http://www.w3.org/2000/svg">
<path d="M61.4431 10.2799C61.8439 10.2799 62.2368 10.1171 62.5202 9.83355C62.8036 9.55004 62.9666 9.15714 62.9666 8.75648C62.9666 8.35429 62.8037 7.96276 62.5202 7.67955C62.2368 7.39619 61.8439 7.23303 61.4431 7.23303C61.0425 7.23303 60.6494 7.39604 60.3662 7.67955C60.0828 7.96276 59.9197 8.35581 59.9197 8.75648C59.9197 9.15714 60.0827 9.55019 60.3662 9.83355C60.6494 10.1171 61.0425 10.2799 61.4431 10.2799Z" fill="#689634"/>
<path d="M77.9625 31.094C76.3545 23.989 72.8137 17.4501 67.7227 12.1843C67.1378 11.5794 66.1733 11.5632 65.5684 12.1481C64.9636 12.7329 64.9473 13.6974 65.5321 14.3024C69.2094 18.1058 72.0107 22.6266 73.7677 27.5539C70.8116 25.8715 67.4548 24.9735 63.986 24.9735C59.9476 24.9735 56.0621 26.1905 52.7832 28.444C52.0297 21.0273 50.5156 14.333 48.4554 9.38485C47.3922 6.83111 46.2784 4.9425 45.1724 3.55678C48.5301 4.11999 51.7812 5.14816 54.8898 6.63382C55.6483 6.9964 56.5584 6.67526 56.9212 5.91613C57.284 5.15715 56.9626 4.2475 56.2035 3.88477C50.81 1.30711 45.022 0 39 0C34.3493 0 29.792 0.792494 25.4551 2.35539C21.2643 3.86573 17.3754 6.05811 13.8968 8.8716C6.92687 14.5088 2.00509 22.4008 0.0377238 31.094C-0.11005 31.7465 0.185345 32.4191 0.765776 32.752C1.34636 33.0847 2.07593 32.9997 2.5645 32.5427C5.68085 29.6262 9.74707 28.0202 14.0142 28.0202C18.2831 28.0202 22.35 29.6262 25.4662 32.5427C26.0521 33.0908 26.9622 33.0908 27.5482 32.5427C30.2913 29.9755 33.7713 28.4244 37.4767 28.0895V40.6116C34.7492 39.1936 31.6526 38.3907 28.3719 38.3907C17.4514 38.3907 8.56716 47.2749 8.56716 58.1954C8.56716 69.1159 17.4514 78.0002 28.3719 78.0002H60.6329C61.4741 78.0002 62.1563 77.318 62.1563 76.4767L62.1565 49.969C62.1565 49.1278 61.4743 48.4456 60.633 48.4456H45.6049C44.311 46.1676 42.5789 44.1697 40.5235 42.5678V28.0893C44.2289 28.4242 47.7089 29.9754 50.452 32.5425C51.0379 33.0907 51.948 33.0907 52.534 32.5425C55.6502 29.626 59.7171 28.02 63.986 28.02C68.2531 28.02 72.3193 29.626 75.4357 32.5425C75.7251 32.8134 76.0993 32.9535 76.4771 32.9535C76.7367 32.9535 76.998 32.8873 77.2344 32.7518C77.815 32.4191 78.1102 31.7465 77.9625 31.094ZM59.1094 74.9533H38.9147C41.277 73.4618 43.3034 71.4853 44.8534 69.1642H59.1094V74.9533ZM48.0614 60.3284H59.1094V66.1173H46.5212C47.3125 64.3114 47.8422 62.3658 48.0614 60.3284ZM59.1096 51.4924V57.2815H48.1547C48.0624 55.2585 47.6652 53.314 47.008 51.4924H59.1096ZM45.1297 58.1954C45.1297 67.4357 37.6122 74.9533 28.3719 74.9533C19.1316 74.9533 11.614 67.4357 11.614 58.1954C11.614 48.9552 19.1316 41.4376 28.3719 41.4376C37.6122 41.4376 45.1297 48.9552 45.1297 58.1954ZM25.217 28.4439C21.9381 26.1904 18.0526 24.9733 14.0142 24.9733C10.5406 24.9733 7.18007 25.8735 4.22109 27.5603C8.69513 14.8647 19.6342 5.74444 32.8293 3.5548C31.7228 4.94067 30.6086 6.82974 29.5448 9.3847C27.4845 14.3328 25.9705 21.0271 25.217 28.4439ZM39 24.9733C35.1727 24.9733 31.4828 26.0668 28.3161 28.0994C29.0588 21.2389 30.4678 15.0946 32.3575 10.5558C34.3444 5.78374 36.7656 3.04688 39 3.04688C41.2346 3.04688 43.6558 5.78374 45.6427 10.5558C47.5324 15.0946 48.9412 21.2389 49.6841 28.0994C46.5174 26.0668 42.8275 24.9733 39 24.9733Z" fill="#689634"/>
<path d="M35.5105 54.2937H32.6059C32.4039 53.1207 31.8797 52.025 31.0848 51.1398H35.502C36.0906 51.1398 36.5719 50.6629 36.5719 50.0699C36.5719 49.477 36.0949 49 35.502 49H22.0699C21.4813 49 21.0043 49.477 21.0043 50.0699C21.0043 50.6586 21.4812 51.1398 22.0742 51.1398H26.3324C28.2531 51.1441 29.9332 52.4375 30.423 54.2937H23.4965C22.9078 54.2937 22.4266 54.7707 22.4266 55.3637C22.4266 55.9523 22.9035 56.4336 23.4965 56.4336H30.423C29.9375 58.2941 28.2574 59.5961 26.3324 59.5961H22.0699C21.4813 59.5961 21 60.073 21 60.6617C21 60.9324 21.1031 61.1902 21.2879 61.3879L29.8988 70.6562C30.2941 71.0945 30.973 71.1246 31.407 70.7293C31.8453 70.334 31.8754 69.6551 31.4801 69.2211C31.4758 69.2168 31.4672 69.2082 31.4629 69.2039L24.5234 61.7316H26.3281C29.4734 61.7316 32.0945 59.4371 32.6059 56.4293H35.5105C36.0992 56.4293 36.5805 55.9523 36.5805 55.3594C36.5762 54.7707 36.0992 54.2937 35.5105 54.2937Z" fill="#689634"/>
</svg>
