<svg xmlns="http://www.w3.org/2000/svg" xmlns:xlink="http://www.w3.org/1999/xlink" width="148.765" height="160.006" viewBox="0 0 148.765 160.006">
  <defs>
    <linearGradient id="linear-gradient" y1="0.5" x2="1" y2="0.5" gradientUnits="objectBoundingBox">
      <stop offset="0" stop-color="#689634"/>
      <stop offset="0.05" stop-color="#b60710"/>
      <stop offset="0.47" stop-color="#de1f23"/>
      <stop offset="0.8" stop-color="#f62e2f"/>
      <stop offset="1" stop-color="#f33"/>
    </linearGradient>
  </defs>
  <g id="Group_426" data-name="Group 426" transform="translate(-7.187 0.006)">
    <g id="Group_425" data-name="Group 425">
      <path id="Path_358" data-name="Path 358" d="M1247.544,1782.353a3.53,3.53,0,0,1-.069.709,3.332,3.332,0,0,1-.211.665,3.1,3.1,0,0,1-.782,1.064,3.164,3.164,0,0,1-.51.364,3.122,3.122,0,0,1-.55.252,3.472,3.472,0,0,1-2.3,0,3.193,3.193,0,0,1-1.06-.615,3.053,3.053,0,0,1-.782-1.064,3.2,3.2,0,0,1-.211-.665,3.608,3.608,0,0,1,0-1.421,3.235,3.235,0,0,1,.21-.665,3.121,3.121,0,0,1,.34-.583,2.946,2.946,0,0,1,.442-.48,3.113,3.113,0,0,1,.509-.367,3.3,3.3,0,0,1,.55-.252,3.475,3.475,0,0,1,2.3,0,3.253,3.253,0,0,1,.55.252,3.113,3.113,0,0,1,.51.367,3.05,3.05,0,0,1,.442.48,3.16,3.16,0,0,1,.339.583,3.23,3.23,0,0,1,.211.665A3.528,3.528,0,0,1,1247.544,1782.353Z" transform="translate(-1169.471 -1674.419)" fill="#fff"/>
      <path id="Path_359" data-name="Path 359" d="M2191.532,1923.175a2.591,2.591,0,0,0-.151-.49,2.286,2.286,0,0,0-.2-.369,2.076,2.076,0,0,0-.277-.338,2.252,2.252,0,0,0-.34-.278,2.407,2.407,0,0,0-.369-.2,2.457,2.457,0,0,0-.489-.15,3.686,3.686,0,0,0-1.388,0,2.514,2.514,0,0,0-.491.152,2.214,2.214,0,0,0-.368.2,2.1,2.1,0,0,0-.338.278,2.027,2.027,0,0,0-.276.34,2.181,2.181,0,0,0-.2.368,2.487,2.487,0,0,0-.149.487,3.313,3.313,0,0,0-.063.542c-.27-.221-.549-.429-.839-.624a11.828,11.828,0,0,0-2.457-1.262,12.462,12.462,0,0,0-1.874-.542,12.829,12.829,0,0,0-1.934-.256c-.184-.01-.368-.018-.554-.02s-.369,0-.554,0q-.409.009-.817.043c-.271.022-.542.051-.811.089a13.66,13.66,0,0,0-1.562.316,13.207,13.207,0,0,0-1.515.5,12.75,12.75,0,0,0-2.734,1.493,12.439,12.439,0,0,0-2.276,2.114,12.142,12.142,0,0,0-.937,1.278,12.408,12.408,0,0,0-.768,1.385,12.952,12.952,0,0,0-.612,1.532,13.876,13.876,0,0,0-.414,1.6q-.083.424-.137.853t-.088.86c-.021.3-.033.593-.036.891s0,.594.016.892a14.5,14.5,0,0,0,.18,1.7,14.152,14.152,0,0,0,.386,1.67,13.146,13.146,0,0,0,.562,1.527,12.529,12.529,0,0,0,.747,1.443,12.316,12.316,0,0,0,.894,1.3,12.731,12.731,0,0,0,2.227,2.2,12.834,12.834,0,0,0,4.179,2.117c.26.076.52.145.783.205s.527.113.792.156a13.363,13.363,0,0,0,1.609.17c.206.013.413.017.621.017s.413,0,.619-.013c.321-.012.641-.039.958-.076s.631-.085.947-.145.625-.133.931-.218.614-.182.915-.292.6-.229.888-.362a11.8,11.8,0,0,0,1.389-.753,12.084,12.084,0,0,0,1.276-.932,3.246,3.246,0,0,0,.063.53,2.6,2.6,0,0,0,.149.489,2.218,2.218,0,0,0,.2.369,2.16,2.16,0,0,0,.276.34,2.241,2.241,0,0,0,.706.475,2.5,2.5,0,0,0,.491.151,2.963,2.963,0,0,0,.344.052c.116.01.232.015.349.015s.231,0,.349-.015a2.948,2.948,0,0,0,.344-.05,2.368,2.368,0,0,0,.247-.063,1.963,1.963,0,0,0,.242-.086,2.2,2.2,0,0,0,.369-.2,1.916,1.916,0,0,0,.177-.126c.055-.047.111-.1.161-.146a2.216,2.216,0,0,0,.279-.34,2.376,2.376,0,0,0,.2-.369,2.476,2.476,0,0,0,.089-.241c.025-.082.045-.165.063-.249a2.951,2.951,0,0,0,.05-.346,3.168,3.168,0,0,0,.017-.347v-20.545A3.393,3.393,0,0,0,2191.532,1923.175Zm-4.933,11.759a9.021,9.021,0,0,1-.235,1.421,8.162,8.162,0,0,1-.454,1.35,7.724,7.724,0,0,1-.668,1.235,7.322,7.322,0,0,1-.884,1.085,6.978,6.978,0,0,1-1.09.9,7.231,7.231,0,0,1-1.315.694,8.059,8.059,0,0,1-1.562.454,9.852,9.852,0,0,1-1.83.164,8.587,8.587,0,0,1-1.515-.133,7.861,7.861,0,0,1-1.4-.384,7.634,7.634,0,0,1-1.351-.661,7.228,7.228,0,0,1-1.107-.842,7.479,7.479,0,0,1-.935-1.04,7.633,7.633,0,0,1-.74-1.231,7.983,7.983,0,0,1-.52-1.416c-.071-.261-.126-.527-.174-.791s-.076-.536-.1-.8c-.023-.287-.032-.574-.032-.861s.016-.574.042-.858c.025-.267.06-.533.109-.8s.108-.525.18-.783q.1-.36.235-.711a7.077,7.077,0,0,1,.3-.685q.157-.32.345-.622t.4-.587a7.408,7.408,0,0,1,.947-1.02c.172-.153.353-.3.539-.436s.379-.266.579-.384a7.861,7.861,0,0,1,1.452-.672q.348-.118.7-.206c.237-.058.478-.1.719-.142.126-.019.252-.035.379-.048s.253-.023.379-.032.232-.011.349-.014.234,0,.35,0c.3,0,.608.021.91.05s.605.076.9.135a8.131,8.131,0,0,1,1.543.471c.227.1.451.2.668.323a6.949,6.949,0,0,1,.631.39c.193.135.379.278.561.43a6.114,6.114,0,0,1,.516.487,7.284,7.284,0,0,1,.866,1.1c.126.2.246.4.356.606s.209.423.3.639.175.442.248.668.138.456.189.687a9.106,9.106,0,0,1,.219,1.428,9.341,9.341,0,0,1-.012,1.443Z" transform="translate(-2035.645 -1807.376)" fill="#fff"/>
      <path id="Path_360" data-name="Path 360" d="M247.452,1923.181a2.662,2.662,0,0,0-.151-.489,2.365,2.365,0,0,0-.2-.369,2.278,2.278,0,0,0-.277-.34,2.263,2.263,0,0,0-.707-.473,2.769,2.769,0,0,0-.49-.151,3.709,3.709,0,0,0-1.388,0,2.66,2.66,0,0,0-.489.153,2.308,2.308,0,0,0-.368.2,2.209,2.209,0,0,0-.339.278,2.112,2.112,0,0,0-.276.338,2.247,2.247,0,0,0-.2.368,2.66,2.66,0,0,0-.151.489,3.308,3.308,0,0,0-.063.541c-.268-.22-.548-.426-.836-.621a11.3,11.3,0,0,0-1.191-.7,12.122,12.122,0,0,0-1.266-.558,12.623,12.623,0,0,0-1.874-.543,13.189,13.189,0,0,0-1.934-.257c-.185-.008-.369-.017-.554-.02s-.369,0-.554,0q-.408.01-.816.042c-.271.023-.542.052-.812.089a14.032,14.032,0,0,0-1.561.315,13.2,13.2,0,0,0-1.515.5,12.724,12.724,0,0,0-2.728,1.493,12.4,12.4,0,0,0-3.986,4.775,13,13,0,0,0-.612,1.534,13.347,13.347,0,0,0-.413,1.6q-.083.424-.139.853c-.038.286-.068.573-.087.86s-.033.593-.036.891,0,.594.015.892a14.45,14.45,0,0,0,.181,1.7,13.614,13.614,0,0,0,.386,1.67,13.033,13.033,0,0,0,1.307,2.966,12.479,12.479,0,0,0,1.944,2.473,12.666,12.666,0,0,0,3.875,2.6,13.011,13.011,0,0,0,1.481.536c.257.076.519.144.781.2s.528.113.793.156a13.347,13.347,0,0,0,1.607.17c.206.012.413.017.62.017s.413,0,.621-.013c.32-.013.639-.039.958-.076s.631-.085.947-.145.624-.133.932-.218.612-.182.913-.292.6-.229.883-.362a11.746,11.746,0,0,0,2.664-1.685,3.349,3.349,0,0,0,.063.532,2.582,2.582,0,0,0,.15.49,2.4,2.4,0,0,0,.2.369,2.18,2.18,0,0,0,.277.34,2.215,2.215,0,0,0,.339.277,2.148,2.148,0,0,0,.37.2,2.475,2.475,0,0,0,.489.152,3.347,3.347,0,0,0,.345.051c.116.011.232.015.348.015s.232,0,.348-.015a3.36,3.36,0,0,0,.345-.05,2.629,2.629,0,0,0,.489-.153,2.154,2.154,0,0,0,.369-.2c.063-.041.121-.085.177-.13a1.776,1.776,0,0,0,.163-.148,1.974,1.974,0,0,0,.147-.161c.046-.059.09-.117.131-.179a2.255,2.255,0,0,0,.2-.369,2.3,2.3,0,0,0,.087-.241,2.468,2.468,0,0,0,.063-.249,3.169,3.169,0,0,0,.05-.344c.011-.115.015-.232.015-.348v-20.535A3.432,3.432,0,0,0,247.452,1923.181Zm-4.934,11.758a8.948,8.948,0,0,1-.233,1.422,8.576,8.576,0,0,1-.454,1.349,7.892,7.892,0,0,1-.67,1.236,7.352,7.352,0,0,1-.88,1.084,7.083,7.083,0,0,1-1.091.906,7.318,7.318,0,0,1-1.315.694,8.04,8.04,0,0,1-1.561.454,9.853,9.853,0,0,1-1.83.164,8.607,8.607,0,0,1-1.515-.132,8.013,8.013,0,0,1-1.4-.379,7.659,7.659,0,0,1-1.35-.663,7.285,7.285,0,0,1-2.045-1.884,7.512,7.512,0,0,1-.739-1.23,8.1,8.1,0,0,1-.521-1.415c-.069-.261-.126-.526-.171-.792s-.078-.535-.1-.8q-.034-.431-.032-.861c0-.287.015-.575.041-.859.025-.267.063-.533.109-.8a7.938,7.938,0,0,1,.18-.783q.1-.36.234-.71t.3-.685q.16-.319.348-.622a7.056,7.056,0,0,1,.4-.586,7.25,7.25,0,0,1,.947-1.021c.172-.153.353-.3.54-.436s.379-.264.577-.384q.345-.2.709-.374c.242-.111.491-.21.743-.3.231-.079.465-.148.7-.205s.478-.106.718-.142q.189-.03.379-.049t.379-.032c.117-.008.233-.012.35-.014s.233,0,.35,0c.3,0,.608.02.911.05a9.047,9.047,0,0,1,.9.134,8.106,8.106,0,0,1,1.544.472c.228.1.451.2.668.322a7.343,7.343,0,0,1,.631.39,6.79,6.79,0,0,1,.562.43q.27.23.516.487a7.263,7.263,0,0,1,.866,1.1q.189.295.355.607t.3.637c.092.218.175.442.248.667s.138.456.189.688a8.929,8.929,0,0,1,.218,1.428A9.094,9.094,0,0,1,242.518,1934.939Z" transform="translate(-214.26 -1807.381)" fill="#fff"/>
      <path id="Path_361" data-name="Path 361" d="M757.276,1942.411q0-3.853-.008-7.7t-.008-7.7v-5.3a.15.15,0,0,0,0-.022v-.043c0-.028,0-.063.006-.089s.005-.063.008-.09.008-.06.011-.089.009-.063.013-.09c.011-.059.022-.117.035-.176s.028-.116.046-.174c0-.016.009-.031.015-.047s.011-.032.016-.048l.016-.047.018-.047c.012-.03.025-.063.039-.091s.028-.063.042-.09a2.064,2.064,0,0,1,.1-.189c.018-.029.037-.063.057-.089s.041-.057.063-.087.045-.059.069-.086.049-.056.073-.082a2.025,2.025,0,0,1,.159-.154c.054-.047.112-.092.17-.135s.121-.081.183-.117a2.214,2.214,0,0,1,.372-.169,2.755,2.755,0,0,1,.6-.143c.114-.013.229-.022.344-.025h.17a1.69,1.69,0,0,1,.169.006,3,3,0,0,1,.709.122c.063.019.126.042.189.063a1.353,1.353,0,0,1,.183.083c.057.03.126.063.189.1s.119.079.176.122a2.137,2.137,0,0,1,.322.3,1.892,1.892,0,0,1,.134.172,2.09,2.09,0,0,1,.116.182,2.19,2.19,0,0,1,.14.293,2.443,2.443,0,0,1,.1.307,9.984,9.984,0,0,1,.883-.595,10.288,10.288,0,0,1,1.233-.631,11.283,11.283,0,0,1,1.944-.631,12.759,12.759,0,0,1,2-.287c.169-.011.338-.018.5-.022h.489l.232.008c.077,0,.155,0,.232.01s.154.007.231.011.155.011.232.017a13.906,13.906,0,0,1,1.773.253,12.433,12.433,0,0,1,1.664.468,11.142,11.142,0,0,1,1.537.684,10.059,10.059,0,0,1,3.642,3.291,10.392,10.392,0,0,1,.82,1.471,11.239,11.239,0,0,1,.594,1.629,12.683,12.683,0,0,1,.362,1.767,14.558,14.558,0,0,1,.121,1.9v12.023a3.409,3.409,0,0,1-.063.694,2.682,2.682,0,0,1-.151.49,2.369,2.369,0,0,1-.2.369,2.213,2.213,0,0,1-.278.34,2.1,2.1,0,0,1-.34.275,2.154,2.154,0,0,1-.369.2,2.72,2.72,0,0,1-.489.151,3.37,3.37,0,0,1-.345.05,3.316,3.316,0,0,1-.348.015c-.116,0-.232,0-.348-.015a2.934,2.934,0,0,1-.345-.052,2.435,2.435,0,0,1-.49-.151,2.173,2.173,0,0,1-.369-.2,1.771,1.771,0,0,1-.177-.13c-.057-.047-.112-.1-.163-.147a2.073,2.073,0,0,1-.147-.164,1.966,1.966,0,0,1-.126-.175,2.317,2.317,0,0,1-.2-.37,2.16,2.16,0,0,1-.087-.24,2.486,2.486,0,0,1-.063-.249,3.047,3.047,0,0,1-.05-.343c-.011-.115-.015-.231-.015-.347v-11.974a9.512,9.512,0,0,0-.112-1.49,7.2,7.2,0,0,0-.315-1.262,5.772,5.772,0,0,0-.488-1.044,5.034,5.034,0,0,0-.645-.852,4.921,4.921,0,0,0-.8-.686,5.585,5.585,0,0,0-.979-.529,6.736,6.736,0,0,0-1.167-.368q-.335-.075-.675-.121c-.227-.03-.454-.054-.682-.069-.126-.007-.253-.013-.374-.018s-.249,0-.374,0-.23,0-.345.009-.23.011-.345.023c-.215.021-.429.05-.64.088s-.423.088-.631.146-.387.12-.575.194a5.779,5.779,0,0,0-.557.245,6.211,6.211,0,0,0-.991.625q-.229.179-.442.379c-.141.133-.275.272-.4.418s-.253.3-.367.458-.222.323-.323.493a6.776,6.776,0,0,0-.548,1.175c-.071.2-.134.406-.189.614a6.405,6.405,0,0,0-.133.631c-.038.225-.066.452-.084.678s-.028.455-.028.685v11.561a3.4,3.4,0,0,1-.063.694,2.608,2.608,0,0,1-.152.491,2.344,2.344,0,0,1-.2.368,2.173,2.173,0,0,1-.617.613,2.222,2.222,0,0,1-.369.2,2.738,2.738,0,0,1-.489.151c-.114.023-.23.038-.345.05a3.442,3.442,0,0,1-.348.014q-.174,0-.348-.014a3,3,0,0,1-.344-.05c-.085-.018-.167-.039-.249-.063a2.18,2.18,0,0,1-.241-.089,2.22,2.22,0,0,1-.555-.337c-.057-.046-.111-.1-.163-.147s-.1-.106-.146-.162a1.431,1.431,0,0,1-.126-.176,2.282,2.282,0,0,1-.2-.369,2.487,2.487,0,0,1-.087-.241c-.024-.081-.046-.165-.063-.249a3.306,3.306,0,0,1-.05-.345A3.163,3.163,0,0,1,757.276,1942.411Z" transform="translate(-716.259 -1805.378)" fill="#fff"/>
      <path id="Path_362" data-name="Path 362" d="M1255.414,1926.523c0-.119,0-.238-.016-.355a3.13,3.13,0,0,0-.056-.366,2.474,2.474,0,0,0-.156-.491,2.233,2.233,0,0,0-.213-.383,2.216,2.216,0,0,0-.66-.621,2.547,2.547,0,0,0-.385-.189,2.818,2.818,0,0,0-.6-.148c-.118-.016-.237-.025-.357-.03h-.173c-.058,0-.117,0-.175,0a2.74,2.74,0,0,0-.363.038,2.91,2.91,0,0,0-.362.083,2.429,2.429,0,0,0-.388.155,2.141,2.141,0,0,0-.379.24,2.235,2.235,0,0,0-.327.321,2.193,2.193,0,0,0-.247.371,2.294,2.294,0,0,0-.161.383c-.019.056-.035.114-.05.172s-.027.115-.038.173-.021.12-.028.18c0,.031-.008.063-.011.091l-.008.091v17.083c0,.3-.009.6-.021.9-.014.366-.031.733-.042,1.1-.009.349-.013.694,0,1.045a10.952,10.952,0,0,0,.086,1.1,2.409,2.409,0,0,0,.047.263,2.262,2.262,0,0,0,.074.252,2.614,2.614,0,0,0,.126.3,2.462,2.462,0,0,0,.174.3,2.564,2.564,0,0,0,.209.268c.034.039.07.078.107.114s.075.074.114.109a2.571,2.571,0,0,0,.553.383,2.485,2.485,0,0,0,.658.218c.052.011.106.016.159.024s.106.01.159.013.1.006.151.006.1,0,.151,0a2.573,2.573,0,0,0,.644-.1c.057-.017.112-.036.167-.056a1.73,1.73,0,0,0,.162-.069c.052-.025.1-.051.157-.08s.1-.059.149-.091.091-.063.136-.1a1.441,1.441,0,0,0,.126-.106,1.408,1.408,0,0,0,.11-.1c.036-.037.071-.071.1-.107a2.252,2.252,0,0,0,.17-.2c.057-.074.109-.15.159-.229a2.6,2.6,0,0,0,.228-.485c.006-.016.013-.031.018-.049l.013-.048c.011-.037.021-.074.031-.111.013-.052.026-.1.036-.157.006-.033.013-.067.018-.1,0-.017.006-.037.008-.054s0-.035.006-.052c.01-.074.018-.147.025-.219q.022-.208.034-.418c.008-.14.015-.279.02-.416.008-.258.008-.516,0-.774s-.012-.516-.023-.772c-.005-.14-.011-.28-.016-.421s-.011-.28-.016-.418c-.007-.225-.013-.451-.013-.676Z" transform="translate(-1178.079 -1810.119)" fill="#fff"/>
      <path id="Path_363" data-name="Path 363" d="M1448.147,1847.379a7.611,7.611,0,0,1-.9.269c-.176.041-.351.073-.529.1a4.251,4.251,0,0,1-.463.036h-.139c-.083,0-.164,0-.246-.006-.146-.008-.293-.019-.437-.038a3.69,3.69,0,0,1-.451-.087c-.047-.013-.093-.025-.141-.041s-.094-.03-.138-.048a1.964,1.964,0,0,1-.208-.095,1.541,1.541,0,0,1-.189-.121,1.653,1.653,0,0,1-.146-.126,1.232,1.232,0,0,1-.126-.144,1.609,1.609,0,0,1-.126-.183c-.036-.063-.07-.131-.1-.2-.023-.051-.044-.1-.063-.151s-.036-.1-.054-.155q-.051-.159-.088-.323c-.025-.11-.047-.218-.063-.329-.044-.27-.071-.542-.089-.815-.021-.315-.028-.636-.028-.952v-12.443h5.358a3.237,3.237,0,0,0,.627-.059,2.429,2.429,0,0,0,.453-.14,1.993,1.993,0,0,0,.347-.185,2.237,2.237,0,0,0,.322-.26,2.085,2.085,0,0,0,.261-.322,2.163,2.163,0,0,0,.189-.347,2.516,2.516,0,0,0,.141-.456,2.854,2.854,0,0,0,.044-.312c.01-.106.015-.211.015-.316s0-.211-.015-.316a2.471,2.471,0,0,0-.045-.312,2.346,2.346,0,0,0-.139-.455,2.313,2.313,0,0,0-.189-.345,1.987,1.987,0,0,0-.262-.323,2.118,2.118,0,0,0-.319-.26,1.913,1.913,0,0,0-.347-.185,2.371,2.371,0,0,0-.454-.141,3.06,3.06,0,0,0-.631-.06h-5.346q0-.794.006-1.587V1822.6a.33.33,0,0,1,0-.044v-.068a.094.094,0,0,1,0-.023.377.377,0,0,0,0-.044.486.486,0,0,0-.006-.091c-.006-.028-.006-.063-.01-.09s-.008-.063-.012-.091-.009-.063-.014-.092-.011-.059-.017-.088-.013-.059-.02-.087c-.015-.057-.029-.115-.046-.171s-.047-.133-.073-.2-.057-.126-.089-.189a2.085,2.085,0,0,0-.4-.545,2.152,2.152,0,0,0-.17-.154c-.059-.047-.12-.089-.181-.13a1.6,1.6,0,0,0-.195-.113,2.485,2.485,0,0,0-.386-.157c-.059-.02-.121-.035-.179-.05s-.126-.027-.183-.038-.121-.018-.181-.024-.122-.011-.181-.014c-.117-.008-.237-.009-.355-.006-.059,0-.12.006-.179.011s-.12.009-.178.018c-.1.015-.206.033-.308.058a2.423,2.423,0,0,0-.3.092c-.063.024-.134.053-.2.084a2.034,2.034,0,0,0-.189.1,2.333,2.333,0,0,0-.521.439c-.05.059-.1.119-.141.181a2.146,2.146,0,0,0-.115.189,1.985,1.985,0,0,0-.1.2,2.518,2.518,0,0,0-.158.49c-.013.063-.025.123-.034.185s-.016.123-.022.184-.01.118-.013.179,0,.119,0,.179q.006,2.031.012,4.059h-2.439a3.051,3.051,0,0,0-.627.06,2.332,2.332,0,0,0-.456.141,1.974,1.974,0,0,0-.346.185,2.19,2.19,0,0,0-.321.26,2.093,2.093,0,0,0-.262.323,2.372,2.372,0,0,0-.184.346,2.447,2.447,0,0,0-.141.454c-.02.1-.035.208-.046.312a3.061,3.061,0,0,0-.013.315c0,.106,0,.211.013.316a3.032,3.032,0,0,0,.046.312,2.463,2.463,0,0,0,.141.456,2.2,2.2,0,0,0,.186.346,2.013,2.013,0,0,0,.263.322,2.044,2.044,0,0,0,.323.261,1.928,1.928,0,0,0,.346.185,2.411,2.411,0,0,0,.454.14,3.2,3.2,0,0,0,.625.059h2.452v12.446c0,.548.02,1.1.073,1.641a12.323,12.323,0,0,0,.243,1.542,8.978,8.978,0,0,0,.45,1.434,7.337,7.337,0,0,0,.387.8,6.73,6.73,0,0,0,.4.622,6.308,6.308,0,0,0,.47.574,5.888,5.888,0,0,0,.54.519,5.717,5.717,0,0,0,.61.451,5.91,5.91,0,0,0,.671.379,7.311,7.311,0,0,0,1.032.41,9.171,9.171,0,0,0,1.651.336c.3.032.6.053.9.063.075,0,.151,0,.227,0h.468a8.3,8.3,0,0,0,.952-.085c.177-.024.354-.055.53-.091s.35-.076.525-.12c.153-.04.306-.082.457-.129s.3-.1.452-.148c.074-.026.149-.054.224-.08s.149-.055.223-.085l.089-.035.089-.036c.03-.013.059-.025.088-.037l.09-.038c.076-.034.151-.071.223-.111.038-.021.073-.043.109-.063a1.118,1.118,0,0,0,.106-.072,2.116,2.116,0,0,0,.2-.15,2.327,2.327,0,0,0,.179-.172,1.964,1.964,0,0,0,.161-.189,1.84,1.84,0,0,0,.14-.2,2.226,2.226,0,0,0,.2-.431,1.8,1.8,0,0,0,.063-.216c.019-.074.034-.149.045-.225a2.449,2.449,0,0,0,.026-.424,2.519,2.519,0,0,0-.047-.421,2.615,2.615,0,0,0-.5-1.1,2.776,2.776,0,0,0-.278-.3,2.456,2.456,0,0,0-.346-.264,2.358,2.358,0,0,0-.867-.333,2.481,2.481,0,0,0-.492-.031,2.438,2.438,0,0,0-.491.073A2.928,2.928,0,0,0,1448.147,1847.379Z" transform="translate(-1349.786 -1712.824)" fill="#fff"/>
      <path id="Path_364" data-name="Path 364" d="M1839.56,1922.569a10.26,10.26,0,0,0-2.035-.663,9.981,9.981,0,0,0-2.345-.217,11.687,11.687,0,0,0-1.557.105,10.982,10.982,0,0,0-1.257.239,10.408,10.408,0,0,0-1.556.52,9.328,9.328,0,0,0-1.482.788c-.121.081-.241.165-.36.249a2.448,2.448,0,0,0-.207-.5,2.179,2.179,0,0,0-.53-.635,2.243,2.243,0,0,0-.332-.22,2.325,2.325,0,0,0-.363-.161,2.9,2.9,0,0,0-.293-.082c-.1-.02-.2-.038-.3-.05s-.216-.018-.324-.021h-.162l-.16.006a3.065,3.065,0,0,0-.669.11,2.645,2.645,0,0,0-.37.141,2.246,2.246,0,0,0-.347.205,2.415,2.415,0,0,0-.316.275,2.15,2.15,0,0,0-.252.332,2.226,2.226,0,0,0-.179.351,2.577,2.577,0,0,0-.142.483,3.5,3.5,0,0,0-.059.654v20.566a3.4,3.4,0,0,0,.063.69,2.581,2.581,0,0,0,.149.49,2.429,2.429,0,0,0,.2.368,2.281,2.281,0,0,0,.277.339,2.055,2.055,0,0,0,.34.277,2.3,2.3,0,0,0,.369.2,2.718,2.718,0,0,0,.49.151,3.4,3.4,0,0,0,.344.05c.116.01.232.015.348.015s.232,0,.348-.015a3.4,3.4,0,0,0,.344-.05,2.346,2.346,0,0,0,.248-.063,2.05,2.05,0,0,0,.241-.088,2,2,0,0,0,.368-.2,1.667,1.667,0,0,0,.177-.126c.057-.047.11-.1.163-.146a1.983,1.983,0,0,0,.147-.163,2.049,2.049,0,0,0,.13-.177,2.288,2.288,0,0,0,.2-.367c.032-.078.063-.16.088-.24s.046-.165.063-.248a3.061,3.061,0,0,0,.05-.345c.01-.114.016-.231.016-.347v-12.171a6.4,6.4,0,0,1,.119-1.235,6.255,6.255,0,0,1,.9-2.185,6.1,6.1,0,0,1,2.669-2.238,5.82,5.82,0,0,1,.568-.212,5.53,5.53,0,0,1,.585-.156,6.045,6.045,0,0,1,.619-.1c.106-.012.209-.021.316-.027.053,0,.105-.006.156-.009s.1,0,.157,0h.153l.153,0c.1.006.2.011.3.021.2.02.4.049.6.085.1.019.189.039.287.063s.189.047.283.074.185.056.279.088.185.063.275.1a2.478,2.478,0,0,0,.426.167,2.347,2.347,0,0,0,1.11.051,2.236,2.236,0,0,0,.257-.067,2.017,2.017,0,0,0,.247-.1,2.417,2.417,0,0,0,.418-.241,2.522,2.522,0,0,0,.362-.315,2.748,2.748,0,0,0,.492-.732,2.67,2.67,0,0,0,.144-.424,2.421,2.421,0,0,0,.081-.433,2.22,2.22,0,0,0,.013-.235c0-.078,0-.155-.008-.234a2.543,2.543,0,0,0-.086-.486,2.507,2.507,0,0,0-.207-.488,2.332,2.332,0,0,0-.766-.806A2.557,2.557,0,0,0,1839.56,1922.569Z" transform="translate(-1715.648 -1808.007)" fill="#fff"/>
    </g>
    <g id="Group_424" data-name="Group 424" transform="translate(-3.779 -1)">
      <path id="Path_365" data-name="Path 365" d="M696.508,81.43a17.353,17.353,0,0,0-23.253-6.646c-4.332,2.327-6.421,5.923-8.7,9.867q-3.338,5.8-6.689,11.587-13.386,23.173-26.758,46.348A1.721,1.721,0,0,0,633.323,145c10.329-4.83,23.494,1.906,25.054,13.333a1.719,1.719,0,0,0,3.2.622l19.141-33.438c.433-.757,1.06-.757,1.492,0l23.831,41.63a1.553,1.553,0,0,0,1.073.814l23.765,6.013a1.717,1.717,0,0,0,2.131-1.515q1.025-11.811,2.061-23.611a1.636,1.636,0,0,0-.223-1.01q-19.189-33.239-38.37-66.477" transform="translate(-597.843 -71.724)" fill="url(#linear-gradient)"/>
      <path id="Path_366" data-name="Path 366" d="M605.535,1273.443a13.053,13.053,0,1,0-13.051,13.057A13.051,13.051,0,0,0,605.535,1273.443Z" transform="translate(-549.651 -1184.444)" fill="#689634"/>
    </g>
    <text id="Adding_value_to_livestock" data-name="Adding value to livestock" transform="translate(12 157)" fill="#fff" font-size="9" font-family="Poppins-Medium, Poppins" font-weight="500" letter-spacing="0.11em"><tspan x="0" y="0">Adding value to livestock</tspan></text>
  </g>
</svg>
