<svg id="Layer_1" data-name="Layer 1" xmlns="http://www.w3.org/2000/svg" xmlns:xlink="http://www.w3.org/1999/xlink" viewBox="0 0 2788.95 2975.91"><defs><style>.cls-1,.cls-4{fill:#fff;}.cls-2{fill:url(#linear-gradient);}.cls-3{fill:#689634;}.cls-4{font-size:159.58px;font-family:Poppins-Medium, Poppins;font-weight:500;letter-spacing:0.11em;}</style><linearGradient id="linear-gradient" x1="630.94" y1="875.42" x2="2282.15" y2="875.42" gradientUnits="userSpaceOnUse"><stop offset="0" stop-color="#689634"/><stop offset="0.05" stop-color="#b60710"/><stop offset="0.47" stop-color="#de1f23"/><stop offset="0.8" stop-color="#f62e2f"/><stop offset="1" stop-color="#f33"/></linearGradient></defs><title>logo@02</title><path class="cls-1" d="M1344.7,1830.65a55.85,55.85,0,0,1-1.1,11.24,52.64,52.64,0,0,1-3.34,10.53,49.14,49.14,0,0,1-12.39,16.86,50.33,50.33,0,0,1-8.08,5.77,49.61,49.61,0,0,1-8.72,4,55,55,0,0,1-36.42,0,50.65,50.65,0,0,1-16.8-9.74,48.46,48.46,0,0,1-12.39-16.86,50.78,50.78,0,0,1-3.34-10.53,57.16,57.16,0,0,1,0-22.52,51.25,51.25,0,0,1,3.33-10.54,49.44,49.44,0,0,1,5.39-9.24,46.84,46.84,0,0,1,7-7.61,49.61,49.61,0,0,1,8.07-5.81,52.29,52.29,0,0,1,8.72-4,55.06,55.06,0,0,1,36.43,0,51.56,51.56,0,0,1,8.72,4,49.69,49.69,0,0,1,8.08,5.81,48.22,48.22,0,0,1,7,7.61,50,50,0,0,1,5.38,9.24,51.28,51.28,0,0,1,3.34,10.54A56.1,56.1,0,0,1,1344.7,1830.65Z"/><path class="cls-1" d="M2577.72,1955.28a41.5,41.5,0,0,0-2.39-7.76,36.39,36.39,0,0,0-3.13-5.84,33.14,33.14,0,0,0-4.39-5.36,35.57,35.57,0,0,0-5.38-4.41,37.65,37.65,0,0,0-5.85-3.11,39,39,0,0,0-7.75-2.38,58.48,58.48,0,0,0-22,0,40,40,0,0,0-7.78,2.4,35.17,35.17,0,0,0-5.83,3.13,33.17,33.17,0,0,0-5.36,4.41,32.06,32.06,0,0,0-4.38,5.39,34.35,34.35,0,0,0-3.11,5.83,39.84,39.84,0,0,0-2.37,7.72,52.82,52.82,0,0,0-1,8.59c-4.28-3.5-8.69-6.8-13.29-9.88a187.54,187.54,0,0,0-38.93-20,198.12,198.12,0,0,0-29.69-8.6,203.87,203.87,0,0,0-30.64-4.06c-2.92-.15-5.84-.28-8.77-.32s-5.85,0-8.78,0q-6.47.14-12.95.68c-4.29.34-8.59.81-12.85,1.41a216.38,216.38,0,0,0-24.75,5,209.16,209.16,0,0,0-24,7.89,202,202,0,0,0-43.32,23.65,197.21,197.21,0,0,0-36.07,33.5,191.3,191.3,0,0,0-14.85,20.25,195.66,195.66,0,0,0-12.17,21.95,205.75,205.75,0,0,0-9.7,24.28,219.5,219.5,0,0,0-6.55,25.33q-1.32,6.72-2.18,13.51t-1.39,13.63c-.33,4.68-.52,9.4-.58,14.12s0,9.41.25,14.13a228.26,228.26,0,0,0,2.86,27,223.65,223.65,0,0,0,6.12,26.46,208.38,208.38,0,0,0,8.9,24.19,198.71,198.71,0,0,0,11.83,22.87,196.42,196.42,0,0,0,14.16,20.57,198.66,198.66,0,0,0,16.68,18.62,200.89,200.89,0,0,0,18.61,16.22,203.46,203.46,0,0,0,66.23,33.54c4.11,1.2,8.24,2.3,12.4,3.25s8.35,1.79,12.55,2.48a212,212,0,0,0,25.49,2.69c3.27.2,6.54.27,9.84.27s6.54-.06,9.82-.2c5.08-.2,10.15-.62,15.18-1.2s10-1.35,15-2.3,9.91-2.11,14.76-3.45,9.73-2.89,14.49-4.63,9.45-3.62,14.07-5.73a186.8,186.8,0,0,0,22-11.93,190.22,190.22,0,0,0,20.22-14.77,51.36,51.36,0,0,0,1,8.39,41,41,0,0,0,2.37,7.75,35.31,35.31,0,0,0,3.11,5.85,34.12,34.12,0,0,0,4.38,5.38,35.49,35.49,0,0,0,11.19,7.52,39.31,39.31,0,0,0,7.78,2.39,47.44,47.44,0,0,0,5.45.82c1.84.16,3.67.23,5.53.23s3.67-.07,5.53-.23,3.63-.42,5.45-.79a38.26,38.26,0,0,0,3.92-1,31.69,31.69,0,0,0,3.83-1.37,34.68,34.68,0,0,0,5.85-3.14,29.89,29.89,0,0,0,2.81-2c.88-.75,1.76-1.51,2.55-2.32a35.25,35.25,0,0,0,4.41-5.39,37.26,37.26,0,0,0,3.13-5.84,39.71,39.71,0,0,0,1.41-3.82c.39-1.29.71-2.62,1-3.94a45.48,45.48,0,0,0,.79-5.48,50.27,50.27,0,0,0,.27-5.5V1966.27A54,54,0,0,0,2577.72,1955.28Zm-78.17,186.33a143.17,143.17,0,0,1-3.72,22.52,129.73,129.73,0,0,1-7.2,21.4,122,122,0,0,1-10.58,19.57,116,116,0,0,1-14,17.2,110.31,110.31,0,0,1-17.27,14.32,114.45,114.45,0,0,1-20.84,11,127.69,127.69,0,0,1-24.74,7.2,156.07,156.07,0,0,1-29,2.6,136.59,136.59,0,0,1-24-2.1,124.88,124.88,0,0,1-22.23-6.08,120.88,120.88,0,0,1-21.41-10.47,114.67,114.67,0,0,1-17.55-13.34,118.82,118.82,0,0,1-14.81-16.48,121.33,121.33,0,0,1-11.72-19.5,126.25,126.25,0,0,1-8.24-22.44c-1.12-4.14-2-8.35-2.75-12.54s-1.2-8.48-1.57-12.75c-.37-4.55-.51-9.1-.51-13.65s.25-9.1.67-13.6c.4-4.23.95-8.45,1.72-12.63s1.72-8.31,2.85-12.4c1.08-3.8,2.33-7.56,3.72-11.27s3-7.29,4.79-10.85a111.66,111.66,0,0,1,5.47-9.86q3-4.8,6.41-9.31a117.09,117.09,0,0,1,15-16.16c2.73-2.43,5.59-4.75,8.54-6.91s6-4.21,9.18-6.09a124.78,124.78,0,0,1,23-10.65q5.52-1.87,11.15-3.26c3.76-.92,7.57-1.66,11.4-2.25,2-.3,4-.55,6-.76s4-.37,6-.51c1.84-.12,3.67-.18,5.53-.23s3.71,0,5.55,0c4.82,0,9.63.33,14.43.79s9.59,1.21,14.32,2.14a128.82,128.82,0,0,1,24.45,7.47c3.6,1.53,7.15,3.23,10.58,5.11a109.42,109.42,0,0,1,10,6.18c3.06,2.13,6,4.41,8.89,6.81s5.59,5,8.17,7.71a115.16,115.16,0,0,1,13.72,17.37c2,3.11,3.9,6.34,5.64,9.6s3.32,6.7,4.76,10.13,2.77,7,3.92,10.59,2.19,7.22,3,10.88a144.22,144.22,0,0,1,3.47,22.63A148.23,148.23,0,0,1,2499.55,2141.61Z"/><path class="cls-1" d="M633.53,1955.3a42.1,42.1,0,0,0-2.39-7.75,37.31,37.31,0,0,0-3.12-5.85,35.94,35.94,0,0,0-4.39-5.38,34.84,34.84,0,0,0-5.38-4.37,35.52,35.52,0,0,0-5.83-3.13,43.83,43.83,0,0,0-7.76-2.4,58.8,58.8,0,0,0-22,0,42.19,42.19,0,0,0-7.75,2.42,36.62,36.62,0,0,0-5.83,3.11,35,35,0,0,0-5.37,4.41,33.56,33.56,0,0,0-4.37,5.36,35.52,35.52,0,0,0-3.13,5.83,42.1,42.1,0,0,0-2.39,7.75,52.45,52.45,0,0,0-1,8.57c-4.25-3.48-8.69-6.75-13.25-9.84a178.93,178.93,0,0,0-18.87-11.14,192.62,192.62,0,0,0-20.06-8.85,200.39,200.39,0,0,0-29.69-8.61,209.18,209.18,0,0,0-30.64-4.07c-2.93-.13-5.85-.27-8.78-.32s-5.85,0-8.78,0q-6.47.15-12.93.67c-4.3.36-8.59.82-12.87,1.41a222.7,222.7,0,0,0-24.73,5,208.54,208.54,0,0,0-24,7.9A201.61,201.61,0,0,0,305,1959.67,195.35,195.35,0,0,0,254,2013.39a195.58,195.58,0,0,0-12.16,21.95,205.79,205.79,0,0,0-9.69,24.31,211.55,211.55,0,0,0-6.54,25.3q-1.32,6.72-2.2,13.51c-.6,4.53-1.07,9.08-1.38,13.63s-.53,9.4-.57,14.12,0,9.41.24,14.13a229,229,0,0,0,2.87,27,215.84,215.84,0,0,0,6.11,26.46,206.51,206.51,0,0,0,20.71,47,197.76,197.76,0,0,0,30.81,39.18,200.71,200.71,0,0,0,61.4,41.28,207.05,207.05,0,0,0,23.46,8.49c4.08,1.21,8.23,2.28,12.38,3.23s8.36,1.79,12.57,2.48a211.49,211.49,0,0,0,25.47,2.69c3.27.2,6.54.27,9.83.27s6.55-.06,9.84-.2c5.07-.2,10.13-.62,15.18-1.2s10-1.35,15-2.3,9.89-2.11,14.77-3.45,9.7-2.89,14.46-4.63,9.45-3.62,14-5.73a186,186,0,0,0,42.21-26.7,53.13,53.13,0,0,0,1,8.43,41,41,0,0,0,2.38,7.76,38.06,38.06,0,0,0,3.12,5.84,34.46,34.46,0,0,0,4.39,5.39,35.37,35.37,0,0,0,5.37,4.39,34.29,34.29,0,0,0,5.86,3.12,38.86,38.86,0,0,0,7.75,2.4,53.24,53.24,0,0,0,5.46.81c1.84.17,3.67.24,5.52.24s3.68-.07,5.52-.24a53.37,53.37,0,0,0,5.47-.79,41.77,41.77,0,0,0,7.75-2.42,34.11,34.11,0,0,0,5.85-3.1c1-.65,1.91-1.34,2.81-2.06a28.63,28.63,0,0,0,2.58-2.35,31.3,31.3,0,0,0,2.33-2.55c.73-.93,1.43-1.86,2.07-2.84a35.92,35.92,0,0,0,3.12-5.84,36.82,36.82,0,0,0,1.38-3.82,39.18,39.18,0,0,0,1-3.94,50.2,50.2,0,0,0,.79-5.46c.17-1.83.24-3.68.24-5.52V1966.27A54.38,54.38,0,0,0,633.53,1955.3Zm-78.19,186.31a141.83,141.83,0,0,1-3.69,22.54,136,136,0,0,1-7.19,21.38,125.19,125.19,0,0,1-10.62,19.59,116.61,116.61,0,0,1-13.94,17.18,112.52,112.52,0,0,1-17.29,14.35,116.2,116.2,0,0,1-20.84,11,127.59,127.59,0,0,1-24.73,7.2,156.29,156.29,0,0,1-29,2.6,136.37,136.37,0,0,1-24-2.1,126.66,126.66,0,0,1-22.23-6,121.3,121.3,0,0,1-21.4-10.5A115.45,115.45,0,0,1,328,2209a119,119,0,0,1-11.71-19.5,128.25,128.25,0,0,1-8.25-22.42c-1.1-4.14-2-8.34-2.71-12.56s-1.24-8.48-1.59-12.75q-.54-6.83-.5-13.65c0-4.55.23-9.1.65-13.6.39-4.23,1-8.45,1.73-12.63s1.7-8.31,2.85-12.4q1.6-5.7,3.71-11.26t4.75-10.86q2.54-5.05,5.51-9.86a112.27,112.27,0,0,1,6.4-9.28,114.78,114.78,0,0,1,15-16.17c2.73-2.43,5.59-4.73,8.55-6.91s6-4.18,9.15-6.08q5.46-3.24,11.23-5.93c3.84-1.76,7.78-3.33,11.78-4.7,3.66-1.25,7.37-2.35,11.13-3.25s7.57-1.68,11.38-2.25q3-.47,6-.77t6-.51c1.85-.12,3.69-.19,5.55-.23s3.69-.07,5.55-.05c4.81.05,9.63.32,14.43.79s9.58,1.18,14.3,2.13a128.11,128.11,0,0,1,24.47,7.48c3.61,1.53,7.14,3.22,10.58,5.1a116.29,116.29,0,0,1,10,6.18,107.48,107.48,0,0,1,8.9,6.82,112.3,112.3,0,0,1,8.17,7.71,115.11,115.11,0,0,1,13.72,17.36q3,4.67,5.63,9.62t4.76,10.09c1.46,3.46,2.77,7,3.93,10.58s2.18,7.22,3,10.9a141.36,141.36,0,0,1,3.45,22.63A144.18,144.18,0,0,1,555.34,2141.61Z"/><path class="cls-1" d="M757.51,2291.76q-.06-61.05-.12-122.06t-.13-122q0-20.6,0-41.14c0-6.87,0-13.71,0-20.57,0-3.43,0-6.87,0-10.27v-5.14c0-.88,0-1.71,0-2.6s0-1.69,0-2.55v-.51s0-.1,0-.17v-.34c0-.09,0-.22,0-.32s0-.24,0-.33a2.18,2.18,0,0,0,0-.35c0-.23,0-.44,0-.68,0-.45.07-1,.1-1.41s.08-1,.13-1.42.12-.95.17-1.41.14-1,.21-1.42c.17-.93.34-1.86.56-2.78s.45-1.85.73-2.76c.07-.26.15-.5.23-.75s.17-.51.26-.76l.26-.75c.09-.23.19-.49.28-.74.19-.47.4-1,.61-1.44s.44-1,.67-1.43a32,32,0,0,1,1.64-3c.29-.47.59-1,.91-1.42s.65-.91,1-1.37.72-.93,1.09-1.37.77-.88,1.16-1.29a32.19,32.19,0,0,1,2.52-2.44c.86-.74,1.77-1.46,2.7-2.14s1.91-1.28,2.9-1.86a35.14,35.14,0,0,1,5.89-2.68,43.5,43.5,0,0,1,9.53-2.26c1.81-.21,3.63-.35,5.45-.4.9,0,1.79,0,2.7,0s1.79,0,2.68.09a47.43,47.43,0,0,1,11.23,1.93c1,.3,2,.66,3,1s2,.84,2.9,1.31,2,1,3,1.62,1.89,1.25,2.78,1.93a33.88,33.88,0,0,1,5.1,4.77,29.57,29.57,0,0,1,2.12,2.72,34.1,34.1,0,0,1,1.84,2.88,34.71,34.71,0,0,1,2.22,4.65,39.06,39.06,0,0,1,1.6,4.87,157.32,157.32,0,0,1,14-9.42,162.54,162.54,0,0,1,19.54-10,179,179,0,0,1,30.81-10,202.51,202.51,0,0,1,31.76-4.55c2.67-.17,5.35-.28,8-.35l2,0c.33,0,.65,0,1,0s.66,0,1,0c.63,0,1.25,0,1.87,0h1.88c1.22.05,2.45.07,3.67.12s2.46.08,3.68.17,2.44.11,3.66.18,2.45.17,3.67.27a221.36,221.36,0,0,1,28.09,4,197.57,197.57,0,0,1,26.36,7.41,176.54,176.54,0,0,1,24.35,10.84,159.34,159.34,0,0,1,57.71,52.14,164.61,164.61,0,0,1,13,23.3,177.92,177.92,0,0,1,9.42,25.82,201.14,201.14,0,0,1,5.73,28,230.75,230.75,0,0,1,1.91,30.08v190.51a54,54,0,0,1-1,11,42.44,42.44,0,0,1-2.39,7.76,37.26,37.26,0,0,1-3.13,5.84,34.89,34.89,0,0,1-4.4,5.39,33.18,33.18,0,0,1-5.39,4.36,34.59,34.59,0,0,1-5.84,3.14,43.44,43.44,0,0,1-7.75,2.39c-1.81.37-3.64.6-5.47.79s-3.68.23-5.52.23-3.68-.07-5.51-.23-3.66-.45-5.46-.82a38.69,38.69,0,0,1-7.76-2.39,34.59,34.59,0,0,1-5.84-3.14,28.31,28.31,0,0,1-2.8-2.05c-.91-.75-1.77-1.52-2.58-2.33a33.76,33.76,0,0,1-2.33-2.6,30.49,30.49,0,0,1-2-2.78,36.87,36.87,0,0,1-3.11-5.85,34.66,34.66,0,0,1-1.38-3.81,39.81,39.81,0,0,1-1-3.94,48.17,48.17,0,0,1-.79-5.44c-.17-1.82-.24-3.66-.24-5.5V2102a150.56,150.56,0,0,0-1.77-23.62,114,114,0,0,0-5-20,91.23,91.23,0,0,0-7.73-16.54,79.94,79.94,0,0,0-10.22-13.51,78.24,78.24,0,0,0-12.75-10.86,88.31,88.31,0,0,0-15.52-8.38,107,107,0,0,0-18.49-5.84q-5.31-1.18-10.69-1.92c-3.59-.48-7.19-.86-10.8-1.09-2-.11-4-.21-5.92-.28s-3.95-.07-5.92,0-3.65,0-5.47.14-3.65.18-5.47.36c-3.4.33-6.79.79-10.14,1.4s-6.7,1.39-10,2.32q-4.64,1.31-9.12,3.07c-3,1.15-6,2.45-8.82,3.89a98.58,98.58,0,0,0-15.7,9.91c-2.42,1.89-4.76,3.89-7,6s-4.36,4.32-6.39,6.62-4,4.75-5.82,7.26-3.52,5.12-5.12,7.81a107.35,107.35,0,0,0-8.69,18.63c-1.13,3.2-2.12,6.43-3,9.73s-1.56,6.59-2.11,10c-.61,3.56-1.05,7.16-1.34,10.75s-.44,7.22-.44,10.85v183.19a54,54,0,0,1-1,11,41.47,41.47,0,0,1-2.41,7.78,36.84,36.84,0,0,1-3.14,5.83,34.43,34.43,0,0,1-9.77,9.72,35,35,0,0,1-5.84,3.14,43.59,43.59,0,0,1-7.74,2.39c-1.81.37-3.64.6-5.47.79s-3.67.23-5.51.23-3.68-.07-5.52-.23-3.65-.42-5.45-.79c-1.34-.28-2.65-.62-3.94-1a34.94,34.94,0,0,1-3.82-1.4A35.44,35.44,0,0,1,771,2324c-.9-.73-1.75-1.51-2.58-2.33s-1.59-1.69-2.32-2.57-1.43-1.84-2-2.79a36.5,36.5,0,0,1-3.14-5.84c-.52-1.26-1-2.54-1.38-3.82s-.73-2.62-1-3.94a52.39,52.39,0,0,1-.79-5.48C757.59,2295.42,757.51,2293.57,757.51,2291.76Z"/><path class="cls-1" d="M1333,1964.87c0-1.88-.07-3.77-.25-5.62a48.88,48.88,0,0,0-.88-5.8,39.3,39.3,0,0,0-2.48-7.77,35.33,35.33,0,0,0-3.38-6.07,33.43,33.43,0,0,0-4.73-5.47,34,34,0,0,0-5.73-4.37,39.64,39.64,0,0,0-6.11-3,44.57,44.57,0,0,0-9.53-2.35c-1.87-.25-3.76-.39-5.65-.48-.91,0-1.82,0-2.74,0s-1.86,0-2.78.08a44.12,44.12,0,0,0-5.75.6,46,46,0,0,0-5.74,1.32,38.49,38.49,0,0,0-6.15,2.46,34,34,0,0,0-6,3.81,35.54,35.54,0,0,0-5.18,5.08,35.13,35.13,0,0,0-3.91,5.88,36.57,36.57,0,0,0-2.56,6.07c-.3.88-.56,1.8-.79,2.72s-.43,1.81-.6,2.74-.33,1.9-.45,2.86c-.07.49-.13,1-.17,1.44s-.09,1-.13,1.44c0,.25,0,.48,0,.72s0,.46,0,.69,0,.25,0,.38,0,.22,0,.36,0,.23,0,.36v.34c0,.83,0,1.67,0,2.51v265.34c0,4.76-.14,9.55-.33,14.32-.22,5.81-.5,11.62-.66,17.42-.15,5.53-.2,11,0,16.57a173,173,0,0,0,1.37,17.46,37.74,37.74,0,0,0,.74,4.18,35.75,35.75,0,0,0,1.18,4,41.41,41.41,0,0,0,2,4.78,39,39,0,0,0,2.76,4.76,41,41,0,0,0,3.31,4.25c.54.62,1.11,1.23,1.69,1.8s1.18,1.17,1.8,1.73a37.2,37.2,0,0,0,4.06,3.24,38.23,38.23,0,0,0,4.71,2.84,39.3,39.3,0,0,0,10.43,3.45c.83.17,1.67.26,2.52.38s1.68.16,2.52.21,1.59.09,2.4.09,1.59,0,2.39-.05a40.6,40.6,0,0,0,10.21-1.63c.9-.27,1.77-.57,2.65-.89s1.73-.7,2.56-1.1,1.66-.81,2.48-1.27,1.59-.93,2.36-1.44,1.45-1,2.15-1.55a23.26,23.26,0,0,0,2-1.69c.6-.5,1.18-1,1.75-1.59s1.12-1.12,1.65-1.69a35.32,35.32,0,0,0,2.69-3.16c.9-1.17,1.73-2.37,2.51-3.62a41.2,41.2,0,0,0,3.62-7.69c.1-.26.2-.49.28-.77s.14-.51.21-.76c.17-.58.34-1.18.49-1.76.21-.82.41-1.65.57-2.49.1-.53.21-1.07.29-1.6.05-.27.09-.58.13-.86s.07-.56.1-.83c.15-1.17.28-2.33.4-3.46.23-2.2.41-4.4.54-6.62s.24-4.41.31-6.59c.13-4.09.13-8.17.06-12.26s-.2-8.17-.37-12.23c-.08-2.21-.17-4.44-.26-6.67s-.18-4.43-.26-6.63c-.11-3.57-.2-7.15-.2-10.71Z"/><path class="cls-1" d="M1666.18,2252.48a120.18,120.18,0,0,1-14.33,4.27c-2.79.65-5.57,1.16-8.38,1.53a67,67,0,0,1-7.33.58c-.72,0-1.47,0-2.21,0-1.31,0-2.6,0-3.9-.09-2.32-.12-4.65-.3-6.92-.6a57.8,57.8,0,0,1-7.15-1.37c-.74-.21-1.48-.4-2.23-.65s-1.49-.48-2.18-.77a30.44,30.44,0,0,1-3.3-1.5,25.7,25.7,0,0,1-3-1.91,27.13,27.13,0,0,1-2.32-2,19.75,19.75,0,0,1-2-2.28,25.19,25.19,0,0,1-2-2.9c-.57-1-1.11-2.07-1.6-3.13-.37-.8-.69-1.58-1-2.39s-.58-1.63-.86-2.45q-.8-2.53-1.39-5.12c-.4-1.74-.74-3.46-1-5.22-.7-4.28-1.13-8.59-1.41-12.91-.33-5-.45-10.08-.45-15.09V2001.31h84.91a50.8,50.8,0,0,0,9.94-.93,37.8,37.8,0,0,0,7.18-2.22,31.56,31.56,0,0,0,5.5-2.93,35.43,35.43,0,0,0,5.1-4.13,32.68,32.68,0,0,0,4.13-5.1,34.19,34.19,0,0,0,3-5.49,39.71,39.71,0,0,0,2.24-7.22,45.5,45.5,0,0,0,.69-4.94c.16-1.67.24-3.35.24-5s-.08-3.35-.24-5a39.47,39.47,0,0,0-.72-4.94,37.21,37.21,0,0,0-2.21-7.2,36.59,36.59,0,0,0-3-5.48,31.76,31.76,0,0,0-4.15-5.11,33.48,33.48,0,0,0-5.06-4.12,30.56,30.56,0,0,0-5.5-2.93,37.39,37.39,0,0,0-7.19-2.23,48.27,48.27,0,0,0-10-.95h-84.72q0-12.57.09-25.14c0-8.36,0-16.76,0-25.12,0-1.29,0-2.54,0-3.84s0-2.56,0-3.81v-7.66a5.62,5.62,0,0,1,0-.7v-.72c0-.11,0-.23,0-.35a1.54,1.54,0,0,1,0-.37,5.49,5.49,0,0,0,0-.7c0-.47,0-1-.09-1.44s-.09-1-.16-1.43-.12-1-.19-1.44-.14-1-.22-1.45-.17-.93-.27-1.39-.21-.93-.32-1.37c-.24-.9-.46-1.83-.73-2.71-.36-1.07-.74-2.11-1.15-3.14s-.91-2-1.41-3a33.05,33.05,0,0,0-6.32-8.64,34.48,34.48,0,0,0-2.69-2.43c-.93-.75-1.91-1.41-2.87-2.07s-2-1.25-3.08-1.79a39.41,39.41,0,0,0-6.12-2.48c-.93-.31-1.91-.56-2.83-.79s-2-.42-2.9-.6-1.91-.28-2.86-.38-1.93-.18-2.87-.22c-1.86-.12-3.75-.14-5.63-.1-.93.05-1.9.1-2.83.17s-1.9.15-2.83.29c-1.65.24-3.27.52-4.88.91a38.59,38.59,0,0,0-4.7,1.46c-1,.38-2.13.84-3.15,1.33s-2,1-3,1.61a36.93,36.93,0,0,0-8.26,6.95c-.79.93-1.54,1.89-2.23,2.87a34.28,34.28,0,0,0-1.83,3,30.41,30.41,0,0,0-1.56,3.13,39.91,39.91,0,0,0-2.5,7.76c-.21,1-.4,1.94-.54,2.93s-.26,1.94-.35,2.91-.16,1.86-.21,2.83,0,1.89,0,2.84q.1,32.18.19,64.32h-38.65a48.09,48.09,0,0,0-9.93.95,36.82,36.82,0,0,0-7.22,2.23,31.43,31.43,0,0,0-5.48,2.93,34.66,34.66,0,0,0-5.08,4.12,33.31,33.31,0,0,0-4.16,5.11,37.35,37.35,0,0,0-2.92,5.48,38.71,38.71,0,0,0-2.23,7.2c-.32,1.62-.56,3.3-.73,4.94s-.2,3.32-.2,5,.05,3.34.2,5,.41,3.3.73,4.94a38.91,38.91,0,0,0,2.23,7.22,34.84,34.84,0,0,0,2.94,5.49,31.85,31.85,0,0,0,4.16,5.1,32.51,32.51,0,0,0,5.11,4.13,30.68,30.68,0,0,0,5.48,2.93,38.58,38.58,0,0,0,7.19,2.22,50.64,50.64,0,0,0,9.91.93h38.85v197.22c0,8.69.32,17.36,1.15,26a195.37,195.37,0,0,0,3.85,24.44,142.2,142.2,0,0,0,7.13,22.72,115.58,115.58,0,0,0,6.13,12.68,106.23,106.23,0,0,0,6.29,9.86,100.13,100.13,0,0,0,7.45,9.1,93.55,93.55,0,0,0,8.56,8.22,90.4,90.4,0,0,0,9.67,7.15,94,94,0,0,0,10.63,6,115.82,115.82,0,0,0,16.36,6.5,145.56,145.56,0,0,0,26.16,5.33c4.74.51,9.52.83,14.28,1,1.18,0,2.39,0,3.59.08h5.51c.62,0,1.27,0,1.9,0a131.92,131.92,0,0,0,15.09-1.34c2.81-.38,5.62-.88,8.4-1.45s5.55-1.2,8.31-1.9c2.43-.63,4.85-1.3,7.24-2.05s4.78-1.52,7.16-2.34c1.18-.41,2.36-.85,3.54-1.27s2.37-.88,3.53-1.35l1.42-.56,1.41-.57c.47-.21.93-.4,1.39-.58s1-.41,1.43-.61c1.2-.53,2.39-1.12,3.54-1.76.61-.33,1.16-.68,1.72-1s1.11-.72,1.67-1.13a32.4,32.4,0,0,0,3.11-2.38,36.35,36.35,0,0,0,2.83-2.72,31.82,31.82,0,0,0,2.55-3,29.33,29.33,0,0,0,2.21-3.24,35.32,35.32,0,0,0,3.24-6.83,29.3,29.3,0,0,0,1-3.43,36.15,36.15,0,0,0,.71-3.56,38.59,38.59,0,0,0,.41-6.71,40.18,40.18,0,0,0-.75-6.68,41.47,41.47,0,0,0-8-17.43,44.47,44.47,0,0,0-4.41-4.79,39,39,0,0,0-5.48-4.19,37.48,37.48,0,0,0-13.74-5.28,39.23,39.23,0,0,0-7.8-.48,38.47,38.47,0,0,0-7.78,1.16A46.91,46.91,0,0,0,1666.18,2252.48Z"/><path class="cls-1" d="M2071.05,1935.67a162.84,162.84,0,0,0-32.24-10.5,158.21,158.21,0,0,0-37.16-3.43,185,185,0,0,0-24.67,1.67,174.45,174.45,0,0,0-19.92,3.79,164.67,164.67,0,0,0-24.65,8.23,148,148,0,0,0-23.49,12.49c-1.91,1.28-3.82,2.61-5.7,3.95a36.78,36.78,0,0,0-1.41-4.06,35.39,35.39,0,0,0-1.86-3.88,34.47,34.47,0,0,0-8.4-10.07,34.69,34.69,0,0,0-5.25-3.49,37,37,0,0,0-5.75-2.55,46.41,46.41,0,0,0-4.65-1.3c-1.58-.32-3.15-.6-4.75-.79s-3.42-.28-5.13-.33c-.86,0-1.72,0-2.56,0l-2.53.09a48.58,48.58,0,0,0-10.61,1.74,41.41,41.41,0,0,0-5.85,2.23,35,35,0,0,0-5.5,3.25,37.57,37.57,0,0,0-5,4.36,34.33,34.33,0,0,0-4,5.26,35.44,35.44,0,0,0-2.83,5.56,40.68,40.68,0,0,0-2.24,7.66,54.69,54.69,0,0,0-.93,10.36v325.89a54,54,0,0,0,1,10.93,40.87,40.87,0,0,0,2.37,7.76,38.11,38.11,0,0,0,3.13,5.84,35.67,35.67,0,0,0,4.39,5.36,32.45,32.45,0,0,0,5.38,4.39,36.54,36.54,0,0,0,5.85,3.14,43,43,0,0,0,7.76,2.39,55,55,0,0,0,5.45.79c1.84.16,3.67.23,5.51.23s3.68-.07,5.52-.23a55,55,0,0,0,5.45-.79,37.78,37.78,0,0,0,3.93-1,33,33,0,0,0,3.82-1.4,32,32,0,0,0,5.83-3.11,26.44,26.44,0,0,0,2.81-2c.91-.75,1.75-1.51,2.58-2.32s1.58-1.67,2.32-2.58a31.65,31.65,0,0,0,2.06-2.81,36.25,36.25,0,0,0,3.14-5.82c.51-1.23,1-2.53,1.39-3.81s.73-2.62,1-3.93a48,48,0,0,0,.79-5.47c.16-1.8.26-3.66.26-5.5V2099a101.17,101.17,0,0,1,1.89-19.57,99,99,0,0,1,14.21-34.63,96.75,96.75,0,0,1,26-26.47,95.85,95.85,0,0,1,16.29-9,92.87,92.87,0,0,1,9-3.36,87.29,87.29,0,0,1,9.27-2.47,95.81,95.81,0,0,1,9.81-1.57c1.68-.19,3.31-.33,5-.42.84-.07,1.67-.09,2.48-.14s1.66,0,2.49,0,1.62,0,2.42,0l2.43.07c1.61.09,3.23.18,4.83.34,3.22.31,6.4.77,9.59,1.35,1.53.3,3,.62,4.55,1s3,.74,4.48,1.18,2.94.88,4.43,1.39,2.93,1,4.36,1.57a39,39,0,0,0,6.74,2.65,37.2,37.2,0,0,0,17.59.8,35.45,35.45,0,0,0,4.08-1.07,32,32,0,0,0,3.91-1.52,38.3,38.3,0,0,0,6.62-3.82,40.24,40.24,0,0,0,5.73-5,43.53,43.53,0,0,0,7.8-11.6A42.79,42.79,0,0,0,2094,1982a38.71,38.71,0,0,0,1.28-6.87,35.68,35.68,0,0,0,.21-3.72c0-1.23,0-2.45-.12-3.71A40.73,40.73,0,0,0,2094,1960a39.37,39.37,0,0,0-3.28-7.74,36.83,36.83,0,0,0-5.24-7.06,36.4,36.4,0,0,0-6.9-5.71A40.76,40.76,0,0,0,2071.05,1935.67Z"/><path class="cls-2" d="M1671,210.77c-74.12-129-237.38-175.68-368.47-105.31-68.65,36.87-101.75,93.85-137.88,156.35q-52.89,91.83-106,183.61-212.11,367.2-424,734.42c-13.33,23.06,11,49.56,35.14,38.32,163.67-76.53,372.28,30.2,397,211.28,3.52,25.76,37.72,32.42,50.63,9.85q151.66-264.93,303.3-529.85c6.86-12,16.8-12,23.65,0q188.82,329.83,377.62,659.66c4,7.13,9,10.88,17,12.9q188.22,47.63,376.58,95.28a27.21,27.21,0,0,0,33.77-24q16.24-187.15,32.66-374.14a25.92,25.92,0,0,0-3.53-16q-304.07-526.7-608-1053.39"/><path class="cls-3" d="M993.09,1467.22c0-114.25-92.6-206.83-206.8-206.83S579.43,1353,579.43,1467.22s92.64,206.89,206.86,206.89S993.09,1581.49,993.09,1467.22Z"/><text class="cls-4" transform="translate(180.36 2574.06)">Adding value to livestock</text></svg>