<svg id="Frame" xmlns="http://www.w3.org/2000/svg" width="24.8" height="24.8" viewBox="0 0 24.8 24.8">
  <path id="Vector" d="M24.8,7.2V4.8H21.323A2.791,2.791,0,0,0,20,3.477V0H17.6V3.2h-4V0H11.2V3.2h-4V0H4.8V3.472A2.8,2.8,0,0,0,3.472,4.8H0V7.2H3.2v4H0v2.4H3.2v4H0V20H3.472A2.8,2.8,0,0,0,4.8,21.328V24.8H7.2V21.6h4v3.2h2.4V21.6h4v3.2H20V21.323A2.791,2.791,0,0,0,21.323,20H24.8V17.6H21.6v-4h3.2V11.2H21.6v-4Zm-5.6,4v7.6a.4.4,0,0,1-.4.4H6a.4.4,0,0,1-.4-.4V6A.4.4,0,0,1,6,5.6H18.8a.4.4,0,0,1,.4.4Z" fill="#fff"/>
</svg>
