<svg xmlns="http://www.w3.org/2000/svg" xmlns:xlink="http://www.w3.org/1999/xlink" width="118.954" height="30.462" viewBox="0 0 118.954 30.462">
  <defs>
    <linearGradient id="linear-gradient" y1="0.5" x2="1" y2="0.5" gradientUnits="objectBoundingBox">
      <stop offset="0.15" stop-color="#d81f5e"/>
      <stop offset="0.24" stop-color="#db2458"/>
      <stop offset="0.71" stop-color="#ea3940"/>
      <stop offset="1" stop-color="#ef4137"/>
    </linearGradient>
    <linearGradient id="linear-gradient-2" y1="0.5" x2="7.916" y2="0.5" gradientUnits="objectBoundingBox">
      <stop offset="0" stop-color="#d81f5e"/>
      <stop offset="0.11" stop-color="#db2458"/>
      <stop offset="0.66" stop-color="#ea3940"/>
      <stop offset="1" stop-color="#ef4137"/>
    </linearGradient>
  </defs>
  <g id="Group_53" data-name="Group 53" transform="translate(-113.859 -39.038)">
    <g id="Group_53-2" data-name="Group 53" transform="translate(6)">
      <path id="Path_163" data-name="Path 163" d="M927.993,104.006a1.373,1.373,0,0,0-.077-.25,1.07,1.07,0,0,0-.1-.188,1.023,1.023,0,0,0-.141-.172,1.153,1.153,0,0,0-.174-.142,1.266,1.266,0,0,0-.438-.177,1.92,1.92,0,0,0-.708,0,1.378,1.378,0,0,0-.25.077,1.152,1.152,0,0,0-.188.1,1.082,1.082,0,0,0-.172.142,1.032,1.032,0,0,0-.141.174,1.148,1.148,0,0,0-.1.188,1.339,1.339,0,0,0-.076.248,1.743,1.743,0,0,0-.032.277q-.205-.169-.428-.319a6.088,6.088,0,0,0-1.248-.644,6.629,6.629,0,0,0-1.949-.4c-.094,0-.188-.009-.282-.01s-.188,0-.282,0c-.138,0-.278.011-.417.023s-.276.026-.413.045a6.762,6.762,0,0,0-1.569.414,6.5,6.5,0,0,0-1.4.761,6.424,6.424,0,0,0-1.162,1.079,6.282,6.282,0,0,0-.478.652,6.4,6.4,0,0,0-.392.707,6.786,6.786,0,0,0-.312.782,7.236,7.236,0,0,0-.211.816c-.028.144-.051.289-.07.436s-.034.292-.044.439-.017.3-.019.454,0,.3.008.454a7.212,7.212,0,0,0,.093.87,7.031,7.031,0,0,0,.2.852,6.945,6.945,0,0,0,.287.778,6.435,6.435,0,0,0,1.974,2.519,6.483,6.483,0,0,0,.661.445,6.344,6.344,0,0,0,.717.363,6.656,6.656,0,0,0,.754.273c.133.039.265.074.4.1s.27.058.4.079a6.889,6.889,0,0,0,.82.087c.106.006.211.008.318.008h.315c.164-.007.327-.02.489-.04s.323-.043.482-.074.32-.068.475-.113.313-.093.467-.149a4.872,4.872,0,0,0,.454-.185,5.963,5.963,0,0,0,1.361-.86,1.784,1.784,0,0,0,.032.27,1.376,1.376,0,0,0,.076.25,1.153,1.153,0,0,0,.1.188,1.029,1.029,0,0,0,.141.174,1.116,1.116,0,0,0,.361.243,1.38,1.38,0,0,0,.25.077,1.678,1.678,0,0,0,.176.026,1.539,1.539,0,0,0,.178.007,1.56,1.56,0,0,0,.178-.007,1.775,1.775,0,0,0,.176-.026,1.112,1.112,0,0,0,.126-.032,1.138,1.138,0,0,0,.124-.044,1.121,1.121,0,0,0,.188-.1.962.962,0,0,0,.091-.065c.028-.025.057-.049.082-.075a1.046,1.046,0,0,0,.076-.084,1.022,1.022,0,0,0,.066-.09,1.113,1.113,0,0,0,.1-.188.948.948,0,0,0,.045-.124c.012-.041.023-.084.032-.126a1.545,1.545,0,0,0,.026-.177c0-.058.008-.113.008-.177V104.36A1.778,1.778,0,0,0,927.993,104.006Zm-2.517,6a4.784,4.784,0,0,1-.113.725,4.194,4.194,0,0,1-.233.689,3.932,3.932,0,0,1-.34.631,3.7,3.7,0,0,1-.454.554,3.55,3.55,0,0,1-.556.462,3.762,3.762,0,0,1-.672.355,4.152,4.152,0,0,1-.794.227,5.071,5.071,0,0,1-.935.084,4.448,4.448,0,0,1-.774-.068,4.052,4.052,0,0,1-.716-.2,3.906,3.906,0,0,1-.689-.34,3.724,3.724,0,0,1-.567-.43,3.81,3.81,0,0,1-.854-1.159,4.082,4.082,0,0,1-.265-.723c-.035-.133-.064-.268-.087-.4s-.04-.273-.051-.411-.017-.294-.017-.44.008-.293.022-.438.031-.272.056-.407.056-.267.092-.4.075-.244.12-.364.1-.234.154-.348a3.464,3.464,0,0,1,.176-.318c.065-.1.133-.2.206-.3a3.753,3.753,0,0,1,.483-.521c.087-.078.179-.153.275-.227a2.772,2.772,0,0,1,.3-.2,3.646,3.646,0,0,1,.361-.191,3.9,3.9,0,0,1,.379-.153c.113-.04.238-.075.36-.1s.243-.053.366-.073c.063-.009.128-.018.192-.025s.129-.011.193-.016.113-.006.178-.007.12,0,.179,0c.155,0,.31.01.464.025s.31.04.462.069a4.15,4.15,0,0,1,.787.24c.113.05.227.1.34.164a3.467,3.467,0,0,1,.322.2c.1.068.2.142.287.219a3.41,3.41,0,0,1,.263.248,3.679,3.679,0,0,1,.441.559c.066.1.126.2.182.31a3.537,3.537,0,0,1,.153.326c.048.113.09.227.127.34s.07.233.1.349a4.735,4.735,0,0,1,.108,1.467Z" transform="translate(-701.219 -52.56)" fill="#231f20"/>
      <path id="Path_164" data-name="Path 164" d="M376.086,103.995a1.385,1.385,0,0,0-.077-.25,1.122,1.122,0,0,0-.1-.188,1.074,1.074,0,0,0-.314-.314,1.249,1.249,0,0,0-.188-.1,1.354,1.354,0,0,0-.25-.077,1.928,1.928,0,0,0-.709,0,1.3,1.3,0,0,0-.25.078,1.186,1.186,0,0,0-.187.1,1.172,1.172,0,0,0-.174.142,1.1,1.1,0,0,0-.141.174,1.135,1.135,0,0,0-.1.187,1.3,1.3,0,0,0-.077.25,1.606,1.606,0,0,0-.032.276q-.206-.167-.428-.316a5.833,5.833,0,0,0-.607-.358,6.079,6.079,0,0,0-.647-.286,6.519,6.519,0,0,0-.955-.277,6.737,6.737,0,0,0-.985-.129c-.094,0-.188-.009-.282-.011s-.189,0-.284,0c-.138,0-.277.01-.416.022s-.276.026-.414.045a7.018,7.018,0,0,0-.794.16,6.82,6.82,0,0,0-.771.254,6.52,6.52,0,0,0-1.394.761,6.346,6.346,0,0,0-1.162,1.078,6.25,6.25,0,0,0-.479.652,6.4,6.4,0,0,0-.391.707,6.7,6.7,0,0,0-.532,1.6c-.028.144-.051.289-.07.436s-.034.292-.044.439-.017.3-.019.454,0,.3.008.454a7.444,7.444,0,0,0,.093.87,7.092,7.092,0,0,0,.2.853,6.629,6.629,0,0,0,.286.777,6.759,6.759,0,0,0,.381.737,6.294,6.294,0,0,0,1.588,1.783,6.328,6.328,0,0,0,1.377.808,6.593,6.593,0,0,0,.755.273c.132.039.264.074.4.1s.269.058.4.079a6.862,6.862,0,0,0,.82.087c.105.006.211.008.316.008h.316c.163-.007.327-.02.489-.04s.322-.043.482-.074.319-.068.475-.113.313-.093.466-.149.3-.113.454-.185a5.929,5.929,0,0,0,.709-.383,6.061,6.061,0,0,0,.651-.476,1.7,1.7,0,0,0,.032.272,1.291,1.291,0,0,0,.076.25,1.206,1.206,0,0,0,.1.188,1.128,1.128,0,0,0,.5.415,1.3,1.3,0,0,0,.25.077,1.681,1.681,0,0,0,.176.026c.062.006.113.008.178.008a1.337,1.337,0,0,0,.178-.008c.065-.008.113-.014.176-.025a.851.851,0,0,0,.126-.033,1.24,1.24,0,0,0,.124-.045,1.2,1.2,0,0,0,.188-.1c.032-.022.061-.043.091-.067a1.031,1.031,0,0,0,.083-.075c.026-.026.051-.054.075-.083s.045-.06.067-.091a1.153,1.153,0,0,0,.1-.188c.017-.04.032-.081.045-.124a1.276,1.276,0,0,0,.032-.126,1.567,1.567,0,0,0,.026-.176c0-.059.007-.119.007-.178V104.347a1.756,1.756,0,0,0-.026-.353Zm-2.518,6a4.6,4.6,0,0,1-.113.725,4.425,4.425,0,0,1-.227.689,3.98,3.98,0,0,1-.34.631,3.63,3.63,0,0,1-.454.554,3.5,3.5,0,0,1-.557.462,3.715,3.715,0,0,1-.67.355,4.132,4.132,0,0,1-.794.227,5.07,5.07,0,0,1-.935.084,4.417,4.417,0,0,1-.774-.068,4.038,4.038,0,0,1-.717-.2,3.909,3.909,0,0,1-.689-.34,3.765,3.765,0,0,1-.567-.43,3.647,3.647,0,0,1-.476-.531,3.758,3.758,0,0,1-.378-.628,4.112,4.112,0,0,1-.265-.721c-.035-.134-.065-.269-.087-.4s-.04-.273-.051-.411-.017-.294-.016-.44.007-.293.02-.438.032-.272.056-.407.056-.267.092-.4.075-.244.12-.363.1-.235.153-.349a3.493,3.493,0,0,1,.177-.318,3.6,3.6,0,0,1,.206-.3,3.675,3.675,0,0,1,.482-.521c.087-.078.179-.152.275-.227a2.882,2.882,0,0,1,.295-.2,3.935,3.935,0,0,1,.355-.183c.124-.057.251-.107.379-.151s.238-.076.358-.105.244-.053.366-.071c.065-.01.128-.018.193-.025s.128-.012.193-.017.113,0,.178-.007a1.575,1.575,0,0,1,.179,0c.154,0,.31.01.464.025a4.506,4.506,0,0,1,.461.068,4.083,4.083,0,0,1,.788.242q.174.074.34.163a3.718,3.718,0,0,1,.322.2,3.373,3.373,0,0,1,.287.22,3.607,3.607,0,0,1,.263.247,3.694,3.694,0,0,1,.441.559c.065.1.126.2.182.31s.107.214.153.326.09.227.127.34.069.233.1.351a4.641,4.641,0,0,1,.113.729,4.558,4.558,0,0,1-.007.738Z" transform="translate(-211.914 -52.547)" fill="#231f20"/>
      <path id="Path_165" data-name="Path 165" d="M515,114.269V103.716a.036.036,0,0,0,0-.01v-.125a.124.124,0,0,1,.006-.045l.007-.045a.4.4,0,0,1,.018-.09c.007-.029.015-.06.024-.088l.007-.025.009-.024a.126.126,0,0,1,.008-.025.14.14,0,0,0,.009-.024l.019-.047.023-.045c.016-.033.033-.065.052-.1l.029-.045.032-.044.035-.044.037-.042a1.059,1.059,0,0,1,.081-.078c.028-.024.057-.047.087-.068s.061-.042.093-.06a1.156,1.156,0,0,1,.191-.086,1.418,1.418,0,0,1,.306-.074c.058,0,.113-.01.176-.012h.172a1.5,1.5,0,0,1,.362.062c.033.009.065.022.1.033a.978.978,0,0,1,.093.042,1,1,0,0,1,.1.052,1.183,1.183,0,0,1,.254.216.738.738,0,0,1,.068.088.9.9,0,0,1,.059.092,1.128,1.128,0,0,1,.073.15,1.329,1.329,0,0,1,.051.157,4.888,4.888,0,0,1,.454-.3,5.192,5.192,0,0,1,.628-.321,5.728,5.728,0,0,1,.993-.322,6.6,6.6,0,0,1,1.021-.146c.086,0,.172-.009.259-.011h.588l.113.009a7.138,7.138,0,0,1,.907.128,6.447,6.447,0,0,1,.848.238,5.628,5.628,0,0,1,.8.366,5.369,5.369,0,0,1,.71.454,5.18,5.18,0,0,1,1.559,1.975,5.741,5.741,0,0,1,.3.831,6.437,6.437,0,0,1,.185.907,7.461,7.461,0,0,1,.061.969v6.135a1.766,1.766,0,0,1-.033.354,1.382,1.382,0,0,1-.077.25,1.213,1.213,0,0,1-.1.188,1.088,1.088,0,0,1-.142.174,1.028,1.028,0,0,1-.174.14,1.105,1.105,0,0,1-.187.1,1.453,1.453,0,0,1-.251.076,1.679,1.679,0,0,1-.176.026,1.528,1.528,0,0,1-.177.007,1.568,1.568,0,0,1-.178-.007c-.065-.007-.113-.015-.176-.026a.931.931,0,0,1-.127-.032,1.131,1.131,0,0,1-.122-.045,1.157,1.157,0,0,1-.188-.1.88.88,0,0,1-.09-.067.989.989,0,0,1-.159-.159.874.874,0,0,1-.066-.09,1.154,1.154,0,0,1-.1-.188,1.119,1.119,0,0,1-.044-.123,1.166,1.166,0,0,1-.032-.127,1.52,1.52,0,0,1-.026-.175c-.006-.059-.008-.113-.008-.177v-6.115a4.75,4.75,0,0,0-.057-.761,3.7,3.7,0,0,0-.159-.643,2.884,2.884,0,0,0-.25-.533,2.543,2.543,0,0,0-.329-.434,2.579,2.579,0,0,0-.411-.351,2.935,2.935,0,0,0-.5-.269,3.459,3.459,0,0,0-.6-.188c-.113-.025-.227-.047-.34-.061s-.227-.028-.347-.036l-.191-.008h-.368a.828.828,0,0,0-.176.012q-.163.016-.327.044a3.372,3.372,0,0,0-.615.174c-.1.037-.192.079-.284.126a3.214,3.214,0,0,0-.506.319c-.078.061-.153.125-.227.193s-.141.138-.206.212a2.908,2.908,0,0,0-.187.235c-.059.082-.113.164-.164.251a3.442,3.442,0,0,0-.28.6q-.054.154-.1.313a3.112,3.112,0,0,0-.068.321c-.02.113-.034.227-.043.34s-.015.233-.015.349v5.9a1.757,1.757,0,0,1-.033.354,1.37,1.37,0,0,1-.078.251,1.106,1.106,0,0,1-.1.187,1.04,1.04,0,0,1-.142.174,1.067,1.067,0,0,1-.172.14,1.12,1.12,0,0,1-.188.1,1.474,1.474,0,0,1-.25.076,1.682,1.682,0,0,1-.176.026,1.529,1.529,0,0,1-.177.007,1.568,1.568,0,0,1-.178-.007c-.065-.007-.113-.014-.176-.026a1.194,1.194,0,0,1-.25-.077,1.115,1.115,0,0,1-.188-.1,1.006,1.006,0,0,1-.09-.066c-.029-.024-.057-.049-.084-.075a1.008,1.008,0,0,1-.074-.083c-.024-.029-.046-.059-.067-.09a1.214,1.214,0,0,1-.1-.188,1.233,1.233,0,0,1-.044-.124c-.012-.041-.024-.084-.033-.126a1.737,1.737,0,0,1-.025-.177C515,114.374,515,114.327,515,114.269Z" transform="translate(-346.838 -51.988)" fill="#231f20"/>
      <path id="Path_166" data-name="Path 166" d="M655.6,64.279a1.774,1.774,0,0,1-.035.362,1.737,1.737,0,0,1-.108.34,1.57,1.57,0,0,1-.4.542,1.672,1.672,0,0,1-.26.186,1.642,1.642,0,0,1-.28.13,1.773,1.773,0,0,1-1.173,0,1.613,1.613,0,0,1-.281-.128,1.672,1.672,0,0,1-.26-.186,1.54,1.54,0,0,1-.227-.245,1.591,1.591,0,0,1-.174-.3,1.732,1.732,0,0,1-.108-.34,1.892,1.892,0,0,1,0-.726,1.684,1.684,0,0,1,.108-.34,1.565,1.565,0,0,1,.174-.3,1.493,1.493,0,0,1,.227-.245,1.576,1.576,0,0,1,.26-.187,1.632,1.632,0,0,1,.28-.127,1.776,1.776,0,0,1,1.174,0,1.56,1.56,0,0,1,.28.127,1.631,1.631,0,0,1,.261.187,1.538,1.538,0,0,1,.227.245,1.571,1.571,0,0,1,.171.292,1.615,1.615,0,0,1,.108.34A1.786,1.786,0,0,1,655.6,64.279Z" transform="translate(-468.528 -16.845)" fill="#231f20"/>
      <path id="Path_167" data-name="Path 167" d="M657.6,105.047a1.391,1.391,0,0,0-.008-.181,1.491,1.491,0,0,0-.028-.187,1.282,1.282,0,0,0-.079-.25,1.171,1.171,0,0,0-.113-.2,1.081,1.081,0,0,0-.152-.177,1.175,1.175,0,0,0-.185-.141,1.222,1.222,0,0,0-.2-.1,1.492,1.492,0,0,0-.306-.076c-.06-.008-.121-.012-.183-.015h-.177a1.576,1.576,0,0,0-.37.061,1.369,1.369,0,0,0-.2.079,1.248,1.248,0,0,0-.192.123,1.142,1.142,0,0,0-.167.164,1.235,1.235,0,0,0-.126.188,1.306,1.306,0,0,0-.083.2c-.009.028-.017.058-.025.087s-.014.059-.019.088-.01.061-.015.092a.152.152,0,0,0,0,.047v.047a.141.141,0,0,0,0,.023v8.694c0,.153,0,.307-.01.462-.008.187-.017.373-.022.56s-.007.356,0,.533a5.493,5.493,0,0,0,.044.567,1.365,1.365,0,0,0,.024.135,1.142,1.142,0,0,0,.039.128,1.348,1.348,0,0,0,.152.307,1.369,1.369,0,0,0,.107.136c.017.02.035.04.054.059s.039.037.058.054a1.3,1.3,0,0,0,.13.105,1.371,1.371,0,0,0,.152.091,1.132,1.132,0,0,0,.163.068,1.316,1.316,0,0,0,.172.043c.027.006.053.008.081.012l.082.007h.154a1.346,1.346,0,0,0,.329-.052c.028-.009.057-.018.085-.029l.083-.035c.027-.012.053-.026.079-.041a.765.765,0,0,0,.076-.047c.024-.016.047-.032.069-.05a.488.488,0,0,0,.066-.054c.019-.016.039-.034.057-.051l.053-.054a1.237,1.237,0,0,0,.086-.1c.029-.039.057-.077.082-.113a1.336,1.336,0,0,0,.113-.248.151.151,0,0,0,.009-.024l.007-.025a.25.25,0,0,1,.016-.057c0-.018.014-.053.018-.081s.007-.034.009-.051a.253.253,0,0,0,0-.027v-.027c0-.037.009-.075.012-.113.008-.071.014-.142.018-.213s.008-.142.01-.212v-.395c0-.132-.007-.263-.011-.395,0-.07-.006-.142-.009-.214s0-.142-.008-.213c0-.113-.007-.227-.007-.34Z" transform="translate(-470.906 -53.291)" fill="#231f20"/>
      <path id="Path_168" data-name="Path 168" d="M714.54,88.192a3.855,3.855,0,0,1-.462.137c-.09.02-.179.037-.27.049a1.837,1.837,0,0,1-.236.019h-.2a1.953,1.953,0,0,1-.227-.019,1.794,1.794,0,0,1-.227-.044c-.024-.007-.048-.012-.071-.02l-.07-.025a.979.979,0,0,1-.106-.049.889.889,0,0,1-.1-.061.787.787,0,0,1-.075-.064.67.67,0,0,1-.065-.074.849.849,0,0,1-.063-.093,1.042,1.042,0,0,1-.051-.1c-.013-.026-.023-.051-.033-.077l-.027-.078c-.017-.054-.032-.113-.045-.166s-.024-.113-.033-.168c-.022-.137-.036-.277-.045-.415-.01-.162-.015-.326-.015-.487V80.1h2.735a1.68,1.68,0,0,0,.32-.03,1.334,1.334,0,0,0,.227-.071,1.063,1.063,0,0,0,.177-.1,1.08,1.08,0,0,0,.164-.133,1.093,1.093,0,0,0,.133-.164,1.047,1.047,0,0,0,.1-.176,1.309,1.309,0,0,0,.073-.227,1.5,1.5,0,0,0,.022-.16,1.633,1.633,0,0,0,0-.322,1.266,1.266,0,0,0-.023-.159,1.187,1.187,0,0,0-.071-.227,1.154,1.154,0,0,0-.094-.177,1.107,1.107,0,0,0-.134-.164,1.085,1.085,0,0,0-.163-.133.944.944,0,0,0-.177-.094,1.134,1.134,0,0,0-.227-.071,1.525,1.525,0,0,0-.321-.031h-2.722V75.545a.141.141,0,0,1,0-.022v-.035a.044.044,0,0,1,0-.011.176.176,0,0,0,0-.023v-.14a.1.1,0,0,0-.008-.047c-.008-.016,0-.029-.008-.044l-.01-.044c-.008-.029-.015-.059-.024-.087s-.024-.068-.037-.1a1.044,1.044,0,0,0-.045-.1,1.1,1.1,0,0,0-.124-.192c-.026-.029-.051-.059-.079-.086a.806.806,0,0,0-.087-.078c-.03-.025-.061-.045-.092-.067a1.127,1.127,0,0,0-.1-.058,1.282,1.282,0,0,0-.2-.079c-.031-.01-.061-.018-.092-.026l-.093-.019c-.031,0-.061-.009-.092-.011a.882.882,0,0,0-.093-.008h-.18l-.092.006a.273.273,0,0,0-.091.01,1.411,1.411,0,0,0-.157.028,1.241,1.241,0,0,0-.152.048c-.034.011-.068.027-.1.042s-.065.034-.1.052a1.121,1.121,0,0,0-.185.141,1.155,1.155,0,0,0-.082.084q-.037.044-.071.092c-.022.031-.041.064-.059.1a1.036,1.036,0,0,0-.05.1,1.284,1.284,0,0,0-.081.25c-.007.032-.012.062-.017.094s-.009.062-.011.094a.6.6,0,0,1-.007.091.413.413,0,0,0,0,.092l.007,2.071h-1.248a1.506,1.506,0,0,0-.32.031,1.1,1.1,0,0,0-.233.071.984.984,0,0,0-.177.094,1.143,1.143,0,0,0-.163.133,1.033,1.033,0,0,0-.134.164,1.153,1.153,0,0,0-.094.177,1.19,1.19,0,0,0-.071.227,1.515,1.515,0,0,0-.024.159c0,.053-.007.113-.007.161a1.315,1.315,0,0,0,.007.161,1.489,1.489,0,0,0,.024.16,1.221,1.221,0,0,0,.071.227,1.14,1.14,0,0,0,.094.176.992.992,0,0,0,.135.164.982.982,0,0,0,.165.133,1.01,1.01,0,0,0,.176.1,1.363,1.363,0,0,0,.227.071,1.669,1.669,0,0,0,.32.029h1.248v6.352c0,.28.01.559.037.838a6.135,6.135,0,0,0,.124.787,4.477,4.477,0,0,0,.227.732,3.544,3.544,0,0,0,.2.408,3.19,3.19,0,0,0,.2.318,3.3,3.3,0,0,0,.24.293,2.882,2.882,0,0,0,.276.264,2.782,2.782,0,0,0,.311.227,2.9,2.9,0,0,0,.34.2,3.628,3.628,0,0,0,.526.209,4.63,4.63,0,0,0,.843.172c.152.016.306.026.459.033h.352a4.376,4.376,0,0,0,.487-.043c.09-.012.18-.028.27-.047s.179-.039.268-.061.157-.042.234-.066.153-.05.227-.076l.113-.041.113-.043.045-.018.045-.018.045-.019.045-.019c.039-.017.077-.036.113-.057a.634.634,0,0,0,.054-.033c.018-.011.036-.023.054-.036a1.056,1.056,0,0,0,.1-.077,1.106,1.106,0,0,0,.091-.087.956.956,0,0,0,.083-.1,1,1,0,0,0,.07-.105,1.074,1.074,0,0,0,.1-.219.94.94,0,0,0,.033-.113.969.969,0,0,0,.023-.113,1.236,1.236,0,0,0,.014-.216,1.353,1.353,0,0,0-.024-.216,1.325,1.325,0,0,0-.142-.386,1.267,1.267,0,0,0-.113-.176,1.4,1.4,0,0,0-.142-.154,1.282,1.282,0,0,0-.177-.135,1.148,1.148,0,0,0-.208-.1,1.126,1.126,0,0,0-.235-.065,1.16,1.16,0,0,0-.251-.016,1.24,1.24,0,0,0-.251.037A1.4,1.4,0,0,0,714.54,88.192Z" transform="translate(-517.112 -27.173)" fill="#231f20"/>
      <path id="Path_169" data-name="Path 169" d="M825.759,103.492a5.151,5.151,0,0,0-1.039-.34,5.082,5.082,0,0,0-1.2-.113,6.011,6.011,0,0,0-.794.054,5.593,5.593,0,0,0-.641.121,5.3,5.3,0,0,0-.794.265,4.7,4.7,0,0,0-.757.4c-.061.041-.122.083-.183.127-.014-.044-.028-.088-.045-.132a1.281,1.281,0,0,0-.06-.125,1.11,1.11,0,0,0-.44-.438,1.224,1.224,0,0,0-.185-.082,1.4,1.4,0,0,0-.15-.042c-.051-.01-.1-.019-.153-.025s-.113-.009-.166-.011H819a1.5,1.5,0,0,0-.34.057,1.109,1.109,0,0,0-.188.071,1.148,1.148,0,0,0-.177.1,1.178,1.178,0,0,0-.16.141,1.094,1.094,0,0,0-.129.169,1.155,1.155,0,0,0-.092.179,1.34,1.34,0,0,0-.071.247,1.729,1.729,0,0,0-.029.332V114.95a1.746,1.746,0,0,0,.033.353,1.291,1.291,0,0,0,.076.25,1.137,1.137,0,0,0,.242.361,1.036,1.036,0,0,0,.174.141,1.159,1.159,0,0,0,.188.1,1.476,1.476,0,0,0,.25.076,1.675,1.675,0,0,0,.176.026,2.319,2.319,0,0,0,.355,0c.064-.007.113-.014.176-.026a1.143,1.143,0,0,0,.127-.032,1.226,1.226,0,0,0,.122-.045,1,1,0,0,0,.188-.1.815.815,0,0,0,.09-.065c.029-.025.057-.049.083-.075a1.081,1.081,0,0,0,.075-.084,1.015,1.015,0,0,0,.067-.09,1.148,1.148,0,0,0,.1-.188,1.284,1.284,0,0,0,.044-.122c.013-.042.024-.084.033-.126a1.571,1.571,0,0,0,.025-.177c.006-.058.009-.113.009-.177v-6.2a3.27,3.27,0,0,1,.06-.631,3.2,3.2,0,0,1,.178-.585,3.236,3.236,0,0,1,.28-.53,3.1,3.1,0,0,1,.377-.466,3.161,3.161,0,0,1,.454-.386,3.207,3.207,0,0,1,.525-.292c.094-.041.191-.076.288-.113a2.762,2.762,0,0,1,.3-.079c.1-.023.21-.039.316-.051.054,0,.107-.01.16-.014h.315a1.452,1.452,0,0,1,.155.011c.1.009.206.024.309.043.05.009.1.02.146.032s.1.024.144.037.1.028.143.045.094.032.141.05a1.146,1.146,0,0,0,.217.085,1.16,1.16,0,0,0,.285.048,1.177,1.177,0,0,0,.282-.022,1.3,1.3,0,0,0,.13-.034,1.112,1.112,0,0,0,.126-.049,1.267,1.267,0,0,0,.4-.286,1.4,1.4,0,0,0,.251-.373,1.453,1.453,0,0,0,.077-.213,1.2,1.2,0,0,0,.041-.227,2.059,2.059,0,0,0,.007-.234,1.413,1.413,0,0,0-.047-.248,1.386,1.386,0,0,0-.105-.25,1.183,1.183,0,0,0-.169-.227,1.154,1.154,0,0,0-.227-.184A1.3,1.3,0,0,0,825.759,103.492Z" transform="translate(-615.299 -52.677)" fill="#231f20"/>
    </g>
    <g id="Group_54" data-name="Group 54">
      <path id="Path_170" data-name="Path 170" d="M71.053,5.848a5.218,5.218,0,0,0-6.991-2,6.814,6.814,0,0,0-2.617,2.966q-1,1.742-2.01,3.485L51.389,24.236a.517.517,0,0,0,.667.727,5.409,5.409,0,0,1,7.533,4.009.517.517,0,0,0,.961.187L66.3,19.1c.13-.227.319-.227.454,0q3.582,6.258,7.16,12.516a.473.473,0,0,0,.322.245l7.146,1.808a.517.517,0,0,0,.641-.454q.309-3.552.619-7.1a.5.5,0,0,0-.067-.3L71.043,5.829" transform="translate(63.519 35.81)" fill="url(#linear-gradient)"/>
      <path id="Path_171" data-name="Path 171" d="M50.53,205.824a3.925,3.925,0,1,0-3.924,3.926,3.925,3.925,0,0,0,3.924-3.926Z" transform="translate(71.179 -140.325)" fill="url(#linear-gradient-2)"/>
    </g>
  </g>
</svg>
