<svg xmlns="http://www.w3.org/2000/svg" version="1.1" xmlns:xlink="http://www.w3.org/1999/xlink" width="512" height="512" x="0" y="0" viewBox="0 0 512 512" style="enable-background:new 0 0 512 512" xml:space="preserve"><g><path d="M193 225.7c-1.4-.7-3.1-.8-4.6-.1-5.6 2.5-11.3 4.7-17.1 6.8-29.2 11.3-47 3.1-72.4 17.7-29.8 17.9-32.2 52.4-23.7 72.5.4.9.9 1.7 1.7 2.3 44.5 9.3 98.6-12.4 114.2-47 7-14.3 8.6-31.1 4.8-48.6-.4-1.5-1.4-2.9-2.9-3.6zm-11.6 47.5c-13.2 27.2-49.4 44-90 42.9 15.3-17.1 34.3-30.7 55.3-40 2.7-1.2 3.9-4.4 2.7-7.1s-4.4-4-7.1-2.7c-22.8 10-43.2 24.8-59.6 43.4-3.2-18.7.6-36.2 21.9-50.4 9.8-6.2 18.8-7.1 30.2-8.4 12.1-.7 35.4-5.4 51.6-12.8 1.4 10 1 22.7-5 35.1zm199.3 95.3h-28.8c-3 0-5.4 2.4-5.4 5.4v28.8c0 3 2.4 5.4 5.4 5.4h28.8c3 0 5.4-2.4 5.4-5.4v-28.8c0-3-2.4-5.4-5.4-5.4zm-5.4 28.8h-18v-18h18zm5.4-124.2H242.4c-3 0-5.4 2.4-5.4 5.4v58.1c0 3 2.4 5.4 5.4 5.4h138.3c3 0 5.4-2.4 5.4-5.4v-58.1c0-3-2.4-5.4-5.4-5.4zm-5.4 58.1H247.8v-47.3h127.6v47.3zm-104.1 37.3h-28.8c-3 0-5.4 2.4-5.4 5.4v28.8c0 3 2.4 5.4 5.4 5.4h28.8c3 0 5.4-2.4 5.4-5.4v-28.8c0-3-2.4-5.4-5.4-5.4zm-5.4 28.8h-18.1v-18h18.1zm60.2 28.4h-28.8c-3 0-5.4 2.4-5.4 5.4v28.8c0 3 2.4 5.4 5.4 5.4H326c3 0 5.4-2.4 5.4-5.4V431c0-2.9-2.5-5.3-5.4-5.3zm-5.4 28.8h-18v-18.1h18zm5.4-86h-28.8c-3 0-5.4 2.4-5.4 5.4v28.8c0 3 2.4 5.4 5.4 5.4H326c3 0 5.4-2.4 5.4-5.4v-28.8c0-3-2.5-5.4-5.4-5.4zm-5.4 28.8h-18v-18h18zm-49.4 28.4h-28.8c-3 0-5.4 2.4-5.4 5.4v28.8c0 3 2.4 5.4 5.4 5.4h28.8c3 0 5.4-2.4 5.4-5.4V431c0-2.9-2.4-5.3-5.4-5.3zm-5.4 28.8h-18.1v-18.1h18.1zm114.9-28.8h-28.8c-3 0-5.4 2.4-5.4 5.4v28.8c0 3 2.4 5.4 5.4 5.4h28.8c3 0 5.4-2.4 5.4-5.4V431c0-2.9-2.4-5.3-5.4-5.3zm-5.4 28.8h-18v-18.1h18zM497 137.9h-23.3c-2.9-10.3-7-20.2-12.2-29.5L477.9 92c5.5-5.2 5.5-14.7 0-19.8l-34-34c-5.5-5.4-14.3-5.4-19.8 0l-16.5 16.5c-9.3-5.2-19.2-9.3-29.5-12.2V19.2c0-7.7-6.3-14-14-14h-48c-7.7 0-14 6.3-14 14v23.3c-10.3 2.9-20.1 7-29.5 12.2l-16.5-16.5c-5.5-5.4-14.4-5.4-19.8 0l-33.9 34c-6.4 6-5 16.5 1.7 21.6-10.7-2.9-14.6-7-15.9-10.1-3.8-8.9-8.8-9.7-14.4-9.8-2.3-.1-4.5-.1-7.5-1.4-6.8-2.8-6.8-2.8-8.7-6.8-3.5-8.3-6.5-12.6-13.1-13.9-7.6-2.7-13.7 3.8-14 4.2-1.1 1-10.9 9.9-14.4 15.5-.6 1-6.4.3-8.5.1-2.2-.2-4.4-.5-6.4-.5-6.3 0-8.8 2.5-11.4 5.1-1.4 1.4-3.1 3.1-6.1 5.2-4.2 2.9-6.4 1.7-8.7.4-1.2-.6-2.5-1.4-4.2-1.4-2.7 0-17.4 3.8-24.2 10.2-4.5 4.1-15 14.3-19 18.2H11.8c-3 0-5.4 2.4-5.4 5.4v22.5c0 7 5.3 12.9 12.3 14.1C11.2 227.9 12 308 20.8 385c-4.7 4.9-30.5 36.1-14.7 37.4h202.2v67.8c0 9.2 7.5 16.7 16.7 16.7h173.3c9.2 0 16.7-7.5 16.7-16.7V304.4l9.3 9.3c5.5 5.4 14.4 5.3 19.8 0l33.9-34c5.5-5.2 5.5-14.7 0-19.8l-16.5-16.4c5.2-9.3 9.3-19.2 12.2-29.5H497c7.7 0 14-6.3 14-14v-48.1c0-7.7-6.3-14-14-14zM54.2 98.5c3.6-3.4 12.9-6.4 16.1-7.2 8.4 5.4 18.7 1.9 27.4-7.5 1.9-1.9 1.9-1.9 3.8-1.9 7.8.1 18.2 3.7 23.9-4.6 2.4-3.8 9.9-10.9 12.9-13.7.9-.9 2.4-1.8 2.9-1.6 1 .3 2.1.6 2.9.9.3.2 1 1.2 2.8 5.1l1 2.2c3.4 7.5 4.8 8.3 14.5 12.4 4.7 1.9 8.5 2 11.2 2.1 3.3.1 3.3.1 4.7 3.3 3.6 8.4 12.9 14.3 27.7 17.4 2.6.5 8.8 1.9 13.7 3.5H43.4c4.1-4 8.4-8.1 10.8-10.4zm-37 38.2v-17.1h234.4v17.1c0 2-1.9 3.6-4.3 3.6H21.5c-2.4 0-4.3-1.6-4.3-3.6zm191 274.9H14.7c3.8-7 8.5-13.7 13.9-19.4h179.5v19.4zm4.3-165.2c-5.9 6.2-4.3 16.1-4.3 23.9v111.2h-177c-8.4-75.8-9.1-154.6-1.8-230.3h211c2.8 29.7 4.4 59.8 4.9 89.7-10.9.7-24.2-3-32.8 5.5zm191.6 243.8c0 3.3-2.6 5.9-5.9 5.9H224.9c-3.3 0-5.9-2.6-5.9-5.9V257.4c.1-3.2 2.7-5.7 5.9-5.8h25.8c.1-.1 147.4 0 147.5 0 2.2 0 4.3 1.3 5.3 3.4.4.8.6 1.6.6 2.6v232.6zm4.7-245.6c-2.9-2.4-6.6-3.8-10.6-3.8H256c-.4-30.1-2.1-60.3-4.9-90.2 6.5-1.6 11.3-7.2 11.3-13.9v-19c18.3-24.5 47.3-39 77.8-39 86.1-.1 129.8 105.5 68.6 165.9zm91.4-44.6c0 1.8-1.4 3.2-3.2 3.2h-27.4c-2.5 0-4.6 1.7-5.2 4.1-3.1 12.1-7.9 23.7-14.2 34.4-1.3 2.1-.9 4.8.8 6.6l19.4 19.4c1.3 1.2 1.3 3.3 0 4.5l-33.9 34c-1.3 1.3-3.4 1.3-4.6 0L415 289.3c-.1-1.1.3-35.4-.3-34.9 70.4-66.5 22.7-186.4-74.3-186.3-32.9 0-64.2 15.2-84.6 40.9h-15c-4.9-3.7-9.9-7.7-15.8-9.7l-14.7-14.8c-1.3-1.2-1.3-3.3 0-4.5l33.9-34c1.3-1.3 3.3-1.2 4.6 0L268 65.2c1.7 1.8 4.5 2.1 6.6.8 10.7-6.4 22.2-11.2 34.3-14.2 2.4-.6 4.1-2.8 4.1-5.2V19.2c0-1.8 1.5-3.3 3.3-3.3h48c1.8 0 3.2 1.5 3.2 3.3v27.4c0 2.5 1.7 4.6 4.1 5.2 12.1 3 23.6 7.8 34.2 14.2 2.1 1.3 4.9 1 6.6-.8l19.4-19.4c1.3-1.3 3.4-1.3 4.6 0l34 34c1.2 1.2 1.3 3.3 0 4.5L451 103.7c-1.7 1.7-2.1 4.5-.8 6.6 6.4 10.6 11.2 22.2 14.2 34.3.6 2.4 2.8 4.1 5.2 4.1H497c1.8 0 3.2 1.4 3.2 3.2zm-144.5-46.8c7 0 7-10.7 0-10.8h-10.5c1-9.7-12.1-9.4-10.8.3-21 3.3-20.9 33.4 0 36.8v16H324c-3 0-5.4 2.4-5.4 5.4s2.4 5.4 5.4 5.4h10.5c-1 9.7 12.1 9.4 10.8-.3 21-3.3 20.9-33.4 0-36.8v-16zm-21.2 15.2c-6.6-2.2-6.6-12.5 0-14.7zm15.9 19.2c0 3.4-2.1 6.2-5.1 7.3v-14.7c2.9 1.2 5.1 4.1 5.1 7.4zm-10.5-76.2c-34.7 0-63 28.3-63 63 3.5 83.6 122.6 83.6 126 0 0-34.8-28.3-63-63-63zm0 115.2c-28.8 0-52.2-23.4-52.2-52.2 2.9-69.3 101.6-69.3 104.4 0 0 28.8-23.4 52.2-52.2 52.2z" fill="#689634" opacity="1" data-original="#000000"></path></g></svg>