<svg id="instagram" xmlns="http://www.w3.org/2000/svg" width="15.855" height="15.855" viewBox="0 0 15.855 15.855">
  <path id="Path_312" data-name="Path 312" d="M7.928,1.428c2.117,0,2.368.008,3.2.046a3.5,3.5,0,0,1,2.384.866,3.475,3.475,0,0,1,.866,2.384c.038.836.046,1.087.046,3.2s-.008,2.368-.046,3.2a3.515,3.515,0,0,1-.866,2.384,3.473,3.473,0,0,1-2.384.866c-.836.038-1.087.046-3.2.046s-2.368-.008-3.2-.046a3.54,3.54,0,0,1-2.384-.866,3.494,3.494,0,0,1-.866-2.384c-.038-.836-.046-1.087-.046-3.2s.008-2.368.046-3.2a3.527,3.527,0,0,1,.866-2.384,3.482,3.482,0,0,1,2.384-.866c.836-.038,1.087-.046,3.2-.046M7.928,0C5.775,0,5.5.009,4.659.048A4.9,4.9,0,0,0,1.331,1.331,4.891,4.891,0,0,0,.048,4.659C.009,5.5,0,5.775,0,7.928S.009,10.351.048,11.2a4.9,4.9,0,0,0,1.283,3.328,4.9,4.9,0,0,0,3.328,1.283c.846.038,1.116.048,3.269.048s2.423-.009,3.269-.048a4.9,4.9,0,0,0,3.328-1.283A4.889,4.889,0,0,0,15.808,11.2c.038-.846.048-1.116.048-3.269s-.009-2.423-.048-3.269a4.9,4.9,0,0,0-1.283-3.328A4.9,4.9,0,0,0,11.2.048C10.351.009,10.081,0,7.928,0Z" transform="translate(0 0)" fill="#fff"/>
  <path id="Path_313" data-name="Path 313" d="M9.909,5.838A4.071,4.071,0,1,0,13.98,9.909,4.071,4.071,0,0,0,9.909,5.838Zm0,6.713a2.643,2.643,0,1,1,2.643-2.643A2.643,2.643,0,0,1,9.909,12.551Z" transform="translate(-1.981 -1.981)" fill="#fff"/>
  <circle id="Ellipse_65" data-name="Ellipse 65" cx="0.951" cy="0.951" r="0.951" transform="translate(11.208 2.744)" fill="#fff"/>
</svg>
