<svg id="logo_white_background_-01" data-name="logo (white background)-01" xmlns="http://www.w3.org/2000/svg" xmlns:xlink="http://www.w3.org/1999/xlink" width="108.898" height="24.979" viewBox="0 0 108.898 24.979">
  <defs>
    <linearGradient id="linear-gradient" y1="0.5" x2="1" y2="0.5" gradientUnits="objectBoundingBox">
      <stop offset="0.15" stop-color="#d81f5e"/>
      <stop offset="0.24" stop-color="#db2458"/>
      <stop offset="0.71" stop-color="#ea3940"/>
      <stop offset="1" stop-color="#ef4137"/>
    </linearGradient>
    <linearGradient id="linear-gradient-2" y1="0.5" x2="7.916" y2="0.5" gradientUnits="objectBoundingBox">
      <stop offset="0" stop-color="#d81f5e"/>
      <stop offset="0.11" stop-color="#db2458"/>
      <stop offset="0.66" stop-color="#ea3940"/>
      <stop offset="1" stop-color="#ef4137"/>
    </linearGradient>
  </defs>
  <path id="Path_163" data-name="Path 163" d="M927.935,104a1.376,1.376,0,0,0-.077-.248,1.07,1.07,0,0,0-.1-.187,1.024,1.024,0,0,0-.14-.172,1.15,1.15,0,0,0-.173-.141,1.26,1.26,0,0,0-.436-.176,1.912,1.912,0,0,0-.7,0,1.377,1.377,0,0,0-.248.077,1.151,1.151,0,0,0-.187.1,1.076,1.076,0,0,0-.172.141,1.031,1.031,0,0,0-.14.173,1.154,1.154,0,0,0-.1.187,1.336,1.336,0,0,0-.076.247,1.735,1.735,0,0,0-.032.276q-.2-.168-.426-.317a6.062,6.062,0,0,0-1.242-.641,6.6,6.6,0,0,0-1.94-.4c-.094,0-.187-.009-.281-.01s-.187,0-.281,0c-.138,0-.277.011-.416.023s-.274.026-.411.045a6.73,6.73,0,0,0-1.562.412,6.475,6.475,0,0,0-1.389.758,6.4,6.4,0,0,0-1.156,1.074,6.262,6.262,0,0,0-.475.649,6.37,6.37,0,0,0-.391.7,6.763,6.763,0,0,0-.311.778,7.2,7.2,0,0,0-.21.812c-.028.143-.051.288-.07.434s-.034.29-.044.437-.017.3-.019.452,0,.3.008.452a7.174,7.174,0,0,0,.093.866,6.982,6.982,0,0,0,.2.848,6.91,6.91,0,0,0,.286.775,6.407,6.407,0,0,0,1.965,2.508,6.451,6.451,0,0,0,.658.443,6.31,6.31,0,0,0,.714.361,6.628,6.628,0,0,0,.751.272c.132.038.264.073.4.1s.269.058.4.079a6.857,6.857,0,0,0,.817.087c.105.006.21.008.316.008h.314c.164-.007.325-.02.487-.04s.322-.043.48-.073.318-.068.473-.113.312-.093.465-.148a4.854,4.854,0,0,0,.452-.184,5.937,5.937,0,0,0,1.355-.856,1.784,1.784,0,0,0,.032.269,1.374,1.374,0,0,0,.076.248,1.149,1.149,0,0,0,.1.187,1.034,1.034,0,0,0,.14.173,1.112,1.112,0,0,0,.359.242,1.374,1.374,0,0,0,.248.077,1.672,1.672,0,0,0,.175.026,1.533,1.533,0,0,0,.177.007,1.55,1.55,0,0,0,.177-.007,1.758,1.758,0,0,0,.175-.026,1.107,1.107,0,0,0,.125-.032,1.136,1.136,0,0,0,.123-.044,1.115,1.115,0,0,0,.188-.1.948.948,0,0,0,.09-.064c.028-.025.056-.049.081-.075a1.053,1.053,0,0,0,.076-.084,1,1,0,0,0,.065-.089,1.109,1.109,0,0,0,.1-.187.949.949,0,0,0,.045-.123c.012-.041.023-.084.032-.125a1.545,1.545,0,0,0,.026-.176c0-.058.008-.113.008-.176V104.354A1.767,1.767,0,0,0,927.935,104Zm-2.506,5.974a4.758,4.758,0,0,1-.113.722,4.176,4.176,0,0,1-.232.686,3.911,3.911,0,0,1-.339.628,3.692,3.692,0,0,1-.452.551,3.54,3.54,0,0,1-.553.46,3.743,3.743,0,0,1-.669.353,4.136,4.136,0,0,1-.791.226,5.048,5.048,0,0,1-.931.084,4.43,4.43,0,0,1-.771-.068,4.035,4.035,0,0,1-.713-.194,3.891,3.891,0,0,1-.686-.339,3.705,3.705,0,0,1-.565-.428,3.791,3.791,0,0,1-.85-1.154,4.067,4.067,0,0,1-.264-.719c-.035-.132-.063-.267-.087-.4s-.039-.272-.051-.409-.017-.293-.017-.438.008-.291.021-.436.03-.271.055-.405.055-.265.091-.4.075-.243.12-.363.1-.233.154-.347a3.466,3.466,0,0,1,.175-.316c.064-.1.132-.2.206-.3a3.736,3.736,0,0,1,.481-.518c.087-.078.178-.152.273-.226a2.775,2.775,0,0,1,.295-.194,3.646,3.646,0,0,1,.359-.19,3.87,3.87,0,0,1,.377-.152c.113-.04.237-.075.358-.1s.242-.053.365-.072c.063-.009.128-.018.191-.025s.129-.011.192-.016.113-.006.177-.007.12,0,.178,0c.155,0,.308.01.462.025s.308.04.46.069a4.132,4.132,0,0,1,.784.239c.113.05.226.1.339.164a3.448,3.448,0,0,1,.321.2c.1.068.194.141.286.218a3.386,3.386,0,0,1,.262.247,3.66,3.66,0,0,1,.439.557c.066.1.125.2.181.308a3.524,3.524,0,0,1,.152.324c.047.113.089.226.126.339s.07.232.1.348a4.718,4.718,0,0,1,.107,1.46Z" transform="translate(-819.075 -95.322)" fill="#fff"/>
  <path id="Path_164" data-name="Path 164" d="M376.028,103.99a1.376,1.376,0,0,0-.077-.248,1.113,1.113,0,0,0-.1-.187,1.069,1.069,0,0,0-.313-.313,1.242,1.242,0,0,0-.187-.1,1.346,1.346,0,0,0-.248-.077,1.92,1.92,0,0,0-.706,0,1.294,1.294,0,0,0-.248.078,1.182,1.182,0,0,0-.186.1,1.161,1.161,0,0,0-.173.141,1.088,1.088,0,0,0-.14.173,1.13,1.13,0,0,0-.1.186,1.289,1.289,0,0,0-.077.248,1.6,1.6,0,0,0-.032.274q-.206-.166-.426-.315a5.809,5.809,0,0,0-.6-.357,6.059,6.059,0,0,0-.644-.285,6.491,6.491,0,0,0-.951-.276,6.708,6.708,0,0,0-.98-.129c-.094,0-.187-.009-.281-.011s-.189,0-.282,0c-.138,0-.276.01-.414.021s-.274.026-.412.045a6.986,6.986,0,0,0-.791.159,6.786,6.786,0,0,0-.768.253,6.491,6.491,0,0,0-1.388.758,6.317,6.317,0,0,0-1.156,1.073,6.218,6.218,0,0,0-.477.649,6.365,6.365,0,0,0-.39.7,6.671,6.671,0,0,0-.53,1.591c-.028.143-.051.288-.07.434s-.034.29-.044.437-.017.3-.019.452,0,.3.008.452a7.412,7.412,0,0,0,.093.866,7.066,7.066,0,0,0,.2.849,6.6,6.6,0,0,0,.285.774,6.725,6.725,0,0,0,.379.734,6.265,6.265,0,0,0,1.581,1.775,6.3,6.3,0,0,0,1.371.8,6.566,6.566,0,0,0,.752.272c.131.038.263.073.4.1s.268.058.4.079a6.834,6.834,0,0,0,.817.087c.105.006.21.008.315.008h.315c.163-.007.325-.02.487-.04s.321-.043.48-.073.317-.068.473-.113.312-.093.464-.148.3-.113.452-.184a5.9,5.9,0,0,0,.706-.382,6.03,6.03,0,0,0,.648-.474,1.7,1.7,0,0,0,.032.271,1.287,1.287,0,0,0,.076.248,1.2,1.2,0,0,0,.1.187,1.123,1.123,0,0,0,.5.413,1.289,1.289,0,0,0,.248.077,1.67,1.67,0,0,0,.175.026c.062.006.113.008.177.008a1.331,1.331,0,0,0,.177-.008c.064-.008.113-.014.175-.025a.848.848,0,0,0,.125-.033,1.241,1.241,0,0,0,.123-.045,1.192,1.192,0,0,0,.187-.1c.032-.021.061-.043.09-.067a1.027,1.027,0,0,0,.082-.075c.026-.026.051-.054.075-.082s.045-.06.067-.09a1.146,1.146,0,0,0,.1-.187c.017-.04.032-.08.045-.123a1.265,1.265,0,0,0,.032-.125,1.56,1.56,0,0,0,.026-.175c0-.059.007-.119.007-.177V104.341a1.746,1.746,0,0,0-.026-.351Zm-2.507,5.973a4.573,4.573,0,0,1-.113.722,4.4,4.4,0,0,1-.226.686,3.961,3.961,0,0,1-.339.628,3.615,3.615,0,0,1-.452.551,3.485,3.485,0,0,1-.555.46,3.7,3.7,0,0,1-.667.353,4.112,4.112,0,0,1-.791.226,5.048,5.048,0,0,1-.931.084,4.4,4.4,0,0,1-.77-.068,4.021,4.021,0,0,1-.714-.194,3.892,3.892,0,0,1-.686-.339,3.749,3.749,0,0,1-.565-.428,3.628,3.628,0,0,1-.474-.529,3.739,3.739,0,0,1-.376-.626,4.091,4.091,0,0,1-.264-.718c-.035-.133-.064-.268-.087-.4s-.04-.272-.051-.409-.017-.292-.016-.438.007-.291.02-.436.032-.271.055-.405.055-.265.091-.4.075-.243.12-.361.1-.234.152-.348a3.473,3.473,0,0,1,.176-.316,3.576,3.576,0,0,1,.206-.3,3.66,3.66,0,0,1,.48-.518c.087-.078.178-.151.273-.226a2.866,2.866,0,0,1,.294-.194,3.912,3.912,0,0,1,.353-.182c.123-.056.25-.106.377-.15s.237-.076.357-.105.243-.053.365-.071c.064-.01.128-.018.192-.025s.128-.012.192-.017.113,0,.177-.007a1.569,1.569,0,0,1,.178,0c.154,0,.308.01.462.025a4.49,4.49,0,0,1,.459.068,4.065,4.065,0,0,1,.785.241q.173.073.339.163a3.71,3.71,0,0,1,.321.2,3.361,3.361,0,0,1,.286.219,3.6,3.6,0,0,1,.262.246,3.679,3.679,0,0,1,.439.557c.064.1.125.2.181.308s.106.213.152.324.089.226.126.339.069.232.1.349a4.622,4.622,0,0,1,.113.726A4.539,4.539,0,0,1,373.521,109.963Z" transform="translate(-329.495 -95.31)" fill="#fff"/>
  <path id="Path_165" data-name="Path 165" d="M515,114.216V103.71a.035.035,0,0,0,0-.01v-.124a.125.125,0,0,1,.006-.045l.007-.045a.4.4,0,0,1,.018-.089c.007-.029.015-.06.024-.088l.007-.025.009-.024a.129.129,0,0,1,.008-.025.139.139,0,0,0,.009-.024l.019-.046.023-.045c.016-.033.033-.064.052-.1l.029-.045.032-.044.035-.044.037-.042a1.053,1.053,0,0,1,.08-.078c.028-.024.057-.046.087-.068s.061-.042.093-.06a1.149,1.149,0,0,1,.19-.086,1.414,1.414,0,0,1,.3-.073c.058,0,.113-.01.175-.012h.172a1.5,1.5,0,0,1,.36.062c.033.009.064.021.1.033a.973.973,0,0,1,.093.042.994.994,0,0,1,.095.052,1.176,1.176,0,0,1,.253.215.719.719,0,0,1,.068.088.882.882,0,0,1,.059.091,1.126,1.126,0,0,1,.072.149,1.318,1.318,0,0,1,.051.156,4.849,4.849,0,0,1,.452-.3,5.172,5.172,0,0,1,.626-.32,5.705,5.705,0,0,1,.988-.321,6.572,6.572,0,0,1,1.016-.146c.086,0,.172-.009.258-.011h.585l.113.009a7.108,7.108,0,0,1,.9.128,6.422,6.422,0,0,1,.845.237,5.606,5.606,0,0,1,.8.365,5.329,5.329,0,0,1,.707.452,5.155,5.155,0,0,1,1.552,1.966,5.722,5.722,0,0,1,.3.828,6.424,6.424,0,0,1,.184.9,7.439,7.439,0,0,1,.061.964v6.108a1.759,1.759,0,0,1-.033.352,1.38,1.38,0,0,1-.077.248,1.2,1.2,0,0,1-.1.187,1.083,1.083,0,0,1-.141.173,1.024,1.024,0,0,1-.173.139,1.107,1.107,0,0,1-.186.1,1.449,1.449,0,0,1-.25.076,1.667,1.667,0,0,1-.175.026,1.522,1.522,0,0,1-.176.007,1.562,1.562,0,0,1-.177-.007c-.064-.007-.113-.015-.175-.026a.931.931,0,0,1-.126-.032,1.129,1.129,0,0,1-.122-.045,1.154,1.154,0,0,1-.187-.1.877.877,0,0,1-.089-.067.983.983,0,0,1-.158-.158.868.868,0,0,1-.065-.089,1.15,1.15,0,0,1-.1-.187,1.3,1.3,0,0,1-.076-.248,1.52,1.52,0,0,1-.026-.174c-.006-.059-.008-.113-.008-.176v-6.088a4.737,4.737,0,0,0-.056-.758,3.692,3.692,0,0,0-.158-.64,2.877,2.877,0,0,0-.248-.531,2.534,2.534,0,0,0-.328-.433,2.574,2.574,0,0,0-.409-.349,2.924,2.924,0,0,0-.5-.268,3.44,3.44,0,0,0-.593-.187c-.113-.025-.226-.046-.339-.061s-.226-.028-.346-.036l-.19-.008H520.8a.826.826,0,0,0-.175.012q-.163.016-.325.044a3.355,3.355,0,0,0-.612.173c-.1.037-.191.079-.282.125a3.2,3.2,0,0,0-.5.317c-.078.061-.152.124-.226.192s-.14.138-.206.211a2.917,2.917,0,0,0-.186.234c-.059.081-.113.164-.164.25a3.432,3.432,0,0,0-.279.6q-.054.154-.095.312a3.117,3.117,0,0,0-.068.32c-.02.113-.034.226-.043.339s-.015.232-.015.348v5.873a1.746,1.746,0,0,1-.033.352,1.363,1.363,0,0,1-.078.25,1.1,1.1,0,0,1-.1.186,1.035,1.035,0,0,1-.141.173,1.066,1.066,0,0,1-.172.139,1.117,1.117,0,0,1-.187.1,1.466,1.466,0,0,1-.248.076,1.676,1.676,0,0,1-.175.026,1.522,1.522,0,0,1-.176.007,1.56,1.56,0,0,1-.177-.007,1.762,1.762,0,0,1-.175-.026,1.191,1.191,0,0,1-.249-.077,1.109,1.109,0,0,1-.187-.1.982.982,0,0,1-.089-.065c-.029-.024-.057-.049-.084-.075a1.012,1.012,0,0,1-.073-.082c-.024-.029-.046-.059-.067-.089a1.189,1.189,0,0,1-.1-.187,1.207,1.207,0,0,1-.044-.123c-.012-.041-.024-.084-.033-.125a1.706,1.706,0,0,1-.025-.176C515,114.32,515,114.274,515,114.216Z" transform="translate(-464.495 -94.75)" fill="#fff"/>
  <path id="Path_166" data-name="Path 166" d="M655.585,64.271a1.763,1.763,0,0,1-.035.36,1.726,1.726,0,0,1-.107.339,1.564,1.564,0,0,1-.4.54,1.661,1.661,0,0,1-.259.185,1.63,1.63,0,0,1-.279.13,1.765,1.765,0,0,1-1.168,0,1.6,1.6,0,0,1-.28-.128,1.658,1.658,0,0,1-.259-.185,1.532,1.532,0,0,1-.226-.244,1.582,1.582,0,0,1-.173-.3,1.73,1.73,0,0,1-.107-.339,1.883,1.883,0,0,1,0-.723,1.678,1.678,0,0,1,.107-.339,1.56,1.56,0,0,1,.173-.3,1.483,1.483,0,0,1,.226-.244,1.566,1.566,0,0,1,.259-.186,1.626,1.626,0,0,1,.279-.126,1.768,1.768,0,0,1,1.169,0,1.551,1.551,0,0,1,.279.126,1.624,1.624,0,0,1,.26.186,1.528,1.528,0,0,1,.226.244,1.556,1.556,0,0,1,.171.29,1.609,1.609,0,0,1,.107.339A1.779,1.779,0,0,1,655.585,64.271Z" transform="translate(-586.253 -59.587)" fill="#fff"/>
  <path id="Path_167" data-name="Path 167" d="M657.59,105.041a1.39,1.39,0,0,0-.008-.181,1.5,1.5,0,0,0-.028-.186,1.276,1.276,0,0,0-.079-.248,1.179,1.179,0,0,0-.113-.194,1.076,1.076,0,0,0-.151-.176,1.166,1.166,0,0,0-.184-.14,1.212,1.212,0,0,0-.2-.095,1.489,1.489,0,0,0-.3-.076c-.06-.008-.121-.012-.182-.015h-.176a1.569,1.569,0,0,0-.368.061,1.366,1.366,0,0,0-.2.079,1.241,1.241,0,0,0-.191.122,1.138,1.138,0,0,0-.166.164,1.231,1.231,0,0,0-.125.187,1.3,1.3,0,0,0-.082.2c-.009.028-.017.058-.025.087s-.014.059-.019.088-.01.061-.015.091a.15.15,0,0,0,0,.046v.046a.139.139,0,0,0,0,.023v8.655c0,.152,0,.306-.01.46-.008.186-.017.372-.021.558s-.007.355,0,.531a5.5,5.5,0,0,0,.044.565,1.32,1.32,0,0,0,.024.134,1.132,1.132,0,0,0,.038.128,1.345,1.345,0,0,0,.151.306,1.362,1.362,0,0,0,.106.136c.017.02.035.04.054.059s.038.037.057.054a1.3,1.3,0,0,0,.13.105,1.381,1.381,0,0,0,.151.09,1.134,1.134,0,0,0,.163.068,1.317,1.317,0,0,0,.172.043c.027.006.053.008.08.012l.081.007h.154a1.339,1.339,0,0,0,.328-.052c.028-.009.056-.018.085-.029l.082-.035c.027-.012.053-.026.079-.041a.738.738,0,0,0,.076-.046c.024-.016.046-.032.069-.05a.5.5,0,0,0,.066-.054c.019-.016.038-.034.056-.051l.053-.054a1.214,1.214,0,0,0,.086-.1c.029-.038.056-.077.081-.113a1.326,1.326,0,0,0,.113-.247.139.139,0,0,0,.009-.024l.007-.025a.247.247,0,0,1,.016-.056c0-.018.014-.053.018-.08s.007-.034.009-.051,0-.018,0-.027v-.027c0-.037.009-.075.012-.113.008-.071.014-.141.018-.212s.008-.141.01-.211v-.393c0-.131-.007-.262-.011-.393,0-.07-.006-.141-.009-.213s0-.141-.008-.212c0-.113-.007-.226-.007-.339Z" transform="translate(-588.632 -96.054)" fill="#fff"/>
  <path id="Path_168" data-name="Path 168" d="M714.507,88.13a3.831,3.831,0,0,1-.46.137c-.089.02-.178.037-.269.049a1.831,1.831,0,0,1-.235.019h-.2a1.944,1.944,0,0,1-.226-.019,1.786,1.786,0,0,1-.226-.044c-.024-.007-.047-.012-.071-.02l-.07-.025a.973.973,0,0,1-.1-.049.887.887,0,0,1-.1-.061.789.789,0,0,1-.075-.063.664.664,0,0,1-.064-.073.828.828,0,0,1-.063-.093,1.034,1.034,0,0,1-.051-.1c-.012-.026-.023-.051-.033-.077l-.027-.078c-.017-.054-.032-.113-.045-.165s-.024-.113-.033-.167c-.021-.137-.036-.276-.045-.413-.01-.161-.015-.324-.015-.484V80.078h2.723a1.672,1.672,0,0,0,.318-.029,1.329,1.329,0,0,0,.226-.071,1.061,1.061,0,0,0,.176-.095,1.074,1.074,0,0,0,.164-.132,1.086,1.086,0,0,0,.132-.164,1.049,1.049,0,0,0,.095-.175,1.319,1.319,0,0,0,.072-.226,1.5,1.5,0,0,0,.021-.159,1.628,1.628,0,0,0,0-.321,1.266,1.266,0,0,0-.023-.158,1.185,1.185,0,0,0-.071-.226,1.15,1.15,0,0,0-.094-.176,1.1,1.1,0,0,0-.133-.164,1.08,1.08,0,0,0-.163-.132.941.941,0,0,0-.176-.094,1.129,1.129,0,0,0-.226-.071,1.518,1.518,0,0,0-.32-.03h-2.71V75.539a.157.157,0,0,1,0-.021v-.035a.044.044,0,0,1,0-.011.139.139,0,0,0,0-.023V75.31a.1.1,0,0,0-.008-.046c-.008-.016,0-.029-.008-.044l-.01-.044c-.008-.029-.015-.059-.024-.087s-.024-.068-.037-.1-.029-.065-.045-.1a1.1,1.1,0,0,0-.123-.191c-.026-.029-.051-.059-.079-.086a.8.8,0,0,0-.087-.078c-.029-.025-.061-.045-.091-.067a1.1,1.1,0,0,0-.1-.058,1.274,1.274,0,0,0-.2-.079c-.031-.01-.061-.018-.091-.026l-.093-.019c-.03,0-.061-.009-.091-.011a.882.882,0,0,0-.093-.008h-.18l-.091.006a.272.272,0,0,0-.09.01,1.4,1.4,0,0,0-.156.028,1.233,1.233,0,0,0-.151.047c-.034.011-.068.027-.1.042s-.064.034-.1.052a1.112,1.112,0,0,0-.184.14,1.138,1.138,0,0,0-.081.084q-.037.044-.071.091c-.021.03-.041.063-.059.095a1.059,1.059,0,0,0-.05.1,1.274,1.274,0,0,0-.08.248c-.007.032-.012.062-.017.094s-.009.062-.011.094a.6.6,0,0,1-.007.09.413.413,0,0,0,0,.091l.007,2.062h-1.242a1.5,1.5,0,0,0-.318.03,1.1,1.1,0,0,0-.232.071.976.976,0,0,0-.176.094,1.135,1.135,0,0,0-.163.132,1.029,1.029,0,0,0-.133.164,1.145,1.145,0,0,0-.094.176,1.176,1.176,0,0,0-.071.226,1.5,1.5,0,0,0-.024.158c0,.053-.007.113-.007.16a1.315,1.315,0,0,0,.007.16,1.491,1.491,0,0,0,.024.159,1.215,1.215,0,0,0,.071.226,1.131,1.131,0,0,0,.094.175.989.989,0,0,0,.134.164.976.976,0,0,0,.164.132,1.006,1.006,0,0,0,.175.095,1.356,1.356,0,0,0,.226.071,1.662,1.662,0,0,0,.318.029h1.242v6.324c0,.279.01.557.037.835a6.114,6.114,0,0,0,.123.784,4.47,4.47,0,0,0,.226.728,3.535,3.535,0,0,0,.2.407,3.176,3.176,0,0,0,.2.316,3.293,3.293,0,0,0,.239.291,2.871,2.871,0,0,0,.274.263,2.766,2.766,0,0,0,.309.226,2.886,2.886,0,0,0,.339.194,3.617,3.617,0,0,0,.524.208,4.61,4.61,0,0,0,.839.172c.151.016.3.026.457.033h.35a4.361,4.361,0,0,0,.484-.043c.089-.012.18-.028.269-.046s.178-.038.267-.061.156-.042.233-.065.152-.05.226-.076l.113-.041.113-.043.045-.018.045-.018.045-.019.045-.019c.038-.017.077-.036.113-.056a.62.62,0,0,0,.054-.033c.018-.011.036-.023.054-.036a1.066,1.066,0,0,0,.1-.077,1.09,1.09,0,0,0,.09-.087.94.94,0,0,0,.082-.1.985.985,0,0,0,.07-.105,1.072,1.072,0,0,0,.1-.218.955.955,0,0,0,.033-.113.974.974,0,0,0,.023-.113,1.244,1.244,0,0,0,.014-.215,1.362,1.362,0,0,0-.024-.215,1.322,1.322,0,0,0-.141-.384,1.264,1.264,0,0,0-.113-.175,1.387,1.387,0,0,0-.141-.154,1.272,1.272,0,0,0-.176-.134,1.142,1.142,0,0,0-.207-.1,1.121,1.121,0,0,0-.234-.064,1.154,1.154,0,0,0-.25-.016,1.234,1.234,0,0,0-.25.037A1.394,1.394,0,0,0,714.507,88.13Z" transform="translate(-634.864 -69.921)" fill="#fff"/>
  <path id="Path_169" data-name="Path 169" d="M825.724,103.49a5.124,5.124,0,0,0-1.034-.339,5.058,5.058,0,0,0-1.19-.113,5.985,5.985,0,0,0-.791.054,5.575,5.575,0,0,0-.638.121,5.279,5.279,0,0,0-.791.264,4.675,4.675,0,0,0-.753.4c-.061.041-.122.082-.182.126-.014-.044-.028-.088-.045-.131a1.257,1.257,0,0,0-.06-.124,1.135,1.135,0,0,0-.27-.323,1.147,1.147,0,0,0-.168-.113,1.214,1.214,0,0,0-.184-.081,1.392,1.392,0,0,0-.149-.042c-.051-.01-.1-.019-.152-.025s-.113-.009-.165-.011h-.159a1.5,1.5,0,0,0-.339.056,1.1,1.1,0,0,0-.187.071,1.144,1.144,0,0,0-.176.1,1.178,1.178,0,0,0-.159.14,1.09,1.09,0,0,0-.129.168,1.157,1.157,0,0,0-.091.178,1.338,1.338,0,0,0-.071.246,1.719,1.719,0,0,0-.029.331V114.9a1.739,1.739,0,0,0,.033.351,1.289,1.289,0,0,0,.076.248,1.13,1.13,0,0,0,.241.359,1.031,1.031,0,0,0,.173.14,1.152,1.152,0,0,0,.187.1,1.469,1.469,0,0,0,.248.076,1.665,1.665,0,0,0,.175.026,2.314,2.314,0,0,0,.353,0c.063-.007.113-.014.175-.026a1.137,1.137,0,0,0,.127-.032,1.219,1.219,0,0,0,.122-.045,1,1,0,0,0,.187-.1.8.8,0,0,0,.089-.064c.029-.025.056-.049.082-.075a1.064,1.064,0,0,0,.075-.084,1.023,1.023,0,0,0,.067-.089,1.148,1.148,0,0,0,.1-.187,1.273,1.273,0,0,0,.044-.122c.012-.042.024-.084.033-.125a1.586,1.586,0,0,0,.025-.176,1.76,1.76,0,0,0,.009-.176v-6.171a3.256,3.256,0,0,1,.06-.628,3.18,3.18,0,0,1,.177-.583,3.22,3.22,0,0,1,.279-.527,3.077,3.077,0,0,1,.375-.464,3.147,3.147,0,0,1,.452-.384,3.2,3.2,0,0,1,.523-.29c.094-.041.19-.076.287-.113a2.74,2.74,0,0,1,.3-.079c.1-.023.209-.038.315-.051.054,0,.106-.01.159-.014h.314a1.444,1.444,0,0,1,.155.011c.1.009.206.024.307.043.05.009.1.02.146.032s.1.024.143.037.095.028.142.045.094.032.14.05a1.138,1.138,0,0,0,.216.085,1.154,1.154,0,0,0,.284.047,1.172,1.172,0,0,0,.281-.021,1.289,1.289,0,0,0,.13-.034,1.108,1.108,0,0,0,.125-.049,1.262,1.262,0,0,0,.4-.285,1.393,1.393,0,0,0,.25-.372,1.434,1.434,0,0,0,.077-.212,1.2,1.2,0,0,0,.041-.226,2.06,2.06,0,0,0,.007-.233,1.407,1.407,0,0,0-.046-.247,1.379,1.379,0,0,0-.1-.248,1.174,1.174,0,0,0-.168-.226,1.151,1.151,0,0,0-.226-.183A1.294,1.294,0,0,0,825.724,103.49Z" transform="translate(-733.106 -95.439)" fill="#fff"/>
  <path id="Path_170" data-name="Path 170" d="M67.5,5.376a4.279,4.279,0,0,0-5.733-1.639A5.588,5.588,0,0,0,59.623,6.17Q58.8,7.6,57.975,9.027l-6.6,11.428a.424.424,0,0,0,.547.6A4.436,4.436,0,0,1,58.1,24.339a.424.424,0,0,0,.788.153l4.719-8.244c.107-.186.261-.186.372,0q2.938,5.132,5.871,10.264a.388.388,0,0,0,.264.2l5.86,1.483a.424.424,0,0,0,.526-.372q.253-2.912.508-5.821a.406.406,0,0,0-.055-.248L67.493,5.361" transform="translate(-50.516 -3.228)" fill="url(#linear-gradient)"/>
  <path id="Path_171" data-name="Path 171" d="M49.117,205.118a3.219,3.219,0,1,0-3.218,3.219A3.218,3.218,0,0,0,49.117,205.118Z" transform="translate(-42.68 -183.419)" fill="url(#linear-gradient-2)"/>
</svg>
