<svg id="Layer_1" enable-background="new 0 0 512 512" viewBox="0 0 512 512" xmlns="http://www.w3.org/2000/svg"><path  fill="#689634" d="m503 232.001v47.998c0 12.553-10.213 22.766-22.766 22.766-18.979 0-35.288 10.914-42.566 28.483-7.277 17.57-3.462 36.822 9.959 50.243 4.299 4.299 6.666 10.016 6.666 16.097s-2.367 11.798-6.666 16.098l-33.941 33.941c-4.3 4.3-10.017 6.668-16.099 6.668-6.083 0-11.8-2.369-16.099-6.669-6.72-6.72-14.644-11.009-23.549-12.748-3.794-.741-6.27-4.417-5.528-8.211s4.423-6.265 8.212-5.529c11.523 2.25 22.162 7.986 30.766 16.59 1.656 1.656 3.856 2.568 6.198 2.568s4.543-.912 6.198-2.567l33.942-33.941c1.654-1.655 2.565-3.856 2.565-6.198s-.911-4.543-2.565-6.198c-17.501-17.5-22.479-42.599-12.993-65.5 9.485-22.9 30.752-37.125 55.5-37.125 4.833 0 8.766-3.932 8.766-8.766v-47.998c0-4.833-3.933-8.765-8.766-8.765-24.748 0-46.015-14.226-55.5-37.126-9.486-22.901-4.508-48 12.992-65.5 3.418-3.417 3.417-8.979 0-12.398l-33.941-33.94c-3.418-3.417-8.979-3.418-12.396 0-17.501 17.5-42.599 22.48-65.501 12.993-22.9-9.485-37.126-30.752-37.126-55.501 0-4.833-3.932-8.765-8.765-8.765h-47.997c-4.833 0-8.766 3.932-8.766 8.765 0 24.749-14.226 46.016-37.125 55.501-22.901 9.486-48 4.508-65.5-12.993-3.419-3.417-8.979-3.417-12.396 0l-33.941 33.941c-3.416 3.418-3.417 8.979.001 12.397 17.5 17.5 22.478 42.599 12.992 65.5-9.486 22.9-30.753 37.125-55.501 37.125-4.833 0-8.765 3.932-8.765 8.765v47.998c0 4.833 3.932 8.766 8.765 8.766 24.748 0 46.015 14.226 55.501 37.125 9.485 22.901 4.508 47.999-12.992 65.5-1.655 1.655-2.566 3.856-2.566 6.198s.911 4.543 2.566 6.198l33.941 33.941c1.655 1.656 3.855 2.568 6.197 2.568s4.542-.912 6.197-2.567c7.302-7.302 15.826-12.441 25.338-15.277 3.704-1.107 7.604 1.003 8.708 4.708s-1.003 7.604-4.708 8.708c-7.26 2.164-13.799 6.121-19.438 11.759-4.299 4.3-10.016 6.668-16.098 6.668s-11.799-2.369-16.098-6.669l-33.941-33.94c-4.299-4.299-6.666-10.017-6.666-16.098 0-6.082 2.367-11.798 6.667-16.097 13.42-13.421 17.235-32.673 9.957-50.243-7.277-17.569-23.588-28.483-42.566-28.483-12.551 0-22.763-10.213-22.763-22.766v-47.998c0-12.552 10.212-22.765 22.765-22.765 18.979 0 35.289-10.914 42.566-28.483 7.278-17.571 3.463-36.823-9.958-50.243-8.875-8.875-8.875-23.318 0-32.195l33.941-33.941c8.877-8.876 23.319-8.876 32.194 0 13.422 13.421 32.674 17.238 50.244 9.958 17.568-7.277 28.482-23.588 28.482-42.567.001-12.553 10.214-22.765 22.767-22.765h47.997c12.553 0 22.765 10.212 22.765 22.765 0 18.979 10.914 35.29 28.483 42.567 17.57 7.277 36.822 3.462 50.243-9.958 8.875-8.875 23.318-8.877 32.195 0l33.942 33.941c8.875 8.878 8.875 23.321 0 32.196-13.421 13.42-17.236 32.672-9.959 50.243 7.278 17.569 23.588 28.484 42.566 28.484 12.554-.001 22.767 10.211 22.767 22.763zm-355.315 23.999c0-59.725 48.59-108.314 108.314-108.314 59.726 0 108.315 48.589 108.315 108.314 0 29.971-12.589 58.876-34.54 79.306-2.829 2.634-2.988 7.063-.354 9.893 1.379 1.481 3.249 2.231 5.126 2.231 1.707 0 3.419-.621 4.768-1.876 24.785-23.068 39.001-55.71 39.001-89.554 0-67.444-54.87-122.314-122.315-122.314-67.444 0-122.314 54.87-122.314 122.314 0 24.516 7.229 48.169 20.903 68.404 2.164 3.201 6.516 4.046 9.72 1.88 3.203-2.165 4.045-6.517 1.88-9.72-12.106-17.911-18.504-38.854-18.504-60.564zm195.368 198.446c0 19.74-10.711 38.002-27.952 47.661-1.063.596-2.242.893-3.421.893-1.224 0-2.447-.321-3.539-.96-2.144-1.256-3.461-3.555-3.461-6.04v-33.32l-16.226-13.853-16.227 13.853v33.32c0 2.485-1.317 4.783-3.461 6.04-2.144 1.256-4.793 1.282-6.96.067-17.241-9.658-27.951-27.921-27.951-47.661 0-20.624 11.437-39.181 29.509-48.505v-125.832c-18.072-9.325-29.509-27.882-29.509-48.505 0-19.74 10.71-38.003 27.951-47.661 2.167-1.214 4.816-1.188 6.96.067 2.144 1.256 3.461 3.555 3.461 6.04v33.32l16.227 13.853 16.226-13.853v-33.32c0-2.485 1.317-4.783 3.461-6.04 2.144-1.256 4.793-1.282 6.96-.067 17.241 9.658 27.952 27.92 27.952 47.661 0 20.624-11.437 39.18-29.509 48.505v125.832c18.072 9.325 29.509 27.881 29.509 48.505zm-14 0c0-16.531-9.88-31.275-25.171-37.563-2.625-1.08-4.338-3.636-4.338-6.474v-134.768c0-2.838 1.713-5.395 4.338-6.474 15.291-6.288 25.171-21.033 25.171-37.563 0-10.136-3.799-19.749-10.373-27.094v22.088c0 2.048-.897 3.994-2.455 5.324l-23.226 19.829c-2.617 2.235-6.473 2.235-9.09 0l-23.227-19.829c-1.558-1.33-2.455-3.275-2.455-5.324v-22.088c-6.574 7.345-10.372 16.958-10.372 27.094 0 16.53 9.88 31.275 25.171 37.563 2.625 1.08 4.338 3.636 4.338 6.474v134.768c0 2.838-1.713 5.395-4.338 6.474-15.291 6.288-25.171 21.033-25.171 37.563 0 10.136 3.798 19.749 10.372 27.093v-22.087c0-2.048.897-3.994 2.455-5.324l23.227-19.829c1.309-1.117 2.927-1.676 4.545-1.676s3.236.559 4.545 1.676l23.226 19.829c1.558 1.33 2.455 3.275 2.455 5.324v22.088c6.574-7.345 10.373-16.958 10.373-27.094zm-99.999-105.963v124.464c0 16.571-13.483 30.053-30.054 30.053s-30.053-13.482-30.053-30.053v-124.464c0-3.866 3.134-7 7-7h7.504v-95.264l-9.835-12.083c-1.307-1.605-1.836-3.707-1.445-5.74l7.622-39.667c.634-3.296 3.518-5.679 6.874-5.679h24.666c3.356 0 6.24 2.383 6.874 5.679l7.623 39.667c.391 2.033-.139 4.134-1.445 5.74l-9.835 12.083v95.264h7.504c3.866 0 7 3.134 7 7zm-31.603-104.753v97.752h3.099v-97.752c0-1.61.555-3.17 1.571-4.419l9.345-11.48-5.916-30.781h-13.1l-5.915 30.781 9.345 11.481c1.016 1.248 1.571 2.809 1.571 4.418zm-14.504 111.753v4.03h32.106v-4.03zm32.107 117.464v-99.434h-32.106v99.434c0 8.852 7.201 16.053 16.053 16.053s16.053-7.201 16.053-16.053z"/></svg>