<svg id="Layer_1" enable-background="new 0 0 128 128" viewBox="0 0 128 128" xmlns="http://www.w3.org/2000/svg"><path fill="#689634" d="m118 108c-1.7725143 0-3.4336166.4657974-4.8779144 1.2743988l-5.8692017-6.2362976c-.1650009.2313995-.3417969.4580002-.5438843.669899-.51371.5381012-1.0381165 1.0663986-1.5703125 1.5868988-.2226868.217804-.4618988.4063034-.7070999.5820999l5.6622009 6.0156021c-1.3077011 1.6903992-2.0937881 3.8047028-2.0937881 6.107399 0 5.5224991 4.4774857 10 10 10 5.5224838 0 10-4.4775009 10-10s-4.4775162-10-10-10zm0 16c-3.3086166 0-6-2.6913986-6-6s2.6913834-6 6-6c3.3085861 0 6 2.6913986 6 6s-2.6914139 6-6 6z"/><path fill="#689634" d="m10 20c1.7724886 0 3.433588-.4657993 4.8769999-1.2744007l4.9842882 5.2959003c.9785004-.7588005 2.147501-1.1786995 3.3388996-1.2451.012701-.3085995.0576-.6161995.1172009-.9200001l-5.4111004-5.7489986c1.3076-1.6904011 2.0937118-3.8047009 2.0937118-6.1074009 0-5.5225-4.4775114-10-10-10-5.5225115 0-10 4.4775-10 10s4.4774885 10 10 10zm0-16c3.308588 0 6 2.6914001 6 6s-2.691412 6-6 6c-3.3086114 0-6-2.6913996-6-6s2.6913886-6 6-6z"/><path fill="#689634" d="m21.8446884 101.8711014-6.9667997 7.4032974c-1.4443007-.8086014-3.1054001-1.2743988-4.8778887-1.2743988-5.5225115 0-10 4.4775009-10 10s4.4774885 10 10 10c5.5224886 0 10-4.4775009 10-10 0-2.3026962-.7861118-4.4169998-2.0937119-6.107399l5.6259003-5.9776001c-1.0888004-1.125-1.6571884-2.5761032-1.6875-4.0438995zm-11.8446884 22.1288986c-3.3086114 0-6-2.6913986-6-6s2.6913886-6 6-6c3.308588 0 6 2.6913986 6 6s-2.691412 6-6 6z"/><path fill="#689634" d="m106.5663834 21.9941006c.5156174.537199 1.0205002 1.1591988 1.5156174 1.7138996.0575867.0644989.1064835.1348.1611862.2012005l4.8788986-5.1836014c1.4442978.8086014 3.1054001 1.2744007 4.8779144 1.2744007 5.5224838 0 10-4.4775 10-10s-4.4775162-10-10-10c-5.5225143 0-10 4.4775-10 10 0 2.3027.786087 4.4169998 2.0937881 6.1074009l-4.6534042 4.9433994c.4014053.2723999.7823029.5858994 1.1259995.9433003zm11.4336166-17.9941006c3.3085861 0 6 2.6914001 6 6s-2.6914139 6-6 6c-3.3086166 0-6-2.6913996-6-6s2.6913834-6 6-6z"/><path fill="#689634" d="m56.2997856 12.5546999c.0967026 0 .1934013-.0067997.2910004-.0205002.6377029-.0937996 1.2793007-.1737995 1.9238014-.2421999 1.0987015-.1171999 1.8945999-1.1025 1.7784119-2.2002001-.1172104-1.0995998-1.1211128-1.8837996-2.2002106-1.7782993-.6973.0741997-1.3897018.1620998-2.0782013.2616997-1.0937004.1602001-1.8504982 1.1747999-1.6913986 2.2676.1455993.9960995 1 1.7118998 1.9765968 1.7118998z"/><path fill="#689634" d="m66.2733841 12.0497999c.6495056.0283003 1.2950058.0684004 1.936615.1211004.0555878.0049.1102905.0067997.1650009.0067997 1.0302887 0 1.9052887-.7910004 1.991188-1.8368998.0908127-1.1006002-.7285004-2.0664005-1.830101-2.1562004-.6922989-.0566998-1.3886032-.1006002-2.0887985-.1308994-1.092804-.0303001-2.0371017.8076-2.0849991 1.9110994-.0478058 1.1036006.8075943 2.0372001 1.9110947 2.0850001z"/><path fill="#689634" d="m75.8700867 13.3877001c.6299133.1504002 1.2569122.3114996 1.8789139.4853001.1796875.0508003.3613892.0752001.5390854.0752001.875 0 1.6787033-.5791006 1.9247971-1.4628.2978058-1.0635004-.3232956-2.1669998-1.3876953-2.4639006-.6708984-.1875-1.3467026-.3622999-2.027298-.5243998-1.0704041-.2538996-2.1534042.4062004-2.4092026 1.4814005-.256897 1.0741996.407196 2.1532993 1.4813995 2.4091997z"/><path fill="#689634" d="m37.3798866 19.1602001c.3418007 0 .6875-.0869999 1.0039024-.2714996.5575981-.3241997 1.1229973-.6387005 1.6942978-.9434013.9746017-.5204983 1.3428001-1.732399.8232994-2.7059994-.5205002-.9756002-1.7324982-1.3437996-2.7060966-.8232994-.6142006.3280993-1.2226028.6659994-1.8232002 1.0155993-.9550896.5557003-1.2783012 1.7792997-.722702 2.7344007.3711013.6387005 1.0410003.9941997 1.7304992.9941997z"/><path fill="#689634" d="m20.6864891 29.0967007c-.6816006.8690987-.5293007 2.1268997.3398991 2.8085995.3661995.2871017.8006992.4258003 1.2334003.4258003.5926991 0 1.1805992-.2626991 1.5752106-.7657013.3993893-.5096989.8085899-1.0126991 1.2274895-1.5067997.7129002-.8437996.607399-2.1054993-.2354012-2.8192997-.8446999-.7129002-2.1043987-.6075001-2.8192997.2353001-.4501991.5331992-.8906002 1.0732993-1.3212986 1.6221008z"/><path fill="#689634" d="m29.1962872 25.0263996c.4658012 0 .9336014-.1620998 1.3125-.4921989.4883003-.4248009.9844017-.8408012 1.4883003-1.2481003.8593006-.6942997.9931011-1.9531002.2987995-2.8125-.6942997-.8593006-1.9530983-.9922009-2.8124981-.2987995-.5430012.4384995-1.0762005.8856983-1.6016006 1.3437996-.8330002.7245998-.9199009 1.9881992-.1942997 2.8211994.3955116.4540996.9501991.6865997 1.5087986.6865997z"/><path fill="#689634" d="m46.5214882 14.9502001c.2178001 0 .4403992-.0361004.6571999-.1122999.6104012-.2118998 1.2245979-.4140997 1.8446999-.6044998 1.0566978-.3232002 1.6503983-1.4414005 1.327198-2.4970999-.3241997-1.0566006-1.4462967-1.6484003-2.497097-1.3271008-.6688995.2041006-1.3320007.4219007-1.9902.6513004-1.0430031.3633003-1.5937996 1.5030003-1.2305031 2.5468998.2871016.8252001 1.0615004 1.3428002 1.8887023 1.3428002z"/><path fill="#689634" d="m118.9608841 65.0839996c.0264053-.6952972.0391159-1.3838005.0391159-2.0839996v-.2139015c0-1.1044998-.8955154-2-2-2-1.1045151 0-2 .8955002-2 2v.2139015c0 .6493988-.0127106 1.2881012-.037117 1.9326019-.0410004 1.1044998.8193054 2.0673981 1.9228058 2.0673981h.0771942c1.0703049 0 1.9570007-.8378983 1.9980011-1.9160004z"/><path fill="#689634" d="m47.3740005 111.2294998c-.614212-.2108994-1.2236137-.4346008-1.8271141-.6689987-1.0331993-.3973999-2.1894989.1132965-2.5878868 1.142601-.3985138 1.0302963.1132889 2.1884995 1.1425896 2.5878983.652298.2519989 1.3085976.4932022 1.9715996.7217026.2148972.0741959.434597.1093979.6503983.1093979.830101 0 1.6064987-.5214996 1.8916016-1.3506012.3593978-1.0439988-.1963006-2.182602-1.2411882-2.5419999z"/><path fill="#689634" d="m106.9150009 90.5683975c-.349617.544899-.7109146 1.0820007-1.0810013 1.613205-.633812.9052963-.412117 2.1513977.4930878 2.7841949.3487015.2442017.7481003.3613052 1.1436005.3613052.6308975 0 1.2519989-.2978058 1.6405945-.8544006.4014053-.5723038.7901001-1.1524048 1.1690063-1.740303.5967102-.9297028.3280945-2.1669998-.6006012-2.7646027-.930687-.5966949-2.1669998-.3271942-2.7646866.6006012z"/><path fill="#689634" d="m114.0497894 53.1493988c.1239929.6328011.2362976 1.2705002.3368988 1.9111023.1543121.9864006 1.0048981 1.6904984 1.9726944 1.6904984.1035004 0 .2080002-.0078011.3125-.0243988 1.0918045-.1709023 1.8379059-1.1944008 1.6660004-2.285202-.1083984-.6913986-.2285004-1.3778992-.3622971-2.0614967-.2128983-1.0840034-1.2608032-1.7930031-2.347702-1.5781021-1.0839996.2127989-1.7900009 1.2635993-1.5780945 2.3475989z"/><path fill="#689634" d="m114.9960861 42.3604012c-.4140854-1.0235023-1.5800858-1.5186005-2.6044998-1.1026001-1.0233994.4141006-1.5175858 1.5800972-1.1025009 2.6044998.2422028.5985985.4736023 1.2030983.6942978 1.8134995.294899.8143997 1.0625 1.3203011 1.8809052 1.3203011.2264938 0 .4560013-.0391006.6805954-.1201019 1.0391159-.3759995 1.5762024-1.5234985 1.2002029-2.5615005-.2383042-.6572992-.4872971-1.3085978-.7490006-1.9540979z"/><path fill="#689634" d="m102.1142883 29.1103992c.3955002.4423008.9432983.6679001 1.4930954.6679001.4737015 0 .9492035-.1679001 1.3311005-.5077991.8242035-.7362995.8955154-2 .1601028-2.8241997-.4637985-.5186005-.9355011-1.0303001-1.4179001-1.5332012-.765686-.7978992-2.0313034-.8232994-2.8282013-.0585995-.7967987.7656002-.8231964 2.0312004-.0586014 2.8281002.4493028.4678002.8897019.9444008 1.3204041 1.4277992z"/><path fill="#689634" d="m111.6200867 86.3848038c.2647018.1180954.5410004.1737976.8125.1737976.7656021 0 1.4971008-.4423981 1.8281021-1.1875.2841949-.6377029.556694-1.2822037.8163986-1.9326019.4112015-1.0253983-.0877991-2.1894989-1.113205-2.5996017-1.0234985-.4112015-2.1894989.0879059-2.5995941 1.113205-.2422028.6035995-.4952011 1.2011948-.7579041 1.7919998-.4491958 1.0087966.0048981 2.1913985 1.0137025 2.6407012z"/><path fill="#689634" d="m85.0410004 16.5272999c.5898895.267601 1.1747894.5468998 1.7528839.8369999.2872009.1434994.5938034.2119007.8945999.2119007.7334061 0 1.4385147-.4033012 1.7900009-1.1035004.4951019-.9872999.0957031-2.1885004-.8916016-2.6845999-.625-.3135004-1.2567978-.6142998-1.8955002-.9033003-1.0028992-.4570999-2.1903839-.0098-2.6464996.9961004-.4559936 1.0057994-.0096969 2.1913997.9961167 2.6463996z"/><path fill="#689634" d="m93.4491882 21.3554993c.5292969.375 1.0508118.7597008 1.5634995 1.1533012.3633118.2782993.7910004.4130993 1.2167969.4130993.5996017 0 1.1934052-.2695999 1.5878983-.782299.6719055-.8769016.5068054-2.1318016-.369194-2.8046017-.5537033-.4238987-1.116188-.8388996-1.6865005-1.2431984-.9003984-.6396999-2.1503984-.4248009-2.7881014.4755993-.6385879.9013996-.4256973 2.1494007.4756012 2.7880993z"/><path fill="#689634" d="m117.5849991 75.4502029c.1571884-.6777039.3006897-1.3613052.4325867-2.047905.2080002-1.0848999-.5019989-2.1327972-1.5868988-2.3407974-1.0888977-.205101-2.1327972.5029984-2.3409042 1.5868988-.121994.6377029-.2557831 1.2705002-.4012985 1.899498-.2490005 1.0761032.4208984 2.1502991 1.4970016 2.3994064.1513977.0350952.3038025.0516968.4532013.0516968.9091949 0 1.7323989-.6240005 1.9463119-1.5487976z"/><path fill="#689634" d="m110.1708832 33.0985985c-.6025009-.9256973-1.8407974-1.1893978-2.7665939-.5887985-.9268036.6015015-1.1904068 1.8408012-.5889053 2.7666016.3516159.5419998.6934052 1.0907974 1.0254059 1.6464996.3739929.6268997 1.0380936.9745979 1.7187958.9745979.3486023 0 .7021027-.0909004 1.0234146-.2831993.948288-.5663986 1.257782-1.7939987.6913834-2.7421989-.3573839-.5987015-.7245943-1.1905022-1.1035005-1.7735024z"/><path fill="#689634" d="m9.4677887 55.8046989c-.0917883.6914024-.1689997 1.3857002-.2323999 2.0839996-.1016006 1.1006012.7088995 2.0732002 1.8084993 2.1738014.0625.0059013.1241121.0088005.1846008.0088005 1.0225115 0 1.8945112-.7793007 1.9892998-1.8174019.0594997-.6455002.1307993-1.2870979.2147999-1.9258003.1455002-1.0946999-.625-2.0995979-1.7207003-2.2440987-1.0830002-.1426009-2.0995998.6240007-2.2440996 1.7206994z"/><path fill="#689634" d="m100.9198837 98.1855011c-.447197.4697952-.9042969.9296951-1.3680954 1.3828964-.7910995.7714005-.8067017 2.038002-.035202 2.8281021.3916016.402298.9121017.6035004 1.4316025.6035004.5038986 0 1.0078964-.1894989 1.3964996-.5683975.4990997-.4863052.9893112-.9813995 1.4697952-1.4842987.7626038-.7998047.732399-2.065506-.0664825-2.8282013-.7998123-.7617035-2.0664139-.7313996-2.8281174.0663986z"/><path fill="#689634" d="m38.5507889 107.2080002c-.5606003-.3242035-1.1152992-.6582031-1.6621017-1.0018997-.9346008-.5909042-2.169899-.3096008-2.7578011.625-.5898857.9335022-.309597 2.1688995.625 2.7577972.5898018.3730011 1.1894035.7342987 1.7968025 1.0839996.3144989.1816025.6581993.2675018.9971008.2675018.6913986 0 1.3642998-.3583984 1.7343979-1.0009003.5517006-.9561004.2236023-2.179695-.7333984-2.7314986z"/><path fill="#689634" d="m93.598587 104.5381012c-.5253983.375-1.0575867.7401962-1.5995865 1.0967026-.9228134.607399-1.1787109 1.8475952-.571312 2.7704926.3847961.5840073 1.0224991.9004059 1.6728973.9004059.3768997 0 .7587967-.1064987 1.0976028-.3291016.5830994-.3838043 1.1581955-.7784042 1.7247009-1.1827011.8983994-.6416016 1.107399-1.8906021.4657974-2.7900009-.6416013-.8983994-1.8886869-1.1083985-2.7900999-.4657975z"/><path fill="#689634" d="m66.4774857 113.9403992c-.643486.0313034-1.2900009.0508041-1.9403992.0576019-1.1044998.0118027-1.9902.9160995-1.9794998 2.0214996.0107994 1.097702.9043007 1.9804993 2 1.9804993h.0205002c.7012024 0 1.3984985-.0282974 2.092804-.0615005 1.1024933-.0536957 1.9541092-.9932022 1.9013977-2.0967026-.0537034-1.1044998-1.0098039-1.9403992-2.0948029-1.9013977z"/><path fill="#689634" d="m76.0702896 112.5644989c-.6259995.1512985-1.255806.2929001-1.8906021.419899-1.0830002.2177048-1.785202 1.2714996-1.5673981 2.3544998.1913986.9502029 1.0253983 1.6063995 1.9589996 1.6063995.1307983 0 .2627106-.0126953.3955002-.0389938.6875-.1387024 1.3700943-.2901001 2.0468979-.455101 1.0731964-.2608032 1.732399-1.3418045 1.4717026-2.4151001-.2608032-1.0742035-1.347702-1.7392044-2.4151001-1.4716034z"/><path fill="#689634" d="m85.2167892 109.392601c-.5849991.2685013-1.1757889.5253983-1.7724991.7705002-1.0214005.4208984-1.5078049 1.589798-1.0879059 2.6112976.3184052.7724991 1.0644989 1.2393036 1.8506165 1.2393036.2538834 0 .5117874-.0489044.760788-.1514053.6455002-.2665939 1.2850952-.5438995 1.9169998-.8349991 1.0038986-.4608994 1.4442978-1.6473999.9833984-2.6512985-.4609985-1.0058976-1.6513977-1.444397-2.6513977-.9833985z"/><path fill="#689634" d="m12.5419998 50.0966988c.1864891.0547028.3740005.0810013.5595884.0810013.8662004 0 1.665-.5682983 1.9189005-1.4422989.1815996-.6240997.375-1.2422028.5780993-1.8554993.3477001-1.0488014-.2206993-2.1797028-1.2694998-2.527401-1.0507994-.3486023-2.1796999.2216988-2.5272999 1.2695999-.2187881.660099-.4257879 1.3251991-.6210995 1.9960976-.3095998 1.0605011.3006993 2.1699028 1.361311 2.4785004z"/><path fill="#689634" d="m22.7772884 93.0361023c-.651289-.8916016-1.901289-1.0868988-2.7949009-.4355011-.8915997.6513977-1.0868988 1.902298-.4354992 2.794899.4111118.5625.8320007 1.1182022 1.2635994 1.6641006.3945999.5009003.9805126.7616959 1.5713005.7616959.4335995 0 .8710995-.1405945 1.2373009-.4296951.8671989-.6846008 1.0156994-1.9413986.3320999-2.8086014-.4004001-.5087967-.7920017-1.0233994-1.1739006-1.5468979z"/><path fill="#689634" d="m15.1435881 88.2861023c.3564119.6865997 1.0537004 1.0790939 1.7773008 1.0790939.3095989 0 .625-.072197.9188995-.2245941.9804993-.5088043 1.3633003-1.7158051.8544998-2.6963043-.2968006-.572197-.5830002-1.1503983-.8584003-1.7352982-.4706993-1-1.6639996-1.4276962-2.6620998-.9570007-.9989996.4707031-1.4277 1.663002-.9569998 2.6621017.2968998.6297989.6064005 1.2547989.9267998 1.8720017z"/><path fill="#689634" d="m18.763689 35.2938995c-.964901-.5429001-2.1826-.1991997-2.7236881.7626991-.3427124.6094017-.6738129 1.2247009-.9931126 1.8467026-.5038881.9833984-.1161995 2.1884995.8662004 2.6923981.2919989.1504021.6044989.2206993.9110994.2206993.7266006 0 1.4268112-.3964996 1.7812996-1.0868988.2959003-.577198.6035118-1.1474991.9209003-1.7118988.542-.9629021.2002012-2.1826019-.762699-2.7237015z"/><path fill="#689634" d="m11.241188 78.5917969c.2568121.8711014 1.0537004 1.4365005 1.9180002 1.4365005.1875 0 .3768997-.027298.5654001-.0820007 1.0595999-.3125 1.6660004-1.4237976 1.3544998-2.4833984-.1826-.6201019-.3534994-1.2440948-.5136995-1.8731003-.2715006-1.0692978-1.356389-1.7176971-2.4306002-1.4461975-1.0712996.2723999-1.7177887 1.3602982-1.4462996 2.430603.1719.6777954.3563997 1.3505936.5526992 2.0175934z"/><path fill="#689634" d="m56.795887 113.4951019c-.6436005-.0908051-1.2821999-.1932983-1.9169998-.3076019-1.0858879-.2041016-2.1259995.5253983-2.3232002 1.6122971-.1973 1.0869064.5254021 2.1270065 1.6123123 2.323204.6835899.1240997 1.3730011.2343979 2.0653877.3330994.0956993.0136032.1903992.0195007.2841988.0195007.9794998 0 1.8359032-.7207031 1.9775009-1.7188034.1553001-1.0936966-.6063996-2.1063995-1.6991997-2.2616959z"/><path fill="#689634" d="m29.2050877 100.2881012c-.8076-.7519989-2.0723-.7089996-2.8271999.0986023-.7528877.8075943-.7089996 2.0732956.0986996 2.8271942.5107002.4756012 1.0283012.9413986 1.5566006 1.3973999.3779011.3282013.8438129.4883041 1.3076.4883041.5606003 0 1.1172123-.2344055 1.512701-.6913986.7235985-.8350067.6327991-2.097702-.2031002-2.8203049-.4892999-.424797-.9717008-.8573989-1.4453011-1.299797z"/><path fill="#689634" d="m9.2548885 68.3339996c.1006002 1.0342026.9707003 1.8076019 1.9891996 1.8076019.0635004 0 .128912-.0028992.1944008-.0098038 1.0995998-.1054001 1.9042997-1.0830002 1.7977991-2.1825943-.0614996-.6416016-.1112881-1.2861023-.1483994-1.9346008-.0644999-1.1015015-.9892998-1.9248047-2.1133003-1.880806-1.1025.0643997-1.9442997 1.0098038-1.8808002 2.1133041.0410004.699196.0947009 1.3945009.1611004 2.0868989z"/><path fill="#689634" d="m108.9657898 72.2598038c.2030945-1.0850067-.5127029-2.1299057-1.5986023-2.3330002-1.0839996-.2041016-2.1298981.5126953-2.3330002 1.5985947-3.6269989 19.3964996-20.7314987 33.4746017-40.669899 33.4746017-22.8086013 0-41.3642883-18.392601-41.3642883-41s18.555687-41 41.3642883-41c19.7098999 0 36.777298 13.8876991 40.5820007 33.0214996.2157974 1.0839996 1.2714996 1.7803001 2.3516006 1.5723 1.0838928-.2159004 1.7871094-1.2686005 1.572197-2.3516006-4.1766967-21.0000001-22.8945007-36.242199-44.5057983-36.242199-25.0137024 0-45.3642883 20.1865005-45.3642883 45s20.3505859 45 45.3642883 45c21.8631974 0 40.6211014-15.4512024 44.6015015-36.7401962z"/><circle cx="107" cy="64" r="2"/><path fill="#689634" d="m92 79c0-1.1044998-.8955154-2-2-2l-43.3047142.0087967.0371017-1.1513977 2.0654984.0038986c.8973999.0078049 1.9375.0205002 2.6435013-.9208984.6934013-.9257965.402401-1.8837967.1973-2.5566025l-8.1865997-28.0556984c-.576088-1.8973999-2.5243989-3.3280983-4.5302011-3.3280983h-4.9218864c-1.1045113 0-2 .8955002-2 2s.8954887 2 2 2h4.9218864c.2616997 0 .642601.2919998.6963005.4696999l7.7010994 26.3876991h-.5868988c-2.2256012 0-4.0370979 1.7901001-4.0370979 3.9912033v1.1601944c0 2.2012024 1.8114967 3.9912033 4.0370979 3.9912033h43.2676125c1.1044846 0 2-.8955002 2-2z"/><path fill="#689634" d="m93.5810852 45.7753983c-.3789978-.4892998-.9628982-.7753983-1.5810852-.7753983h-41c-.6191139 0-1.2031136.2860985-1.5811119.7753983-.3788872.4892006-.5097008 1.1269035-.3554001 1.7256012l6.2128983 24c.2285003.8827972 1.025402 1.4990005 1.9365005 1.4990005h28.5869026c.9120941 0 1.7080002-.6172028 1.9365005-1.5l6.2001953-24c.1543046-.5985985.0235139-1.2354012-.3554-1.7246017zm-24.4013977 22.698204-5.3106003-19.4736023h5.3535995l5.4541016 20h-5.4346008c0-.1737976-.0147018-.3506012-.0625-.5263977zm9.5 0-5.3106003-19.4736023h4.9882965l5.6582031 19.5557022c.0468979.1631012.1298981.3036957.2128983.4442978h-5.4862976c0-.1737976-.0147018-.3506012-.0625-.5263977zm-25.0956879-19.4736023h6.1386871l5.4541016 20h-6.4160995zm32.5800858 12.5937996-3.6436005-12.5937996h6.8975143z"/><path fill="#689634" d="m51 89c0 3.3144989 2.6854858 6 6 6 3.3144875 0 6-2.6855011 6-6s-2.6855125-6-6-6c-3.3145142 0-6 2.6855011-6 6zm8 0c0 1.1025009-.8975143 2-2 2-1.1025124 0-2-.8974991-2-2s.8974876-2 2-2c1.1024857 0 2 .8974991 2 2z"/><path fill="#689634" d="m75 89c0 3.3144989 2.6854858 6 6 6 3.3144836 0 6-2.6855011 6-6s-2.6855164-6-6-6c-3.3145142 0-6 2.6855011-6 6zm8 0c0 1.1025009-.8975143 2-2 2-1.1025162 0-2-.8974991-2-2s.8974838-2 2-2c1.1024857 0 2 .8974991 2 2z"/></svg>