<svg xmlns="http://www.w3.org/2000/svg" xmlns:xlink="http://www.w3.org/1999/xlink" width="24" height="24" viewBox="0 0 24 24">
  <defs>
    <clipPath id="clip-path">
      <rect id="Rectangle_135" data-name="Rectangle 135" width="24" height="24" transform="translate(463 3439)" fill="#689634" stroke="#707070" stroke-width="1"/>
    </clipPath>
  </defs>
  <g id="Mask_Group_17" data-name="Mask Group 17" transform="translate(-463 -3439)" clip-path="url(#clip-path)">
    <g id="cow" transform="translate(463 3439)">
      <g id="Group_337" data-name="Group 337">
        <g id="Group_336" data-name="Group 336">
          <path id="Path_274" data-name="Path 274" d="M24,.75V0H22.594V.75a3.568,3.568,0,0,1-2.989,3.516H4.395A3.568,3.568,0,0,1,1.406.75V0H0V.75A4.963,4.963,0,0,0,1.9,4.658,3.518,3.518,0,0,0,0,7.781V9.938H2.156a3.5,3.5,0,0,0,2.318-.876L5,19.33A4.919,4.919,0,0,0,9.915,24h4.171A4.919,4.919,0,0,0,19,19.33l.525-10.268a3.5,3.5,0,0,0,2.318.876H24V7.781a3.518,3.518,0,0,0-1.9-3.123A4.963,4.963,0,0,0,24,.75ZM4.266,6.422A2.112,2.112,0,0,1,2.156,8.531h-.75v-.75A2.112,2.112,0,0,1,3.516,5.672h.75ZM17.6,19.258a3.514,3.514,0,0,1-3.511,3.336H9.915A3.514,3.514,0,0,1,6.4,19.258l-.063-1.232a7.732,7.732,0,0,1,11.319,0Zm.157-3.063a9.137,9.137,0,0,0-11.506,0L5.709,5.672H18.291Zm4.841-8.414v.75h-.75a2.112,2.112,0,0,1-2.109-2.109v-.75h.75A2.112,2.112,0,0,1,22.594,7.781Z" fill="#689634"/>
        </g>
      </g>
      <g id="Group_339" data-name="Group 339" transform="translate(8.719 19.313)">
        <g id="Group_338" data-name="Group 338">
          <circle id="Ellipse_60" data-name="Ellipse 60" cx="0.938" cy="0.938" r="0.938" fill="#689634"/>
        </g>
      </g>
      <g id="Group_341" data-name="Group 341" transform="translate(13.406 19.313)">
        <g id="Group_340" data-name="Group 340">
          <circle id="Ellipse_61" data-name="Ellipse 61" cx="0.938" cy="0.938" r="0.938" fill="#689634"/>
        </g>
      </g>
      <g id="Group_343" data-name="Group 343" transform="translate(7.313 9.656)">
        <g id="Group_342" data-name="Group 342">
          <circle id="Ellipse_62" data-name="Ellipse 62" cx="0.938" cy="0.938" r="0.938" fill="#689634"/>
        </g>
      </g>
      <g id="Group_345" data-name="Group 345" transform="translate(14.813 9.656)">
        <g id="Group_344" data-name="Group 344">
          <circle id="Ellipse_63" data-name="Ellipse 63" cx="0.938" cy="0.938" r="0.938" fill="#689634"/>
        </g>
      </g>
    </g>
  </g>
</svg>
