<svg xmlns="http://www.w3.org/2000/svg" xmlns:xlink="http://www.w3.org/1999/xlink" width="24" height="24" viewBox="0 0 24 24">
  <defs>
    <clipPath id="clip-path">
      <rect id="Rectangle_140" data-name="Rectangle 140" width="24" height="24" transform="translate(881 3439)" fill="#689634" stroke="#707070" stroke-width="1"/>
    </clipPath>
  </defs>
  <g id="Mask_Group_23" data-name="Mask Group 23" transform="translate(-881 -3439)" clip-path="url(#clip-path)">
    <g id="search_1_" data-name="search (1)" transform="translate(881.024 3439)">
      <path id="Path_296" data-name="Path 296" d="M9.011,1.307a7.636,7.636,0,0,0-5.44,2.257,7.7,7.7,0,1,0,10.88,0,7.636,7.636,0,0,0-5.44-2.257ZM15.6,11.693a7.111,7.111,0,1,1-2.651-8.605A7.1,7.1,0,0,1,15.6,11.693Z" transform="translate(0.119 0.137)" fill="#689634"/>
      <path id="Path_297" data-name="Path 297" d="M18.455,15.438a.293.293,0,0,0-.415,0l-1.1,1.1-.785-.787a9.127,9.127,0,1,0-.415.415l.785.787-1.1,1.1a.293.293,0,0,0,0,.414l5.232,5.242a2.145,2.145,0,0,0,3.031-3.035Zm-2.919.112a8.565,8.565,0,1,1,1.878-2.833,8.536,8.536,0,0,1-1.878,2.833Zm.51,2.716,2.2-2.206.894.9-2.2,2.206ZM23.272,23.3a1.554,1.554,0,0,1-2.2,0l-3.717-3.724,2.2-2.206,3.717,3.723a1.564,1.564,0,0,1,0,2.206Z" transform="translate(-0.361 -0.344)" fill="#689634"/>
      <path id="Path_298" data-name="Path 298" d="M3.861,4.14a.292.292,0,0,0,.2-.081,5.641,5.641,0,0,1,.489-.414A.293.293,0,1,0,4.2,3.177a6.223,6.223,0,0,0-.54.457.293.293,0,0,0,.2.506Z" transform="translate(1.242 1.042)" fill="#689634"/>
      <path id="Path_299" data-name="Path 299" d="M3.848,4.074a.293.293,0,0,0-.408.074A6.142,6.142,0,0,0,2.422,8.612.293.293,0,1,0,3,8.522a5.558,5.558,0,0,1,.921-4.039.293.293,0,0,0-.074-.408Z" transform="translate(0.631 1.495)" fill="#689634"/>
      <path id="Path_300" data-name="Path 300" d="M10.186,7.741c-.025-.009-.029-.029-.029-.055V7.679a2.4,2.4,0,0,0-4.792,0v.007c0,.024,0,.045-.029.054A2.365,2.365,0,0,0,3.848,9.275a2.593,2.593,0,0,0,.481,2.344.636.636,0,0,0,.135.133,2.776,2.776,0,0,0,1.775.576,2.381,2.381,0,0,0,1.488-.62.052.052,0,0,1,.068,0,2.38,2.38,0,0,0,1.488.62l.118,0a2.805,2.805,0,0,0,1.656-.579.629.629,0,0,0,.134-.133,2.6,2.6,0,0,0,.484-2.344,2.365,2.365,0,0,0-1.488-1.534Zm.534,3.528-.009.009a1.929,1.929,0,0,1-2.519,0,.641.641,0,0,0-.86,0,1.929,1.929,0,0,1-2.519,0L4.8,11.269a2.02,2.02,0,0,1-.389-1.82A1.768,1.768,0,0,1,5.526,8.3a.635.635,0,0,0,.426-.61V7.679a1.809,1.809,0,0,1,3.618,0v.005A.636.636,0,0,0,10,8.3a1.776,1.776,0,0,1,1.118,1.153,2.024,2.024,0,0,1-.394,1.82Z" transform="translate(1.329 2.144)" fill="#689634"/>
      <path id="Path_301" data-name="Path 301" d="M4.651,7.677A.887.887,0,0,0,5.228,7.3a1.729,1.729,0,0,0,.23-1.265c-.141-.822-.715-1.387-1.309-1.287a.887.887,0,0,0-.577.381,1.729,1.729,0,0,0-.23,1.265c.13.759.63,1.3,1.172,1.3a.823.823,0,0,0,.137-.012Zm-.73-1.386a1.156,1.156,0,0,1,.13-.827.312.312,0,0,1,.2-.142.212.212,0,0,1,.036,0c.223,0,.514.328.6.811a1.156,1.156,0,0,1-.13.827.312.312,0,0,1-.2.142c-.226.039-.545-.3-.632-.808Z" transform="translate(1.114 1.849)" fill="#689634"/>
      <path id="Path_302" data-name="Path 302" d="M5.92,6.588c.7,0,1.251-.773,1.251-1.758S6.622,3.071,5.92,3.071s-1.251.773-1.251,1.758S5.218,6.588,5.92,6.588Zm0-2.93c.354,0,.665.548.665,1.172S6.274,6,5.92,6s-.665-.548-.665-1.172S5.566,3.658,5.92,3.658Z" transform="translate(1.792 1.019)" fill="#689634"/>
      <path id="Path_303" data-name="Path 303" d="M9.419,4.744c-.593-.1-1.168.465-1.309,1.287A1.728,1.728,0,0,0,8.34,7.3a.887.887,0,0,0,.577.381.822.822,0,0,0,.137.012c.542,0,1.042-.54,1.172-1.3A1.727,1.727,0,0,0,10,5.125a.887.887,0,0,0-.577-.381Zm.228,1.547c-.087.509-.406.847-.632.808a.312.312,0,0,1-.2-.142,1.156,1.156,0,0,1-.13-.827c.083-.482.373-.811.6-.811a.212.212,0,0,1,.036,0,.312.312,0,0,1,.2.142,1.156,1.156,0,0,1,.13.827Z" transform="translate(3.498 1.85)" fill="#689634"/>
      <path id="Path_304" data-name="Path 304" d="M7.757,6.588c.7,0,1.251-.773,1.251-1.758s-.55-1.758-1.251-1.758-1.251.773-1.251,1.758S7.055,6.588,7.757,6.588Zm0-2.93c.354,0,.665.548.665,1.172S8.111,6,7.757,6s-.665-.548-.665-1.172S7.4,3.658,7.757,3.658Z" transform="translate(2.711 1.019)" fill="#689634"/>
    </g>
  </g>
</svg>
