<svg xmlns="http://www.w3.org/2000/svg" xmlns:xlink="http://www.w3.org/1999/xlink" width="40.557" height="40.557" viewBox="0 0 40.557 40.557">
  <defs>
    <filter id="Ellipse_45">
      <feOffset input="SourceAlpha"/>
      <feGaussianBlur stdDeviation="10" result="blur"/>
      <feFlood flood-opacity="0.259" result="color"/>
      <feComposite operator="out" in="SourceGraphic" in2="blur"/>
      <feComposite operator="in" in="color"/>
      <feComposite operator="in" in2="SourceGraphic"/>
    </filter>
    <clipPath id="clip-path">
      <g transform="matrix(1, 0, 0, 1, 0, 0)" filter="url(#Ellipse_45)">
        <circle id="Ellipse_45-2" data-name="Ellipse 45" cx="20.278" cy="20.278" r="20.278" transform="translate(265 3849.98)" fill="#f6e4e5"/>
      </g>
    </clipPath>
  </defs>
  <g id="Mask_Group_29" data-name="Mask Group 29" transform="translate(-265 -3849.985)" clip-path="url(#clip-path)">
    <g id="cow_1_" data-name="cow (1)" transform="translate(262.274 3848.779)">
      <circle id="Ellipse_66" data-name="Ellipse 66" cx="0.76" cy="0.76" r="0.76" transform="translate(18.333 30.67) rotate(-13.3)" fill="#f6e4e5"/>
      <circle id="Ellipse_67" data-name="Ellipse 67" cx="0.76" cy="0.76" r="0.76" transform="translate(25.854 30.668) rotate(-13.3)" fill="#f6e4e5"/>
      <path id="Path_314" data-name="Path 314" d="M14.861,22.279a.371.371,0,1,0,0,.742.833.833,0,0,1,.832.832.371.371,0,0,0,.743,0A1.577,1.577,0,0,0,14.861,22.279Z" transform="translate(3.187 -4.703)" fill="#f6e4e5"/>
      <path id="Path_315" data-name="Path 315" d="M33.617,22.65a.371.371,0,0,0-.371-.371,1.577,1.577,0,0,0-1.575,1.575.371.371,0,0,0,.743,0,.833.833,0,0,1,.832-.832A.371.371,0,0,0,33.617,22.65Z" transform="translate(-5.285 -4.703)" fill="#f6e4e5"/>
      <path id="Path_316" data-name="Path 316" d="M31.717,12.26,29.439,9.375a1.927,1.927,0,0,0-2.14-.627,20.982,20.982,0,0,1-3.076.965A11.2,11.2,0,0,0,26.533,6.64a13.91,13.91,0,0,0,1.309-3.894.926.926,0,0,0-1.626-.754c-.476.575-1.088,1.235-1.82,1.96A9.042,9.042,0,0,1,18.46,6.534H13.6a9.156,9.156,0,0,1-3.43-.84.47.47,0,0,0-.4.852,10.123,10.123,0,0,0,1.66.6,4.113,4.113,0,0,0-1.058.941L9.163,9.611A11.259,11.259,0,0,1,5.149,2.628C5.64,3.218,6.262,3.887,7,4.619a9.856,9.856,0,0,0,.8.713A.47.47,0,1,0,8.388,4.6a8.927,8.927,0,0,1-.726-.645c-.733-.726-1.345-1.385-1.82-1.96a.926.926,0,0,0-1.626.754A13.909,13.909,0,0,0,5.525,6.64,11.2,11.2,0,0,0,7.834,9.713a21.036,21.036,0,0,1-3.076-.965,1.927,1.927,0,0,0-2.14.627L.341,12.26a1.582,1.582,0,0,0,.538,2.4,8.715,8.715,0,0,0,4.1,1.316,6.185,6.185,0,0,0,2.345-.462,7.983,7.983,0,0,0,.333,1.634l2.5,7.928L9.5,27.295a1.9,1.9,0,0,0,2.211,2.4c.094-.02.188-.037.283-.056a4.6,4.6,0,0,0,4.032,1.955,4.6,4.6,0,0,0,4.032-1.955c.094.018.188.036.283.056a1.9,1.9,0,0,0,2.211-2.4L21.9,25.073l.8-2.521a.47.47,0,1,0-.9-.283l-.464,1.471a2.618,2.618,0,0,0-3.057-.873h0a6.126,6.126,0,0,1-4.492,0,2.618,2.618,0,0,0-3.057.873L8.555,16.862a7.015,7.015,0,0,1,1.2-6.483L11.11,8.67a3.149,3.149,0,0,1,2.478-1.2h4.88a3.149,3.149,0,0,1,2.479,1.2L22.3,10.379a7.015,7.015,0,0,1,1.2,6.483l-1.039,3.291a.47.47,0,1,0,.9.283L24.4,17.145a7.981,7.981,0,0,0,.333-1.634,6.182,6.182,0,0,0,2.345.462,8.711,8.711,0,0,0,4.1-1.316,1.582,1.582,0,0,0,.538-2.4ZM16.029,30.652a3.987,3.987,0,0,1-3.016-1.19,20.794,20.794,0,0,1,6.032,0A3.987,3.987,0,0,1,16.029,30.652Zm-2.589-6.911a7.062,7.062,0,0,0,5.179,0,1.68,1.68,0,0,1,2.226,1.087l.809,2.733a.959.959,0,0,1-1.117,1.211,21.792,21.792,0,0,0-9.015,0A.959.959,0,0,1,10.4,27.561l.809-2.733A1.68,1.68,0,0,1,13.439,23.741ZM3.355,9.957a.987.987,0,0,1,1.1-.321,15.266,15.266,0,0,0,3.932,1.085q-.146.249-.273.505c-2.375-.421-3.98-1.516-5.5-.158l-.417.366ZM1.3,13.815a.641.641,0,0,1-.208-.165l2.14-1.878c1.042-.929,2.227-.1,4.509.34A7.948,7.948,0,0,0,7.292,14.5C4.3,15.964,1.953,14.018,1.3,13.815Zm26.31-4.179a.987.987,0,0,1,1.1.321l1.167,1.477-.414-.364c-1.528-1.362-3.134-.266-5.507.155-.085-.171-.176-.34-.273-.505a15.266,15.266,0,0,0,3.932-1.085Zm-5.924-1.55a4.114,4.114,0,0,0-1.057-.941,9.841,9.841,0,0,0,4.432-2.526c.737-.73,1.358-1.4,1.852-1.991a11.258,11.258,0,0,1-4.014,6.983Zm9.079,5.729c-.654.2-3,2.152-6,.682a7.947,7.947,0,0,0-.445-2.385c2.286-.444,3.466-1.27,4.512-.338l2.137,1.876A.641.641,0,0,1,30.761,13.815Z" transform="translate(6.976 4.863)" fill="#f6e4e5"/>
    </g>
  </g>
</svg>
