<svg xmlns="http://www.w3.org/2000/svg" xmlns:xlink="http://www.w3.org/1999/xlink" width="30" height="30" viewBox="0 0 30 30">
  <defs>
    <clipPath id="clip-path">
      <rect id="Rectangle_134" data-name="Rectangle 134" width="30" height="30" transform="translate(520 3002)" fill="#689634"/>
    </clipPath>
  </defs>
  <g id="Mask_Group_16" data-name="Mask Group 16" transform="translate(-520 -3002)" clip-path="url(#clip-path)">
    <g id="truck" transform="translate(519.516 3000.791)">
      <path id="Path_268" data-name="Path 268" d="M6.29,22.742a1.452,1.452,0,1,0,1.452,1.452A1.452,1.452,0,0,0,6.29,22.742Zm0,1.935a.484.484,0,1,1,.484-.484A.484.484,0,0,1,6.29,24.677Z" fill="#689634"/>
      <path id="Path_269" data-name="Path 269" d="M24.677,22.742a1.452,1.452,0,1,0,1.452,1.452A1.452,1.452,0,0,0,24.677,22.742Zm0,1.935a.484.484,0,1,1,.484-.484A.484.484,0,0,1,24.677,24.677Z" fill="#689634"/>
      <path id="Path_270" data-name="Path 270" d="M30.407,16.19,26.052,9.416a.484.484,0,0,0-.407-.222H19.839V6.532a1.7,1.7,0,0,0-1.694-1.694H2.177A1.7,1.7,0,0,0,.484,6.532V24.194a.484.484,0,0,0,.484.484H2.938a3.387,3.387,0,0,0,6.7,0H21.325a3.387,3.387,0,0,0,6.7,0H30a.484.484,0,0,0,.484-.484V16.452a.485.485,0,0,0-.077-.262ZM6.29,26.613A2.419,2.419,0,1,1,8.71,24.194,2.419,2.419,0,0,1,6.29,26.613Zm12.581-2.9H9.642a3.387,3.387,0,0,0-6.7,0H1.452V18.871H18.871Zm0-5.806H1.452V6.532a.726.726,0,0,1,.726-.726H18.145a.726.726,0,0,1,.726.726Zm7.443-6.29,2.8,4.355H22.258V11.613Zm-1.637,15A2.419,2.419,0,1,1,27.1,24.194a2.419,2.419,0,0,1-2.419,2.419Zm4.839-6.774h-.968a.484.484,0,0,1,0-.968h.968Zm0-1.935h-.968a1.452,1.452,0,0,0,0,2.9h.968v2.9H28.029a3.387,3.387,0,0,0-6.7,0H19.839V10.161h5.542l.311.484H21.774a.484.484,0,0,0-.484.484v5.323a.484.484,0,0,0,.484.484h7.742Z" fill="#689634"/>
      <path id="Path_271" data-name="Path 271" d="M23.226,17.9H21.774a.484.484,0,0,0,0,.968h1.452a.484.484,0,0,0,0-.968Z" fill="#689634"/>
      <path id="Path_272" data-name="Path 272" d="M13.065,20.806h3.871a.484.484,0,0,0,0-.968H13.065a.484.484,0,0,0,0,.968Z" fill="#689634"/>
      <path id="Path_273" data-name="Path 273" d="M16.935,21.29H15.484a.484.484,0,0,0,0,.968h1.452a.484.484,0,0,0,0-.968Z" fill="#689634"/>
    </g>
  </g>
</svg>
