<svg xmlns="http://www.w3.org/2000/svg" xmlns:xlink="http://www.w3.org/1999/xlink" width="30" height="30" viewBox="0 0 30 30">
  <defs>
    <clipPath id="clip-path">
      <rect id="Rectangle_123" data-name="Rectangle 123" width="30" height="30" transform="translate(520 2874)" fill="#689634" stroke="#707070" stroke-width="1"/>
    </clipPath>
  </defs>
  <g id="Mask_Group_7" data-name="Mask Group 7" transform="translate(-520 -2874)" clip-path="url(#clip-path)">
    <g id="blockchain" transform="translate(519.972 2874)">
      <path id="Path_235" data-name="Path 235" d="M14.805,20A.445.445,0,0,0,15.262,20l4.013-2.517a.439.439,0,0,0,.206-.372V12.955a.434.434,0,0,0,.005-.065.44.44,0,0,0-.206-.373l-4.019-2.511a.439.439,0,0,0-.466,0l-4.019,2.511a.446.446,0,0,0-.206.374v4.218a.44.44,0,0,0,.206.372L14.8,20l.01.005Zm.663-1.172V15.645L18.6,13.686v3.179ZM15.028,10.9l3.187,1.992-3.187,1.994L11.839,12.89Zm-3.579,2.786,3.14,1.962v3.187l-3.14-1.966Zm0,0" fill="#689634"/>
      <path id="Path_236" data-name="Path 236" d="M.236,7.545l4.019,2.517a.447.447,0,0,0,.466,0L8.734,7.544a.439.439,0,0,0,.206-.372V3.018a.428.428,0,0,0,.005-.064.439.439,0,0,0-.206-.373L4.72.07a.44.44,0,0,0-.466.745l3.42,2.137L4.487,4.947,1.3,2.954l1.483-.927a.44.44,0,0,0-.466-.745l-2.08,1.3a.446.446,0,0,0-.206.373V7.172a.439.439,0,0,0,.206.372Zm.672-3.8.07.044,3.07,1.918V8.9L.908,6.929ZM4.927,8.895V5.708L8.061,3.75V6.929Zm0,0" fill="#689634"/>
      <path id="Path_237" data-name="Path 237" d="M21.317,7.545l4.019,2.517a.447.447,0,0,0,.466,0l4.013-2.517a.439.439,0,0,0,.206-.372V3.019a.434.434,0,0,0,.005-.065.44.44,0,0,0-.206-.373L25.8.07a.439.439,0,0,0-.466,0L21.318,2.581a.445.445,0,0,0-.207.373V7.172a.44.44,0,0,0,.206.372Zm.673-3.8,3.14,1.962V8.9L21.99,6.929Zm4.018,5.148V5.708L29.143,3.75V6.929ZM25.569.961l3.187,1.992L25.569,4.947,22.38,2.954Zm0,0" fill="#689634"/>
      <path id="Path_238" data-name="Path 238" d="M8.739,22.454,4.72,19.943a.439.439,0,0,0-.466,0L.236,22.454a.446.446,0,0,0-.206.373v4.218a.439.439,0,0,0,.206.373l4.019,2.517a.447.447,0,0,0,.467,0l4.013-2.517a.44.44,0,0,0,.206-.372V22.891a.46.46,0,0,0,.005-.064.44.44,0,0,0-.206-.373Zm-4.252-1.62,3.187,1.992L4.487,24.82,1.3,22.827ZM.908,23.619l.07.044,3.07,1.918v3.187L.908,26.8Zm4.019,5.148V25.581l3.135-1.959V26.8Zm0,0" fill="#689634"/>
      <path id="Path_239" data-name="Path 239" d="M29.821,22.454,25.8,19.943a.44.44,0,0,0-.466,0l-4.019,2.511a.446.446,0,0,0-.206.373v4.218a.44.44,0,0,0,.206.373l4.019,2.517a.443.443,0,0,0,.672-.372V25.581l3.135-1.959V26.8L27.45,27.864a.439.439,0,0,0,.467.745l1.9-1.191a.44.44,0,0,0,.206-.372V22.892a.435.435,0,0,0-.2-.437Zm-4.251-1.62,3.187,1.992L25.569,24.82,22.38,22.827ZM21.99,23.619l3.14,1.962v3.187L21.99,26.8Zm0,0" fill="#689634"/>
      <path id="Path_240" data-name="Path 240" d="M11.088,5.276h7.851a.44.44,0,0,0,0-.879H11.088A.44.44,0,0,0,11.088,5.276Zm0,0" fill="#689634"/>
      <path id="Path_241" data-name="Path 241" d="M18.968,24.728H11.117a.44.44,0,0,0,0,.879h7.851A.44.44,0,0,0,18.968,24.728Zm0,0" fill="#689634"/>
      <path id="Path_242" data-name="Path 242" d="M25.106,12.373v5.238a.439.439,0,0,0,.879,0V12.373a.44.44,0,0,0-.879,0Zm0,0" fill="#689634"/>
      <path id="Path_243" data-name="Path 243" d="M4.072,12.393v5.238a.439.439,0,0,0,.879,0V12.393a.44.44,0,0,0-.879,0Zm0,0" fill="#689634"/>
      <path id="Path_244" data-name="Path 244" d="M21.254,9.147l-1.98,1.31a.443.443,0,0,0,.243.806.437.437,0,0,0,.242-.073l1.98-1.31a.44.44,0,0,0-.485-.733Zm0,0" fill="#689634"/>
      <path id="Path_245" data-name="Path 245" d="M10.3,11.19a.436.436,0,0,0,.242.073.443.443,0,0,0,.243-.806L8.8,9.147a.44.44,0,0,0-.485.733Zm0,0" fill="#689634"/>
      <path id="Path_246" data-name="Path 246" d="M8.56,21.223A.436.436,0,0,0,8.8,21.15l1.98-1.31a.44.44,0,0,0-.485-.733l-1.98,1.31A.443.443,0,0,0,8.56,21.223Zm0,0" fill="#689634"/>
      <path id="Path_247" data-name="Path 247" d="M19.274,19.84l1.98,1.31a.436.436,0,0,0,.242.073.443.443,0,0,0,.243-.806l-1.98-1.31A.44.44,0,0,0,19.274,19.84Zm0,0" fill="#689634"/>
    </g>
  </g>
</svg>
