<svg xmlns="http://www.w3.org/2000/svg" xmlns:xlink="http://www.w3.org/1999/xlink" width="50" height="50" viewBox="0 0 50 50">
  <defs>
    <filter id="Ellipse_45">
      <feOffset input="SourceAlpha"/>
      <feGaussianBlur stdDeviation="10" result="blur"/>
      <feFlood flood-opacity="0.161" result="color"/>
      <feComposite operator="out" in="SourceGraphic" in2="blur"/>
      <feComposite operator="in" in="color"/>
      <feComposite operator="in" in2="SourceGraphic"/>
    </filter>
    <clipPath id="clip-path">
      <g transform="matrix(1, 0, 0, 1, 0, 0)" filter="url(#Ellipse_45)">
        <circle id="Ellipse_45-2" data-name="Ellipse 45" cx="25" cy="25" r="25" transform="translate(265 4211)" fill="#f6e4e5"/>
      </g>
    </clipPath>
  </defs>
  <g id="Mask_Group_33" data-name="Mask Group 33" transform="translate(-265 -4211)" clip-path="url(#clip-path)">
    <g id="verify" transform="translate(277.001 4222.506)">
      <path id="Path_334" data-name="Path 334" d="M1.8,10.946C1,11.556,0,12.317,0,13.494s1,1.937,1.8,2.548a4.393,4.393,0,0,1,.9.8,4.1,4.1,0,0,1-.254,1.246c-.28.947-.628,2.126.043,3.049s1.912.961,2.905.986a4.257,4.257,0,0,1,1.24.133,4.217,4.217,0,0,1,.5,1.127c.332.944.744,2.118,1.849,2.477a1.946,1.946,0,0,0,.607.1,4.288,4.288,0,0,0,2.277-.993A4.041,4.041,0,0,1,13,24.326a4.036,4.036,0,0,1,1.134.637c.849.583,1.811,1.242,2.883.9,1.1-.359,1.517-1.533,1.849-2.476a4.3,4.3,0,0,1,.5-1.123,4.16,4.16,0,0,1,1.245-.137c.993-.025,2.229-.057,2.905-.986s.323-2.1.043-3.049a4.22,4.22,0,0,1-.256-1.238,4.24,4.24,0,0,1,.9-.807c.8-.611,1.8-1.371,1.8-2.548s-1-1.937-1.8-2.548a4.393,4.393,0,0,1-.9-.8A4.1,4.1,0,0,1,23.558,8.9c.28-.947.628-2.126-.043-3.049S21.6,4.891,20.61,4.865a4.257,4.257,0,0,1-1.24-.133,4.217,4.217,0,0,1-.5-1.127c-.331-.943-.744-2.118-1.849-2.477-1.072-.349-2.035.314-2.883.9A4.041,4.041,0,0,1,13,2.661a4.033,4.033,0,0,1-1.134-.637c-.849-.583-1.811-1.243-2.884-.9-1.1.359-1.517,1.533-1.849,2.476a4.3,4.3,0,0,1-.5,1.123,4.16,4.16,0,0,1-1.245.137c-.993.025-2.229.057-2.905.986S2.16,7.953,2.44,8.9A4.22,4.22,0,0,1,2.7,10.139a4.239,4.239,0,0,1-.9.807Zm1.314,1.722a4.178,4.178,0,0,0,1.643-1.853,4.364,4.364,0,0,0-.237-2.528,5.519,5.519,0,0,1-.26-1.147,5.5,5.5,0,0,1,1.186-.108,4.259,4.259,0,0,0,2.463-.55,4.234,4.234,0,0,0,1.27-2.159,5.42,5.42,0,0,1,.474-1.105,5.706,5.706,0,0,1,.988.592A4.406,4.406,0,0,0,13,4.828,4.4,4.4,0,0,0,15.36,3.81a5.707,5.707,0,0,1,.988-.592,5.412,5.412,0,0,1,.474,1.106,4.232,4.232,0,0,0,1.27,2.158,4.263,4.263,0,0,0,2.463.55,5.435,5.435,0,0,1,1.186.108,5.538,5.538,0,0,1-.26,1.146,4.364,4.364,0,0,0-.237,2.529,4.181,4.181,0,0,0,1.642,1.853,4.929,4.929,0,0,1,.93.826,4.952,4.952,0,0,1-.93.826,4.178,4.178,0,0,0-1.643,1.853A4.364,4.364,0,0,0,21.48,18.7a5.519,5.519,0,0,1,.26,1.147,5.5,5.5,0,0,1-1.186.108,4.259,4.259,0,0,0-2.463.55,4.235,4.235,0,0,0-1.27,2.159,5.42,5.42,0,0,1-.474,1.105,5.7,5.7,0,0,1-.988-.592A4.406,4.406,0,0,0,13,22.16a4.4,4.4,0,0,0-2.361,1.018,5.707,5.707,0,0,1-.988.592,5.412,5.412,0,0,1-.474-1.106,4.232,4.232,0,0,0-1.27-2.158,4.263,4.263,0,0,0-2.463-.55,5.435,5.435,0,0,1-1.186-.108,5.538,5.538,0,0,1,.26-1.146,4.364,4.364,0,0,0,.237-2.529A4.177,4.177,0,0,0,3.112,14.32a4.928,4.928,0,0,1-.93-.826,4.955,4.955,0,0,1,.93-.826h0Z" fill="#f6e4e5"/>
      <path id="Path_335" data-name="Path 335" d="M18.887,25.282a1.079,1.079,0,0,0,.766-.317l5.416-5.416A1.083,1.083,0,0,0,23.556,18l-.019.019-4.65,4.65-1.942-1.942a1.083,1.083,0,0,0-1.551,1.512l.019.019,2.708,2.708A1.079,1.079,0,0,0,18.887,25.282Z" transform="translate(-7.242 -7.996)" fill="#f6e4e5"/>
    </g>
  </g>
</svg>
