<svg xmlns="http://www.w3.org/2000/svg" xmlns:xlink="http://www.w3.org/1999/xlink" width="50" height="50" viewBox="0 0 50 50">
  <defs>
    <filter id="Ellipse_45">
      <feOffset input="SourceAlpha"/>
      <feGaussianBlur stdDeviation="10" result="blur"/>
      <feFlood flood-opacity="0.161" result="color"/>
      <feComposite operator="out" in="SourceGraphic" in2="blur"/>
      <feComposite operator="in" in="color"/>
      <feComposite operator="in" in2="SourceGraphic"/>
    </filter>
    <clipPath id="clip-path">
      <g transform="matrix(1, 0, 0, 1, 0, 0)" filter="url(#Ellipse_45)">
        <circle id="Ellipse_45-2" data-name="Ellipse 45" cx="25" cy="25" r="25" transform="translate(728 4391)" fill="#f6e4e5"/>
      </g>
    </clipPath>
  </defs>
  <g id="Mask_Group_36" data-name="Mask Group 36" transform="translate(-728 -4391)" clip-path="url(#clip-path)">
    <g id="swap" transform="translate(735.054 4400.106)">
      <g id="Group_412" data-name="Group 412" transform="translate(5.636 0)">
        <g id="Group_411" data-name="Group 411">
          <path id="Path_336" data-name="Path 336" d="M38.691,20.5l.012-.071q.028-.159.051-.318c.007-.048.014-.1.021-.143s.015-.113.022-.17q.014-.112.025-.225.009-.091.017-.182t.016-.2c0-.047.007-.094.01-.14q.008-.141.014-.283c0-.048,0-.1,0-.144q0-.109,0-.218c0-.031,0-.061,0-.092,0-.1,0-.2,0-.307v-.005q0-.134-.01-.267,0-.037,0-.074,0-.09-.011-.18c0-.043-.006-.086-.009-.128,0-.013,0-.025,0-.038a12.213,12.213,0,0,0-3.566-7.705c-.018-.018-.037-.034-.055-.05a12.268,12.268,0,0,0-4.54-2.849,1.017,1.017,0,1,0-.679,1.917,10.3,10.3,0,0,1,6.81,8.814c0,.026,0,.051.007.077s0,.057.006.085c0,.058.008.116.011.175l0,.043q.011.245.012.492c0,.03,0,.06,0,.09,0,.055,0,.109,0,.164s0,.086,0,.129q0,.116-.011.231c0,.04-.005.081-.008.121s-.008.107-.013.161-.009.1-.014.147q-.01.1-.022.2-.008.068-.017.136c-.006.047-.013.094-.02.14q-.018.118-.038.234l-.015.083A10.3,10.3,0,0,1,30.007,28a1.017,1.017,0,1,0,.678,1.917,12.314,12.314,0,0,0,6.583-5.511,1.019,1.019,0,0,0,.067-.1A12.289,12.289,0,0,0,38.691,20.5Z" transform="translate(-14.266 -2.424)" fill="#f6e4e5"/>
          <path id="Path_337" data-name="Path 337" d="M22.468,3,16.874.113a1.017,1.017,0,0,0-.934,1.807l4.692,2.424-2.5,4.833a1.017,1.017,0,1,0,1.808.933l2.962-5.736A1.017,1.017,0,0,0,22.468,3Z" transform="translate(-9.189 0)" fill="#f6e4e5"/>
          <path id="Path_338" data-name="Path 338" d="M14.517,28A10.292,10.292,0,0,1,7.67,18.316q0-.322.02-.642v-.007q.006-.1.014-.19c0-.028.005-.057.008-.085s.006-.072.01-.107.01-.1.016-.146l0-.041a10.3,10.3,0,0,1,6.774-8.468,1.017,1.017,0,1,0-.679-1.917,12.331,12.331,0,0,0-7.489,7.483,1.028,1.028,0,0,0-.042.1,12.272,12.272,0,0,0-.649,3.289V17.6q-.007.113-.011.226c0,.029,0,.058,0,.087,0,.052,0,.1,0,.156q0,.124,0,.248t0,.246a12.179,12.179,0,0,0,2.579,7.3,1.013,1.013,0,0,0,.07.081,12.29,12.29,0,0,0,5.55,3.98A1.017,1.017,0,0,0,14.517,28Z" transform="translate(-5.636 -2.423)" fill="#f6e4e5"/>
          <path id="Path_339" data-name="Path 339" d="M29.687,41.969,25,39.547l2.495-4.834a1.017,1.017,0,0,0-1.808-.933l-2.962,5.738a1.017,1.017,0,0,0,.438,1.37l5.595,2.889a1.017,1.017,0,0,0,.933-1.808Z" transform="translate(-11.818 -12.104)" fill="#f6e4e5"/>
        </g>
      </g>
    </g>
  </g>
</svg>
