<svg xmlns="http://www.w3.org/2000/svg" xmlns:xlink="http://www.w3.org/1999/xlink" width="42" height="42" viewBox="0 0 42 42">
  <defs>
    <filter id="Ellipse_45">
      <feOffset input="SourceAlpha"/>
      <feGaussianBlur stdDeviation="10" result="blur"/>
      <feFlood flood-opacity="0.161" result="color"/>
      <feComposite operator="out" in="SourceGraphic" in2="blur"/>
      <feComposite operator="in" in="color"/>
      <feComposite operator="in" in2="SourceGraphic"/>
    </filter>
    <clipPath id="clip-path">
      <g transform="matrix(1, 0, 0, 1, 0, 0)" filter="url(#Ellipse_45)">
        <circle id="Ellipse_45-2" data-name="Ellipse 45" cx="21" cy="21" r="21" transform="translate(265.48 4027.48)" fill="#f6e4e5"/>
      </g>
    </clipPath>
  </defs>
  <g id="Mask_Group_31" data-name="Mask Group 31" transform="translate(-265.477 -4027.477)" clip-path="url(#clip-path)">
    <g id="cow_2_" data-name="cow (2)" transform="translate(269.716 4032.531)">
      <g id="Group_406" data-name="Group 406" transform="translate(0 0)">
        <path id="Path_325" data-name="Path 325" d="M25.706,13.344c-1.587,3.13-4.214,3.065-6.921,2.887a.492.492,0,0,0-.065.982c.614.041,1.246.082,1.879.082a5.967,5.967,0,0,0,5.168-2.208,3.445,3.445,0,0,0,.657,1.354c.184.226.356.433.509.615a4.092,4.092,0,0,1,1.374,3.15,1.173,1.173,0,0,1-.329.1l-2.763.453a10.161,10.161,0,0,0-6.8,4.382l-.051-.017a22.141,22.141,0,0,1-3.449-1.285l.056-.056a1.119,1.119,0,0,0,0-1.58l-1.053-1.053a.492.492,0,0,0-.7.7L14.276,22.9a.134.134,0,0,1,0,.189l-2.78,2.78a.133.133,0,0,1-.189,0L5.853,20.416a.133.133,0,0,1,0-.189l2.78-2.78a.133.133,0,0,1,.189,0l2.736,2.736a.492.492,0,0,0,.7-.7L11.768,19c.172-.14.342-.286.506-.438a5.817,5.817,0,0,1,4.131-1.444.492.492,0,0,0-.009-.984h-.009a6.838,6.838,0,0,0-4.781,1.706c-.174.161-.354.315-.537.461L9.517,16.752a1.117,1.117,0,0,0-1.58,0l-.5.5a18.781,18.781,0,0,1-1.208-2.265,21.113,21.113,0,0,1-1.72-6.612l1.717,0h0a.492.492,0,0,0,.125-.016l.3-.08v2.168A1.887,1.887,0,0,0,8.538,12.34h2.009a1.887,1.887,0,0,0,1.885-1.885V7.448a1.888,1.888,0,0,0-1.885-1.885H9.342A4.5,4.5,0,0,1,9.608,2.9a1.158,1.158,0,0,1,1.051-.7A4.466,4.466,0,0,1,15.06,7.7a.492.492,0,1,0,.957.227,5.45,5.45,0,0,0,.075-2.12l.575-.151,2.877.467a1.192,1.192,0,0,1,.9.7l.485,1.1a4.1,4.1,0,0,0,1.627,1.857l.682.416a.492.492,0,0,0,.512-.84l-.682-.416a3.122,3.122,0,0,1-1.238-1.413l-.486-1.1A2.174,2.174,0,0,0,19.7,5.147l-2.98-.484a.493.493,0,0,0-.2.01l-.668.176a5.438,5.438,0,0,0-5.137-3.632h-.065A2.141,2.141,0,0,0,8.7,2.519a5.5,5.5,0,0,0-.36,3.054A1.889,1.889,0,0,0,6.662,7.267l-.5.132L4.3,7.393a1.12,1.12,0,0,0-.928-.523l-.942-.013H2.416a1.112,1.112,0,0,0-.949.528l-.973,0h0a.492.492,0,0,0,0,.984l.831,0A24.16,24.16,0,0,0,3.294,16.2a21.8,21.8,0,0,0,1.849,3.348,1.107,1.107,0,0,0-.311.727,13.155,13.155,0,0,1-1.919-.193.492.492,0,0,0-.169.969,13.952,13.952,0,0,0,2.385.212h.178l5.305,5.305a1.119,1.119,0,0,0,1.58,0l.362-.362a24.567,24.567,0,0,0,4.527,1.853,10.209,10.209,0,0,0-.281,1.367l-.186,1.389a.492.492,0,0,0,.422.553.5.5,0,0,0,.066,0,.492.492,0,0,0,.487-.427l.186-1.389a9.212,9.212,0,0,1,.286-1.349,1.12,1.12,0,0,0,.851-.816l.233-.909a1.115,1.115,0,0,0-.019-.625,9.177,9.177,0,0,1,6.247-4.123l2.761-.453a2.167,2.167,0,0,0,.964-.413l2.04-1.546A2.183,2.183,0,0,0,32,17.589V15.594a2.192,2.192,0,0,0-1.045-1.859l-5.193-3.162a.492.492,0,1,0-.512.84l.9.545a4.876,4.876,0,0,0-.441,1.385Zm1.483,2.477a3.242,3.242,0,0,1-.2-3.348l3.454,2.1a1.2,1.2,0,0,1,.573,1.019v1.995a1.2,1.2,0,0,1-.472.948l-1.3.983a5.11,5.11,0,0,0-1.56-3.1C27.531,16.236,27.368,16.041,27.189,15.82ZM7.637,7.448a.9.9,0,0,1,.9-.9h2.009a.9.9,0,0,1,.9.9v3.006a.9.9,0,0,1-.9.9H8.538a.9.9,0,0,1-.9-.9Zm-5.354.532a.131.131,0,0,1,.037-.1.127.127,0,0,1,.1-.041l.942.013a.134.134,0,0,1,.131.126,22.012,22.012,0,0,0,1.839,7.413,19.7,19.7,0,0,0,1.393,2.575l-.871.871A20.878,20.878,0,0,1,4.193,15.8a22.989,22.989,0,0,1-1.911-7.82ZM18.194,26.237l-.233.909a.135.135,0,0,1-.063.083.126.126,0,0,1-.1.013,23.951,23.951,0,0,1-4.516-1.766l.9-.9a22.93,22.93,0,0,0,3.917,1.5A.134.134,0,0,1,18.194,26.237Z" transform="translate(0 -1.217)" fill="#f6e4e5"/>
        <path id="Path_326" data-name="Path 326" d="M43.556,39.18h-.542a3.078,3.078,0,0,0-.6-3.362,2.9,2.9,0,0,0-4.178,0l-.426.438-.426-.438a2.955,2.955,0,0,0-3.654-.371l-.081.055a2.921,2.921,0,0,0-.457,4.557H32.43a.492.492,0,0,0,0,.984h1.719L36.831,43.8a1.362,1.362,0,0,0,1.961,0l3.537-3.638h1.227a.492.492,0,0,0,0-.984Zm-9.644.209a2.031,2.031,0,0,1-.614-1.623,2,2,0,0,1,.908-1.452l.081-.055a1.811,1.811,0,0,1,1.023-.3,1.926,1.926,0,0,1,1.37.544l.779.8a.492.492,0,0,0,.705,0l.779-.8a1.916,1.916,0,0,1,2.767,0,2.086,2.086,0,0,1,.177,2.676H38.768a.492.492,0,0,0-.45.294l-.12.273-.366-1.267a.492.492,0,0,0-.891-.122l-1.053,1.7H34.565Zm4.174,3.726a.379.379,0,0,1-.55,0l-2.015-2.072h.641a.492.492,0,0,0,.418-.233l.614-.993.434,1.506a.492.492,0,0,0,.44.354H38.1a.492.492,0,0,0,.45-.294l.537-1.222h1.868Z" transform="translate(-10.525 -12.326)" fill="#f6e4e5"/>
        <path id="Path_327" data-name="Path 327" d="M15.993,30.22l-2.53-2.53a.492.492,0,0,0-.7.7l2.53,2.53a.492.492,0,1,0,.7-.7Z" transform="translate(-4.16 -9.893)" fill="#f6e4e5"/>
        <path id="Path_328" data-name="Path 328" d="M14.667,33.337a.494.494,0,1,0,.7.007l0,0A.489.489,0,0,0,14.667,33.337Z" transform="translate(-4.785 -11.754)" fill="#f6e4e5"/>
        <path id="Path_329" data-name="Path 329" d="M16.275,34.944a.494.494,0,1,0,.7.007l0,0A.489.489,0,0,0,16.275,34.944Z" transform="translate(-5.315 -12.284)" fill="#f6e4e5"/>
        <path id="Path_330" data-name="Path 330" d="M26.566,13.487a1.659,1.659,0,0,0-1.623,1.331.492.492,0,0,0,.965.192.671.671,0,0,1,1.317,0,.492.492,0,0,0,.965-.192A1.659,1.659,0,0,0,26.566,13.487Z" transform="translate(-8.216 -5.26)" fill="#f6e4e5"/>
        <path id="Path_331" data-name="Path 331" d="M43.434,21.979a.492.492,0,0,0-.181-.672l-.513-.3a.492.492,0,1,0-.491.852l.513.3a.492.492,0,0,0,.672-.181Z" transform="translate(-13.841 -7.718)" fill="#f6e4e5"/>
      </g>
    </g>
  </g>
</svg>
