<svg xmlns="http://www.w3.org/2000/svg" xmlns:xlink="http://www.w3.org/1999/xlink" width="24" height="24" viewBox="0 0 24 24">
  <defs>
    <clipPath id="clip-path">
      <rect id="Rectangle_139" data-name="Rectangle 139" width="24" height="24" transform="translate(881 3606)" fill="#689634" stroke="#707070" stroke-width="1"/>
    </clipPath>
  </defs>
  <g id="Mask_Group_22" data-name="Mask Group 22" transform="translate(-881 -3606)" clip-path="url(#clip-path)">
    <g id="feed" transform="translate(881 3606)">
      <path id="Path_293" data-name="Path 293" d="M23.226,0H20.9a.775.775,0,0,0-.774.774v.247l-.183.22a11.958,11.958,0,0,1-2.913,2.527V.7l-1.891.315a4.205,4.205,0,0,0-3.205,2.547,5.167,5.167,0,0,0-4.746.261l-.809.485a.387.387,0,0,0,.151.716,4.175,4.175,0,0,1,3.35,2.61,5.167,5.167,0,0,0-1.606,2.1l-1.569,3.81H6.065A2.962,2.962,0,0,0,3.94,18.581H.774A.775.775,0,0,0,0,19.355v.387A4.263,4.263,0,0,0,4.258,24H14.323a1.161,1.161,0,0,0,1.142-.965,4.218,4.218,0,0,0,1.568-3.293v-.387a.775.775,0,0,0-.774-.774H12.387a.775.775,0,0,0-.774.774v1.161h.774V19.355h3.871v.387a3.448,3.448,0,0,1-.99,2.427,1.159,1.159,0,0,0-.945-.491H12.387v.774h1.935a.387.387,0,1,1,0,.774H8.9a.387.387,0,1,1,0-.774h1.935v-3.1a.772.772,0,0,0-.531-.731,5.84,5.84,0,0,1,2.108-.513A6.506,6.506,0,0,0,18.087,14.1l2.042-.766v9.893A.775.775,0,0,0,20.9,24h2.323A.775.775,0,0,0,24,23.226V.774A.775.775,0,0,0,23.226,0Zm-3.1,10.73-.255-.064A.684.684,0,0,1,19.355,10a1.454,1.454,0,0,0-.245-.809l-.173-.259a2.123,2.123,0,0,1,.408-2.808l.784-.654ZM8.937,3.981a3.02,3.02,0,0,1-.63.816A4.938,4.938,0,0,0,7.6,4.485,4.27,4.27,0,0,1,8.937,3.981Zm.049,1.245a3.823,3.823,0,0,0,.849-1.341,4.3,4.3,0,0,1,1.65.328A3.015,3.015,0,0,1,9.872,6.081a5,5,0,0,0-.886-.855Zm1.324,1.507A3.787,3.787,0,0,0,11.636,5.6a4.217,4.217,0,0,0,.193.915l.05.151a5.152,5.152,0,0,0-1.336.53,4.818,4.818,0,0,0-.235-.466ZM6.065,14.323h.681l2.371,4.066-.321.192h-.28a.775.775,0,0,0-.774.774v1.161a.387.387,0,0,1-.774,0V19.355a.775.775,0,0,0-.774-.774H5.967l.5-.5-.547-.547L5,18.457l-.248-.186a2.194,2.194,0,0,1,1.317-3.948Zm4,7.355H8.9a1.162,1.162,0,0,0-1.1,1.548H4.258A3.488,3.488,0,0,1,.774,19.742v-.387H6.194v1.161a1.161,1.161,0,0,0,2.323,0V19.355h1.548Zm8.324-8.519a6.506,6.506,0,0,0,.192-1.546h-.774a5.74,5.74,0,0,1-5.467,5.727,6.533,6.533,0,0,0-2.547.67L7.4,13.906l.539-1.31,1.263.842a2.962,2.962,0,0,0,3.857-.5l1.937-2.18a1.932,1.932,0,0,0,.489-1.286v-.96H14.71v.96a1.161,1.161,0,0,1-.293.771l-1.937,2.18a2.187,2.187,0,0,1-2.848.367l-1.392-.928.754-1.833a4.42,4.42,0,0,1,3.449-2.683l.459-.065-.337-1.011a3.448,3.448,0,0,1,2.7-4.491l.99-.165v.7a3.1,3.1,0,0,0-3.1,3.1h.774A2.325,2.325,0,0,1,16.258,3.1V4.109a2.679,2.679,0,0,1-1.692,2.5l.287.718A3.444,3.444,0,0,0,16.978,4.7a12.72,12.72,0,0,0,3.15-2.491V4.464L18.848,5.53a2.9,2.9,0,0,0-.555,3.833l.173.259a.684.684,0,0,1,.115.38,1.456,1.456,0,0,0,1.105,1.415l.443.111v.978ZM20.9,23.226V.774h2.323V23.226Z" transform="translate(0 0)" fill="#689634"/>
      <path id="Path_294" data-name="Path 294" d="M4.258,12.129A1.161,1.161,0,1,0,3.1,10.968,1.163,1.163,0,0,0,4.258,12.129Zm0-1.548a.387.387,0,1,1-.387.387A.387.387,0,0,1,4.258,10.581Z" transform="translate(1.548 4.903)" fill="#689634"/>
      <path id="Path_295" data-name="Path 295" d="M6.71,8.129v.387H7.871A1.938,1.938,0,0,0,9.806,6.581V6.194H8.645A1.938,1.938,0,0,0,6.71,8.129Zm1.161-.387H7.55a1.164,1.164,0,0,1,1.1-.774h.321A1.164,1.164,0,0,1,7.871,7.742Z" transform="translate(3.355 3.097)" fill="#689634"/>
    </g>
  </g>
</svg>
