<svg xmlns="http://www.w3.org/2000/svg" xmlns:xlink="http://www.w3.org/1999/xlink" width="30" height="30" viewBox="0 0 30 30">
  <defs>
    <clipPath id="clip-path">
      <rect id="Rectangle_125" data-name="Rectangle 125" width="30" height="30" transform="translate(938 2980)" fill="#689634" stroke="#707070" stroke-width="1"/>
    </clipPath>
  </defs>
  <g id="Mask_Group_11" data-name="Mask Group 11" transform="translate(-938 -2980)" clip-path="url(#clip-path)">
    <g id="ear" transform="translate(938 2980)">
      <g id="Group_295" data-name="Group 295">
        <g id="Group_294" data-name="Group 294">
          <path id="Path_249" data-name="Path 249" d="M19.336,9.668A9.668,9.668,0,0,0,0,9.668,39.514,39.514,0,0,0,.894,16.89a38.2,38.2,0,0,1,.864,6.9,6.153,6.153,0,1,0,12.3,0,6.774,6.774,0,0,0-.125-1.3c-.429-2.1,1.115-4.535,2.567-5.987A9.6,9.6,0,0,0,19.336,9.668ZM12.215,22.844a5.021,5.021,0,0,1,.089.945,4.395,4.395,0,1,1-8.789,0,39.514,39.514,0,0,0-.894-7.222,38.2,38.2,0,0,1-.864-6.9,7.91,7.91,0,1,1,13.5,5.593C13.416,17.106,11.647,20.067,12.215,22.844Z" fill="#689634"/>
        </g>
      </g>
      <g id="Group_297" data-name="Group 297">
        <g id="Group_296" data-name="Group 296">
          <path id="Path_250" data-name="Path 250" d="M10.817,3.621a6.161,6.161,0,0,0-7.3,6.047,35.911,35.911,0,0,0,.834,6.547c.138.732.28,1.49.408,2.244a3.115,3.115,0,0,0,6.132.129A6.391,6.391,0,0,0,9.751,12.8,6.128,6.128,0,0,0,5.3,10.554q-.025-.447-.025-.886a4.4,4.4,0,1,1,7.5,3.108l1.244,1.242A6.156,6.156,0,0,0,10.817,3.621ZM8.392,13.913a4.726,4.726,0,0,1,.774,4.33,1.363,1.363,0,0,1-1.333,1.093,1.377,1.377,0,0,1-1.342-1.171c-.131-.77-.275-1.535-.415-2.281-.23-1.222-.453-2.407-.605-3.554A4.377,4.377,0,0,1,8.392,13.913Z" fill="#689634"/>
        </g>
      </g>
      <g id="Group_299" data-name="Group 299">
        <g id="Group_298" data-name="Group 298">
          <rect id="Rectangle_129" data-name="Rectangle 129" width="8.848" height="1.758" transform="translate(21.152 14.063)" fill="#689634"/>
        </g>
      </g>
      <g id="Group_301" data-name="Group 301">
        <g id="Group_300" data-name="Group 300">
          <rect id="Rectangle_130" data-name="Rectangle 130" width="1.758" height="7.86" transform="translate(21.637 22.758) rotate(-63.435)" fill="#689634"/>
        </g>
      </g>
      <g id="Group_303" data-name="Group 303">
        <g id="Group_302" data-name="Group 302">
          <rect id="Rectangle_131" data-name="Rectangle 131" width="7.86" height="1.758" transform="translate(21.639 7.124) rotate(-26.565)" fill="#689634"/>
        </g>
      </g>
    </g>
  </g>
</svg>
