<svg xmlns="http://www.w3.org/2000/svg" xmlns:xlink="http://www.w3.org/1999/xlink" width="24" height="24" viewBox="0 0 24 24">
  <defs>
    <clipPath id="clip-path">
      <rect id="Rectangle_137" data-name="Rectangle 137" width="24" height="24" transform="translate(459 3769)" fill="#689634" stroke="#707070" stroke-width="1"/>
    </clipPath>
  </defs>
  <g id="Mask_Group_20" data-name="Mask Group 20" transform="translate(-459 -3769)" clip-path="url(#clip-path)">
    <g id="truck" transform="translate(458.613 3768.032)">
      <path id="Path_287" data-name="Path 287" d="M5.032,18.194a1.161,1.161,0,1,0,1.161,1.161,1.161,1.161,0,0,0-1.161-1.161Zm0,1.548a.387.387,0,1,1,.387-.387A.387.387,0,0,1,5.032,19.742Z" fill="#689634"/>
      <path id="Path_288" data-name="Path 288" d="M19.742,18.194A1.161,1.161,0,1,0,20.9,19.355a1.161,1.161,0,0,0-1.161-1.161Zm0,1.548a.387.387,0,1,1,.387-.387A.387.387,0,0,1,19.742,19.742Z" fill="#689634"/>
      <path id="Path_289" data-name="Path 289" d="M24.326,12.952,20.842,7.532a.387.387,0,0,0-.326-.178H15.871V5.226a1.356,1.356,0,0,0-1.355-1.355H1.742A1.356,1.356,0,0,0,.387,5.226V19.355a.387.387,0,0,0,.387.387H2.351a2.709,2.709,0,0,0,5.363,0H17.06a2.709,2.709,0,0,0,5.363,0H24a.387.387,0,0,0,.387-.387V13.161a.388.388,0,0,0-.061-.209ZM5.032,21.29a1.935,1.935,0,1,1,1.935-1.935A1.935,1.935,0,0,1,5.032,21.29ZM15.1,18.968H7.714a2.709,2.709,0,0,0-5.363,0H1.161V15.1H15.1Zm0-4.645H1.161v-9.1a.581.581,0,0,1,.581-.581H14.516a.581.581,0,0,1,.581.581ZM21.051,9.29l2.24,3.484H17.806V9.29Zm-1.309,12a1.935,1.935,0,1,1,1.935-1.935,1.935,1.935,0,0,1-1.935,1.935Zm3.871-5.419h-.774a.387.387,0,0,1,0-.774h.774Zm0-1.548h-.774a1.161,1.161,0,0,0,0,2.323h.774v2.323H22.424a2.709,2.709,0,0,0-5.363,0H15.871V8.129H20.3l.249.387H17.419a.387.387,0,0,0-.387.387v4.258a.387.387,0,0,0,.387.387h6.194Z" fill="#689634"/>
      <path id="Path_290" data-name="Path 290" d="M18.581,14.323H17.419a.387.387,0,0,0,0,.774h1.161a.387.387,0,0,0,0-.774Z" fill="#689634"/>
      <path id="Path_291" data-name="Path 291" d="M10.452,16.645h3.1a.387.387,0,1,0,0-.774h-3.1a.387.387,0,0,0,0,.774Z" fill="#689634"/>
      <path id="Path_292" data-name="Path 292" d="M13.548,17.032H12.387a.387.387,0,0,0,0,.774h1.161a.387.387,0,1,0,0-.774Z" fill="#689634"/>
    </g>
  </g>
</svg>
