<svg xmlns="http://www.w3.org/2000/svg" xmlns:xlink="http://www.w3.org/1999/xlink" width="50" height="50" viewBox="0 0 50 50">
  <defs>
    <filter id="Ellipse_45">
      <feOffset input="SourceAlpha"/>
      <feGaussianBlur stdDeviation="10" result="blur"/>
      <feFlood flood-opacity="0.161" result="color"/>
      <feComposite operator="out" in="SourceGraphic" in2="blur"/>
      <feComposite operator="in" in="color"/>
      <feComposite operator="in" in2="SourceGraphic"/>
    </filter>
    <clipPath id="clip-path">
      <g transform="matrix(1, 0, 0, 1, 0, 0)" filter="url(#Ellipse_45)">
        <circle id="Ellipse_45-2" data-name="Ellipse 45" cx="25" cy="25" r="25" transform="translate(728 4211)" fill="#f6e4e5"/>
      </g>
    </clipPath>
  </defs>
  <g id="Mask_Group_34" data-name="Mask Group 34" transform="translate(-728 -4211)" clip-path="url(#clip-path)">
    <path id="chronometer" d="M15.673,5.917A11.776,11.776,0,1,0,27.449,17.693,11.79,11.79,0,0,0,15.673,5.917Zm0,21.255a9.478,9.478,0,1,1,9.478-9.478A9.489,9.489,0,0,1,15.673,27.171Zm-3.5-23.725a3.447,3.447,0,0,1,6.893-.007,1.149,1.149,0,0,1-2.3,0,1.149,1.149,0,0,0-2.3.007,1.149,1.149,0,1,1-2.3,0ZM28.436,9.2a1.149,1.149,0,0,1-1.625,0L23.939,6.329A1.149,1.149,0,0,1,25.564,4.7l2.872,2.872A1.149,1.149,0,0,1,28.436,9.2Zm-9.323,3.427-3.344,3.344-.1,0A1.723,1.723,0,1,0,17.4,17.693c0-.032,0-.064,0-.1l3.344-3.344a1.149,1.149,0,0,0-1.625-1.625Z" transform="translate(736.665 4221.266)" fill="#f6e4e5"/>
  </g>
</svg>
