<svg xmlns="http://www.w3.org/2000/svg" xmlns:xlink="http://www.w3.org/1999/xlink" width="24" height="24" viewBox="0 0 24 24">
  <defs>
    <clipPath id="clip-path">
      <rect id="Rectangle_136" data-name="Rectangle 136" width="24" height="24" transform="translate(459 3602)" fill="#689634" stroke="#707070" stroke-width="1"/>
    </clipPath>
  </defs>
  <g id="Mask_Group_21" data-name="Mask Group 21" transform="translate(-459 -3602)" clip-path="url(#clip-path)">
    <g id="layer1" transform="translate(458.225 3178.304)">
      <path id="path17996" d="M19.694,423.819l-1.2,1.2a.4.4,0,0,0,0,.563l.518.518-2.067,2.067.564.563,2.065-2.066,2.232,2.233-2.065,2.065.565.564,2.065-2.065.517.518a.4.4,0,0,0,.563,0l1.2-1.2a.4.4,0,0,0,0-.563l-4.394-4.4a.388.388,0,0,0-.567,0Zm-5.194,3.6-1.2,1.2a.4.4,0,0,0,0,.566l.515.515-8.74,8.743a1.2,1.2,0,0,0-.044,1.639L4.113,441a.4.4,0,0,0,0,.563l.516.516L3.313,443.4a.4.4,0,0,0,0,.566l.318.318L.916,446.994a.4.4,0,1,0,.566.563L4.2,444.844l.316.316a.4.4,0,0,0,.567,0l1.315-1.316.517.517a.4.4,0,0,0,.566,0l.921-.921a1.2,1.2,0,0,0,1.643-.044l8.74-8.74.517.517a.4.4,0,0,0,.563,0l1.2-1.2a.4.4,0,0,0,0-.563l-5.993-5.993a.393.393,0,0,0-.567,0Zm-.116,2.844,3.83,3.83-8.742,8.742a.391.391,0,0,1-.566,0l-3.265-3.265a.392.392,0,0,1,0-.567Zm-2.933,4.228a.4.4,0,0,0-.282.118L6.773,439a.4.4,0,0,0,0,.567L8.905,441.7a.4.4,0,0,0,.567,0L16,435.173a.4.4,0,0,0-.282-.684Zm-5.856,6.159,2.231,2.231-.634.635-2.232-2.233Zm-.4,2,.631.634-1.032,1.032c-.214-.218-.42-.42-.634-.634Z" fill="#689634"/>
    </g>
  </g>
</svg>
