<svg width="67" height="67" viewBox="0 0 67 67" fill="none" xmlns="http://www.w3.org/2000/svg">
<path d="M59.375 0H7.125C3.19675 0 0 3.19675 0 7.125V45.125C0 49.0533 3.19675 52.25 7.125 52.25H11.4166L7.277 63.289C6.92075 64.239 7.20813 65.3149 7.99425 65.9585C8.42888 66.3147 8.96325 66.5 9.50237 66.5C9.93462 66.5 10.3645 66.3836 10.7493 66.1461L32.6753 52.6062C33.0481 52.3735 33.4804 52.2524 33.9197 52.2524H59.375C63.3033 52.2524 66.5 49.0556 66.5 45.1274V7.125C66.5 3.19675 63.3033 0 59.375 0ZM61.75 45.125C61.75 46.436 60.686 47.5 59.375 47.5H33.9197C32.5945 47.5 31.2978 47.8681 30.1768 48.564L14.1645 58.4535L17.0691 50.7086C17.3423 49.9771 17.2401 49.1625 16.7984 48.5213C16.3519 47.88 15.6251 47.4976 14.8461 47.4976H7.12737C5.81637 47.4976 4.75237 46.4336 4.75237 45.1226V7.125C4.75237 5.814 5.81637 4.75 7.12737 4.75H59.375C60.686 4.75 61.75 5.814 61.75 7.125V45.125Z" fill="#689634"/>
<path d="M13 8.24995H24.875C26.1884 8.24995 27.25 9.31158 27.25 10.625C27.25 11.9383 26.1884 13 24.875 13H13V24.9604C13 26.2738 11.9384 27.3354 10.625 27.3354C9.31163 27.3354 8.25 26.2738 8.25 24.9604V13C8.25 10.3803 10.3804 8.24995 13 8.24995Z" fill="#689634"/>
<path d="M48.7049 22.3337C48.4982 22.3327 48.2955 22.2768 48.1175 22.1716C47.9395 22.0665 47.7925 21.916 47.6918 21.7354C47.5911 21.5549 47.5402 21.3508 47.5443 21.1441C47.5483 20.9374 47.6073 20.7355 47.715 20.559L47.7854 20.4408C48.0516 19.9723 48.2082 19.4495 48.2435 18.9118C48.2788 18.3741 48.1918 17.8354 47.989 17.3362C47.9381 17.436 47.8832 17.5389 47.8243 17.6447C47.3931 18.3933 46.802 19.0375 46.0933 19.5314C45.3845 20.0254 44.5755 20.3568 43.7239 20.5021C43.5724 20.5305 43.4167 20.5286 43.2659 20.4964C43.1152 20.4643 42.9723 20.4026 42.8456 20.3149C42.7188 20.2273 42.6106 20.1153 42.5274 19.9856C42.4441 19.8558 42.3874 19.7109 42.3605 19.5591C42.3336 19.4073 42.3369 19.2517 42.3705 19.1013C42.4041 18.9508 42.4672 18.8085 42.5561 18.6826C42.645 18.5567 42.758 18.4496 42.8885 18.3676C43.019 18.2856 43.1645 18.2303 43.3165 18.2048C44.1278 18.0712 44.8669 17.658 45.4057 17.0369C45.9445 16.4158 46.2491 15.6258 46.2668 14.8037C46.2712 14.5917 46.3333 14.3849 46.4464 14.2055C46.5595 14.0261 46.7194 13.881 46.9088 13.7856C47.0982 13.6903 47.31 13.6484 47.5215 13.6645C47.733 13.6805 47.936 13.7539 48.1089 13.8767C49.3 14.725 50.1337 15.9854 50.4484 17.4134C50.763 18.8415 50.5361 20.3356 49.8117 21.6059C49.7758 21.6673 49.7383 21.7332 49.6979 21.7961C49.5914 21.9624 49.4444 22.099 49.2708 22.193C49.0971 22.2871 48.9024 22.3355 48.7049 22.3337Z" fill="#689634"/>
<path d="M36.1702 22.3337C35.9717 22.3338 35.7764 22.2832 35.6029 22.1868C35.4294 22.0903 35.2834 21.9512 35.1787 21.7826C35.1382 21.7182 35.1008 21.6538 35.0649 21.5909C34.3405 20.3206 34.1136 18.8266 34.4282 17.3985C34.7428 15.9704 35.5766 14.71 36.7677 13.8617C36.9406 13.7389 37.1436 13.6655 37.3551 13.6495C37.5665 13.6334 37.7784 13.6753 37.9678 13.7706C38.1572 13.866 38.3171 14.0111 38.4302 14.1905C38.5433 14.3699 38.6054 14.5767 38.6097 14.7887C38.6275 15.6108 38.9321 16.4008 39.4709 17.0219C40.0097 17.643 40.7488 18.0561 41.5601 18.1898C41.7121 18.2152 41.8575 18.2706 41.9881 18.3526C42.1186 18.4346 42.2316 18.5416 42.3205 18.6676C42.4094 18.7935 42.4725 18.9358 42.5061 19.0863C42.5396 19.2367 42.543 19.3923 42.5161 19.5441C42.4892 19.6959 42.4325 19.8409 42.3492 19.9706C42.2659 20.1003 42.1578 20.2122 42.031 20.2999C41.9042 20.3876 41.7614 20.4493 41.6106 20.4815C41.4599 20.5136 41.3042 20.5155 41.1527 20.4871C40.3004 20.3415 39.4909 20.0095 38.7818 19.5147C38.0727 19.02 37.4816 18.3748 37.0507 17.6252C36.9928 17.5254 36.9379 17.4225 36.886 17.3167C36.8116 17.5007 36.7525 17.6906 36.7093 17.8843C36.5147 18.7509 36.6509 19.6589 37.0912 20.4302L37.16 20.547C37.2697 20.7236 37.3303 20.9263 37.3353 21.1342C37.3404 21.342 37.2899 21.5474 37.1889 21.7291C37.088 21.9108 36.9403 22.0622 36.7612 22.1677C36.5821 22.2733 36.3781 22.329 36.1702 22.3292V22.3337Z" fill="#689634"/>
<path d="M50.8139 26.5824C50.5113 26.5836 50.22 26.4673 50.0016 26.2579C49.7831 26.0485 49.6545 25.7624 49.6431 25.46C49.6316 25.1576 49.7381 24.8625 49.94 24.6372C50.142 24.4118 50.4237 24.2737 50.7255 24.2521C51.3047 24.245 51.8652 24.0459 52.319 23.686C52.5805 23.5731 52.8103 23.3979 52.9885 23.1757C53.1666 22.9535 53.2877 22.691 53.3411 22.4113C53.3945 22.1315 53.3785 21.8429 53.2947 21.5707C53.2109 21.2985 53.0618 21.051 52.8602 20.8497C52.6587 20.6485 52.411 20.4996 52.1387 20.4161C51.8664 20.3327 51.5777 20.3171 51.298 20.3709C51.0183 20.4246 50.7561 20.546 50.5341 20.7245C50.3121 20.9029 50.1372 21.133 50.0246 21.3946C49.9208 21.5003 49.8335 21.621 49.7656 21.7526C49.6154 22.0161 49.3688 22.211 49.0777 22.2962C48.7866 22.3814 48.4738 22.3501 48.2053 22.209C47.9368 22.068 47.7336 21.8282 47.6385 21.5402C47.5435 21.2521 47.564 20.9385 47.6958 20.6653C47.8726 20.3256 48.0999 20.0145 48.3698 19.7428C48.8701 19.2956 49.4549 18.9531 50.0897 18.7355C50.7245 18.5179 51.3964 18.4296 52.0659 18.4758H52.1018C52.7893 18.4795 53.4744 18.5553 54.1461 18.7019C54.3559 18.752 54.5478 18.8592 54.7003 19.0118C54.8529 19.1643 54.9602 19.3562 55.0102 19.566C55.1568 20.2377 55.2326 20.9229 55.2364 21.6103C55.286 22.2846 55.1994 22.962 54.9817 23.6022C54.764 24.2423 54.4198 24.8321 53.9694 25.3363C53.1324 26.1084 52.0435 26.5502 50.9052 26.5794H50.8139V26.5824Z" fill="#689634"/>
<path d="M34.0646 26.5841H33.9733C32.8351 26.5543 31.7465 26.1126 30.9092 25.3411C30.4589 24.8368 30.1147 24.247 29.897 23.6068C29.6794 22.9667 29.5927 22.2894 29.6422 21.6151C29.6461 20.9276 29.7219 20.2425 29.8683 19.5708C29.9184 19.3609 30.0256 19.1691 30.1782 19.0166C30.3307 18.864 30.5226 18.7567 30.7324 18.7067C31.4041 18.5602 32.0892 18.4844 32.7767 18.4805H32.8126C33.4821 18.4344 34.154 18.5227 34.7888 18.7403C35.4236 18.9579 36.0084 19.3004 36.5087 19.7475C36.7802 20.0214 37.0085 20.335 37.1856 20.6776C37.3177 20.9508 37.3382 21.2647 37.2428 21.5528C37.1475 21.8409 36.9437 22.0806 36.6748 22.2211C36.4058 22.3616 36.0927 22.3919 35.8017 22.3057C35.5108 22.2194 35.2648 22.0233 35.116 21.7589C35.0479 21.6256 34.96 21.5034 34.8554 21.3964C34.7425 21.135 34.5675 20.9052 34.3454 20.7271C34.1234 20.5489 33.8611 20.4277 33.5815 20.3742C33.3019 20.3207 33.0134 20.3364 32.7413 20.42C32.4692 20.5036 32.2216 20.6525 32.0202 20.8537C31.8188 21.055 31.6698 21.3024 31.586 21.5745C31.5022 21.8466 31.4863 22.1351 31.5397 22.4147C31.593 22.6944 31.714 22.9567 31.892 23.1789C32.07 23.401 32.2997 23.5762 32.561 23.6892C33.015 24.0489 33.5754 24.248 34.1545 24.2554C34.4563 24.277 34.738 24.4151 34.9399 24.6404C35.1419 24.8658 35.2484 25.1608 35.2369 25.4632C35.2254 25.7656 35.0969 26.0517 34.8784 26.2612C34.66 26.4706 34.3687 26.5869 34.0661 26.5857L34.0646 26.5841Z" fill="#689634"/>
<path d="M49.4139 40.4472H35.4666C34.33 40.4452 33.2406 39.9928 32.4369 39.1891C31.6333 38.3855 31.1809 37.2961 31.179 36.1595V35.0153C31.1809 33.8787 31.6333 32.7894 32.4369 31.9857C33.2406 31.182 34.33 30.7296 35.4666 30.7277H49.4139C50.5505 30.7296 51.6399 31.182 52.4435 31.9857C53.2472 32.7894 53.6996 33.8787 53.7016 35.0153V36.1595C53.7016 37.2967 53.2498 38.3872 52.4457 39.1913C51.6416 39.9954 50.5511 40.4472 49.4139 40.4472ZM35.4666 33.055C34.9477 33.0558 34.4503 33.2622 34.0834 33.6291C33.7165 33.996 33.51 34.4934 33.5092 35.0123V36.1565C33.5096 36.6755 33.716 37.1731 34.083 37.5401C34.45 37.9071 34.9476 38.1135 35.4666 38.1139H49.4139C49.6709 38.1139 49.9255 38.0633 50.1629 37.9649C50.4004 37.8665 50.6162 37.7224 50.798 37.5406C50.9797 37.3588 51.1239 37.1431 51.2223 36.9056C51.3207 36.6681 51.3713 36.4136 51.3713 36.1565V35.0123C51.3705 34.4934 51.164 33.996 50.7971 33.6291C50.4302 33.2622 49.9328 33.0558 49.4139 33.055H35.4666Z" fill="#689634"/>
<path d="M45.7714 28.6804C45.462 28.6804 45.1652 28.5575 44.9464 28.3387C44.7276 28.1199 44.6047 27.8232 44.6047 27.5137V26.1585C44.6047 25.849 44.7276 25.5523 44.9464 25.3335C45.1652 25.1147 45.462 24.9918 45.7714 24.9918C46.0808 24.9918 46.3775 25.1147 46.5963 25.3335C46.8151 25.5523 46.938 25.849 46.938 26.1585V27.5137C46.938 27.8232 46.8151 28.1199 46.5963 28.3387C46.3775 28.5575 46.0808 28.6804 45.7714 28.6804Z" fill="#689634"/>
<path d="M39.1085 28.6804C38.7991 28.6804 38.5024 28.5575 38.2836 28.3387C38.0648 28.1199 37.9419 27.8232 37.9419 27.5137V26.1585C37.9419 25.849 38.0648 25.5523 38.2836 25.3335C38.5024 25.1147 38.7991 24.9918 39.1085 24.9918C39.4179 24.9918 39.7147 25.1147 39.9335 25.3335C40.1523 25.5523 40.2752 25.849 40.2752 26.1585V27.5137C40.2752 27.8232 40.1523 28.1199 39.9335 28.3387C39.7147 28.5575 39.4179 28.6804 39.1085 28.6804Z" fill="#689634"/>
<path d="M46.986 36.5548H46.8138L46.7568 36.5443L46.6999 36.5323L46.6445 36.5158L46.5906 36.4978L46.5367 36.4769L46.4858 36.453L46.4333 36.4275L46.3824 36.399L46.333 36.3676L46.2851 36.3346L46.2386 36.2987L46.1952 36.2613L46.1533 36.2208L46.1129 36.1789L46.0754 36.1339L46.0395 36.089L46.0066 36.0411L45.9751 35.9917L45.9466 35.9407L45.9212 35.8898C45.9123 35.8727 45.9043 35.8553 45.8972 35.8374L45.8762 35.7835C45.8728 35.7643 45.8668 35.7457 45.8583 35.7281C45.8583 35.7086 45.8478 35.6906 45.8433 35.6742L45.8298 35.6173C45.8293 35.5979 45.8258 35.5787 45.8194 35.5604C45.8089 35.5409 45.8194 35.5214 45.8194 35.502C45.8155 35.4827 45.8155 35.4628 45.8194 35.4435V35.2698C45.8157 35.251 45.8157 35.2317 45.8194 35.2129C45.8194 35.195 45.8193 35.174 45.8298 35.156C45.8373 35.1379 45.8419 35.1187 45.8433 35.0991C45.8474 35.0809 45.8524 35.0629 45.8583 35.0452L45.8762 34.9913C45.8762 34.9733 45.8897 34.9553 45.8972 34.9373C45.9043 34.9195 45.9123 34.902 45.9212 34.885L45.9466 34.834L45.9751 34.7831L46.0066 34.7337L46.0395 34.6858L46.0754 34.6393L46.1129 34.5959L46.1533 34.554L46.1952 34.5136L46.2386 34.4761L46.2851 34.4402L46.333 34.4072L46.3824 34.3757L46.4333 34.3473L46.4858 34.3218L46.5367 34.2978L46.5906 34.2769L46.6445 34.2589L46.6999 34.2425L46.7568 34.2305L46.8138 34.22H46.9276C46.966 34.2179 47.0044 34.2179 47.0428 34.22H47.1567L47.2136 34.2305L47.2705 34.2425L47.3245 34.2589L47.3783 34.2769L47.4322 34.2978L47.4831 34.3218L47.5341 34.3473L47.585 34.3757L47.6344 34.4072L47.6823 34.4402L47.7273 34.4761L47.7707 34.5136L47.8127 34.554L47.8531 34.5959L47.8906 34.6393L47.9265 34.6858L47.9594 34.7337L47.9908 34.7831L48.0193 34.834L48.0463 34.885C48.055 34.9019 48.0625 34.9193 48.0687 34.9373C48.0687 34.9553 48.0837 34.9733 48.0897 34.9913L48.1076 35.0452L48.1226 35.0991C48.1249 35.1185 48.1295 35.1376 48.1362 35.156C48.1367 35.1754 48.1402 35.1946 48.1466 35.2129C48.1571 35.2324 48.1466 35.2518 48.1466 35.2698V35.5589C48.1483 35.5785 48.1447 35.5981 48.1362 35.6158C48.1288 35.6339 48.1242 35.6532 48.1226 35.6727L48.1076 35.7266C48.1047 35.746 48.0987 35.7646 48.0897 35.782C48.0897 35.8 48.0762 35.818 48.0687 35.836L48.0463 35.8883L48.0193 35.9392L47.9908 35.9902L47.9594 36.0396L47.9265 36.0875L47.8906 36.1325L47.8531 36.1774L47.8127 36.2193L47.7707 36.2597L47.7273 36.2972L47.6823 36.3331L47.6344 36.3661L47.585 36.3976L47.5341 36.426L47.4831 36.4514L47.4322 36.4754L47.3783 36.4964L47.3245 36.5144L47.2705 36.5308L47.2136 36.5428L47.1567 36.5533H47.0428L46.986 36.5548Z" fill="#689634"/>
<path d="M37.8922 36.5549H37.777H37.72L37.6631 36.5444L37.6062 36.5324L37.5508 36.5175L37.4969 36.4994L37.443 36.4785L37.3905 36.4546L37.3396 36.4291L37.2887 36.4006L37.2393 36.3692L37.1913 36.3363L37.1464 36.3003L37.103 36.2629L37.0611 36.2224L37.0207 36.1805L36.9832 36.137L36.9473 36.0907L36.9143 36.0427L36.8828 35.9933L36.8544 35.9424L36.8274 35.8899C36.8274 35.8735 36.811 35.8555 36.8035 35.8376C36.796 35.8196 36.7885 35.8016 36.7826 35.7836L36.7645 35.7297C36.7645 35.7117 36.7541 35.6922 36.7496 35.6758C36.7451 35.6593 36.7406 35.6383 36.7376 35.6218C36.7378 35.6024 36.7342 35.5831 36.7271 35.565C36.7166 35.547 36.7271 35.526 36.7271 35.5066V35.2205C36.7255 35.2009 36.7291 35.1813 36.7376 35.1636C36.7445 35.1454 36.7485 35.1261 36.7496 35.1067C36.7496 35.0872 36.7601 35.0692 36.7645 35.0527C36.769 35.0363 36.7766 35.0153 36.7826 34.9974C36.7885 34.9794 36.796 34.9614 36.8035 34.9434C36.8105 34.9255 36.8185 34.9081 36.8274 34.891L36.8544 34.8387L36.8784 34.7877L36.9098 34.7383L36.9428 34.6904L36.9787 34.644L37.0161 34.6005L37.0566 34.5586L37.0985 34.5181L37.142 34.4792L37.1868 34.4432L37.2453 34.4193L37.2947 34.3878L37.3456 34.3594L37.3965 34.3339L37.4489 34.3114L37.5028 34.2905L37.5568 34.2725L37.6107 34.2576L37.6676 34.2455L37.7245 34.2351H38.0675L38.1244 34.2455L38.1813 34.2576L38.2367 34.2725L38.2906 34.2905L38.3445 34.3114L38.3954 34.3339L38.4479 34.3594L38.4988 34.3878L38.5482 34.4193L38.5962 34.4522L38.641 34.4882L38.6845 34.5272L38.7264 34.5676L38.7668 34.6095L38.8043 34.6529L38.8402 34.6994L38.8732 34.7473L38.9047 34.7967L38.9331 34.8476L38.9585 34.9L38.9825 34.9525L39.0035 35.0064C39.0069 35.0256 39.013 35.0442 39.0215 35.0618L39.0364 35.1157C39.0389 35.135 39.043 35.1539 39.0484 35.1726C39.0484 35.192 39.0484 35.2101 39.0589 35.2295C39.0604 35.2485 39.0604 35.2674 39.0589 35.2864V35.5739C39.0605 35.5935 39.057 35.6132 39.0484 35.6309C39.0419 35.6482 39.0378 35.6663 39.0364 35.6847L39.0215 35.7387C39.0183 35.7574 39.0122 35.7756 39.0035 35.7926L38.9825 35.8465L38.9585 35.8989L38.9331 35.9514L38.9047 36.0023L38.8732 36.0517L38.8402 36.0996L38.8043 36.1461L38.7668 36.1895L38.7264 36.2314L38.6845 36.2718L38.641 36.3093L38.5962 36.3452L38.5482 36.3781L38.4988 36.4096L38.4479 36.4381L38.3954 36.4635L38.3445 36.4875L38.2906 36.5085L38.2367 36.5264L38.1813 36.5414L38.1244 36.5534L38.0675 36.5639H38.0105H37.9521L37.8922 36.5549Z" fill="#689634"/>
<path d="M34.0612 33.3158C33.7518 33.3158 33.455 33.1929 33.2363 32.9741C33.0175 32.7553 32.8945 32.4586 32.8945 32.1492V26.1587C32.8945 24.0413 33.7357 22.0106 35.233 20.5133C36.7302 19.0161 38.7609 18.1749 40.8784 18.1749H43.9979C46.1153 18.1749 48.146 19.0161 49.6433 20.5133C51.1405 22.0106 51.9817 24.0413 51.9817 26.1587V26.7083C51.9817 27.0177 51.8588 27.3145 51.64 27.5333C51.4212 27.7521 51.1244 27.875 50.815 27.875C50.5056 27.875 50.2089 27.7521 49.9901 27.5333C49.7713 27.3145 49.6484 27.0177 49.6484 26.7083V26.1587C49.6472 24.6619 49.0522 23.2268 47.9939 22.1682C46.9357 21.1097 45.5006 20.5143 44.0038 20.5127H40.8739C39.3772 20.5143 37.9422 21.1094 36.8838 22.1676C35.8253 23.2258 35.2298 24.6606 35.2278 26.1572V32.1477C35.2278 32.301 35.1976 32.4529 35.1389 32.5945C35.0802 32.7361 34.9941 32.8648 34.8856 32.9731C34.7771 33.0815 34.6483 33.1674 34.5066 33.2259C34.3649 33.2845 34.213 33.3145 34.0597 33.3143L34.0612 33.3158Z" fill="#689634"/>
</svg>
