<svg width="103" height="103" viewBox="0 0 103 103" fill="none" xmlns="http://www.w3.org/2000/svg">
<mask id="mask0_155_3" style="mask-type:luminance" maskUnits="userSpaceOnUse" x="0" y="0" width="103" height="103">
<path d="M103 0H0V103H103V0Z" fill="white"/>
</mask>
<g mask="url(#mask0_155_3)">
<path d="M7.7516 29.5753C7.38367 29.5753 7.01936 29.5028 6.67947 29.3619C6.33958 29.221 6.03078 29.0146 5.77072 28.7543C5.51067 28.494 5.30446 28.185 5.16388 27.845C5.0233 27.505 4.9511 27.1407 4.95142 26.7727V8.89146C4.95142 8.14881 5.24643 7.43657 5.77157 6.91143C6.2967 6.3863 7.00895 6.09129 7.7516 6.09129H25.6257C26.0001 6.08033 26.373 6.14463 26.7221 6.28036C27.0713 6.41609 27.3897 6.62051 27.6584 6.8815C27.9271 7.14249 28.1408 7.45474 28.2867 7.79978C28.4325 8.14483 28.5077 8.51564 28.5077 8.89026C28.5077 9.26487 28.4325 9.63567 28.2867 9.98071C28.1408 10.3258 27.9271 10.638 27.6584 10.899C27.3897 11.16 27.0713 11.3644 26.7221 11.5002C26.373 11.6359 26.0001 11.7002 25.6257 11.6892H10.5565V26.7727C10.5575 27.1415 10.4856 27.5068 10.345 27.8476C10.2044 28.1885 9.99787 28.4982 9.73725 28.7591C9.47663 29.0199 9.16703 29.2267 8.82628 29.3676C8.48552 29.5085 8.12033 29.5807 7.7516 29.5801V29.5753Z" fill="#689634"/>
<path d="M78.4526 29.5754C78.0848 29.5754 77.7207 29.5029 77.381 29.362C77.0412 29.2211 76.7325 29.0146 76.4726 28.7543C76.2128 28.494 76.0068 28.185 75.8665 27.845C75.7262 27.505 75.6543 27.1407 75.6549 26.7729V11.6965H60.5786C60.2041 11.7075 59.8312 11.6432 59.4821 11.5075C59.1329 11.3717 58.8146 11.1673 58.5458 10.9063C58.2771 10.6453 58.0635 10.3331 57.9176 9.98804C57.7717 9.64299 57.6965 9.27218 57.6965 8.89756C57.6965 8.52295 57.7717 8.15215 57.9176 7.80711C58.0635 7.46207 58.2771 7.1498 58.5458 6.88881C58.8146 6.62781 59.1329 6.4234 59.4821 6.28767C59.8312 6.15193 60.2041 6.08765 60.5786 6.09861H78.4526C79.1953 6.09861 79.9076 6.39363 80.4328 6.91876C80.9579 7.44389 81.2528 8.15612 81.2528 8.89877V26.7729C81.2528 27.1406 81.1804 27.5047 81.0396 27.8444C80.8989 28.1842 80.6928 28.4929 80.4328 28.7529C80.1727 29.0129 79.864 29.2192 79.5243 29.3599C79.1845 29.5006 78.8203 29.5754 78.4526 29.5754Z" fill="#689634"/>
<path d="M25.6259 80.1412H7.75181C7.00917 80.1412 6.29692 79.8462 5.77179 79.3211C5.24665 78.7959 4.95164 78.0837 4.95164 77.3411V59.4669C4.94068 59.0924 5.00498 58.7197 5.14071 58.3705C5.27644 58.0214 5.48086 57.703 5.74185 57.4343C6.00284 57.1655 6.31509 56.9518 6.66014 56.8059C7.00518 56.66 7.37599 56.5848 7.75061 56.5848C8.12522 56.5848 8.49604 56.66 8.84108 56.8059C9.18612 56.9518 9.49838 57.1655 9.75937 57.4343C10.0204 57.703 10.2248 58.0214 10.3605 58.3705C10.4962 58.7197 10.5605 59.0924 10.5496 59.4669V74.5432H25.6235C26.3517 74.5645 27.0428 74.8688 27.5504 75.3913C28.0579 75.9139 28.3418 76.6138 28.3418 77.3422C28.3418 78.0707 28.0579 78.7706 27.5504 79.2931C27.0428 79.8157 26.354 80.1199 25.6259 80.1412Z" fill="#689634"/>
<path d="M2.35965 46.7596C1.73036 46.7217 1.13891 46.4464 0.704747 45.9893C0.270587 45.5322 0.0260756 44.9273 0.0206017 44.2969C0.0151279 43.6665 0.249094 43.0575 0.675251 42.5929C1.10141 42.1283 1.688 41.8429 2.31653 41.7941L17.1677 41.533C17.7981 41.564 18.3932 41.8334 18.8325 42.2866C19.2717 42.7399 19.5224 43.3431 19.5337 43.9742C19.5449 44.6053 19.316 45.2171 18.8931 45.6858C18.4703 46.1544 17.8852 46.445 17.2563 46.4985L2.40515 46.7596H2.35965Z" fill="#689634"/>
<path d="M68.7495 46.7597C68.1202 46.7218 67.5286 46.4465 67.0945 45.9894C66.6603 45.5323 66.4157 44.9274 66.4103 44.297C66.4048 43.6666 66.6388 43.0576 67.0649 42.593C67.4911 42.1284 68.0776 41.843 68.7062 41.7942L83.5575 41.5331C83.8972 41.5043 84.2391 41.5456 84.5622 41.6544C84.8853 41.7632 85.1826 41.9372 85.4356 42.1657C85.6886 42.3941 85.8918 42.6722 86.033 42.9825C86.1741 43.2928 86.2502 43.6288 86.2561 43.9696C86.262 44.3105 86.1978 44.6489 86.0675 44.9639C85.9372 45.279 85.7434 45.564 85.4985 45.8011C85.2535 46.0382 84.9626 46.2225 84.6435 46.3425C84.3244 46.4625 83.9843 46.5156 83.6438 46.4986L68.7924 46.7597H68.7495Z" fill="#689634"/>
<path d="M53.1265 32.1002C52.7958 32.0986 52.4716 32.0091 52.1869 31.841C51.9022 31.6728 51.6671 31.432 51.506 31.1432C51.3449 30.8544 51.2635 30.5281 51.2701 30.1975C51.2766 29.8668 51.3708 29.5439 51.5432 29.2617L51.6557 29.0725C52.0815 28.3232 52.3321 27.4871 52.3885 26.6271C52.4449 25.7671 52.3057 24.9054 51.9815 24.1069C51.9 24.2666 51.8122 24.4311 51.718 24.6004C51.0283 25.7977 50.0829 26.8281 48.9493 27.6181C47.8156 28.4081 46.5217 28.9382 45.1596 29.1707C44.9173 29.2161 44.6683 29.2129 44.4271 29.1615C44.186 29.1102 43.9575 29.0115 43.7548 28.8713C43.552 28.731 43.379 28.5519 43.2458 28.3444C43.1127 28.1369 43.0219 27.9051 42.9789 27.6623C42.9358 27.4196 42.9413 27.1707 42.995 26.9301C43.0487 26.6895 43.1496 26.4618 43.2918 26.2604C43.4339 26.059 43.6147 25.8878 43.8235 25.7566C44.0322 25.6254 44.2648 25.5369 44.508 25.4962C45.8056 25.2825 46.9878 24.6217 47.8496 23.6282C48.7113 22.6348 49.1986 21.3712 49.2269 20.0564C49.2339 19.7173 49.3331 19.3865 49.514 19.0996C49.695 18.8127 49.9507 18.5805 50.2537 18.428C50.5567 18.2755 50.8954 18.2086 51.2337 18.2342C51.5719 18.2599 51.8966 18.3772 52.1731 18.5736C54.0783 19.9305 55.4118 21.9464 55.915 24.2305C56.4182 26.5146 56.0553 28.9043 54.8967 30.9361C54.8392 31.0343 54.7794 31.1397 54.7147 31.2403C54.5444 31.5063 54.3093 31.7248 54.0315 31.8752C53.7537 32.0256 53.4424 32.103 53.1265 32.1002Z" fill="#689634"/>
<path d="M33.0777 32.1001C32.7603 32.1002 32.4479 32.0193 32.1704 31.8651C31.8929 31.7108 31.6594 31.4884 31.4919 31.2187C31.4272 31.1157 31.3674 31.0126 31.3099 30.912C30.1513 28.8802 29.7884 26.4907 30.2916 24.2065C30.7948 21.9224 32.1283 19.9065 34.0334 18.5497C34.3099 18.3532 34.6347 18.2358 34.9729 18.2102C35.3111 18.1845 35.6499 18.2515 35.9529 18.404C36.2559 18.5564 36.5116 18.7886 36.6925 19.0755C36.8734 19.3625 36.9727 19.6932 36.9797 20.0324C37.008 21.3472 37.4953 22.6107 38.357 23.6042C39.2188 24.5976 40.4009 25.2584 41.6986 25.4722C41.9418 25.5129 42.1743 25.6014 42.3831 25.7326C42.5919 25.8637 42.7726 26.035 42.9148 26.2364C43.057 26.4378 43.1579 26.6654 43.2116 26.906C43.2653 27.1467 43.2707 27.3956 43.2277 27.6384C43.1847 27.8811 43.0939 28.113 42.9607 28.3205C42.8276 28.528 42.6546 28.707 42.4518 28.8472C42.249 28.9875 42.0206 29.0862 41.7794 29.1376C41.5383 29.189 41.2893 29.192 41.047 29.1466C39.6838 28.9137 38.389 28.3826 37.2548 27.5914C36.1207 26.8001 35.1752 25.7681 34.4861 24.5692C34.3935 24.4095 34.3057 24.2449 34.2226 24.0757C34.1037 24.37 34.0092 24.6737 33.94 24.9836C33.6287 26.3696 33.8466 27.8219 34.5508 29.0556L34.6609 29.2425C34.8364 29.5249 34.9332 29.8491 34.9413 30.1815C34.9495 30.5139 34.8686 30.8424 34.7071 31.1331C34.5457 31.4237 34.3095 31.6659 34.0231 31.8347C33.7366 32.0034 33.4102 32.0926 33.0777 32.0929V32.1001Z" fill="#689634"/>
<path d="M56.4995 38.8956C56.0155 38.8977 55.5496 38.7116 55.2002 38.3767C54.8508 38.0417 54.6452 37.5841 54.6268 37.1004C54.6085 36.6167 54.7788 36.1448 55.1018 35.7844C55.4249 35.4239 55.8754 35.203 56.3581 35.1684C57.2845 35.1571 58.1809 34.8386 58.9068 34.263C59.3251 34.0824 59.6926 33.8022 59.9776 33.4468C60.2626 33.0914 60.4563 32.6716 60.5417 32.2242C60.627 31.7767 60.6015 31.3151 60.4674 30.8798C60.3333 30.4444 60.0948 30.0485 59.7725 29.7266C59.4502 29.4046 59.0539 29.1666 58.6184 29.0331C58.1829 28.8995 57.7211 28.8747 57.2738 28.9607C56.8264 29.0467 56.407 29.2408 56.052 29.5263C55.697 29.8117 55.4171 30.1797 55.2371 30.5981C55.071 30.7671 54.9314 30.9601 54.8227 31.1707C54.5826 31.5921 54.1882 31.9039 53.7226 32.0401C53.257 32.1763 52.7567 32.1263 52.3272 31.9007C51.8978 31.6751 51.5727 31.2915 51.4207 30.8309C51.2686 30.3702 51.3015 29.8685 51.5123 29.4316C51.7951 28.8882 52.1586 28.3907 52.5903 27.9561C53.3905 27.2408 54.3259 26.693 55.3412 26.345C56.3565 25.997 57.4313 25.8557 58.502 25.9296H58.5595C59.659 25.9355 60.7549 26.0568 61.8291 26.2913C62.1647 26.3713 62.4717 26.5429 62.7157 26.7869C62.9597 27.0309 63.1312 27.3377 63.2113 27.6734C63.4458 28.7476 63.567 29.8436 63.573 30.9431C63.6524 32.0216 63.5138 33.1051 63.1657 34.1289C62.8175 35.1528 62.2669 36.0961 61.5465 36.9027C60.2079 38.1376 58.4662 38.8441 56.6456 38.8908H56.4995V38.8956Z" fill="#689634"/>
<path d="M29.7101 38.8982H29.564C27.7436 38.8504 26.0023 38.144 24.6631 36.9101C23.9429 36.1033 23.3924 35.16 23.0442 34.1361C22.6961 33.1123 22.5575 32.0289 22.6366 30.9504C22.6429 29.8509 22.7642 28.755 22.9983 27.6807C23.0784 27.3451 23.2499 27.0382 23.4939 26.7942C23.7379 26.5502 24.0448 26.3787 24.3804 26.2986C25.4547 26.0643 26.5505 25.9431 27.65 25.9369H27.7076C28.7783 25.863 29.8531 26.0044 30.8684 26.3524C31.8837 26.7004 32.819 27.2482 33.6193 27.9634C34.0535 28.4015 34.4185 28.903 34.702 29.4509C34.9131 29.8879 34.9459 30.39 34.7934 30.8508C34.6409 31.3116 34.315 31.695 33.8848 31.9197C33.4546 32.1445 32.9538 32.193 32.4885 32.055C32.0231 31.917 31.6297 31.6033 31.3916 31.1804C31.2828 30.9672 31.1422 30.7718 30.9748 30.6007C30.7943 30.1826 30.5144 29.815 30.1592 29.5301C29.8041 29.2451 29.3846 29.0513 28.9373 28.9657C28.4901 28.8801 28.0287 28.9053 27.5935 29.039C27.1582 29.1727 26.7622 29.4108 26.4401 29.7327C26.118 30.0546 25.8796 30.4504 25.7456 30.8856C25.6117 31.3208 25.5862 31.7822 25.6715 32.2294C25.7568 32.6767 25.9503 33.0963 26.235 33.4516C26.5198 33.8069 26.8872 34.0872 27.3052 34.2679C28.0312 34.8432 28.9275 35.1617 29.8538 35.1734C30.3366 35.208 30.787 35.4288 31.11 35.7893C31.4331 36.1497 31.6034 36.6216 31.585 37.1053C31.5667 37.589 31.3611 38.0466 31.0117 38.3816C30.6623 38.7165 30.1964 38.9026 29.7124 38.9006L29.7101 38.8982Z" fill="#689634"/>
<path d="M54.2602 61.0718H31.9523C30.1345 61.0686 28.392 60.3451 27.1066 59.0596C25.8211 57.7742 25.0976 56.0318 25.0945 54.214V52.3838C25.0976 50.566 25.8211 48.8236 27.1066 47.5382C28.392 46.2527 30.1345 45.5292 31.9523 45.526H54.2602C56.0781 45.5292 57.8206 46.2527 59.106 47.5382C60.3914 48.8236 61.115 50.566 61.1181 52.3838V54.214C61.1181 56.0328 60.3956 57.777 59.1095 59.0631C57.8234 60.3492 56.0791 61.0718 54.2602 61.0718ZM31.9523 49.2484C31.1224 49.2497 30.3269 49.5798 29.74 50.1667C29.1532 50.7535 28.8229 51.5491 28.8216 52.379V54.2091C28.8223 55.0393 29.1523 55.8352 29.7393 56.4222C30.3263 57.0092 31.1222 57.3392 31.9523 57.3399H54.2602C54.6714 57.3399 55.0784 57.2589 55.4583 57.1016C55.8381 56.9442 56.1833 56.7136 56.474 56.4229C56.7647 56.1322 56.9953 55.7871 57.1527 55.4073C57.31 55.0274 57.391 54.6203 57.391 54.2091V52.379C57.3897 51.5491 57.0595 50.7535 56.4726 50.1667C55.8858 49.5798 55.0902 49.2497 54.2602 49.2484H31.9523Z" fill="#689634"/>
<path d="M48.4343 42.2516C47.9394 42.2516 47.4648 42.055 47.1149 41.7051C46.7649 41.3551 46.5684 40.8805 46.5684 40.3856V38.2179C46.5684 37.723 46.7649 37.2484 47.1149 36.8984C47.4648 36.5485 47.9394 36.3519 48.4343 36.3519C48.9292 36.3519 49.4038 36.5485 49.7538 36.8984C50.1037 37.2484 50.3003 37.723 50.3003 38.2179V40.3856C50.3003 40.8805 50.1037 41.3551 49.7538 41.7051C49.4038 42.055 48.9292 42.2516 48.4343 42.2516Z" fill="#689634"/>
<path d="M37.7776 42.2516C37.2827 42.2516 36.8081 42.055 36.4581 41.7051C36.1082 41.3551 35.9116 40.8805 35.9116 40.3856V38.2179C35.9116 37.723 36.1082 37.2484 36.4581 36.8984C36.8081 36.5485 37.2827 36.3519 37.7776 36.3519C38.2725 36.3519 38.7471 36.5485 39.097 36.8984C39.447 37.2484 39.6435 37.723 39.6435 38.2179V40.3856C39.6435 40.8805 39.447 41.3551 39.097 41.7051C38.7471 42.055 38.2725 42.2516 37.7776 42.2516Z" fill="#689634"/>
<path d="M50.3768 54.8463H50.1014L50.0103 54.8295L49.9192 54.8103L49.8306 54.784L49.7444 54.7552L49.6583 54.7217L49.5768 54.6834L49.4929 54.6427L49.4115 54.5972L49.3324 54.5469L49.2558 54.4941L49.1815 54.4367L49.112 54.3769L49.0449 54.3121L48.9803 54.2451L48.9204 54.1732L48.8629 54.1013L48.8103 54.0247L48.76 53.9457L48.7144 53.8641L48.6737 53.7827C48.6595 53.7554 48.6468 53.7275 48.6354 53.6989L48.6018 53.6127C48.5963 53.582 48.5868 53.5522 48.5732 53.5241C48.5732 53.4929 48.5564 53.4642 48.5492 53.4378L48.5275 53.3469C48.5267 53.3159 48.5211 53.2851 48.5109 53.2558C48.4941 53.2247 48.5109 53.1935 48.5109 53.1624C48.5047 53.1315 48.5047 53.0998 48.5109 53.069V52.791C48.5051 52.761 48.5051 52.7302 48.5109 52.7001C48.5109 52.6713 48.5108 52.6378 48.5275 52.609C48.5396 52.58 48.5469 52.5494 48.5492 52.5181C48.5557 52.4889 48.5637 52.4601 48.5732 52.4318L48.6018 52.3456C48.6018 52.3168 48.6235 52.288 48.6354 52.2593C48.6468 52.2307 48.6595 52.2028 48.6737 52.1755L48.7144 52.0941L48.76 52.0127L48.8103 51.9336L48.8629 51.857L48.9204 51.7827L48.9803 51.7132L49.0449 51.6461L49.112 51.5815L49.1815 51.5216L49.2558 51.4641L49.3324 51.4113L49.4115 51.361L49.4929 51.3156L49.5768 51.2748L49.6583 51.2365L49.7444 51.203L49.8306 51.1742L49.9192 51.1479L50.0103 51.1287L50.1014 51.1119H50.2834C50.3448 51.1085 50.4063 51.1085 50.4678 51.1119H50.6499L50.7409 51.1287L50.8319 51.1479L50.9182 51.1742L51.0043 51.203L51.0906 51.2365L51.172 51.2748L51.2534 51.3156L51.3349 51.361L51.414 51.4113L51.4906 51.4641L51.5625 51.5216L51.632 51.5815L51.6991 51.6461L51.7637 51.7132L51.8236 51.7827L51.8811 51.857L51.9337 51.9336L51.984 52.0127L52.0296 52.0941L52.0728 52.1755C52.0867 52.2026 52.0986 52.2305 52.1086 52.2593C52.1086 52.288 52.1326 52.3168 52.1422 52.3456L52.1709 52.4318L52.1948 52.5181C52.1985 52.5491 52.2058 52.5796 52.2165 52.609C52.2173 52.64 52.2229 52.6708 52.2331 52.7001C52.2499 52.7312 52.2331 52.7623 52.2331 52.791V53.2535C52.2358 53.2848 52.2301 53.3161 52.2165 53.3444C52.2046 53.3734 52.1973 53.4042 52.1948 53.4355L52.1709 53.5217C52.1661 53.5526 52.1565 53.5825 52.1422 53.6103C52.1422 53.6391 52.1205 53.6678 52.1086 53.6966L52.0728 53.7804L52.0296 53.8618L51.984 53.9432L51.9337 54.0223L51.8811 54.0989L51.8236 54.1709L51.7637 54.2427L51.6991 54.3098L51.632 54.3744L51.5625 54.4343L51.4906 54.4918L51.414 54.5446L51.3349 54.5948L51.2534 54.6403L51.172 54.681L51.0906 54.7194L51.0043 54.7529L50.9182 54.7817L50.8319 54.808L50.7409 54.8272L50.6499 54.844H50.4678L50.3768 54.8463Z" fill="#689634"/>
<path d="M35.8323 54.8464H35.6479H35.5568L35.4657 54.8296L35.3748 54.8104L35.2862 54.7865L35.1999 54.7577L35.1137 54.7242L35.0298 54.6859L34.9483 54.6451L34.8669 54.5996L34.7879 54.5493L34.7112 54.4967L34.6394 54.4391L34.57 54.3793L34.5029 54.3145L34.4382 54.2476L34.3783 54.178L34.3208 54.1039L34.2681 54.0271L34.2178 53.9482L34.1723 53.8667L34.1292 53.7828C34.1292 53.7565 34.1028 53.7278 34.0909 53.699C34.0789 53.6703 34.067 53.6415 34.0574 53.6128L34.0286 53.5265C34.0286 53.4978 34.0118 53.4666 34.0046 53.4403C33.9974 53.4139 33.9902 53.3803 33.9854 53.354C33.9858 53.3229 33.9801 53.292 33.9686 53.2631C33.9519 53.2343 33.9686 53.2008 33.9686 53.1696V52.712C33.9661 52.6807 33.9719 52.6494 33.9854 52.6211C33.9965 52.5919 34.0029 52.5612 34.0046 52.53C34.0046 52.4989 34.0214 52.4701 34.0286 52.4437C34.0358 52.4174 34.0478 52.3839 34.0574 52.3552C34.067 52.3264 34.0789 52.2976 34.0909 52.2689C34.1021 52.2403 34.1149 52.2124 34.1292 52.1851L34.1723 52.1013L34.2106 52.0198L34.2609 51.9408L34.3137 51.8642L34.3711 51.7899L34.4309 51.7203L34.4957 51.6534L34.5628 51.5886L34.6322 51.5263L34.704 51.4689L34.7974 51.4306L34.8765 51.3803L34.958 51.3348L35.0394 51.294L35.1232 51.2581L35.2094 51.2246L35.2957 51.1958L35.382 51.172L35.4729 51.1527L35.564 51.136H36.1125L36.2036 51.1527L36.2945 51.172L36.3831 51.1958L36.4694 51.2246L36.5557 51.2581L36.6371 51.294L36.721 51.3348L36.8024 51.3803L36.8814 51.4306L36.9581 51.4832L37.0299 51.5408L37.0994 51.6031L37.1665 51.6677L37.2311 51.7348L37.291 51.8043L37.3485 51.8785L37.4013 51.9551L37.4516 52.0342L37.497 52.1157L37.5377 52.1994L37.5761 52.2834L37.6096 52.3696C37.6151 52.4003 37.6248 52.4301 37.6384 52.4582L37.6622 52.5445C37.6663 52.5753 37.6728 52.6056 37.6815 52.6354C37.6815 52.6666 37.6814 52.6954 37.6982 52.7265C37.7007 52.7568 37.7007 52.7871 37.6982 52.8174V53.2774C37.7009 53.3087 37.6952 53.3402 37.6815 53.3685C37.671 53.3961 37.6644 53.4251 37.6622 53.4546L37.6384 53.5408C37.6333 53.5709 37.6235 53.6 37.6096 53.6271L37.5761 53.7134L37.5377 53.7971L37.497 53.881L37.4516 53.9625L37.4013 54.0416L37.3485 54.1182L37.291 54.1925L37.2311 54.2619L37.1665 54.329L37.0994 54.3936L37.0299 54.4536L36.9581 54.511L36.8814 54.5637L36.8024 54.6139L36.721 54.6596L36.6371 54.7002L36.5557 54.7385L36.4694 54.7721L36.3831 54.8008L36.2945 54.8248L36.2036 54.8439L36.1125 54.8607H36.0214H35.928L35.8323 54.8464Z" fill="#689634"/>
<path d="M29.7049 49.6653C29.21 49.6653 28.7354 49.4686 28.3854 49.1187C28.0355 48.7687 27.8389 48.2941 27.8389 47.7992V38.2178C27.8389 34.8311 29.1843 31.5832 31.579 29.1884C33.9738 26.7937 37.2218 25.4482 40.6085 25.4482H45.5981C48.9848 25.4482 52.2328 26.7937 54.6275 29.1884C57.0223 31.5832 58.3676 34.8311 58.3676 38.2178V39.0969C58.3676 39.5918 58.1711 40.0665 57.8212 40.4164C57.4712 40.7663 56.9966 40.9629 56.5017 40.9629C56.0068 40.9629 55.5322 40.7663 55.1822 40.4164C54.8323 40.0665 54.6357 39.5918 54.6357 39.0969V38.2178C54.6338 35.8238 53.6821 33.5284 51.9895 31.8353C50.2969 30.1422 48.0016 29.1899 45.6076 29.1874H40.6014C38.2075 29.1899 35.9123 30.1418 34.2194 31.8343C32.5265 33.5268 31.574 35.8217 31.5709 38.2155V47.7969C31.5709 48.0421 31.5225 48.285 31.4286 48.5115C31.3347 48.7381 31.197 48.9438 31.0235 49.1172C30.85 49.2905 30.644 49.4278 30.4173 49.5215C30.1907 49.6151 29.9477 49.6632 29.7024 49.6628L29.7049 49.6653Z" fill="#689634"/>
<path d="M86.312 66.5833H78.0887V58.3601C78.0887 57.8887 77.9015 57.4367 77.5682 57.1033C77.2348 56.77 76.7828 56.5828 76.3114 56.5828C75.84 56.5828 75.3879 56.77 75.0546 57.1033C74.7213 57.4367 74.534 57.8887 74.534 58.3601V66.5833H66.3108C65.8394 66.5833 65.3873 66.7706 65.054 67.1039C64.7207 67.4372 64.5334 67.8893 64.5334 68.3607C64.5334 68.8321 64.7207 69.2842 65.054 69.6175C65.3873 69.9508 65.8394 70.138 66.3108 70.138H74.534V78.3613C74.534 78.8327 74.7213 79.2847 75.0546 79.6181C75.3879 79.9514 75.84 80.1386 76.3114 80.1386C76.7828 80.1386 77.2348 79.9514 77.5682 79.6181C77.9015 79.2847 78.0887 78.8327 78.0887 78.3613V70.138H86.312C86.7833 70.138 87.2354 69.9508 87.5687 69.6175C87.9021 69.2842 88.0893 68.8321 88.0893 68.3607C88.0893 67.8893 87.9021 67.4372 87.5687 67.1039C87.2354 66.7706 86.7833 66.5833 86.312 66.5833Z" fill="#689634"/>
</g>
</svg>
