<svg width="58" height="58" viewBox="0 0 58 58" fill="#689634" xmlns="http://www.w3.org/2000/svg" class="my-icon">
<path d="M42.2918 31.4166C33.6305 31.4166 26.5835 24.3696 26.5835 15.7083C26.5835 7.04698 33.6305 0 42.2918 0C50.9531 0 58.0001 7.04698 58.0001 15.7083C58.0001 24.3696 50.9531 31.4166 42.2918 31.4166ZM42.2918 2.41666C34.9621 2.41666 29.0002 8.37856 29.0002 15.7083C29.0002 23.038 34.9621 28.9999 42.2918 28.9999C49.6215 28.9999 55.5834 23.038 55.5834 15.7083C55.5834 8.37856 49.6215 2.41666 42.2918 2.41666Z" fill="#689634"/>
<path d="M45.6426 12.678C45.5242 12.6774 45.4081 12.6454 45.3062 12.5852C45.2042 12.525 45.1201 12.4388 45.0624 12.3354C45.0047 12.232 44.9756 12.1151 44.9779 11.9968C44.9803 11.8784 45.014 11.7628 45.0757 11.6617L45.116 11.594C45.2685 11.3257 45.3582 11.0264 45.3784 10.7185C45.3986 10.4106 45.3487 10.1021 45.2326 9.81623C45.2035 9.8734 45.172 9.93231 45.1383 9.99291C44.8914 10.4216 44.5529 10.7905 44.1471 11.0733C43.7412 11.3561 43.2779 11.5459 42.7903 11.6292C42.7035 11.6454 42.6144 11.6443 42.528 11.6259C42.4417 11.6075 42.3599 11.5722 42.2873 11.522C42.2147 11.4718 42.1528 11.4076 42.1051 11.3334C42.0574 11.2591 42.025 11.1761 42.0095 11.0891C41.9941 11.0022 41.9961 10.9131 42.0153 10.827C42.0345 10.7408 42.0706 10.6593 42.1216 10.5872C42.1725 10.5151 42.2372 10.4538 42.3119 10.4069C42.3867 10.3599 42.4699 10.3282 42.557 10.3136C43.0216 10.2371 43.4448 10.0005 43.7533 9.64486C44.0619 9.28919 44.2363 8.83681 44.2464 8.36608C44.249 8.24467 44.2845 8.12624 44.3493 8.02352C44.414 7.9208 44.5056 7.83768 44.6141 7.78309C44.7225 7.7285 44.8438 7.70452 44.9649 7.71371C45.086 7.72289 45.2023 7.76489 45.3013 7.83522C45.9833 8.32099 46.4608 9.04272 46.6409 9.86048C46.8211 10.6782 46.6911 11.5338 46.2763 12.2612C46.2558 12.2964 46.2343 12.3341 46.2112 12.3701C46.1502 12.4654 46.066 12.5436 45.9666 12.5974C45.8671 12.6513 45.7557 12.679 45.6426 12.678Z" fill="#689634"/>
<path d="M38.4648 12.6779C38.3511 12.6779 38.2393 12.649 38.14 12.5938C38.0406 12.5385 37.957 12.4589 37.897 12.3623C37.8739 12.3254 37.8525 12.2886 37.8319 12.2525C37.4171 11.5251 37.2872 10.6696 37.4673 9.85184C37.6475 9.03408 38.1249 8.31235 38.807 7.82658C38.906 7.75625 39.0222 7.71423 39.1433 7.70504C39.2644 7.69585 39.3857 7.71983 39.4942 7.77442C39.6026 7.82901 39.6942 7.91214 39.759 8.01486C39.8237 8.11757 39.8593 8.236 39.8618 8.35741C39.8719 8.82815 40.0464 9.28052 40.3549 9.63619C40.6634 9.99187 41.0867 10.2284 41.5512 10.305C41.6383 10.3195 41.7216 10.3512 41.7963 10.3982C41.871 10.4452 41.9358 10.5065 41.9867 10.5786C42.0376 10.6507 42.0737 10.7322 42.0929 10.8183C42.1122 10.9045 42.1141 10.9936 42.0987 11.0805C42.0833 11.1674 42.0508 11.2504 42.0031 11.3247C41.9554 11.399 41.8935 11.4631 41.8209 11.5133C41.7483 11.5635 41.6665 11.5989 41.5802 11.6173C41.4939 11.6357 41.4047 11.6367 41.3179 11.6205C40.8299 11.5371 40.3663 11.347 39.9603 11.0637C39.5542 10.7804 39.2158 10.4109 38.969 9.98168C38.9359 9.92451 38.9044 9.8656 38.8747 9.805C38.8321 9.91038 38.7983 10.0191 38.7735 10.13C38.6621 10.6263 38.7401 11.1462 38.9922 11.5879L39.0316 11.6548C39.0944 11.7559 39.1291 11.872 39.132 11.991C39.1349 12.11 39.106 12.2276 39.0482 12.3317C38.9904 12.4357 38.9058 12.5224 38.8033 12.5829C38.7007 12.6433 38.5838 12.6752 38.4648 12.6753V12.6779Z" fill="#689634"/>
<path d="M46.8504 15.1108C46.6771 15.1115 46.5103 15.0449 46.3852 14.925C46.2601 14.8051 46.1865 14.6413 46.1799 14.4681C46.1733 14.2949 46.2343 14.126 46.35 13.9969C46.4656 13.8679 46.6269 13.7888 46.7997 13.7764C47.1314 13.7723 47.4523 13.6583 47.7122 13.4523C47.862 13.3876 47.9936 13.2873 48.0956 13.16C48.1976 13.0328 48.267 12.8825 48.2975 12.7223C48.3281 12.5621 48.3189 12.3969 48.2709 12.241C48.2229 12.0851 48.1375 11.9434 48.0221 11.8281C47.9067 11.7129 47.7649 11.6276 47.609 11.5798C47.453 11.532 47.2877 11.5232 47.1276 11.5539C46.9674 11.5847 46.8172 11.6542 46.6901 11.7564C46.563 11.8586 46.4628 11.9904 46.3984 12.1402C46.3389 12.2007 46.2889 12.2698 46.25 12.3451C46.1641 12.496 46.0228 12.6077 45.8562 12.6564C45.6895 12.7052 45.5104 12.6873 45.3566 12.6065C45.2029 12.5257 45.0865 12.3884 45.032 12.2235C44.9776 12.0586 44.9894 11.8789 45.0648 11.7225C45.1661 11.528 45.2962 11.3499 45.4508 11.1943C45.7373 10.9382 46.0721 10.7421 46.4356 10.6175C46.7991 10.4929 47.1839 10.4423 47.5673 10.4687H47.5879C47.9815 10.4709 48.3739 10.5143 48.7585 10.5982C48.8786 10.6269 48.9885 10.6883 49.0759 10.7757C49.1632 10.863 49.2246 10.9729 49.2533 11.0931C49.3372 11.4777 49.3807 11.87 49.3828 12.2637C49.4112 12.6498 49.3616 13.0377 49.237 13.4043C49.1123 13.7708 48.9152 14.1085 48.6573 14.3973C48.178 14.8394 47.5545 15.0924 46.9026 15.1091H46.8504V15.1108Z" fill="#689634"/>
<path d="M37.2592 15.1117H37.2069C36.5551 15.0946 35.9317 14.8417 35.4523 14.3999C35.1944 14.1111 34.9973 13.7733 34.8727 13.4068C34.748 13.0402 34.6984 12.6524 34.7267 12.2662C34.729 11.8726 34.7724 11.4802 34.8562 11.0956C34.8849 10.9754 34.9463 10.8656 35.0337 10.7782C35.121 10.6909 35.2309 10.6295 35.3511 10.6008C35.7357 10.5169 36.128 10.4735 36.5216 10.4713H36.5422C36.9256 10.4449 37.3104 10.4955 37.6739 10.6201C38.0374 10.7447 38.3722 10.9408 38.6587 11.1968C38.8142 11.3537 38.9449 11.5332 39.0464 11.7294C39.122 11.8858 39.1337 12.0656 39.0791 12.2306C39.0245 12.3955 38.9078 12.5328 38.7538 12.6133C38.5998 12.6937 38.4205 12.7111 38.2539 12.6617C38.0873 12.6123 37.9464 12.5 37.8612 12.3486C37.8222 12.2722 37.7719 12.2023 37.712 12.141C37.6474 11.9914 37.5471 11.8597 37.42 11.7577C37.2928 11.6557 37.1426 11.5863 36.9825 11.5557C36.8224 11.525 36.6572 11.534 36.5014 11.5819C36.3455 11.6298 36.2038 11.715 36.0885 11.8303C35.9731 11.9455 35.8878 12.0872 35.8398 12.243C35.7919 12.3988 35.7827 12.564 35.8133 12.7241C35.8438 12.8843 35.9131 13.0345 36.015 13.1617C36.117 13.2889 36.2485 13.3893 36.3982 13.454C36.6581 13.6599 36.979 13.7739 37.3106 13.7781C37.4835 13.7905 37.6447 13.8696 37.7604 13.9986C37.876 14.1277 37.937 14.2966 37.9304 14.4698C37.9239 14.643 37.8503 14.8068 37.7252 14.9267C37.6001 15.0466 37.4333 15.1133 37.26 15.1125L37.2592 15.1117Z" fill="#689634"/>
<path d="M46.0488 23.0502H38.0622C37.4113 23.049 36.7875 22.79 36.3273 22.3298C35.8671 21.8696 35.6081 21.2458 35.6069 20.595V19.9397C35.6081 19.2889 35.8671 18.6651 36.3273 18.2049C36.7875 17.7447 37.4113 17.4856 38.0622 17.4845H46.0488C46.6996 17.4856 47.3235 17.7447 47.7837 18.2049C48.2439 18.6651 48.5029 19.2889 48.5041 19.9397V20.595C48.5041 21.2461 48.2454 21.8706 47.7849 22.331C47.3245 22.7915 46.7 23.0502 46.0488 23.0502ZM38.0622 18.8172C37.765 18.8176 37.4802 18.9359 37.2701 19.146C37.06 19.3561 36.9418 19.6409 36.9413 19.938V20.5932C36.9416 20.8904 37.0597 21.1754 37.2699 21.3855C37.48 21.5957 37.765 21.7139 38.0622 21.7141H46.0488C46.196 21.7141 46.3418 21.6851 46.4777 21.6288C46.6137 21.5724 46.7373 21.4899 46.8414 21.3858C46.9455 21.2817 47.028 21.1582 47.0844 21.0222C47.1407 20.8862 47.1697 20.7404 47.1697 20.5932V19.938C47.1692 19.6409 47.051 19.3561 46.8409 19.146C46.6308 18.9359 46.346 18.8176 46.0488 18.8172H38.0622Z" fill="#689634"/>
<path d="M43.9627 16.3121C43.7855 16.3121 43.6156 16.2418 43.4903 16.1165C43.365 15.9912 43.2947 15.8213 43.2947 15.6441V14.868C43.2947 14.6908 43.365 14.5209 43.4903 14.3956C43.6156 14.2703 43.7855 14.2 43.9627 14.2C44.1399 14.2 44.3098 14.2703 44.4351 14.3956C44.5604 14.5209 44.6308 14.6908 44.6308 14.868V15.6441C44.6308 15.8213 44.5604 15.9912 44.4351 16.1165C44.3098 16.2418 44.1399 16.3121 43.9627 16.3121Z" fill="#689634"/>
<path d="M40.1475 16.3121C39.9704 16.3121 39.8004 16.2418 39.6751 16.1165C39.5499 15.9912 39.4795 15.8213 39.4795 15.6441V14.868C39.4795 14.6908 39.5499 14.5209 39.6751 14.3956C39.8004 14.2703 39.9704 14.2 40.1475 14.2C40.3247 14.2 40.4946 14.2703 40.6199 14.3956C40.7452 14.5209 40.8156 14.6908 40.8156 14.868V15.6441C40.8156 15.8213 40.7452 15.9912 40.6199 16.1165C40.4946 16.2418 40.3247 16.3121 40.1475 16.3121Z" fill="#689634"/>
<path d="M44.6585 20.8213H44.5599L44.5273 20.8153L44.4947 20.8084L44.463 20.799L44.4321 20.7887L44.4012 20.7767L44.3721 20.763L44.342 20.7484L44.3129 20.7321L44.2846 20.7141L44.2571 20.6952L44.2306 20.6746L44.2057 20.6532L44.1817 20.63L44.1585 20.6061L44.1371 20.5803L44.1165 20.5546L44.0977 20.5271L44.0797 20.4989L44.0633 20.4697L44.0488 20.4405C44.0437 20.4307 44.0391 20.4207 44.0351 20.4105L44.023 20.3796C44.0211 20.3686 44.0176 20.358 44.0128 20.3479C44.0128 20.3368 44.0067 20.3265 44.0042 20.317L43.9964 20.2845C43.9961 20.2734 43.9941 20.2623 43.9905 20.2519C43.9845 20.2407 43.9905 20.2296 43.9905 20.2184C43.9883 20.2074 43.9883 20.196 43.9905 20.185V20.0855C43.9884 20.0747 43.9884 20.0637 43.9905 20.0529C43.9905 20.0426 43.9904 20.0306 43.9964 20.0203C44.0007 20.0099 44.0034 19.9989 44.0042 19.9877C44.0065 19.9773 44.0094 19.967 44.0128 19.9569L44.023 19.926C44.023 19.9157 44.0308 19.9054 44.0351 19.8951C44.0391 19.8849 44.0437 19.8749 44.0488 19.8651L44.0633 19.8359L44.0797 19.8068L44.0977 19.7785L44.1165 19.751L44.1371 19.7245L44.1585 19.6996L44.1817 19.6756L44.2057 19.6524L44.2306 19.631L44.2571 19.6104L44.2846 19.5915L44.3129 19.5735L44.342 19.5572L44.3721 19.5426L44.4012 19.5289L44.4321 19.5169L44.463 19.5066L44.4947 19.4972L44.5273 19.4903L44.5599 19.4843H44.6251C44.6471 19.4831 44.6691 19.4831 44.6911 19.4843H44.7563L44.7888 19.4903L44.8215 19.4972L44.8523 19.5066L44.8832 19.5169L44.914 19.5289L44.9432 19.5426L44.9724 19.5572L45.0015 19.5735L45.0298 19.5915L45.0573 19.6104L45.083 19.631L45.1079 19.6524L45.1319 19.6756L45.155 19.6996L45.1765 19.7245L45.1971 19.751L45.2159 19.7785L45.2339 19.8068L45.2502 19.8359L45.2657 19.8651C45.2707 19.8748 45.2749 19.8848 45.2785 19.8951C45.2785 19.9054 45.2871 19.9157 45.2905 19.926L45.3008 19.9569L45.3094 19.9877C45.3107 19.9989 45.3133 20.0098 45.3171 20.0203C45.3174 20.0314 45.3194 20.0424 45.3231 20.0529C45.3291 20.0641 45.3231 20.0752 45.3231 20.0855V20.251C45.3241 20.2622 45.322 20.2735 45.3171 20.2836C45.3129 20.294 45.3103 20.305 45.3094 20.3162L45.3008 20.3471C45.2991 20.3581 45.2957 20.3688 45.2905 20.3788C45.2905 20.3891 45.2828 20.3994 45.2785 20.4097L45.2657 20.4397L45.2502 20.4688L45.2339 20.498L45.2159 20.5263L45.1971 20.5537L45.1765 20.5795L45.155 20.6052L45.1319 20.6292L45.1079 20.6523L45.083 20.6738L45.0573 20.6944L45.0298 20.7133L45.0015 20.7313L44.9724 20.7475L44.9432 20.7621L44.914 20.7759L44.8832 20.7878L44.8523 20.7982L44.8215 20.8076L44.7888 20.8144L44.7563 20.8205H44.6911L44.6585 20.8213Z" fill="#689634"/>
<path d="M39.4511 20.8214H39.3851H39.3525L39.3199 20.8154L39.2873 20.8086L39.2556 20.8L39.2247 20.7897L39.1939 20.7777L39.1638 20.764L39.1347 20.7494L39.1055 20.7331L39.0772 20.7151L39.0498 20.6962L39.0241 20.6756L38.9992 20.6542L38.9752 20.631L38.952 20.607L38.9306 20.5821L38.91 20.5556L38.8911 20.5281L38.8731 20.4999L38.8568 20.4707L38.8414 20.4407C38.8414 20.4312 38.832 20.4209 38.8277 20.4107C38.8234 20.4004 38.8191 20.3901 38.8157 20.3798L38.8054 20.3489C38.8054 20.3386 38.7994 20.3274 38.7968 20.318C38.7942 20.3086 38.7917 20.2966 38.7899 20.2871C38.7901 20.276 38.788 20.2649 38.7839 20.2546C38.7779 20.2443 38.7839 20.2323 38.7839 20.2211V20.0573C38.783 20.0461 38.7851 20.0349 38.7899 20.0247C38.7939 20.0143 38.7962 20.0033 38.7968 19.9921C38.7968 19.981 38.8028 19.9707 38.8054 19.9612C38.808 19.9518 38.8123 19.9398 38.8157 19.9295C38.8191 19.9192 38.8234 19.9089 38.8277 19.8986C38.8317 19.8884 38.8363 19.8784 38.8414 19.8687L38.8568 19.8387L38.8705 19.8095L38.8886 19.7812L38.9074 19.7538L38.928 19.7272L38.9494 19.7023L38.9726 19.6783L38.9966 19.6551L39.0215 19.6328L39.0472 19.6122L39.0806 19.5985L39.109 19.5805L39.1381 19.5642L39.1673 19.5496L39.1973 19.5367L39.2281 19.5248L39.259 19.5145L39.2899 19.5059L39.3225 19.499L39.3551 19.493H39.5515L39.5841 19.499L39.6166 19.5059L39.6484 19.5145L39.6792 19.5248L39.7101 19.5367L39.7393 19.5496L39.7693 19.5642L39.7985 19.5805L39.8267 19.5985L39.8542 19.6174L39.8799 19.638L39.9048 19.6603L39.9288 19.6834L39.9519 19.7074L39.9734 19.7323L39.994 19.7589L40.0129 19.7863L40.0309 19.8146L40.0472 19.8438L40.0617 19.8738L40.0755 19.9038L40.0875 19.9347C40.0894 19.9457 40.0929 19.9564 40.0978 19.9664L40.1063 19.9973C40.1077 20.0083 40.1101 20.0192 40.1132 20.0299C40.1132 20.041 40.1132 20.0513 40.1192 20.0625C40.1201 20.0733 40.1201 20.0842 40.1192 20.095V20.2597C40.1201 20.2709 40.1181 20.2822 40.1132 20.2923C40.1094 20.3022 40.1071 20.3126 40.1063 20.3231L40.0978 20.354C40.0959 20.3648 40.0924 20.3752 40.0875 20.3849L40.0755 20.4158L40.0617 20.4458L40.0472 20.4758L40.0309 20.505L40.0129 20.5333L39.994 20.5607L39.9734 20.5873L39.9519 20.6122L39.9288 20.6362L39.9048 20.6593L39.8799 20.6808L39.8542 20.7014L39.8267 20.7202L39.7985 20.7382L39.7693 20.7545L39.7393 20.7691L39.7101 20.7828L39.6792 20.7949L39.6484 20.8051L39.6166 20.8137L39.5841 20.8206L39.5515 20.8266H39.5189H39.4854L39.4511 20.8214Z" fill="#689634"/>
<path d="M37.2572 18.9667C37.08 18.9667 36.9101 18.8963 36.7848 18.771C36.6595 18.6457 36.5891 18.4758 36.5891 18.2986V14.8683C36.5891 13.6558 37.0708 12.4929 37.9282 11.6356C38.7855 10.7782 39.9484 10.2965 41.1609 10.2965H42.9472C44.1597 10.2965 45.3226 10.7782 46.18 11.6356C47.0373 12.4929 47.519 13.6558 47.519 14.8683V15.183C47.519 15.3602 47.4486 15.5301 47.3233 15.6554C47.1981 15.7807 47.0281 15.851 46.8509 15.851C46.6738 15.851 46.5038 15.7807 46.3786 15.6554C46.2533 15.5301 46.1829 15.3602 46.1829 15.183V14.8683C46.1822 14.0112 45.8415 13.1893 45.2355 12.5832C44.6295 11.977 43.8077 11.6361 42.9506 11.6352H41.1583C40.3013 11.6361 39.4796 11.9769 38.8735 12.5828C38.2674 13.1888 37.9264 14.0104 37.9252 14.8674V18.2977C37.9252 18.3855 37.9079 18.4725 37.8743 18.5536C37.8407 18.6347 37.7914 18.7084 37.7293 18.7704C37.6671 18.8325 37.5934 18.8817 37.5123 18.9152C37.4311 18.9487 37.3441 18.9659 37.2563 18.9658L37.2572 18.9667Z" fill="#689634"/>
<path d="M47.1251 41.0833H15.7085C15.1333 41.0833 14.6379 40.6773 14.5243 40.1118L9.69099 15.9452C9.61849 15.5899 9.71274 15.2226 9.93991 14.9422C10.1695 14.6619 10.5127 14.5 10.8752 14.5H20.5418C21.2088 14.5 21.7501 15.0413 21.7501 15.7083C21.7501 16.3753 21.2088 16.9167 20.5418 16.9167H12.3493L16.6993 38.6666H46.1342L46.8037 35.3195C46.9342 34.6646 47.5697 34.2369 48.2247 34.3722C48.8796 34.5027 49.3025 35.1383 49.172 35.7932L48.3092 40.1118C48.1957 40.6773 47.7002 41.0833 47.1251 41.0833Z" fill="#689634"/>
<path d="M15.7083 41.0832C15.1452 41.0832 14.6401 40.6869 14.5241 40.1117L8.53323 10.1596C8.1949 8.4704 6.69898 7.24515 4.97832 7.24515L1.20833 7.24999C0.541332 7.24999 0 6.70865 0 6.04165C0 5.37466 0.538915 4.83332 1.20833 4.83332L4.97349 4.82849H4.97832C7.84932 4.82849 10.3409 6.87057 10.904 9.68598L16.8925 39.6381C17.023 40.293 16.5976 40.9286 15.9451 41.0591C15.8654 41.076 15.7856 41.0832 15.7083 41.0832Z" fill="#689634"/>
<path d="M51.9582 45.9166H10.875C8.87641 45.9166 7.25 44.2902 7.25 42.2916C7.25 40.293 8.87641 38.6666 10.875 38.6666H15.7083C16.3753 38.6666 16.9166 39.208 16.9166 39.875C16.9166 40.542 16.3753 41.0833 15.7083 41.0833H10.875C10.208 41.0833 9.66666 41.6246 9.66666 42.2916C9.66666 42.9586 10.208 43.4999 10.875 43.4999H51.9582C52.6252 43.4999 53.1666 44.0413 53.1666 44.7083C53.1666 45.3753 52.6252 45.9166 51.9582 45.9166Z" fill="#689634"/>
<path d="M19.3333 57.9999C16.6677 57.9999 14.5 55.8322 14.5 53.1666C14.5 50.501 16.6677 48.3333 19.3333 48.3333C21.9989 48.3333 24.1666 50.501 24.1666 53.1666C24.1666 55.8322 21.9989 57.9999 19.3333 57.9999ZM19.3333 50.7499C18.0017 50.7499 16.9167 51.835 16.9167 53.1666C16.9167 54.4982 18.0017 55.5832 19.3333 55.5832C20.6649 55.5832 21.75 54.4982 21.75 53.1666C21.75 51.835 20.6649 50.7499 19.3333 50.7499Z" fill="#689634"/>
<path d="M41.0833 57.9999C38.4177 57.9999 36.25 55.8322 36.25 53.1666C36.25 50.501 38.4177 48.3333 41.0833 48.3333C43.7489 48.3333 45.9166 50.501 45.9166 53.1666C45.9166 55.8322 43.7489 57.9999 41.0833 57.9999ZM41.0833 50.7499C39.7517 50.7499 38.6667 51.835 38.6667 53.1666C38.6667 54.4982 39.7517 55.5832 41.0833 55.5832C42.4149 55.5832 43.5 54.4982 43.5 53.1666C43.5 51.835 42.4149 50.7499 41.0833 50.7499Z" fill="#689634"/>
</svg>
