<svg id="Layer_1" data-name="Layer 1" xmlns="http://www.w3.org/2000/svg" xmlns:xlink="http://www.w3.org/1999/xlink" viewBox="0 0 7431.79 1969.88"><defs><style>.cls-1{fill:#221f1f;}.cls-2{fill:url(#linear-gradient);}.cls-3{fill:#af1f24;}</style><linearGradient id="linear-gradient" x1="287.03" y1="1040.34" x2="2313.11" y2="1040.34" gradientUnits="userSpaceOnUse"><stop offset="0" stop-color="#af1f24"/><stop offset="0.38" stop-color="#cd2f2d"/><stop offset="0.76" stop-color="#e53b34"/><stop offset="1" stop-color="#ee4037"/></linearGradient></defs><title>Untitled-1</title><path class="cls-1" d="M4968.36,504.1a121.77,121.77,0,0,1-2.4,24.46,114.41,114.41,0,0,1-7.27,22.94,107.15,107.15,0,0,1-27,36.71,111.37,111.37,0,0,1-17.59,12.58,108.2,108.2,0,0,1-19,8.64,120,120,0,0,1-79.31,0,110,110,0,0,1-36.58-21.22A105.22,105.22,0,0,1,4764,571.63a107.05,107.05,0,0,1-11.72-20.13,110.72,110.72,0,0,1-7.28-22.94,124.87,124.87,0,0,1,0-49,113,113,0,0,1,7.25-23,107.14,107.14,0,0,1,11.75-20.1,103.39,103.39,0,0,1,15.25-16.59,109.17,109.17,0,0,1,17.58-12.65,113.5,113.5,0,0,1,19-8.61,119.92,119.92,0,0,1,79.33,0,112.06,112.06,0,0,1,19,8.61,110.68,110.68,0,0,1,17.6,12.65A105.27,105.27,0,0,1,4947,436.47a108.14,108.14,0,0,1,11.73,20.1,113.09,113.09,0,0,1,7.27,23A122.64,122.64,0,0,1,4968.36,504.1Z" transform="translate(-223.83 -55.4)"/><path class="cls-1" d="M7653.33,775.49a91.3,91.3,0,0,0-5.21-16.89,78.68,78.68,0,0,0-6.82-12.74,71.59,71.59,0,0,0-9.55-11.67,78.69,78.69,0,0,0-11.72-9.6,83.93,83.93,0,0,0-12.74-6.77,85.5,85.5,0,0,0-16.88-5.17,126.51,126.51,0,0,0-47.82,0,86.88,86.88,0,0,0-16.94,5.22,76.4,76.4,0,0,0-12.69,6.82A76.06,76.06,0,0,0,7491.74,746a76.14,76.14,0,0,0-6.77,12.69,87.93,87.93,0,0,0-5.16,16.82,116.58,116.58,0,0,0-2.16,18.71c-9.31-7.62-18.92-14.81-28.93-21.53a409.06,409.06,0,0,0-84.78-43.57,432.93,432.93,0,0,0-64.64-18.71,443.3,443.3,0,0,0-66.72-8.85c-6.37-.34-12.72-.6-19.1-.7s-12.74-.11-19.12,0q-14.08.32-28.2,1.48c-9.34.76-18.71,1.77-28,3.07a478.69,478.69,0,0,0-53.9,10.82,460.52,460.52,0,0,0-52.16,17.19A438.59,438.59,0,0,0,6937.79,785a428.22,428.22,0,0,0-78.56,73A414.58,414.58,0,0,0,6826.89,902a428.21,428.21,0,0,0-26.49,47.8,451.18,451.18,0,0,0-21.13,52.87,475.9,475.9,0,0,0-14.26,55.15c-1.92,9.76-3.48,19.56-4.75,29.42s-2.33,19.77-3,29.68q-1.06,15.32-1.26,30.75c-.1,10.25.06,20.49.55,30.77a495.33,495.33,0,0,0,6.23,58.78,485.78,485.78,0,0,0,13.33,57.62,454.43,454.43,0,0,0,19.36,52.66,434.68,434.68,0,0,0,25.78,49.81,425.49,425.49,0,0,0,30.83,44.79,438.56,438.56,0,0,0,76.84,75.87,443.14,443.14,0,0,0,144.21,73c8.95,2.62,17.94,5,27,7.08s18.19,3.89,27.33,5.4a462.36,462.36,0,0,0,55.5,5.87c7.14.42,14.24.57,21.43.57s14.24-.11,21.38-.42c11.07-.45,22.1-1.35,33.07-2.62s21.83-2.94,32.59-5,21.59-4.6,32.14-7.53,21.2-6.28,31.56-10.07,20.56-7.88,30.63-12.48a404.17,404.17,0,0,0,47.91-26,416.74,416.74,0,0,0,44-32.15,113.15,113.15,0,0,0,2.13,18.26,89.65,89.65,0,0,0,5.16,16.86,77.5,77.5,0,0,0,6.77,12.75,74.61,74.61,0,0,0,21.22,21.26,75,75,0,0,0,12.69,6.83,86.17,86.17,0,0,0,16.94,5.21,100.05,100.05,0,0,0,11.88,1.77c4,.37,8,.52,12,.52s8-.15,12-.52a119.89,119.89,0,0,0,11.87-1.71,85.67,85.67,0,0,0,8.54-2.21,71.82,71.82,0,0,0,8.34-3,76.23,76.23,0,0,0,12.74-6.84,68.78,68.78,0,0,0,6.12-4.44c1.91-1.63,3.84-3.29,5.56-5a69.61,69.61,0,0,0,5.11-5.66,67.88,67.88,0,0,0,4.48-6.07,80.29,80.29,0,0,0,6.82-12.73,81.87,81.87,0,0,0,3.06-8.31c.85-2.81,1.55-5.71,2.15-8.59a103.08,103.08,0,0,0,1.72-11.94,113.22,113.22,0,0,0,.57-12V799.41A117.75,117.75,0,0,0,7653.33,775.49ZM7483.1,1181.24a312.25,312.25,0,0,1-8.09,49,284.4,284.4,0,0,1-15.68,46.61,266.71,266.71,0,0,1-23,42.61,252.77,252.77,0,0,1-30.45,37.44,239.85,239.85,0,0,1-37.6,31.2,248.73,248.73,0,0,1-45.39,24,278.21,278.21,0,0,1-53.87,15.69,339.89,339.89,0,0,1-63.18,5.65,298.51,298.51,0,0,1-52.37-4.56,272.88,272.88,0,0,1-48.42-13.24,264,264,0,0,1-46.62-22.8,250.19,250.19,0,0,1-38.22-29,260.26,260.26,0,0,1-32.25-35.88,265.32,265.32,0,0,1-25.52-42.48,275.3,275.3,0,0,1-17.94-48.86c-2.43-9-4.34-18.17-6-27.3s-2.62-18.47-3.42-27.75c-.81-9.92-1.11-19.83-1.11-29.74s.54-19.82,1.45-29.62c.88-9.2,2.08-18.4,3.75-27.5s3.74-18.08,6.22-27c2.33-8.29,5.05-16.47,8.08-24.56s6.59-15.87,10.43-23.61c3.63-7.34,7.57-14.51,11.91-21.49s9-13.73,14-20.25a256.2,256.2,0,0,1,32.66-35.2c6-5.29,12.17-10.35,18.6-15.05s13.13-9.16,20-13.25a258.69,258.69,0,0,1,24.44-12.88,263.26,263.26,0,0,1,25.6-10.33c8-2.72,16.09-5.05,24.28-7.08s16.48-3.63,24.81-4.9q6.45-1,13-1.66c4.33-.51,8.68-.81,13-1.12,4-.25,8-.39,12-.48s8.09-.12,12.09-.12c10.5.12,21,.72,31.43,1.72s20.89,2.63,31.19,4.65a281,281,0,0,1,53.24,16.28c7.83,3.34,15.57,7,23,11.11A247.78,247.78,0,0,1,7371,922.94c6.66,4.65,13.14,9.61,19.35,14.84a241.92,241.92,0,0,1,17.8,16.79A251.1,251.1,0,0,1,7438,992.39c4.44,6.77,8.49,13.81,12.27,20.92s7.24,14.57,10.38,22,6,15.26,8.53,23.07,4.76,15.72,6.62,23.69a313.28,313.28,0,0,1,7.55,49.28A324.06,324.06,0,0,1,7483.1,1181.24Z" transform="translate(-223.83 -55.4)"/><path class="cls-1" d="M3419.73,775.53a90,90,0,0,0-5.2-16.88,79.38,79.38,0,0,0-6.8-12.73,77.29,77.29,0,0,0-9.56-11.73,75.92,75.92,0,0,0-11.7-9.5,78,78,0,0,0-12.71-6.82,94,94,0,0,0-16.89-5.22,127.14,127.14,0,0,0-47.94,0,90.49,90.49,0,0,0-16.88,5.26,79.46,79.46,0,0,0-12.71,6.78,75.44,75.44,0,0,0-11.68,9.6,74.62,74.62,0,0,0-9.53,11.67,77.34,77.34,0,0,0-6.8,12.69,89.29,89.29,0,0,0-5.2,16.88,112.3,112.3,0,0,0-2.16,18.66c-9.26-7.57-18.93-14.7-28.85-21.43A391.91,391.91,0,0,0,3174,748.5a417.22,417.22,0,0,0-43.67-19.26,434.07,434.07,0,0,0-64.65-18.75,455.54,455.54,0,0,0-66.72-8.86c-6.37-.29-12.73-.6-19.11-.71s-12.76,0-19.12.11q-14.11.32-28.16,1.45c-9.38.79-18.7,1.79-28,3.09a480.69,480.69,0,0,0-53.86,10.82,455.44,455.44,0,0,0-52.17,17.2A439.51,439.51,0,0,0,2704.25,785a428.82,428.82,0,0,0-137.38,164.78,449.39,449.39,0,0,0-21.09,52.93,462,462,0,0,0-14.25,55.09q-2.88,14.64-4.8,29.42t-3,29.68c-.72,10.21-1.16,20.47-1.25,30.75s0,20.49.53,30.77a496.57,496.57,0,0,0,6.24,58.84,471.23,471.23,0,0,0,13.32,57.62,450,450,0,0,0,45.09,102.46,431.26,431.26,0,0,0,67.1,85.31,436.37,436.37,0,0,0,85.27,65.37,442.18,442.18,0,0,0,48.42,24.52,450.56,450.56,0,0,0,51.09,18.5c8.89,2.62,17.91,5,27,7s18.18,3.89,27.36,5.4a460.84,460.84,0,0,0,55.46,5.87c7.12.42,14.25.57,21.4.57s14.28-.11,21.44-.42c11-.45,22.05-1.35,33.06-2.62s21.8-2.94,32.59-5,21.54-4.6,32.15-7.53,21.13-6.28,31.49-10.07,20.58-7.88,30.58-12.48a405.77,405.77,0,0,0,91.92-58.13,115.59,115.59,0,0,0,2.16,18.34,87.83,87.83,0,0,0,5.18,16.9,81,81,0,0,0,6.8,12.73,74.18,74.18,0,0,0,9.55,11.73,76.41,76.41,0,0,0,24.44,16.36A86.11,86.11,0,0,0,3309,1595a117.09,117.09,0,0,0,11.91,1.76c4,.36,8,.52,12,.52s8-.16,12-.52a113.66,113.66,0,0,0,11.9-1.72,84.48,84.48,0,0,0,8.58-2.22,78.59,78.59,0,0,0,8.31-3,74.64,74.64,0,0,0,12.73-6.77c2.13-1.4,4.16-2.92,6.13-4.48a64.21,64.21,0,0,0,5.6-5.11,66.82,66.82,0,0,0,5.08-5.56c1.6-2,3.11-4,4.51-6.17a77.67,77.67,0,0,0,6.8-12.73,82,82,0,0,0,3-8.31c.87-2.81,1.58-5.66,2.19-8.59a106.23,106.23,0,0,0,1.72-11.88c.38-4,.53-8,.53-12V799.41A117.8,117.8,0,0,0,3419.73,775.53Zm-170.25,405.71a314.13,314.13,0,0,1-8,49.08,297.35,297.35,0,0,1-15.67,46.56,273.6,273.6,0,0,1-23.12,42.65,253.28,253.28,0,0,1-30.36,37.4,243.78,243.78,0,0,1-37.66,31.25,251.12,251.12,0,0,1-45.37,24,278.11,278.11,0,0,1-53.86,15.69,340.2,340.2,0,0,1-63.23,5.65,297.94,297.94,0,0,1-52.32-4.56,277.42,277.42,0,0,1-48.42-13.18,264.68,264.68,0,0,1-46.58-22.86,252.9,252.9,0,0,1-38.24-29,257.46,257.46,0,0,1-57.72-78.42,277.67,277.67,0,0,1-18-48.82c-2.4-9-4.37-18.15-5.92-27.34s-2.7-18.47-3.46-27.75q-1.17-14.88-1.09-29.74c.06-9.9.51-19.82,1.43-29.62.85-9.2,2.09-18.4,3.76-27.5s3.71-18.08,6.21-27q3.49-12.43,8.08-24.52t10.34-23.65q5.52-11,12-21.49a244.67,244.67,0,0,1,13.95-20.2,250,250,0,0,1,32.61-35.2q8.94-7.95,18.62-15t19.94-13.23a261.25,261.25,0,0,1,50.09-23.17c8-2.72,16.06-5.11,24.24-7.07s16.48-3.65,24.79-4.91c4.32-.65,8.65-1.22,13-1.67s8.66-.85,13-1.1c4-.27,8-.42,12.08-.51s8-.15,12.08-.09c10.49.09,21,.69,31.45,1.7s20.85,2.58,31.13,4.65a279.2,279.2,0,0,1,53.29,16.29c7.86,3.33,15.54,7,23,11.1A251,251,0,0,1,3137.37,923a237.94,237.94,0,0,1,19.38,14.87,241.18,241.18,0,0,1,17.8,16.78,249.88,249.88,0,0,1,29.87,37.81q6.61,10.15,12.26,20.93c3.8,7.17,7.23,14.52,10.36,22s6.05,15.26,8.57,23,4.73,15.73,6.62,23.73a309.84,309.84,0,0,1,7.51,49.28A317.09,317.09,0,0,1,3249.48,1181.24Z" transform="translate(-223.83 -55.4)"/><path class="cls-1" d="M3689.7,1508.18q-.1-132.92-.24-265.77t-.29-265.78q0-44.85-.07-89.58c0-15,0-29.87,0-44.79,0-7.47,0-15,0-22.38V808.69c0-1.91,0-3.72,0-5.65s0-3.69,0-5.56v-1.11c0-.1,0-.21,0-.37v-.75c0-.2,0-.46,0-.7a6.11,6.11,0,0,0,0-.71,6.7,6.7,0,0,0,0-.76c0-.5,0-1,.07-1.48.07-1,.15-2.06.23-3.07s.17-2.07.27-3.08.26-2.08.38-3.09.3-2.06.46-3.08c.35-2,.73-4,1.21-6s1-4.05,1.59-6c.16-.57.33-1.09.51-1.63s.35-1.12.56-1.66.37-1.06.57-1.64.41-1.06.61-1.6c.4-1,.85-2.12,1.32-3.14s1-2.12,1.47-3.12a70.44,70.44,0,0,1,3.55-6.48c.64-1,1.3-2.08,2-3.09s1.41-2,2.15-3,1.57-2,2.38-3,1.67-1.91,2.53-2.82a66.86,66.86,0,0,1,5.48-5.3c1.87-1.62,3.84-3.19,5.87-4.66s4.16-2.78,6.31-4.05a78.57,78.57,0,0,1,12.84-5.84,95.09,95.09,0,0,1,20.76-4.93c3.93-.45,7.9-.75,11.86-.85,2-.06,3.9-.08,5.87-.06s3.89.12,5.84.21a101.92,101.92,0,0,1,24.46,4.21c2.2.64,4.37,1.42,6.5,2.22s4.25,1.81,6.32,2.83,4.34,2.26,6.44,3.53,4.13,2.73,6.07,4.2A74.87,74.87,0,0,1,3846.73,738a62.17,62.17,0,0,1,4.62,5.92,70.56,70.56,0,0,1,4,6.27,75.74,75.74,0,0,1,4.85,10.12,86.38,86.38,0,0,1,3.47,10.6,339,339,0,0,1,30.44-20.52,358.27,358.27,0,0,1,42.53-21.73,389,389,0,0,1,67.1-21.74,440.39,440.39,0,0,1,69.15-9.92c5.81-.36,11.65-.6,17.46-.75,1.44-.06,2.85-.06,4.3-.1.71,0,1.41,0,2.12,0s1.44,0,2.14,0c1.38,0,2.74,0,4.07,0h4.1c2.66.12,5.33.16,8,.27s5.36.18,8,.36,5.33.24,8,.39,5.33.39,8,.6a481.38,481.38,0,0,1,61.17,8.69,428.67,428.67,0,0,1,57.4,16.14,382,382,0,0,1,53,23.61,355.14,355.14,0,0,1,48,30.87,343.59,343.59,0,0,1,77.69,82.65,359.32,359.32,0,0,1,28.26,50.74,390,390,0,0,1,20.51,56.22,437.85,437.85,0,0,1,12.47,61.07,501,501,0,0,1,4.16,65.5v414.85a118.43,118.43,0,0,1-2.24,23.9,90.51,90.51,0,0,1-5.22,16.9,80.24,80.24,0,0,1-6.81,12.73,75.65,75.65,0,0,1-9.58,11.73,72.72,72.72,0,0,1-11.73,9.49,76,76,0,0,1-12.72,6.84,95.41,95.41,0,0,1-16.87,5.2,116.94,116.94,0,0,1-11.91,1.71c-4,.37-8,.52-12,.52s-8-.15-12-.52a115.5,115.5,0,0,1-11.89-1.77,84.73,84.73,0,0,1-8.58-2.15,82.29,82.29,0,0,1-8.32-3.06,75.18,75.18,0,0,1-12.71-6.83,59.23,59.23,0,0,1-6.09-4.48c-2-1.62-3.85-3.29-5.62-5s-3.48-3.7-5.08-5.67a67.22,67.22,0,0,1-4.44-6.06,79,79,0,0,1-6.77-12.75,75.77,75.77,0,0,1-3-8.28,86.08,86.08,0,0,1-2.15-8.58,103.61,103.61,0,0,1-1.72-11.86c-.38-4-.53-8-.53-12V1094.9a328.14,328.14,0,0,0-3.84-51.45,249.19,249.19,0,0,0-10.79-43.54,197,197,0,0,0-16.84-36A173.68,173.68,0,0,0,4270,934.46a170.93,170.93,0,0,0-27.77-23.65,195.26,195.26,0,0,0-33.8-18.25,234.4,234.4,0,0,0-40.26-12.7q-11.56-2.58-23.27-4.18c-7.81-1.06-15.67-1.87-23.53-2.38q-6.45-.36-12.89-.61c-4.3-.09-8.6-.15-12.9-.09-4,0-7.93.09-11.9.3s-7.94.4-11.9.8c-7.41.71-14.79,1.72-22.09,3a222.19,222.19,0,0,0-21.73,5.06q-10.09,2.85-19.87,6.67c-6.52,2.52-12.95,5.35-19.19,8.48a214.66,214.66,0,0,0-34.19,21.58c-5.28,4.11-10.36,8.46-15.24,13s-9.51,9.4-13.93,14.41-8.69,10.35-12.66,15.82-7.68,11.15-11.14,17a233.16,233.16,0,0,0-18.93,40.57c-2.48,7-4.63,14-6.47,21.2s-3.4,14.35-4.61,21.67c-1.31,7.74-2.27,15.58-2.9,23.41s-1,15.72-1,23.61v398.92a117.28,117.28,0,0,1-2.27,24,91.15,91.15,0,0,1-5.24,16.93,79.69,79.69,0,0,1-6.85,12.69,74.67,74.67,0,0,1-21.28,21.17,76,76,0,0,1-12.71,6.84,94.8,94.8,0,0,1-16.86,5.2,116.54,116.54,0,0,1-11.91,1.71c-4,.37-8,.52-12,.52s-8-.15-12-.52a115.36,115.36,0,0,1-11.89-1.71c-2.9-.61-5.75-1.36-8.56-2.21a78.88,78.88,0,0,1-8.32-3.06,74.5,74.5,0,0,1-12.71-6.77c-2.12-1.41-4.14-2.88-6.11-4.49a72.36,72.36,0,0,1-5.61-5.06c-1.78-1.76-3.47-3.69-5.06-5.6s-3.11-4-4.47-6.07a79.54,79.54,0,0,1-6.83-12.73c-1.14-2.74-2.15-5.52-3-8.31s-1.6-5.71-2.2-8.59a112.54,112.54,0,0,1-1.73-11.94C3689.88,1516.16,3689.7,1512.12,3689.7,1508.18Z" transform="translate(-223.83 -55.4)"/><path class="cls-1" d="M4943,796.37c0-4.1-.16-8.2-.55-12.23a104.69,104.69,0,0,0-1.9-12.64,86,86,0,0,0-5.41-16.92,76.48,76.48,0,0,0-7.35-13.21A76.27,76.27,0,0,0,4905,719.94a85.74,85.74,0,0,0-13.31-6.48,97.52,97.52,0,0,0-20.74-5.11c-4.08-.55-8.19-.85-12.32-1.05-2,0-4-.07-5.95-.07s-4,.07-6.07.18a100.44,100.44,0,0,0-12.51,1.3,103.62,103.62,0,0,0-12.51,2.88,84.65,84.65,0,0,0-13.37,5.37,74.63,74.63,0,0,0-13,8.28,77.19,77.19,0,0,0-11.28,11.07,76.17,76.17,0,0,0-8.52,12.8,80.84,80.84,0,0,0-5.58,13.23c-.66,1.91-1.22,3.91-1.72,5.92s-.94,3.94-1.31,6-.72,4.15-1,6.23c-.14,1.06-.27,2.07-.36,3.13s-.2,2.08-.28,3.14c0,.54-.07,1.06-.1,1.56s-.06,1-.08,1.51c0,.31,0,.56-.05.82s0,.49,0,.8,0,.5,0,.77,0,.48,0,.75c-.07,1.81-.07,3.65-.07,5.46v577.8c0,10.37-.32,20.79-.72,31.19-.48,12.65-1.09,25.28-1.44,37.92-.32,12-.43,24.06-.06,36.09.41,12.73,1.32,25.37,3,38a85.41,85.41,0,0,0,1.62,9.1,78.27,78.27,0,0,0,2.57,8.7,92.09,92.09,0,0,0,4.29,10.4,85.16,85.16,0,0,0,6,10.37,91.71,91.71,0,0,0,7.2,9.25c1.18,1.36,2.42,2.68,3.68,3.93s2.58,2.54,3.93,3.76a88.85,88.85,0,0,0,19.09,13.23,76.32,76.32,0,0,0,11.09,4.57,77.31,77.31,0,0,0,11.62,3c1.81.36,3.64.56,5.48.82s3.66.35,5.51.45,3.46.21,5.22.21,3.46,0,5.19-.11a89.48,89.48,0,0,0,22.24-3.55c2-.6,3.87-1.24,5.77-2s3.77-1.53,5.58-2.39,3.62-1.76,5.39-2.77,3.46-2,5.15-3.14,3.16-2.17,4.68-3.37a51.05,51.05,0,0,0,4.47-3.66c1.3-1.09,2.55-2.31,3.8-3.48s2.44-2.43,3.6-3.69a78.38,78.38,0,0,0,5.85-6.86,94,94,0,0,0,5.47-7.89,89.17,89.17,0,0,0,7.89-16.74c.21-.56.42-1.06.61-1.68s.3-1.12.45-1.66c.38-1.27.74-2.57,1.08-3.84.44-1.77.88-3.59,1.22-5.4.23-1.16.47-2.33.63-3.49.11-.6.21-1.27.3-1.88s.14-1.21.22-1.81c.31-2.54.6-5.07.87-7.52.48-4.81.88-9.58,1.17-14.43s.53-9.6.68-14.35c.28-8.89.28-17.79.13-26.7s-.45-17.78-.81-26.63c-.18-4.81-.38-9.65-.57-14.51s-.38-9.65-.56-14.45c-.25-7.78-.44-15.57-.44-23.32Z" transform="translate(-223.83 -55.4)"/><path class="cls-1" d="M5668.38,1422.65a258.94,258.94,0,0,1-31.19,9.3c-6.07,1.41-12.13,2.53-18.26,3.34a145,145,0,0,1-16,1.27c-1.56,0-3.18,0-4.81,0-2.84,0-5.66-.09-8.48-.18-5.07-.27-10.12-.66-15.08-1.33a125,125,0,0,1-15.57-3c-1.6-.45-3.22-.87-4.84-1.41s-3.25-1.06-4.76-1.68a65.09,65.09,0,0,1-7.18-3.28,56.54,56.54,0,0,1-6.62-4.15,54.57,54.57,0,0,1-5.05-4.3,42.83,42.83,0,0,1-4.38-5,55.54,55.54,0,0,1-4.32-6.31c-1.24-2.18-2.41-4.51-3.48-6.83-.81-1.73-1.5-3.44-2.17-5.21s-1.27-3.53-1.88-5.32q-1.73-5.54-3-11.15c-.87-3.8-1.62-7.53-2.24-11.37-1.51-9.31-2.46-18.71-3.06-28.12-.72-10.92-1-22-1-32.85V875.72H5690a111,111,0,0,0,21.64-2,81.63,81.63,0,0,0,15.63-4.85,65.91,65.91,0,0,0,12-6.38,76,76,0,0,0,11.11-9,72.27,72.27,0,0,0,9-11.13,74.37,74.37,0,0,0,6.47-11.94,85.89,85.89,0,0,0,4.87-15.72,99.81,99.81,0,0,0,1.51-10.76c.36-3.63.51-7.29.51-10.92s-.15-7.29-.51-10.88a87.47,87.47,0,0,0-1.57-10.76,81,81,0,0,0-4.81-15.67,80,80,0,0,0-6.41-11.93,69.67,69.67,0,0,0-9-11.13,71.76,71.76,0,0,0-11-9,67.3,67.3,0,0,0-12-6.38,81.16,81.16,0,0,0-15.67-4.85,105.16,105.16,0,0,0-21.7-2.08H5505.46q.06-27.35.2-54.74c0-18.19.11-36.5.11-54.69,0-2.82,0-5.54,0-8.38s0-5.57.08-8.29V567.59c-.08-.52-.08-1-.11-1.51V564.5c0-.24,0-.5,0-.75a3.25,3.25,0,0,1-.07-.81c0-.52-.05-1-.1-1.53-.06-1-.1-2.1-.21-3.14s-.2-2.11-.34-3.11-.26-2.14-.41-3.14-.31-2.08-.49-3.14-.37-2-.58-3-.46-2-.69-3c-.52-2-1-4-1.61-5.91-.77-2.31-1.59-4.59-2.5-6.82s-2-4.39-3.07-6.52a76.68,76.68,0,0,0-8.39-12.95c-1.73-2-3.45-4-5.36-5.86a71.85,71.85,0,0,0-5.87-5.29c-2-1.64-4.14-3.09-6.25-4.51s-4.41-2.72-6.69-3.9a85.93,85.93,0,0,0-13.33-5.4c-2-.67-4.16-1.22-6.17-1.73s-4.25-.91-6.31-1.3-4.17-.62-6.23-.82-4.2-.39-6.26-.49c-4-.27-8.15-.3-12.24-.21-2,.1-4.15.21-6.17.36s-4.15.34-6.17.64c-3.59.52-7.12,1.12-10.62,2a83.5,83.5,0,0,0-10.24,3.2,73.8,73.8,0,0,0-6.86,2.87c-2.2,1.07-4.38,2.28-6.5,3.51a74.77,74.77,0,0,0-12.49,9.49c-1.92,1.76-3.74,3.69-5.5,5.66s-3.35,4.1-4.86,6.25a72.75,72.75,0,0,0-4,6.44,69.62,69.62,0,0,0-3.39,6.81,88.14,88.14,0,0,0-5.45,16.9c-.46,2.12-.86,4.23-1.17,6.38s-.57,4.23-.75,6.35-.35,4-.46,6.16-.11,4.1-.11,6.17q.22,70.07.41,140.06h-84.16a104.89,104.89,0,0,0-21.63,2.08,80.66,80.66,0,0,0-15.73,4.85,69.46,69.46,0,0,0-11.92,6.38,76.21,76.21,0,0,0-11.08,9,73.43,73.43,0,0,0-9.06,11.13,81.51,81.51,0,0,0-6.35,11.93,84.77,84.77,0,0,0-4.84,15.67c-.72,3.53-1.23,7.19-1.6,10.76s-.44,7.23-.44,10.88.11,7.29.44,10.92.88,7.19,1.6,10.76a85,85,0,0,0,4.84,15.72,75.67,75.67,0,0,0,6.41,11.94,69.63,69.63,0,0,0,9.06,11.13,70.73,70.73,0,0,0,11.13,9,64.76,64.76,0,0,0,11.92,6.38,83.59,83.59,0,0,0,15.67,4.85,110.57,110.57,0,0,0,21.58,2h84.58v429.46c0,18.92.7,37.81,2.51,56.67a425.72,425.72,0,0,0,8.38,53.22,309.35,309.35,0,0,0,15.54,49.48,252.24,252.24,0,0,0,13.34,27.61,233,233,0,0,0,13.69,21.47,219.72,219.72,0,0,0,16.23,19.83,204.58,204.58,0,0,0,18.65,17.89,196.77,196.77,0,0,0,21,15.57,207.91,207.91,0,0,0,23.15,13.14,249.54,249.54,0,0,0,35.63,14.16,316.41,316.41,0,0,0,57,11.61c10.32,1.12,20.74,1.82,31.1,2.24,2.57.1,5.2.1,7.83.18h12c1.35,0,2.78-.08,4.15-.08a290,290,0,0,0,32.85-2.94c6.11-.82,12.24-1.91,18.29-3.14s12.09-2.61,18.11-4.15c5.29-1.36,10.55-2.81,15.76-4.45s10.41-3.32,15.58-5.09c2.58-.91,5.15-1.86,7.72-2.78s5.15-1.92,7.68-2.94l3.09-1.21,3.08-1.26c1-.44,2-.86,3-1.25s2.08-.88,3.1-1.33c2.61-1.16,5.21-2.43,7.72-3.84,1.33-.71,2.53-1.47,3.74-2.22s2.42-1.56,3.63-2.44a72.5,72.5,0,0,0,6.78-5.2,82,82,0,0,0,6.17-5.91,72.08,72.08,0,0,0,5.55-6.58,64.59,64.59,0,0,0,4.81-7.07,76.85,76.85,0,0,0,7.05-14.85,65.94,65.94,0,0,0,2.2-7.48,73.74,73.74,0,0,0,1.54-7.75,85,85,0,0,0,.91-14.61,88.19,88.19,0,0,0-1.64-14.55,89.11,89.11,0,0,0-9.55-26.08,87,87,0,0,0-7.83-11.88,95,95,0,0,0-9.61-10.43,84.5,84.5,0,0,0-11.93-9.13,82.44,82.44,0,0,0-29.91-11.49,81.47,81.47,0,0,0-33.93,1.48A103.45,103.45,0,0,0,5668.38,1422.65Z" transform="translate(-223.83 -55.4)"/><path class="cls-1" d="M6550,732.78a354.39,354.39,0,0,0-70.2-22.85,342.91,342.91,0,0,0-80.92-7.47,400.58,400.58,0,0,0-53.73,3.63,380.37,380.37,0,0,0-43.38,8.25,358.48,358.48,0,0,0-53.67,17.93A320.4,320.4,0,0,0,6197,759.46c-4.16,2.8-8.31,5.67-12.4,8.6a85.77,85.77,0,0,0-3.07-8.85,80.67,80.67,0,0,0-4.05-8.44,71.89,71.89,0,0,0-8.09-11.83,70.66,70.66,0,0,0-10.22-10.09,75,75,0,0,0-11.42-7.6,81.21,81.21,0,0,0-12.53-5.56,98.4,98.4,0,0,0-10.11-2.83c-3.45-.7-6.87-1.31-10.36-1.72-3.7-.4-7.45-.61-11.17-.71-1.87-.06-3.75-.08-5.56-.06s-3.66.12-5.51.21a104.36,104.36,0,0,0-23.11,3.79,85.42,85.42,0,0,0-12.74,4.86,74.38,74.38,0,0,0-12,7.07,78.39,78.39,0,0,0-10.82,9.5,73.8,73.8,0,0,0-8.74,11.43,79,79,0,0,0-6.18,12.12,89,89,0,0,0-4.85,16.69,117.1,117.1,0,0,0-2,22.54v709.66a118.32,118.32,0,0,0,2.23,23.79,88.89,88.89,0,0,0,5.17,16.9,81.9,81.9,0,0,0,6.81,12.73,78.64,78.64,0,0,0,9.55,11.67,71.37,71.37,0,0,0,11.73,9.55,79.9,79.9,0,0,0,12.73,6.84,94.21,94.21,0,0,0,16.9,5.2,114.39,114.39,0,0,0,11.88,1.71c4,.37,8,.52,12,.52s8-.15,12-.52a114.39,114.39,0,0,0,11.88-1.71,83.3,83.3,0,0,0,8.56-2.21,74.14,74.14,0,0,0,8.32-3.06,70.34,70.34,0,0,0,12.69-6.77,61,61,0,0,0,6.12-4.44c2-1.63,3.8-3.29,5.61-5s3.45-3.65,5.06-5.62a72.65,72.65,0,0,0,4.49-6.11,77.84,77.84,0,0,0,6.83-12.69c1.1-2.67,2.12-5.5,3-8.28s1.58-5.73,2.18-8.56a102.42,102.42,0,0,0,1.71-11.92c.35-3.93.56-8,.56-12V1088.49a219.53,219.53,0,0,1,4.14-42.63,215.46,215.46,0,0,1,12-39.56,218.19,218.19,0,0,1,18.91-35.84,215.41,215.41,0,0,1,25.48-31.56,212.48,212.48,0,0,1,31-26.07,209.52,209.52,0,0,1,35.48-19.67,203.65,203.65,0,0,1,19.52-7.31,190.28,190.28,0,0,1,20.17-5.38,209,209,0,0,1,21.38-3.42c3.64-.42,7.19-.73,10.82-.92,1.82-.14,3.63-.2,5.4-.29s3.61-.12,5.42-.12,3.53,0,5.26.06l5.29.15c3.51.2,7,.39,10.52.76,7,.65,13.95,1.66,20.89,2.93,3.33.66,6.56,1.35,9.9,2.12s6.52,1.62,9.75,2.57,6.41,1.93,9.65,3,6.38,2.21,9.51,3.42a86.14,86.14,0,0,0,14.67,5.77,80.76,80.76,0,0,0,38.3,1.73,78.14,78.14,0,0,0,8.9-2.33,72.44,72.44,0,0,0,8.5-3.29,82.81,82.81,0,0,0,14.41-8.34,86,86,0,0,0,12.48-11,94.86,94.86,0,0,0,17-25.27,93.37,93.37,0,0,0,5.19-14.41,85.37,85.37,0,0,0,2.79-15c.32-2.72.41-5.36.46-8.08s-.05-5.35-.26-8.1a88.18,88.18,0,0,0-3.17-16.81,85.78,85.78,0,0,0-7.14-16.84,79.6,79.6,0,0,0-11.42-15.38,78.66,78.66,0,0,0-15-12.43A88.47,88.47,0,0,0,6550,732.78Z" transform="translate(-223.83 -55.4)"/><path class="cls-2" d="M1563.26,224.8C1472.31,66.47,1272,9.23,1111.14,95.58,1026.9,140.81,986.29,210.73,942,287.42Q877.06,400.1,812,512.71,551.7,963.28,291.67,1413.87c-16.35,28.3,13.49,60.81,43.12,47,200.82-93.9,456.8,37.07,487.13,259.25,4.32,31.61,46.28,39.79,62.13,12.08q186.09-325.07,372.15-650.14c8.42-14.69,20.62-14.69,29,0q231.69,404.72,463.34,809.43c5,8.75,11.06,13.35,20.83,15.82q231,58.44,462.08,116.91a33.38,33.38,0,0,0,41.44-29.43q19.92-229.63,40.06-459.07a31.78,31.78,0,0,0-4.32-19.61Q1935.54,869.88,1562.57,223.59" transform="translate(-223.83 -55.4)"/><path class="cls-3" d="M731.41,1766.49c0-140.19-113.63-253.79-253.76-253.79s-253.82,113.6-253.82,253.79,113.67,253.86,253.82,253.86S731.41,1906.7,731.41,1766.49Z" transform="translate(-223.83 -55.4)"/></svg>