<svg width="64" height="65" viewBox="0 0 64 65" fill="none" xmlns="http://www.w3.org/2000/svg">
<path d="M46.2612 26.9913C47.1673 26.9913 47.9019 26.2568 47.9019 25.3507C47.9019 24.4446 47.1673 23.7101 46.2612 23.7101C45.3551 23.7101 44.6206 24.4446 44.6206 25.3507C44.6206 26.2568 45.3551 26.9913 46.2612 26.9913Z" fill="#689634"/>
<path d="M1.64062 22.2115C2.54672 22.2115 3.28125 21.477 3.28125 20.5709C3.28125 19.6648 2.54672 18.9303 1.64062 18.9303C0.734533 18.9303 0 19.6648 0 20.5709C0 21.477 0.734533 22.2115 1.64062 22.2115Z" fill="#689634"/>
<path d="M1.64062 28.4897C2.54672 28.4897 3.28125 27.7552 3.28125 26.8491C3.28125 25.943 2.54672 25.2085 1.64062 25.2085C0.734533 25.2085 0 25.943 0 26.8491C0 27.7552 0.734533 28.4897 1.64062 28.4897Z" fill="#689634"/>
<path d="M44.8832 42.1901H17.0232C16.1171 42.1901 15.3826 42.9246 15.3826 43.8307C15.3826 44.7368 16.1171 45.4713 17.0232 45.4713H44.8832C45.7893 45.4713 46.5238 44.7368 46.5238 43.8307C46.5238 42.9246 45.7893 42.1901 44.8832 42.1901Z" fill="#689634"/>
<path d="M56.2975 55.7197H5.60872C4.05559 55.7197 2.66653 54.7922 2.07372 53.3572C1.48966 51.9507 1.79153 50.3516 2.83497 49.2535C5.68966 46.2544 7.43747 42.376 7.43747 38.2372V23.4585C7.43747 11.0663 17.0734 0.881286 29.2447 0.00409876C30.1743 -0.0637137 30.9531 0.719411 30.9531 1.6491C30.9531 2.52847 30.2553 3.21535 29.3803 3.28316C18.9547 4.08816 10.7187 12.8294 10.7187 23.4563V39.3419C10.7187 44.0188 8.16372 47.9454 5.17997 51.5482C5.00497 51.7582 5.05528 51.9813 5.10559 52.0972C5.15591 52.2241 5.29153 52.4341 5.60872 52.4341H56.2975C56.6168 52.4341 56.7503 52.2219 56.8006 52.0972C56.8531 51.9703 56.9078 51.7254 56.6825 51.5022C53.5784 48.4004 51.695 44.4016 51.275 40.0879C51.1787 39.1035 51.9181 38.2329 52.9068 38.2329C53.7293 38.2329 54.4556 38.841 54.53 39.6591C54.8559 43.2575 56.4156 46.5957 59.0012 49.1813C60.0993 50.2794 60.4253 51.9178 59.8303 53.3528C59.2375 54.7878 57.8484 55.7153 56.2953 55.7153L56.2975 55.7197Z" fill="#689634"/>
<path d="M30.9531 64.4697C25.2241 64.4697 20.5625 59.8082 20.5625 54.0791V52.4385H41.3438V54.0791C41.3438 59.8082 36.6822 64.4697 30.9531 64.4697ZM24.0341 55.7197C24.7778 58.8522 27.5975 61.1885 30.9531 61.1885C34.3088 61.1885 37.1284 58.8522 37.8722 55.7197H24.0341Z" fill="#689634"/>
<path d="M46.2504 34.4659C43.7763 34.4659 41.2825 33.9256 38.955 32.8144C38.8588 32.7684 38.6772 32.7072 38.511 32.7641L34.4554 34.2275C33.0379 34.735 31.5088 34.3916 30.4479 33.335C29.3891 32.2763 29.0457 30.7384 29.5532 29.3297L31.0188 25.2719C31.0779 25.1034 31.0144 24.9241 30.9707 24.8322C27.3547 17.2678 29.7763 8.29032 36.7347 3.48876C42.3654 -0.396244 49.956 -0.442181 55.6129 3.37282C59.9047 6.26251 62.6457 10.8256 63.1335 15.8897C63.6213 20.9538 61.8407 25.9194 58.2466 29.5156C55.0025 32.7575 50.656 34.4703 46.2525 34.4703L46.2504 34.4659ZM38.6575 29.4566C39.2372 29.4566 39.8191 29.5922 40.3704 29.8569C45.5897 32.3484 51.8372 31.2744 55.9235 27.1925C58.8219 24.2941 60.2569 20.2888 59.8654 16.2025C59.4694 12.1206 57.2513 8.43469 53.7775 6.09407C49.2254 3.02938 43.1222 3.06657 38.5963 6.18813C32.9766 10.0688 31.0122 17.3138 33.9304 23.4169C34.3875 24.3728 34.4488 25.4228 34.1054 26.3788L32.6397 30.4388C32.5369 30.7253 32.6769 30.9222 32.7688 31.0141C32.8629 31.1038 33.0575 31.2372 33.3441 31.1409L37.3975 29.6797C37.8066 29.5331 38.231 29.4566 38.6575 29.4566Z" fill="#689634"/>
<path d="M47.9019 9.66626C47.9019 8.76017 47.1673 8.02563 46.2612 8.02563C45.3551 8.02563 44.6206 8.76017 44.6206 9.66626V19.51C44.6206 20.4161 45.3551 21.1506 46.2612 21.1506C47.1673 21.1506 47.9019 20.4161 47.9019 19.51V9.66626Z" fill="#689634"/>
</svg>
