<svg xmlns="http://www.w3.org/2000/svg" version="1.1" xmlns:xlink="http://www.w3.org/1999/xlink" width="512" height="512" x="0" y="0" viewBox="0 0 512 512" style="enable-background:new 0 0 512 512" xml:space="preserve" class=""><g><path d="M16 120V24a8 8 0 0 1 8-8h96a8 8 0 0 1 0 16H32v88a8 8 0 0 1-16 0zm0 304a8 8 0 0 0 8 8h96a8 8 0 0 0 0-16H32v-87a8 8 0 0 0-16 0zm408-296a8 8 0 0 0 8-8V24a8 8 0 0 0-8-8h-95a8 8 0 0 0 0 16h87v88a8 8 0 0 0 8 8zm-264 24a8 8 0 0 1-8 8H56a8 8 0 0 1-8-8V56a8 8 0 0 1 8-8h96a8 8 0 0 1 8 8zm-16-88H64v80h80zm-64.172 56V88a8 8 0 0 1 8-8H120a8 8 0 0 1 8 8v32a8 8 0 0 1-8 8H87.828a8 8 0 0 1-8-8zm16-8H112V96H95.828zM152 400H56a8 8 0 0 1-8-8v-96a8 8 0 0 1 8-8h96a8 8 0 0 1 8 8v96a8 8 0 0 1-8 8zm-8-96H64v80h80zm-64.172 56v-32a8 8 0 0 1 8-8H120a8 8 0 0 1 8 8v32a8 8 0 0 1-8 8H87.828a8 8 0 0 1-8-8zm16-8H112v-16H95.828zM288 152V56a8 8 0 0 1 8-8h96a8 8 0 0 1 8 8v96a8 8 0 0 1-8 8h-96a8 8 0 0 1-8-8zm16-8h80V64h-80zm64-56v32a8 8 0 0 1-8 8h-32.172a8 8 0 0 1-8-8V88a8 8 0 0 1 8-8H360a8 8 0 0 1 8 8zm-16 8h-16.172v16H352zm141.657 354.343a7.998 7.998 0 0 1 0 11.313l-32 32c-1.562 1.563-3.61 2.344-5.657 2.344s-4.095-.781-5.657-2.343L388.687 432H329a8 8 0 0 1 0-16h43.687l-24.324-24.324C330.619 402.047 309.993 408 288 408c-20.316 0-39.465-5.082-56.254-14.031-.879 3.465-4.009 6.031-7.746 6.031h-40a8 8 0 0 1-8-8v-48a7.98 7.98 0 0 1 2.865-6.131C171.893 322.673 168 305.784 168 288c0-26.993 8.961-51.93 24.061-72H176a8 8 0 0 1 0-16h30.509a120.864 120.864 0 0 1 9.491-7.939V160a8 8 0 0 1 8-8h40a8 8 0 0 1 8 8v9.069A120.507 120.507 0 0 1 288 168c20.316 0 39.465 5.082 56.254 14.031.879-3.464 4.008-6.031 7.746-6.031h40a8 8 0 0 1 8 8v48a7.98 7.98 0 0 1-2.865 6.131C404.107 253.327 408 270.216 408 288c0 21.993-5.953 42.619-16.324 60.363L416 372.687V329a8 8 0 0 1 16 0v59.687zM359.92 192A121.017 121.017 0 0 1 384 216.08V192zM232 181.896a119.204 119.204 0 0 1 24-9.557V168h-24zM216.079 384A121.06 121.06 0 0 1 192 359.921V384zM288 392c57.346 0 104-46.654 104-104s-46.654-104-104-104-104 46.654-104 104 46.654 104 104 104zm73.841-9.473L424 444.686 444.686 424l-62.159-62.16a121.059 121.059 0 0 1-20.686 20.687zM476.686 456 456 435.314 435.314 456 456 476.686zM376 288c0 48.523-39.477 88-88 88s-88-39.477-88-88 39.477-88 88-88 88 39.477 88 88zm-16 0c0-39.701-32.299-72-72-72s-72 32.299-72 72 32.299 72 72 72 72-32.299 72-72zm-72-56a8 8 0 0 0 0 16c22.056 0 40 17.944 40 40a8 8 0 0 0 16 0c0-30.878-25.122-56-56-56zm-104-72v8h-8a8 8 0 0 0 0 16h16a8 8 0 0 0 8-8v-16a8 8 0 0 0-16 0zm-48 48a8 8 0 0 0 8-8v-8a8 8 0 0 0 0-16h-16a8 8 0 0 0 0 16v8a8 8 0 0 0 8 8zm24 56a8 8 0 0 1-8 8H56a8 8 0 0 1-8-8v-80a8 8 0 0 1 8-8h40a8 8 0 0 1 8 8v32a8 8 0 0 1-8 8h56a8 8 0 0 1 8 8zm-16-24H88a8 8 0 0 1-8-8v-16a8 8 0 0 1 8-8v-16H64v64h80zm88-104h-40a8 8 0 0 1-8-8V88a8 8 0 0 1-8-8V56a8 8 0 0 1 8-8h40a8 8 0 0 1 8 8 8 8 0 0 1 8-8h24a8 8 0 0 1 8 8v40a8 8 0 0 1-8 8h-24v24a8 8 0 0 1-8 8zm0-48h24V64h-8a8 8 0 0 1-8 8h-16a8 8 0 0 1-8-8h-24v8a8 8 0 0 1 8 8v40h24V96a8 8 0 0 1 8-8zm96 224a8 8 0 1 0 0 16 8 8 0 0 0 0-16z" fill="#689634" opacity="1" data-original="#000000" class=""></path></g></svg>