<svg xmlns="http://www.w3.org/2000/svg" version="1.1" xmlns:xlink="http://www.w3.org/1999/xlink" width="512" height="512" x="0" y="0" viewBox="0 0 480 480" style="enable-background:new 0 0 512 512" xml:space="preserve" class=""><g><path d="m45.754 455.664 19.894 5.938A434.895 434.895 0 0 0 190.801 480a435.701 435.701 0 0 0 114.586-15.344l32.797-8.937A8.004 8.004 0 0 0 344.05 448V304h16.285a8.002 8.002 0 0 0 7.914-6.855l11.2-77.704a441.35 441.35 0 0 0-11.4-181.57A8 8 0 0 0 360.337 32H344.05c0-17.672-14.328-32-32-32h-240c-17.676 0-32 14.328-32 32H23.76a8 8 0 0 0-7.71 5.871A441.24 441.24 0 0 0 4.617 219.473l11.2 77.703a8.002 8.002 0 0 0 7.913 6.855h16.32V448a7.998 7.998 0 0 0 5.704 7.664zM354.21 48a425.41 425.41 0 0 1 9.437 169.16L353.41 288h-9.36V48zM56.05 32c0-8.836 7.16-16 16-16h240c8.836 0 16 7.164 16 16v409.887l-26.875 7.328a421.325 421.325 0 0 1-230.934-2.91l-14.191-4.258zM30.688 288l-10.239-70.84A425.412 425.412 0 0 1 29.891 48h10.16v240zm0 0" fill="#689634" opacity="1" data-original="#000000"></path><path d="M80.05 152h224a8 8 0 0 0 8-8V48a8 8 0 0 0-8-8h-224a8 8 0 0 0-8 8v96a8 8 0 0 0 8 8zm8-96h208v80h-208zm0 0" fill="#689634" opacity="1" data-original="#000000"></path><path d="M264.05 104h16v16h-16zM232.05 104h16v16h-16zM200.05 104h16v16h-16zM192.05 168c-26.913 0-48 15.816-48 36s21.087 36 48 36c26.91 0 48-15.816 48-36s-21.09-36-48-36zm0 56c-17.343 0-32-9.16-32-20s14.657-20 32-20 32 9.16 32 20-14.655 20-32 20zM120.05 256h-16c-13.257 0-24 10.746-24 24s10.743 24 24 24h16c13.255 0 24-10.746 24-24s-10.745-24-24-24zm0 32h-16a8 8 0 0 1 0-16h16a8 8 0 0 1 0 16zM200.05 256h-16c-13.257 0-24 10.746-24 24s10.743 24 24 24h16c13.255 0 24-10.746 24-24s-10.745-24-24-24zm0 32h-16a8 8 0 0 1 0-16h16a8 8 0 0 1 0 16zM280.05 256h-16c-13.257 0-24 10.746-24 24s10.743 24 24 24h16c13.255 0 24-10.746 24-24s-10.745-24-24-24zm0 32h-16a8 8 0 0 1 0-16h16a8 8 0 0 1 0 16zM120.05 320h-16c-13.257 0-24 10.746-24 24s10.743 24 24 24h16c13.255 0 24-10.746 24-24s-10.745-24-24-24zm0 32h-16a8 8 0 0 1 0-16h16a8 8 0 0 1 0 16zM200.05 320h-16c-13.257 0-24 10.746-24 24s10.743 24 24 24h16c13.255 0 24-10.746 24-24s-10.745-24-24-24zm0 32h-16a8 8 0 0 1 0-16h16a8 8 0 0 1 0 16zM280.05 320h-16c-13.257 0-24 10.746-24 24s10.743 24 24 24h16c13.255 0 24-10.746 24-24s-10.745-24-24-24zm0 32h-16a8 8 0 0 1 0-16h16a8 8 0 0 1 0 16zM120.05 384h-16c-13.257 0-24 10.746-24 24s10.743 24 24 24h16c13.255 0 24-10.746 24-24s-10.745-24-24-24zm0 32h-16a8 8 0 0 1 0-16h16a8 8 0 0 1 0 16zM200.05 384h-16c-13.257 0-24 10.746-24 24s10.743 24 24 24h16c13.255 0 24-10.746 24-24s-10.745-24-24-24zm0 32h-16a8 8 0 0 1 0-16h16a8 8 0 0 1 0 16zM280.05 384h-16c-13.257 0-24 10.746-24 24s10.743 24 24 24h16c13.255 0 24-10.746 24-24s-10.745-24-24-24zm0 32h-16a8 8 0 0 1 0-16h16a8 8 0 0 1 0 16zM72.05 176h32v16h-32zM96.05 208h32v16h-32zM280.05 176h32v16h-32zM256.05 208h32v16h-32zm0 0" fill="#689634" opacity="1" data-original="#000000"></path></g></svg>