<svg xmlns="http://www.w3.org/2000/svg" width="16.228" height="13.189" viewBox="0 0 16.228 13.189">
  <path id="Shape" d="M16.228,1.561a6.643,6.643,0,0,1-1.912.524A3.339,3.339,0,0,0,15.78.243a6.665,6.665,0,0,1-2.114.808A3.332,3.332,0,0,0,7.992,4.088,9.451,9.451,0,0,1,1.13.609,3.333,3.333,0,0,0,2.16,5.054,3.306,3.306,0,0,1,.652,4.638c0,.014,0,.028,0,.042A3.331,3.331,0,0,0,3.323,7.944,3.342,3.342,0,0,1,1.819,8a3.333,3.333,0,0,0,3.11,2.312A6.68,6.68,0,0,1,.794,11.739,6.7,6.7,0,0,1,0,11.692a9.418,9.418,0,0,0,5.1,1.5,9.409,9.409,0,0,0,9.473-9.473c0-.144,0-.288-.01-.431a6.752,6.752,0,0,0,1.662-1.723Z" fill="#fff"/>
</svg>
