<svg width="57" height="72" viewBox="0 0 57 72" fill="none" xmlns="http://www.w3.org/2000/svg">
<path d="M41.0766 43.9734C40.5141 43.9734 40.05 43.5093 40.05 42.9468V29.039C40.05 28.4765 40.5141 28.0125 41.0766 28.0125C41.6391 28.0125 42.1032 28.4765 42.1032 29.039V42.9468C42.1032 43.5234 41.6391 43.9734 41.0766 43.9734Z" fill="#689634"/>
<path d="M34.4953 72H7.60781C3.41719 72 0 68.5828 0 64.3922V7.60781C0 3.41719 3.41719 0 7.60781 0H34.4953C38.6859 0 42.1031 3.41719 42.1031 7.60781V15.3562C42.1031 15.9187 41.6391 16.3828 41.0766 16.3828C40.5141 16.3828 40.05 15.9187 40.05 15.3562V7.60781C40.05 4.54219 37.5609 2.05313 34.4953 2.05313H7.60781C4.54219 2.05313 2.05313 4.54219 2.05313 7.60781V64.4062C2.05313 67.4719 4.54219 69.9609 7.60781 69.9609H34.4953C37.5609 69.9609 40.05 67.4719 40.05 64.4062V56.4328C40.05 55.8703 40.5141 55.4062 41.0766 55.4062C41.6391 55.4062 42.1031 55.8703 42.1031 56.4328V64.4062C42.1031 68.5828 38.6859 72 34.4953 72Z" fill="#689634"/>
<path d="M25.5937 9.37964H16.5093C15.0749 9.37964 13.9077 8.21245 13.9077 6.77808C13.9077 5.3437 15.0749 4.17651 16.5093 4.17651H25.5937C27.028 4.17651 28.1952 5.3437 28.1952 6.77808C28.1952 8.21245 27.028 9.37964 25.5937 9.37964ZM16.5093 6.22964C16.1999 6.22964 15.9608 6.48276 15.9608 6.77808C15.9608 7.08745 16.214 7.32651 16.5093 7.32651H25.5937C25.903 7.32651 26.1421 7.07339 26.1421 6.77808C26.1421 6.4687 25.889 6.22964 25.5937 6.22964H16.5093Z" fill="#689634"/>
<path d="M28.4063 66.2765H13.697C13.1345 66.2765 12.6704 65.8124 12.6704 65.2499C12.6704 64.6874 13.1345 64.2234 13.697 64.2234H28.4063C28.9688 64.2234 29.4329 64.6874 29.4329 65.2499C29.4188 65.8265 28.9688 66.2765 28.4063 66.2765Z" fill="#689634"/>
<path d="M27.211 32.85C26.8313 32.85 26.4797 32.6391 26.2969 32.2875C26.0438 31.7813 26.2407 31.1625 26.7469 30.9094L38.1657 25.1719C38.6719 24.9188 39.2907 25.1157 39.5438 25.6219C39.7969 26.1282 39.6 26.7469 39.0938 27L27.675 32.7375C27.5203 32.8219 27.3657 32.85 27.211 32.85Z" fill="#689634"/>
<path d="M38.5874 47.039C38.4327 47.039 38.278 46.9968 38.1233 46.9265L26.6905 41.175C26.1843 40.9218 25.9874 40.3031 26.2405 39.7968C26.4936 39.2906 27.1124 39.0937 27.6186 39.3468L39.0515 45.0984C39.5577 45.3515 39.7546 45.9703 39.5015 46.4765C39.3186 46.8281 38.9671 47.039 38.5874 47.039Z" fill="#689634"/>
<path d="M19.6313 34.1577C16.8188 34.1577 14.0766 33.7218 11.672 32.8921C11.1376 32.7093 10.8563 32.1187 11.0391 31.5843C11.222 31.0499 11.8126 30.7687 12.347 30.9515C14.5407 31.7109 17.0579 32.1046 19.6454 32.1046C22.2329 32.1046 24.7501 31.7109 26.9438 30.9515C27.4782 30.7687 28.0688 31.0499 28.2516 31.5843C28.4345 32.1187 28.1532 32.7093 27.6188 32.8921C25.186 33.7218 22.4298 34.1577 19.6313 34.1577Z" fill="#689634"/>
<path d="M27.2672 41.1047C27.1547 41.1047 27.0422 41.0906 26.9297 41.0484C24.7359 40.289 22.2187 39.8953 19.6312 39.8953C17.0437 39.8953 14.5265 40.289 12.3328 41.0484C11.7984 41.2312 11.2078 40.95 11.025 40.4156C10.8422 39.8812 11.1234 39.2906 11.6578 39.1078C14.0625 38.2781 16.8187 37.8422 19.6172 37.8422C22.4156 37.8422 25.1719 38.2781 27.5765 39.1078C28.1109 39.2906 28.3922 39.8812 28.2094 40.4156C28.0828 40.8375 27.689 41.1047 27.2672 41.1047Z" fill="#689634"/>
<path d="M19.6312 45.675C16.7905 45.675 15.314 40.8093 15.314 36C15.314 31.1906 16.8046 26.325 19.6312 26.325C22.4577 26.325 23.9483 31.1906 23.9483 36C23.9483 40.8093 22.4718 45.675 19.6312 45.675ZM19.6312 28.3781C19.364 28.3781 18.7874 28.8703 18.253 30.2484C17.6765 31.7671 17.353 33.8062 17.353 36C17.353 38.1937 17.6765 40.2328 18.253 41.7515C18.7733 43.1296 19.364 43.6218 19.6312 43.6218C19.8983 43.6218 20.4749 43.1296 21.0093 41.7515C21.5858 40.2328 21.9093 38.1937 21.9093 36C21.9093 33.8062 21.5858 31.7671 21.0093 30.2484C20.4749 28.8703 19.8983 28.3781 19.6312 28.3781Z" fill="#689634"/>
<path d="M51.9328 29.8407C51.5812 29.8407 51.2437 29.6578 51.0469 29.3344C50.3015 28.0969 48.4172 27.2672 46.364 27.2672C44.2969 27.2672 42.4125 28.0969 41.6672 29.3344C41.3719 29.8266 40.7531 29.9813 40.2609 29.686C39.7687 29.3907 39.614 28.7719 39.9094 28.2797C41.0203 26.4094 43.5515 25.2141 46.364 25.2141C49.1625 25.2141 51.6937 26.4235 52.8187 28.2797C53.114 28.7719 52.9453 29.3907 52.4672 29.686C52.2984 29.7985 52.1156 29.8407 51.9328 29.8407ZM46.3078 24.0891C44.1984 24.0891 42.4828 22.3735 42.4828 20.2641C42.4828 18.1547 44.1984 16.4391 46.3078 16.4391C48.4172 16.4391 50.1328 18.1547 50.1328 20.2641C50.1328 22.3735 48.4172 24.0891 46.3078 24.0891ZM46.3078 18.4781C45.3234 18.4781 44.5219 19.2797 44.5219 20.2641C44.5219 21.2485 45.3234 22.05 46.3078 22.05C47.2922 22.05 48.0937 21.2485 48.0937 20.2641C48.0937 19.2797 47.2922 18.4781 46.3078 18.4781Z" fill="#689634"/>
<path d="M19.6313 45.675C14.3016 45.675 9.9563 41.3296 9.9563 36C9.9563 30.6703 14.3016 26.325 19.6313 26.325C24.961 26.325 29.3063 30.6703 29.3063 36C29.3063 41.3296 24.961 45.675 19.6313 45.675ZM19.6313 28.3781C15.4266 28.3781 12.0094 31.7953 12.0094 36C12.0094 40.2046 15.4266 43.6218 19.6313 43.6218C23.836 43.6218 27.2532 40.2046 27.2532 36C27.2532 31.7953 23.836 28.3781 19.6313 28.3781Z" fill="#689634"/>
<path d="M46.364 59.4704C41.0343 59.4704 36.689 55.1251 36.689 49.7954C36.689 44.4657 41.0343 40.1204 46.364 40.1204C51.6937 40.1204 56.039 44.4657 56.039 49.7954C56.039 55.1251 51.7077 59.4704 46.364 59.4704ZM46.364 42.1735C42.1593 42.1735 38.7421 45.5907 38.7421 49.7954C38.7421 54.0001 42.1593 57.4172 46.364 57.4172C50.5687 57.4172 53.9858 54.0001 53.9858 49.7954C53.9999 45.5907 50.5687 42.1735 46.364 42.1735Z" fill="#689634"/>
<path d="M48.2632 47.8346C48.1909 47.8343 48.1201 47.8147 48.0579 47.778C47.9958 47.7413 47.9444 47.6887 47.9093 47.6256C47.8741 47.5626 47.8563 47.4913 47.8577 47.4191C47.8591 47.3469 47.8797 47.2764 47.9174 47.2147L47.942 47.1734C48.0349 47.0098 48.0897 46.8272 48.102 46.6394C48.1143 46.4515 48.0839 46.2634 48.0131 46.089C47.9953 46.1239 47.9761 46.1598 47.9556 46.1968C47.8049 46.4582 47.5985 46.6833 47.3509 46.8558C47.1033 47.0283 46.8207 47.1441 46.5233 47.1948C46.4704 47.2048 46.416 47.2041 46.3633 47.1929C46.3107 47.1816 46.2608 47.1601 46.2165 47.1295C46.1722 47.0988 46.1344 47.0597 46.1053 47.0144C46.0763 46.9691 46.0564 46.9185 46.047 46.8654C46.0376 46.8124 46.0388 46.7581 46.0505 46.7055C46.0623 46.653 46.0843 46.6033 46.1154 46.5593C46.1464 46.5153 46.1859 46.4779 46.2315 46.4493C46.2771 46.4206 46.3279 46.4013 46.381 46.3924C46.6644 46.3457 46.9225 46.2014 47.1107 45.9844C47.2989 45.7675 47.4053 45.4915 47.4115 45.2044C47.4131 45.1303 47.4347 45.0581 47.4742 44.9955C47.5137 44.9328 47.5696 44.8821 47.6358 44.8488C47.7019 44.8155 47.7759 44.8009 47.8498 44.8065C47.9236 44.8121 47.9946 44.8377 48.0549 44.8806C48.471 45.1769 48.7622 45.6171 48.8721 46.116C48.982 46.6148 48.9028 47.1367 48.6497 47.5804C48.6372 47.6018 48.6241 47.6249 48.61 47.6468C48.5728 47.7049 48.5214 47.7526 48.4608 47.7855C48.4001 47.8183 48.3321 47.8352 48.2632 47.8346Z" fill="#689634"/>
<path d="M43.8848 47.8346C43.8154 47.8346 43.7472 47.817 43.6866 47.7833C43.626 47.7496 43.575 47.701 43.5384 47.6421C43.5243 47.6196 43.5112 47.5971 43.4987 47.5751C43.2457 47.1314 43.1664 46.6096 43.2763 46.1107C43.3862 45.6119 43.6774 45.1717 44.0935 44.8754C44.1539 44.8325 44.2248 44.8068 44.2986 44.8012C44.3725 44.7956 44.4465 44.8102 44.5127 44.8435C44.5788 44.8768 44.6347 44.9275 44.6742 44.9902C44.7137 45.0529 44.7354 45.1251 44.7369 45.1992C44.7431 45.4863 44.8495 45.7622 45.0377 45.9792C45.2259 46.1962 45.4841 46.3405 45.7674 46.3871C45.8205 46.396 45.8713 46.4154 45.9169 46.444C45.9625 46.4727 46.002 46.51 46.0331 46.554C46.0641 46.598 46.0861 46.6477 46.0979 46.7003C46.1096 46.7528 46.1108 46.8072 46.1014 46.8602C46.092 46.9132 46.0722 46.9639 46.0431 47.0092C46.014 47.0545 45.9762 47.0936 45.9319 47.1242C45.8877 47.1548 45.8378 47.1764 45.7851 47.1876C45.7324 47.1988 45.6781 47.1995 45.6251 47.1896C45.3274 47.1387 45.0447 47.0228 44.797 46.8499C44.5493 46.6771 44.3428 46.4518 44.1923 46.1899C44.1721 46.1551 44.1529 46.1191 44.1348 46.0822C44.1088 46.1464 44.0882 46.2128 44.0731 46.2804C44.0051 46.5831 44.0527 46.9003 44.2065 47.1697L44.2305 47.2105C44.2688 47.2722 44.29 47.343 44.2917 47.4156C44.2935 47.4882 44.2759 47.5599 44.2406 47.6234C44.2053 47.6869 44.1538 47.7398 44.0912 47.7766C44.0286 47.8135 43.9574 47.833 43.8848 47.833V47.8346Z" fill="#689634"/>
<path d="M48.9999 49.3186C48.8942 49.319 48.7924 49.2784 48.7161 49.2052C48.6398 49.1321 48.5949 49.0321 48.5909 48.9265C48.5869 48.8209 48.6241 48.7178 48.6946 48.6391C48.7652 48.5604 48.8635 48.5122 48.969 48.5046C49.1713 48.5021 49.3671 48.4326 49.5256 48.3069C49.6169 48.2674 49.6972 48.2062 49.7594 48.1286C49.8217 48.051 49.864 47.9593 49.8826 47.8616C49.9013 47.7639 49.8957 47.6631 49.8664 47.568C49.8371 47.4729 49.785 47.3865 49.7146 47.3162C49.6442 47.2459 49.5577 47.1939 49.4626 47.1647C49.3675 47.1356 49.2666 47.1301 49.1689 47.1489C49.0713 47.1677 48.9797 47.2101 48.9021 47.2724C48.8246 47.3348 48.7635 47.4151 48.7242 47.5065C48.6879 47.5434 48.6574 47.5856 48.6337 47.6315C48.5812 47.7236 48.4951 47.7917 48.3934 47.8214C48.2917 47.8512 48.1825 47.8402 48.0887 47.791C47.9949 47.7417 47.9239 47.6579 47.8907 47.5573C47.8575 47.4567 47.8647 47.3472 47.9107 47.2517C47.9725 47.1331 48.0519 47.0244 48.1461 46.9295C48.3209 46.7733 48.5252 46.6537 48.7469 46.5777C48.9686 46.5017 49.2033 46.4708 49.4372 46.487H49.4497C49.6898 46.4882 49.9292 46.5147 50.1638 46.5659C50.2371 46.5834 50.3041 46.6209 50.3574 46.6742C50.4107 46.7275 50.4481 46.7945 50.4656 46.8678C50.5168 47.1024 50.5433 47.3417 50.5446 47.5818C50.562 47.8174 50.5317 48.054 50.4557 48.2776C50.3796 48.5012 50.2594 48.7072 50.1021 48.8833C49.8097 49.153 49.4294 49.3073 49.0318 49.3175H48.9999V49.3186Z" fill="#689634"/>
<path d="M43.1496 49.3189H43.1177C42.7201 49.3084 42.3398 49.1542 42.0474 48.8847C41.8901 48.7085 41.7699 48.5025 41.6938 48.2789C41.6178 48.0553 41.5875 47.8187 41.6048 47.5832C41.6062 47.3431 41.6327 47.1037 41.6838 46.8691C41.7013 46.7958 41.7388 46.7288 41.792 46.6755C41.8453 46.6222 41.9123 46.5848 41.9856 46.5673C42.2203 46.5161 42.4596 46.4896 42.6997 46.4883H42.7123C42.9461 46.4722 43.1808 46.503 43.4025 46.579C43.6243 46.655 43.8285 46.7747 44.0033 46.9309C44.0981 47.0265 44.1778 47.1361 44.2397 47.2557C44.2859 47.3512 44.293 47.4608 44.2597 47.5614C44.2264 47.6621 44.1552 47.7458 44.0613 47.7949C43.9673 47.8439 43.858 47.8545 43.7563 47.8244C43.6547 47.7943 43.5688 47.7258 43.5168 47.6334C43.493 47.5868 43.4623 47.5442 43.4258 47.5068C43.3864 47.4155 43.3252 47.3352 43.2477 47.273C43.1701 47.2108 43.0785 47.1684 42.9808 47.1498C42.8832 47.1311 42.7824 47.1366 42.6873 47.1657C42.5923 47.1949 42.5058 47.247 42.4355 47.3172C42.3651 47.3875 42.313 47.474 42.2838 47.569C42.2545 47.6641 42.249 47.7648 42.2676 47.8625C42.2862 47.9602 42.3285 48.0518 42.3907 48.1294C42.4529 48.207 42.5331 48.2682 42.6244 48.3077C42.7829 48.4333 42.9787 48.5029 43.181 48.5054C43.2864 48.513 43.3848 48.5612 43.4553 48.6399C43.5259 48.7186 43.563 48.8217 43.559 48.9273C43.555 49.033 43.5101 49.1329 43.4338 49.206C43.3575 49.2792 43.2558 49.3198 43.1501 49.3194L43.1496 49.3189Z" fill="#689634"/>
<path d="M48.511 54.1615H43.6393C43.2423 54.1608 42.8617 54.0028 42.581 53.7221C42.3003 53.4413 42.1423 53.0608 42.1416 52.6638V52.2641C42.1423 51.8671 42.3003 51.4866 42.581 51.2059C42.8617 50.9252 43.2423 50.7672 43.6393 50.7665H48.511C48.908 50.7672 49.2886 50.9252 49.5693 51.2059C49.85 51.4866 50.008 51.8671 50.0087 52.2641V52.6638C50.0087 53.061 49.8509 53.442 49.57 53.7228C49.2892 54.0037 48.9082 54.1615 48.511 54.1615ZM43.6393 51.5794C43.458 51.5797 43.2843 51.6518 43.1561 51.7799C43.028 51.9081 42.9558 52.0818 42.9556 52.2631V52.6628C42.9557 52.8441 43.0278 53.0179 43.156 53.1461C43.2842 53.2743 43.458 53.3463 43.6393 53.3465H48.511C48.6008 53.3465 48.6897 53.3288 48.7727 53.2944C48.8556 53.2601 48.931 53.2097 48.9945 53.1462C49.058 53.0827 49.1083 53.0074 49.1427 52.9244C49.1771 52.8415 49.1947 52.7526 49.1947 52.6628V52.2631C49.1945 52.0818 49.1223 51.9081 48.9942 51.7799C48.866 51.6518 48.6923 51.5797 48.511 51.5794H43.6393Z" fill="#689634"/>
<path d="M47.2386 50.0513C47.1305 50.0513 47.0268 50.0084 46.9504 49.932C46.874 49.8556 46.8311 49.7519 46.8311 49.6438V49.1704C46.8311 49.0624 46.874 48.9587 46.9504 48.8823C47.0268 48.8059 47.1305 48.7629 47.2386 48.7629C47.3466 48.7629 47.4503 48.8059 47.5267 48.8823C47.6031 48.9587 47.6461 49.0624 47.6461 49.1704V49.6438C47.6461 49.7519 47.6031 49.8556 47.5267 49.932C47.4503 50.0084 47.3466 50.0513 47.2386 50.0513Z" fill="#689634"/>
<path d="M44.9114 50.0513C44.8033 50.0513 44.6997 50.0084 44.6233 49.932C44.5468 49.8556 44.5039 49.7519 44.5039 49.6438V49.1704C44.5039 49.0624 44.5468 48.9587 44.6233 48.8823C44.6997 48.8059 44.8033 48.7629 44.9114 48.7629C45.0195 48.7629 45.1231 48.8059 45.1996 48.8823C45.276 48.9587 45.3189 49.0624 45.3189 49.1704V49.6438C45.3189 49.7519 45.276 49.8556 45.1996 49.932C45.1231 50.0084 45.0195 50.0513 44.9114 50.0513Z" fill="#689634"/>
<path d="M47.663 52.8018H47.6029L47.583 52.7981L47.5631 52.794L47.5438 52.7882L47.5249 52.7819L47.5061 52.7746L47.4883 52.7662L47.47 52.7573L47.4522 52.7474L47.4349 52.7364L47.4182 52.7249L47.402 52.7124L47.3868 52.6993L47.3722 52.6852L47.3581 52.6705L47.345 52.6548L47.3324 52.6391L47.3209 52.6224L47.3099 52.6051L47.3 52.5873L47.2911 52.5695C47.288 52.5636 47.2852 52.5575 47.2827 52.5512L47.2754 52.5324C47.2742 52.5257 47.2721 52.5192 47.2691 52.5131C47.2691 52.5063 47.2655 52.5 47.2639 52.4942L47.2592 52.4744C47.259 52.4676 47.2578 52.4609 47.2555 52.4545C47.2519 52.4477 47.2555 52.4409 47.2555 52.4341C47.2542 52.4273 47.2542 52.4204 47.2555 52.4137V52.353C47.2543 52.3464 47.2543 52.3397 47.2555 52.3331C47.2555 52.3268 47.2555 52.3195 47.2592 52.3132C47.2618 52.3069 47.2634 52.3002 47.2639 52.2934C47.2653 52.287 47.2671 52.2807 47.2691 52.2745L47.2754 52.2557C47.2754 52.2494 47.2801 52.2431 47.2827 52.2368C47.2852 52.2306 47.288 52.2245 47.2911 52.2186L47.3 52.2008L47.3099 52.183L47.3209 52.1657L47.3324 52.149L47.345 52.1328L47.3581 52.1176L47.3722 52.1029L47.3868 52.0888L47.402 52.0757L47.4182 52.0632L47.4349 52.0517L47.4522 52.0407L47.47 52.0307L47.4883 52.0218L47.5061 52.0135L47.5249 52.0062L47.5438 51.9999L47.5631 51.9941L47.583 51.9899L47.6029 51.9863H47.6426C47.656 51.9855 47.6695 51.9855 47.6829 51.9863H47.7227L47.7425 51.9899L47.7624 51.9941L47.7813 51.9999L47.8001 52.0062L47.8189 52.0135L47.8367 52.0218L47.8545 52.0307L47.8723 52.0407L47.8895 52.0517L47.9063 52.0632L47.922 52.0757L47.9371 52.0888L47.9518 52.1029L47.9659 52.1176L47.979 52.1328L47.9915 52.149L48.003 52.1657L48.014 52.183L48.024 52.2008L48.0334 52.2186C48.0365 52.2245 48.0391 52.2306 48.0412 52.2368C48.0412 52.2431 48.0465 52.2494 48.0486 52.2557L48.0548 52.2745L48.0601 52.2934C48.0609 52.3001 48.0625 52.3068 48.0648 52.3132C48.065 52.32 48.0662 52.3267 48.0684 52.3331C48.0721 52.3399 48.0684 52.3467 48.0684 52.353V52.454C48.069 52.4608 48.0678 52.4676 48.0648 52.4738C48.0622 52.4802 48.0606 52.4869 48.0601 52.4937L48.0548 52.5125C48.0538 52.5193 48.0517 52.5258 48.0486 52.5319C48.0486 52.5382 48.0438 52.5445 48.0412 52.5507L48.0334 52.569L48.024 52.5868L48.014 52.6046L48.003 52.6219L47.9915 52.6386L47.979 52.6543L47.9659 52.67L47.9518 52.6846L47.9371 52.6988L47.922 52.7118L47.9063 52.7244L47.8895 52.7359L47.8723 52.7469L47.8545 52.7568L47.8367 52.7657L47.8189 52.7741L47.8001 52.7814L47.7813 52.7877L47.7624 52.7935L47.7425 52.7976L47.7227 52.8013H47.6829L47.663 52.8018Z" fill="#689634"/>
<path d="M44.4863 52.802H44.446H44.4261L44.4062 52.7983L44.3864 52.7942L44.367 52.7889L44.3482 52.7826L44.3293 52.7753L44.311 52.767L44.2932 52.758L44.2754 52.7481L44.2582 52.7371L44.2414 52.7256L44.2258 52.7131L44.2106 52.7L44.1959 52.6859L44.1818 52.6712L44.1687 52.656L44.1562 52.6398L44.1447 52.6231L44.1337 52.6058L44.1237 52.5881L44.1143 52.5697C44.1143 52.564 44.1086 52.5577 44.106 52.5514C44.1033 52.5452 44.1007 52.5389 44.0986 52.5326L44.0924 52.5138C44.0924 52.5075 44.0887 52.5007 44.0871 52.4949C44.0855 52.4892 44.084 52.4818 44.0829 52.4761C44.083 52.4693 44.0818 52.4625 44.0793 52.4562C44.0756 52.4499 44.0793 52.4426 44.0793 52.4358V52.3359C44.0787 52.3291 44.08 52.3222 44.0829 52.316C44.0853 52.3097 44.0868 52.3029 44.0871 52.2961C44.0871 52.2893 44.0908 52.2831 44.0924 52.2773C44.0939 52.2715 44.0966 52.2642 44.0986 52.2579C44.1007 52.2517 44.1033 52.2454 44.106 52.2391C44.1084 52.2329 44.1112 52.2268 44.1143 52.2208L44.1237 52.2025L44.1321 52.1847L44.1431 52.1675L44.1546 52.1507L44.1672 52.1345L44.1802 52.1193L44.1944 52.1047L44.209 52.0905L44.2242 52.0769L44.2399 52.0644L44.2603 52.056L44.2775 52.0451L44.2953 52.0351L44.3131 52.0262L44.3314 52.0184L44.3502 52.011L44.3691 52.0048L44.3879 51.9996L44.4078 51.9953L44.4277 51.9917H44.5475L44.5674 51.9953L44.5872 51.9996L44.6066 52.0048L44.6254 52.011L44.6442 52.0184L44.662 52.0262L44.6803 52.0351L44.6981 52.0451L44.7154 52.056L44.7321 52.0675L44.7478 52.0801L44.763 52.0937L44.7776 52.1078L44.7917 52.1225L44.8048 52.1376L44.8174 52.1539L44.8289 52.1706L44.8399 52.1879L44.8498 52.2057L44.8587 52.2239L44.8671 52.2423L44.8744 52.2611C44.8756 52.2678 44.8777 52.2743 44.8807 52.2805L44.8859 52.2993C44.8868 52.306 44.8882 52.3126 44.8901 52.3192C44.8901 52.326 44.8901 52.3322 44.8938 52.339C44.8943 52.3457 44.8943 52.3523 44.8938 52.3589V52.4594C44.8943 52.4662 44.8931 52.4731 44.8901 52.4792C44.8878 52.4853 44.8864 52.4916 44.8859 52.4981L44.8807 52.5169C44.8796 52.5234 44.8774 52.5298 44.8744 52.5357L44.8671 52.5546L44.8587 52.5729L44.8498 52.5912L44.8399 52.609L44.8289 52.6262L44.8174 52.643L44.8048 52.6592L44.7917 52.6744L44.7776 52.689L44.763 52.7031L44.7478 52.7162L44.7321 52.7288L44.7154 52.7403L44.6981 52.7512L44.6803 52.7612L44.662 52.7701L44.6442 52.7784L44.6254 52.7858L44.6066 52.792L44.5872 52.7973L44.5674 52.8015L44.5475 52.8051H44.5276H44.5072L44.4863 52.802Z" fill="#689634"/>
<path d="M43.1482 51.6705C43.0402 51.6705 42.9365 51.6276 42.8601 51.5512C42.7837 51.4747 42.7407 51.3711 42.7407 51.263V49.1706C42.7407 48.4309 43.0345 47.7216 43.5575 47.1986C44.0805 46.6757 44.7898 46.3818 45.5295 46.3818H46.6191C47.3587 46.3818 48.068 46.6757 48.591 47.1986C49.114 47.7216 49.4078 48.4309 49.4078 49.1706V49.3625C49.4078 49.4706 49.3649 49.5743 49.2885 49.6507C49.2121 49.7271 49.1084 49.77 49.0003 49.77C48.8922 49.77 48.7886 49.7271 48.7122 49.6507C48.6357 49.5743 48.5928 49.4706 48.5928 49.3625V49.1706C48.5924 48.6477 48.3846 48.1464 48.0149 47.7767C47.6453 47.4069 47.144 47.199 46.6212 47.1984H45.5279C45.0051 47.199 44.5039 47.4069 44.1342 47.7765C43.7644 48.1461 43.5564 48.6473 43.5557 49.17V51.2625C43.5557 51.3161 43.5452 51.3691 43.5247 51.4186C43.5042 51.468 43.4741 51.513 43.4362 51.5508C43.3983 51.5887 43.3533 51.6187 43.3038 51.6391C43.2543 51.6596 43.2013 51.6701 43.1477 51.67L43.1482 51.6705Z" fill="#689634"/>
<path d="M46.364 31.8797C41.0343 31.8797 36.689 27.5344 36.689 22.2047C36.689 16.875 41.0343 12.5297 46.364 12.5297C51.6937 12.5297 56.039 16.875 56.039 22.2047C56.039 27.5344 51.7077 31.8797 46.364 31.8797ZM46.364 14.5687C42.1593 14.5687 38.7421 17.9859 38.7421 22.1906C38.7421 26.3953 42.1593 29.8125 46.364 29.8125C50.5687 29.8125 53.9858 26.3953 53.9858 22.1906C53.9999 18 50.5687 14.5687 46.364 14.5687Z" fill="#689634"/>
</svg>
