<svg xmlns="http://www.w3.org/2000/svg" version="1.1" xmlns:xlink="http://www.w3.org/1999/xlink" width="512" height="512" x="0" y="0" viewBox="0 0 64 64" style="enable-background:new 0 0 512 512" xml:space="preserve"><g><g data-name="Layer 13"><path d="M61 60h-4V39.9a5.017 5.017 0 0 0 4-4.9v-4a.967.967 0 0 0-.17-.55L57 24.7V17a3.009 3.009 0 0 0-3-3H40.31a8.612 8.612 0 0 0 .69-3 9 9 0 0 0-18 0 8.612 8.612 0 0 0 .69 3H10a3.009 3.009 0 0 0-3 3v7.7l-3.83 5.75A.967.967 0 0 0 3 31v4a5.017 5.017 0 0 0 4 4.9V60H3a1 1 0 0 0 0 2h58a1 1 0 0 0 0-2Zm-2.87-30h-5.51l-2-4h4.84ZM45 32h6v3a3 3 0 0 1-6 0Zm-.28-2-1.33-4h4.99l2 4ZM54 16a1 1 0 0 1 1 1v7H34.08a55.945 55.945 0 0 0 5.31-8ZM37 32h6v3a3 3 0 0 1-6 0Zm-.15-2-.42-2.5-.25-1.5h5.1l1.33 4ZM35 32v3a3 3 0 0 1-6 0v-3Zm-5.82-2 .25-1.5.42-2.5h4.3l.42 2.5.25 1.5ZM32 4a7.008 7.008 0 0 1 7 7 8.992 8.992 0 0 1-1.12 3.56c-.01.03-.03.05-.04.08A56.578 56.578 0 0 1 32 23.41a56.578 56.578 0 0 1-5.84-8.77c-.01-.03-.03-.05-.04-.08A8.992 8.992 0 0 1 25 11a7.008 7.008 0 0 1 7-7ZM9 17a1 1 0 0 1 1-1h14.61a55.945 55.945 0 0 0 5.31 8H9Zm4.87 13 2.67-4h4.84l-2 4ZM19 32v3a3 3 0 0 1-6 0v-3Zm2 0h6v3a3 3 0 0 1-6 0Zm.62-2 2-4h4.2l-.67 4ZM8.54 26h5.59l-2.67 4H5.87ZM5 35v-3h6v3a3 3 0 0 1-6 0Zm26 25H17V44h14Zm16 0H33V44h14Zm8 0h-6V43a1 1 0 0 0-1-1H16a1 1 0 0 0-1 1v17H9V39.9a4.977 4.977 0 0 0 3-1.93 4.956 4.956 0 0 0 8 0 4.956 4.956 0 0 0 8 0 4.956 4.956 0 0 0 8 0 4.956 4.956 0 0 0 8 0 4.956 4.956 0 0 0 8 0 4.977 4.977 0 0 0 3 1.93Zm-2-25v-3h6v3a3 3 0 0 1-6 0Z" fill="#689634" opacity="1" data-original="#000000"></path><path d="M32 15a4 4 0 1 0-4-4 4 4 0 0 0 4 4Zm0-6a2 2 0 1 1-2 2 2 2 0 0 1 2-2Z" fill="#689634" opacity="1" data-original="#000000"></path></g></g></svg>