<svg width="52" height="52" viewBox="0 0 52 52" fill="none" xmlns="http://www.w3.org/2000/svg">
<path d="M25.0736 34.964C24.7959 34.964 24.5182 34.8582 24.306 34.6467L15.9449 26.3084C14.9625 25.2532 16.4234 23.79 17.48 24.7691L25.8411 33.1074C26.5291 33.7828 26.0248 34.9742 25.0736 34.964Z" fill="#689634"/>
<path d="M50.2753 8.66913L47.7846 6.17837C47.7488 6.12847 47.7093 6.08035 47.664 6.03578C47.6231 5.99547 47.5791 5.96029 47.5339 5.92778L44.6146 3.00865C44.5942 2.98424 44.5732 2.96013 44.5503 2.93721C44.5254 2.91221 44.4993 2.88889 44.4727 2.86675L41.9246 0.318385C41.5001 -0.106128 40.8118 -0.106128 40.3873 0.318385C39.9629 0.742899 39.9629 1.43115 40.3873 1.85567L42.2376 3.706L34.1614 11.7475L32.4457 10.032C32.4167 9.99386 32.3847 9.9573 32.3499 9.92241C32.3147 9.88724 32.2778 9.85492 32.2392 9.82557L30.9365 8.52288C30.512 8.09837 29.8238 8.09837 29.3992 8.52288C28.9748 8.9474 28.9748 9.63565 29.3992 10.0602L30.036 10.6969L9.9149 30.7908C9.71075 30.9946 9.59603 31.2713 9.59603 31.5599V34.3434C9.59603 34.6318 9.71055 34.9081 9.91441 35.112L10.3756 35.5732L8.52259 37.4021C7.49905 38.4257 7.29035 39.9594 7.89481 41.1921L0.319969 48.7366C-0.105434 49.1602 -0.106818 49.8484 0.316806 50.2737C0.740431 50.6991 1.42868 50.7004 1.85399 50.2769L9.44237 42.7192C10.6873 43.3054 12.1848 43.075 13.1882 42.0742L15.0401 40.2377L15.4816 40.6792C15.6855 40.883 15.962 40.9976 16.2502 40.9976H19.0337C19.3219 40.9976 19.5982 40.8832 19.802 40.6795L39.9186 20.5792L40.5336 21.1944C40.9582 21.6189 41.6464 21.6189 42.0709 21.1944C42.4953 20.7698 42.4953 20.0816 42.0709 19.6571L38.897 16.4832L46.8958 8.36418L48.7379 10.2063C49.1625 10.6308 49.8507 10.6308 50.2752 10.2063C50.6997 9.7818 50.6997 9.09364 50.2753 8.66913ZM11.6542 40.5338C10.5595 41.5496 9.0473 40.0364 10.0548 38.9446L11.9129 37.1107L13.5028 38.7006L11.6542 40.5338ZM36.2063 21.2154L34.7261 19.735C34.3016 19.3104 33.6134 19.3104 33.1889 19.735C32.7644 20.1595 32.7644 20.8477 33.1889 21.2722L34.6686 22.752L32.4971 24.9217L31.9763 24.408C31.5489 23.9864 30.8606 23.9912 30.4391 24.4186C30.0175 24.846 30.0224 25.5343 30.4498 25.9558L30.9593 26.4583L28.7854 28.6304L27.3008 27.1554C26.8749 26.7323 26.1866 26.7346 25.7636 27.1604C25.3405 27.5863 25.3428 28.2744 25.7685 28.6976L27.2475 30.167L21.3574 36.0523L19.8791 34.5793C19.4538 34.1557 18.7657 34.1568 18.3418 34.5821C17.9181 35.0074 17.9194 35.6955 18.3446 36.1192L19.8195 37.5888L18.5838 38.8235H16.7005L12.7343 34.8574C12.721 34.8422 12.7083 34.8267 12.694 34.8122C12.6753 34.7933 12.6557 34.7763 12.636 34.759L11.7701 33.8931V32.0105L31.5735 12.2338L33.317 13.9773C33.3617 14.0321 33.4136 14.0841 33.4683 14.1286L36.4562 17.1165C36.4949 17.1729 36.5391 17.2267 36.5896 17.2764C36.6354 17.3216 36.6848 17.3609 36.7358 17.3962L38.3814 19.0418L36.2063 21.2154ZM37.3599 14.9459L35.6986 13.2846L43.7748 5.24308L45.3586 6.8269L37.3599 14.9459Z" fill="#689634"/>
<path d="M41.4658 51.9992C33.5772 52.0974 28.3525 43.2627 32.2263 36.4048C31.9973 35.5511 31.7683 34.6974 31.5393 33.8429C31.3654 33.1902 31.5557 32.4917 32.0357 32.0187C32.5148 31.5465 33.2121 31.3649 33.8576 31.5436C34.7066 31.771 35.5554 31.9988 36.4044 32.2266C43.2641 28.352 52.0975 33.5778 51.9992 41.4659C51.9993 47.2739 47.274 51.9992 41.4658 51.9992ZM33.953 33.9532C34.16 34.7253 34.3671 35.4975 34.5744 36.2699C34.6563 36.5752 34.6091 36.9008 34.4439 37.1703C33.6532 38.4595 33.2352 39.9449 33.2352 41.4658C33.6477 52.3681 49.2841 52.3685 49.6966 41.4656C49.777 35.1305 42.5213 31.0693 37.1698 34.444C36.9003 34.6092 36.5747 34.6565 36.2694 34.5746C35.4973 34.3674 34.7251 34.1603 33.953 33.9532Z" fill="#689634"/>
<path d="M44.1669 39.6311C44.0766 39.6307 43.9881 39.6063 43.9104 39.5604C43.8327 39.5145 43.7685 39.4487 43.7245 39.3699C43.6805 39.2911 43.6583 39.202 43.6601 39.1117C43.6619 39.0215 43.6876 38.9333 43.7347 38.8563L43.7654 38.8046C43.8816 38.6001 43.95 38.3718 43.9654 38.1371C43.9808 37.9023 43.9428 37.6671 43.8543 37.4491C43.8321 37.4927 43.8081 37.5376 43.7824 37.5838C43.5941 37.9107 43.336 38.1919 43.0266 38.4076C42.7171 38.6233 42.3639 38.768 41.9921 38.8314C41.9259 38.8438 41.8579 38.843 41.7921 38.8289C41.7263 38.8149 41.6639 38.788 41.6086 38.7497C41.5532 38.7114 41.506 38.6625 41.4696 38.6059C41.4333 38.5492 41.4085 38.4859 41.3967 38.4197C41.385 38.3534 41.3865 38.2855 41.4011 38.2198C41.4158 38.1541 41.4433 38.0919 41.4822 38.037C41.521 37.982 41.5703 37.9352 41.6273 37.8994C41.6843 37.8636 41.7478 37.8395 41.8142 37.8284C42.1684 37.77 42.4911 37.5896 42.7264 37.3184C42.9616 37.0472 43.0946 36.7023 43.1024 36.3434C43.1043 36.2508 43.1314 36.1605 43.1807 36.0822C43.2301 36.0039 43.2999 35.9405 43.3827 35.8988C43.4654 35.8572 43.5578 35.8389 43.6502 35.8459C43.7425 35.8529 43.8312 35.885 43.9066 35.9386C44.4267 36.309 44.7907 36.8593 44.9281 37.4828C45.0655 38.1064 44.9664 38.7587 44.6501 39.3133C44.6344 39.3401 44.6181 39.3689 44.6004 39.3964C44.554 39.469 44.4898 39.5286 44.4139 39.5697C44.3381 39.6108 44.2531 39.6319 44.1669 39.6311Z" fill="#689634"/>
<path d="M38.694 39.6311C38.6073 39.6311 38.522 39.609 38.4463 39.5669C38.3705 39.5248 38.3068 39.4641 38.261 39.3905C38.2434 39.3623 38.2271 39.3342 38.2114 39.3067C37.8951 38.7521 37.796 38.0998 37.9334 37.4763C38.0708 36.8527 38.4348 36.3024 38.9549 35.932C39.0303 35.8784 39.119 35.8464 39.2113 35.8394C39.3036 35.8323 39.3961 35.8506 39.4788 35.8923C39.5615 35.9339 39.6314 35.9973 39.6807 36.0756C39.7301 36.1539 39.7572 36.2442 39.7591 36.3368C39.7669 36.6957 39.8999 37.0406 40.1351 37.3118C40.3704 37.583 40.6931 37.7634 41.0473 37.8218C41.1137 37.8329 41.1772 37.857 41.2342 37.8928C41.2912 37.9286 41.3405 37.9754 41.3793 38.0304C41.4181 38.0854 41.4457 38.1475 41.4603 38.2132C41.475 38.2789 41.4765 38.3468 41.4647 38.4131C41.453 38.4794 41.4282 38.5427 41.3919 38.5993C41.3555 38.6559 41.3083 38.7048 41.2529 38.7431C41.1976 38.7814 41.1352 38.8083 41.0694 38.8224C41.0036 38.8364 40.9356 38.8372 40.8694 38.8248C40.4973 38.7612 40.1438 38.6163 39.8342 38.4003C39.5246 38.1843 39.2665 37.9025 39.0784 37.5753C39.0531 37.5317 39.0292 37.4867 39.0065 37.4405C38.974 37.5209 38.9482 37.6038 38.9293 37.6884C38.8444 38.0667 38.9038 38.4632 39.0961 38.8L39.1261 38.851C39.174 38.9281 39.2005 39.0166 39.2027 39.1073C39.2049 39.1981 39.1828 39.2877 39.1388 39.3671C39.0947 39.4464 39.0302 39.5126 38.952 39.5586C38.8738 39.6047 38.7847 39.629 38.694 39.6291V39.6311Z" fill="#689634"/>
<path d="M45.0877 41.4861C44.9556 41.4867 44.8284 41.4359 44.733 41.3445C44.6376 41.253 44.5815 41.1281 44.5765 40.9961C44.5715 40.864 44.618 40.7352 44.7062 40.6368C44.7943 40.5384 44.9173 40.4781 45.0491 40.4687C45.302 40.4656 45.5467 40.3786 45.7449 40.2215C45.859 40.1722 45.9594 40.0957 46.0372 39.9987C46.115 39.9017 46.1678 39.7871 46.1912 39.6649C46.2145 39.5428 46.2075 39.4168 46.1709 39.2979C46.1343 39.1791 46.0692 39.071 45.9812 38.9831C45.8932 38.8952 45.785 38.8303 45.6661 38.7938C45.5472 38.7574 45.4212 38.7506 45.2991 38.7741C45.177 38.7975 45.0625 38.8505 44.9655 38.9284C44.8686 39.0064 44.7922 39.1068 44.7431 39.221C44.6978 39.2672 44.6596 39.3199 44.63 39.3773C44.5644 39.4924 44.4567 39.5775 44.3297 39.6147C44.2026 39.6519 44.066 39.6382 43.9487 39.5766C43.8315 39.515 43.7428 39.4103 43.7013 39.2846C43.6598 39.1588 43.6687 39.0219 43.7263 38.9026C43.8035 38.7543 43.9027 38.6185 44.0205 38.4998C44.239 38.3046 44.4943 38.155 44.7715 38.06C45.0487 37.965 45.3421 37.9264 45.6344 37.9466H45.65C45.9502 37.9482 46.2494 37.9813 46.5426 38.0453C46.6342 38.0672 46.718 38.114 46.7846 38.1806C46.8512 38.2473 46.8981 38.331 46.9199 38.4226C46.9839 38.7159 47.017 39.0151 47.0187 39.3152C47.0403 39.6096 47.0025 39.9054 46.9075 40.1849C46.8124 40.4644 46.6621 40.7219 46.4655 40.9421C46.1 41.2792 45.6246 41.4721 45.1276 41.4848H45.0877V41.4861Z" fill="#689634"/>
<path d="M37.7747 41.4865H37.7348C37.2379 41.4735 36.7626 41.2807 36.397 40.9438C36.2004 40.7236 36.0501 40.4661 35.9551 40.1866C35.86 39.9071 35.8222 39.6113 35.8438 39.3169C35.8455 39.0168 35.8786 38.7176 35.9425 38.4243C35.9644 38.3327 36.0112 38.249 36.0778 38.1824C36.1444 38.1157 36.2282 38.0689 36.3198 38.0471C36.6131 37.9831 36.9122 37.95 37.2124 37.9483H37.2281C37.5204 37.9282 37.8138 37.9667 38.0909 38.0617C38.3681 38.1568 38.6234 38.3063 38.8419 38.5015C38.9604 38.6211 39.0601 38.758 39.1374 38.9076C39.1951 39.0269 39.204 39.1639 39.1624 39.2897C39.1208 39.4155 39.0318 39.5202 38.9144 39.5815C38.7969 39.6429 38.6602 39.6561 38.5332 39.6184C38.4062 39.5808 38.2988 39.4952 38.2338 39.3797C38.2041 39.3215 38.1657 39.2682 38.12 39.2215C38.0707 39.1073 37.9943 39.007 37.8973 38.9292C37.8004 38.8514 37.6859 38.7985 37.5638 38.7751C37.4417 38.7518 37.3158 38.7586 37.1969 38.7951C37.0781 38.8316 36.97 38.8966 36.8821 38.9845C36.7942 39.0724 36.7291 39.1804 36.6925 39.2992C36.6559 39.418 36.649 39.544 36.6723 39.6661C36.6956 39.7882 36.7484 39.9027 36.8261 39.9997C36.9038 40.0967 37.0041 40.1732 37.1182 40.2226C37.3164 40.3796 37.5611 40.4665 37.814 40.4697C37.9458 40.4792 38.0687 40.5395 38.1569 40.6379C38.2451 40.7363 38.2916 40.8651 38.2866 40.9971C38.2816 41.1291 38.2254 41.2541 38.1301 41.3455C38.0347 41.437 37.9075 41.4878 37.7754 41.4872L37.7747 41.4865Z" fill="#689634"/>
<path d="M44.4767 47.5398H38.387C37.8907 47.5389 37.4151 47.3414 37.0642 46.9905C36.7133 46.6396 36.5158 46.1639 36.5149 45.6677V45.1681C36.5158 44.6719 36.7133 44.1962 37.0642 43.8453C37.4151 43.4944 37.8907 43.2969 38.387 43.296H44.4767C44.9729 43.2969 45.4486 43.4944 45.7995 43.8453C46.1504 44.1962 46.3479 44.6719 46.3488 45.1681V45.6677C46.3488 46.1642 46.1515 46.6404 45.8005 46.9914C45.4494 47.3425 44.9732 47.5398 44.4767 47.5398ZM38.387 44.3122C38.1604 44.3125 37.9432 44.4027 37.783 44.5629C37.6228 44.7231 37.5327 44.9402 37.5323 45.1668V45.6664C37.5325 45.893 37.6226 46.1103 37.7828 46.2705C37.9431 46.4307 38.1604 46.5208 38.387 46.521H44.4767C44.5889 46.521 44.7 46.4989 44.8037 46.456C44.9074 46.413 45.0016 46.3501 45.081 46.2707C45.1604 46.1913 45.2233 46.0971 45.2663 45.9934C45.3092 45.8898 45.3313 45.7786 45.3313 45.6664V45.1668C45.331 44.9402 45.2408 44.7231 45.0806 44.5629C44.9204 44.4027 44.7032 44.3125 44.4767 44.3122H38.387Z" fill="#689634"/>
<path d="M42.8861 42.4021C42.751 42.4021 42.6214 42.3485 42.5259 42.2529C42.4304 42.1574 42.3767 42.0279 42.3767 41.8928V41.301C42.3767 41.1659 42.4304 41.0363 42.5259 40.9408C42.6214 40.8453 42.751 40.7916 42.8861 40.7916C43.0212 40.7916 43.1507 40.8453 43.2463 40.9408C43.3418 41.0363 43.3955 41.1659 43.3955 41.301V41.8928C43.3955 42.0279 43.3418 42.1574 43.2463 42.2529C43.1507 42.3485 43.0212 42.4021 42.8861 42.4021Z" fill="#689634"/>
<path d="M39.9772 42.4021C39.8421 42.4021 39.7125 42.3485 39.617 42.2529C39.5214 42.1574 39.4678 42.0279 39.4678 41.8928V41.301C39.4678 41.1659 39.5214 41.0363 39.617 40.9408C39.7125 40.8453 39.8421 40.7916 39.9772 40.7916C40.1122 40.7916 40.2418 40.8453 40.3373 40.9408C40.4329 41.0363 40.4865 41.1659 40.4865 41.301V41.8928C40.4865 42.0279 40.4329 42.1574 40.3373 42.2529C40.2418 42.3485 40.1122 42.4021 39.9772 42.4021Z" fill="#689634"/>
<path d="M43.4167 45.8402H43.3415L43.3166 45.8356L43.2918 45.8304L43.2676 45.8232L43.244 45.8153L43.2205 45.8062L43.1983 45.7957L43.1754 45.7846L43.1532 45.7722L43.1316 45.7585L43.1107 45.744L43.0904 45.7284L43.0714 45.712L43.0531 45.6944L43.0355 45.6761L43.0191 45.6564L43.0034 45.6368L42.989 45.6159L42.9753 45.5943L42.9629 45.5721L42.9518 45.5498C42.9479 45.5424 42.9444 45.5348 42.9413 45.527L42.9321 45.5034C42.9306 45.495 42.928 45.4869 42.9243 45.4792C42.9243 45.4707 42.9197 45.4629 42.9178 45.4557L42.9119 45.4309C42.9116 45.4224 42.9101 45.414 42.9073 45.406C42.9027 45.3975 42.9073 45.389 42.9073 45.3805C42.9056 45.3721 42.9056 45.3634 42.9073 45.355V45.2791C42.9057 45.2709 42.9057 45.2625 42.9073 45.2543C42.9073 45.2465 42.9073 45.2373 42.9119 45.2294C42.9151 45.2215 42.9171 45.2132 42.9178 45.2046C42.9196 45.1967 42.9217 45.1888 42.9243 45.1811L42.9321 45.1575C42.9321 45.1497 42.938 45.1418 42.9413 45.134C42.9444 45.1262 42.9479 45.1186 42.9518 45.1111L42.9629 45.0889L42.9753 45.0666L42.989 45.0451L43.0034 45.0241L43.0191 45.0039L43.0355 44.9849L43.0531 44.9666L43.0714 44.949L43.0904 44.9326L43.1107 44.9169L43.1316 44.9025L43.1532 44.8888L43.1754 44.8764L43.1983 44.8652L43.2205 44.8548L43.244 44.8456L43.2676 44.8378L43.2918 44.8306L43.3166 44.8254L43.3415 44.8208H43.3912C43.408 44.8198 43.4247 44.8198 43.4415 44.8208H43.4912L43.5161 44.8254L43.5409 44.8306L43.5645 44.8378L43.588 44.8456L43.6115 44.8548L43.6338 44.8652L43.656 44.8764L43.6782 44.8888L43.6998 44.9025L43.7207 44.9169L43.7404 44.9326L43.7593 44.949L43.7776 44.9666L43.7953 44.9849L43.8116 45.0039L43.8273 45.0241L43.8417 45.0451L43.8554 45.0666L43.8679 45.0889L43.8796 45.1111C43.8835 45.1185 43.8867 45.1261 43.8894 45.134C43.8894 45.1418 43.896 45.1497 43.8986 45.1575L43.9064 45.1811L43.913 45.2046C43.914 45.2131 43.916 45.2214 43.9189 45.2294C43.9191 45.2379 43.9206 45.2463 43.9234 45.2543C43.928 45.2628 43.9234 45.2713 43.9234 45.2791V45.4054C43.9242 45.4139 43.9226 45.4225 43.9189 45.4302C43.9156 45.4381 43.9136 45.4465 43.913 45.4551L43.9064 45.4786C43.9051 45.487 43.9025 45.4952 43.8986 45.5028C43.8986 45.5106 43.8927 45.5185 43.8894 45.5263L43.8796 45.5492L43.8679 45.5714L43.8554 45.5937L43.8417 45.6153L43.8273 45.6362L43.8116 45.6558L43.7953 45.6754L43.7776 45.6937L43.7593 45.7114L43.7404 45.7277L43.7207 45.7434L43.6998 45.7578L43.6782 45.7715L43.656 45.784L43.6338 45.7951L43.6115 45.8056L43.588 45.8147L43.5645 45.8226L43.5409 45.8297L43.5161 45.835L43.4912 45.8396H43.4415L43.4167 45.8402Z" fill="#689634"/>
<path d="M39.4458 45.8404H39.3955H39.3706L39.3458 45.8358L39.321 45.8306L39.2968 45.824L39.2732 45.8162L39.2497 45.807L39.2268 45.7966L39.2045 45.7854L39.1823 45.773L39.1608 45.7593L39.1398 45.7449L39.1202 45.7292L39.1012 45.7129L39.0829 45.6952L39.0653 45.6769L39.0489 45.6579L39.0332 45.6377L39.0188 45.6167L39.0051 45.5952L38.9927 45.573L38.9809 45.5501C38.9809 45.5429 38.9737 45.535 38.9705 45.5272C38.9672 45.5193 38.9639 45.5115 38.9613 45.5036L38.9535 45.4801C38.9535 45.4722 38.9489 45.4637 38.9469 45.4565C38.9449 45.4493 38.943 45.4402 38.9417 45.433C38.9418 45.4245 38.9402 45.4161 38.9371 45.4082C38.9325 45.4003 38.9371 45.3912 38.9371 45.3827V45.2577C38.9364 45.2492 38.938 45.2407 38.9417 45.2329C38.9447 45.225 38.9465 45.2166 38.9469 45.2081C38.9469 45.1996 38.9515 45.1917 38.9535 45.1845C38.9554 45.1773 38.9587 45.1682 38.9613 45.1603C38.9639 45.1525 38.9672 45.1446 38.9705 45.1368C38.9735 45.129 38.977 45.1214 38.9809 45.1139L38.9927 45.091L39.0031 45.0688L39.0169 45.0472L39.0313 45.0263L39.047 45.006L39.0633 44.987L39.081 44.9688L39.0993 44.9511L39.1182 44.9341L39.1378 44.9184L39.1633 44.9079L39.1849 44.8942L39.2072 44.8818L39.2294 44.8707L39.2523 44.8608L39.2758 44.8517L39.2994 44.8438L39.3229 44.8373L39.3477 44.8321L39.3726 44.8275H39.5223L39.5472 44.8321L39.572 44.8373L39.5962 44.8438L39.6198 44.8517L39.6433 44.8608L39.6655 44.8707L39.6884 44.8818L39.7107 44.8942L39.7322 44.9079L39.7532 44.9223L39.7728 44.938L39.7917 44.955L39.8101 44.9727L39.8277 44.991L39.8441 45.0099L39.8597 45.0302L39.8741 45.0511L39.8879 45.0727L39.9003 45.095L39.9114 45.1178L39.9219 45.1407L39.931 45.1643C39.9325 45.1727 39.9352 45.1808 39.9389 45.1885L39.9454 45.212C39.9465 45.2204 39.9483 45.2287 39.9507 45.2368C39.9507 45.2453 39.9506 45.2532 39.9552 45.2617C39.9559 45.27 39.9559 45.2783 39.9552 45.2865V45.4121C39.9559 45.4206 39.9544 45.4292 39.9507 45.4369C39.9478 45.4445 39.946 45.4524 39.9454 45.4605L39.9389 45.484C39.9375 45.4922 39.9348 45.5001 39.931 45.5075L39.9219 45.5311L39.9114 45.554L39.9003 45.5769L39.8879 45.5991L39.8741 45.6207L39.8597 45.6416L39.8441 45.6619L39.8277 45.6808L39.8101 45.6992L39.7917 45.7168L39.7728 45.7332L39.7532 45.7488L39.7322 45.7632L39.7107 45.7769L39.6884 45.7894L39.6655 45.8005L39.6433 45.8109L39.6198 45.8201L39.5962 45.8279L39.572 45.8345L39.5472 45.8397L39.5223 45.8443H39.4975H39.472L39.4458 45.8404Z" fill="#689634"/>
<path d="M37.7733 44.426C37.6382 44.426 37.5086 44.3724 37.4131 44.2768C37.3176 44.1813 37.2639 44.0517 37.2639 43.9167V41.3011C37.2639 40.3766 37.6312 39.4899 38.2849 38.8362C38.9387 38.1825 39.8253 37.8152 40.7498 37.8152H42.1119C43.0364 37.8152 43.9231 38.1825 44.5768 38.8362C45.2305 39.4899 45.5978 40.3766 45.5978 41.3011V41.5411C45.5978 41.6762 45.5441 41.8057 45.4486 41.9013C45.3531 41.9968 45.2235 42.0504 45.0884 42.0504C44.9533 42.0504 44.8238 41.9968 44.7282 41.9013C44.6327 41.8057 44.579 41.6762 44.579 41.5411V41.3011C44.5785 40.6475 44.3187 40.0209 43.8567 39.5588C43.3946 39.0966 42.768 38.8366 42.1145 38.8359H40.7479C40.0944 38.8366 39.4678 39.0965 39.0057 39.5585C38.5436 40.0205 38.2836 40.647 38.2827 41.3004V43.916C38.2827 43.983 38.2695 44.0493 38.2439 44.1111C38.2182 44.1729 38.1806 44.2291 38.1333 44.2764C38.0859 44.3237 38.0297 44.3612 37.9678 44.3868C37.9059 44.4124 37.8396 44.4255 37.7726 44.4254L37.7733 44.426Z" fill="#689634"/>
</svg>
