<svg height="512" class="my-icon" viewBox="0 0 64 64" width="512" xmlns="http://www.w3.org/2000/svg"><g id="Veterinary_Location" data-name="Veterinary Location"><path fill="#689634" d="m32 42.33936a16 16 0 1 1 16-16 16.01833 16.01833 0 0 1 -16 16zm0-30a14 14 0 1 0 14 14 14.01572 14.01572 0 0 0 -14-14z"/><path fill="#689634" d="m32 56.31738c-5.19141 0-22.5-14.21435-22.5-30.06884a22.50018 22.50018 0 0 1 45 0c0 15.85446-17.30859 30.06884-22.5 30.06884zm0-50.478a20.47808 20.47808 0 0 0 -20.5 20.40916c0 14.77 16.72559 28.06884 20.5 28.06884s20.5-13.29883 20.5-28.06884a20.47808 20.47808 0 0 0 -20.5-20.40918z"/><path fill="#689634" d="m32 60.16064c-12.60254 0-26.1665-2.07324-26.1665-6.62451 0-3.90625 9.68554-5.49658 15.459-6.09668a1 1 0 1 1 .207 1.98926c-10.2251 1.063-13.666 3.26563-13.666 4.10742 0 1.56934 8.52978 4.62451 24.1665 4.62451s24.1665-3.05517 24.1665-4.62451c0-.84131-3.44043-3.04394-13.66406-4.10742a1 1 0 0 1 .207-1.98926c5.77246.60059 15.457 2.19092 15.457 6.09668.00006 4.55127-13.5639 6.62451-26.16644 6.62451z"/><path fill="#689634" d="m35.00049 23.70264a2.31327 2.31327 0 0 1 -.40137-.03516c-1.62646-.28662-2.60351-2.20117-2.22363-4.35791a4.733 4.733 0 0 1 1.18164-2.44385 2.52912 2.52912 0 0 1 4.34766.7666 4.98344 4.98344 0 0 1 -.90674 5.14356 2.79568 2.79568 0 0 1 -1.99756.92676zm.55371-5.76364a.86028.86028 0 0 0 -.55371.31153 2.75557 2.75557 0 0 0 -.65528 1.40625c-.19873 1.12793.23047 1.97558.60108 2.041a.77608.77608 0 0 0 .6084-.30664 2.7573 2.7573 0 0 0 .65478-1.40576v-.00049a2.75422 2.75422 0 0 0 -.13476-1.54492c-.124-.28125-.29785-.46631-.46582-.49609a.335.335 0 0 0 -.05469-.00488z"/><path fill="#689634" d="m39.085 27.62256a2.05186 2.05186 0 0 1 -.70312-.12354c-1.32813-.48388-1.877-2.21191-1.24952-3.93457.62647-1.72216 2.15967-2.69287 3.48584-2.21 1.32813.48389 1.877 2.21192 1.24952 3.93457a3.222 3.222 0 0 1 -2.78272 2.33354zm.82031-4.39307c-.15966 0-.63183.29981-.894 1.01953-.27978.76953-.06689 1.32618.05469 1.37061.12157.04394.64209-.24463.92285-1.01514.27978-.76953.06689-1.32617-.05469-1.3706a.08313.08313 0 0 0 -.02889-.0044z"/><path fill="#689634" d="m24.915 27.62256a3.22142 3.22142 0 0 1 -2.78272-2.3335c-.62744-1.72265-.07861-3.45068 1.249-3.93408 1.32763-.48486 2.85888.48731 3.48633 2.20947.62744 1.72266.07861 3.45069-1.249 3.93409a2.0458 2.0458 0 0 1 -.70361.12402zm-.82076-4.39256a.08509.08509 0 0 0 -.02881.0044c-.12109.04394-.334.60058-.0542 1.37011.28076.77.79492 1.0625.92334 1.01465.12109-.04394.334-.60059.0542-1.37012-.26221-.71925-.73438-1.01904-.89453-1.01904z"/><path fill="#689634" d="m29.07275 23.70264a2.79458 2.79458 0 0 1 -1.99755-.92676 4.73332 4.73332 0 0 1 -1.18165-2.44336 4.731 4.731 0 0 1 .27442-2.7002 2.52928 2.52928 0 0 1 4.34766-.7666 4.98217 4.98217 0 0 1 .90722 5.14356 2.68941 2.68941 0 0 1 -1.94922 1.6582 2.30769 2.30769 0 0 1 -.40088.03516zm-.55375-5.76364a.28322.28322 0 0 0 -.0542.00489c-.16845.02978-.34277.21484-.46679.49609a2.75421 2.75421 0 0 0 -.13477 1.54492 2.75357 2.75357 0 0 0 .65527 1.40625.76644.76644 0 0 0 .60791.30664c.16846-.02978.34229-.21484.46631-.49609a2.99947 2.99947 0 0 0 -.5205-2.95117.86045.86045 0 0 0 -.55323-.31153z"/><path fill="#689634" d="m27.65234 36.73584a4.32712 4.32712 0 0 1 -3.46045-1.45117 3.59655 3.59655 0 0 1 .31836-4.78516 7.6815 7.6815 0 0 1 1.18555-.83838 3.5062 3.5062 0 0 0 1.17822-.95556 5.48876 5.48876 0 0 0 .49317-1.14307 6.81365 6.81365 0 0 1 .76367-1.66357 4.52085 4.52085 0 0 1 3.90332-1.74756h.00342c2.3789 0 3.4873.97509 3.99853 1.793a6.67846 6.67846 0 0 1 .66553 1.60107 4.49827 4.49827 0 0 0 .50391 1.21387 3.01261 3.01261 0 0 0 1.22314.98779 5.4476 5.4476 0 0 1 1.13378.752 3.5961 3.5961 0 0 1 .31886 4.78516c-1.20947 1.50977-3.38037 1.63721-4.8711 1.292a6.777 6.777 0 0 1 -1.71725-.74226 3.26783 3.26783 0 0 0 -1.25635-.51416 3.26789 3.26789 0 0 0 -1.25635.51416 6.76255 6.76255 0 0 1 -1.71777.7417 6.27433 6.27433 0 0 1 -1.41019.16014zm4.38428-3.416a4.66417 4.66417 0 0 1 2.22315.76319 5.12776 5.12776 0 0 0 1.20507.54541 2.94561 2.94561 0 0 0 2.856-.59473 1.58372 1.58372 0 0 0 -.09961-2.05078 3.69531 3.69531 0 0 0 -.74267-.47607 4.93122 4.93122 0 0 1 -1.91211-1.60205 6.12947 6.12947 0 0 1 -.77393-1.76368 5.02437 5.02437 0 0 0 -.45264-1.1372 2.69486 2.69486 0 0 0 -2.30273-.85254h-.002a2.74562 2.74562 0 0 0 -2.25391.87744 5.14032 5.14032 0 0 0 -.52588 1.19287 7.17552 7.17552 0 0 1 -.69971 1.56689 5.19833 5.19833 0 0 1 -1.81445 1.57764 6.10075 6.10075 0 0 0 -.88965.6167 1.58492 1.58492 0 0 0 -.09912 2.05127 2.93949 2.93949 0 0 0 2.856.59375 5.11037 5.11037 0 0 0 1.20556-.54541 4.66886 4.66886 0 0 1 2.22263-.76272z"/></g></svg>