<svg xmlns="http://www.w3.org/2000/svg" xmlns:xlink="http://www.w3.org/1999/xlink" width="36" height="36" viewBox="0 0 36 36">
  <defs>
    <clipPath id="clip-path">
      <rect id="Rectangle_137" data-name="Rectangle 137" width="36" height="36" transform="translate(0 0)" fill="#689634" stroke="#707070" stroke-width="1"/>
    </clipPath>
  </defs>
  <g id="Mask_Group_20" data-name="Mask Group 20" transform="translate(0 0)" clip-path="url(#clip-path)">
    <g id="truck" transform="translate(0 4.355)">
      <path id="Path_287" data-name="Path 287" d="M5.613,18.194a1.742,1.742,0,1,0,1.742,1.742,1.742,1.742,0,0,0-1.742-1.742Zm0,2.323a.581.581,0,1,1,.581-.581A.581.581,0,0,1,5.613,20.516Z" transform="translate(1.355 3.29)" fill="#689634"/>
      <path id="Path_288" data-name="Path 288" d="M20.323,18.194a1.742,1.742,0,1,0,1.742,1.742,1.742,1.742,0,0,0-1.742-1.742Zm0,2.323a.581.581,0,1,1,.581-.581A.581.581,0,0,1,20.323,20.516Z" transform="translate(8.71 3.29)" fill="#689634"/>
      <path id="Path_289" data-name="Path 289" d="M36.295,17.492,31.069,9.363a.581.581,0,0,0-.488-.266H23.613V5.9a2.035,2.035,0,0,0-2.032-2.032H2.419A2.035,2.035,0,0,0,.387,5.9V27.1a.581.581,0,0,0,.581.581H3.332a4.064,4.064,0,0,0,8.045,0H25.4a4.064,4.064,0,0,0,8.045,0h2.365a.581.581,0,0,0,.581-.581v-9.29a.582.582,0,0,0-.092-.314ZM7.355,30a2.9,2.9,0,1,1,2.9-2.9A2.9,2.9,0,0,1,7.355,30Zm15.1-3.484H11.377a4.064,4.064,0,0,0-8.045,0H1.548V20.71h20.9Zm0-6.968H1.548V5.9a.872.872,0,0,1,.871-.871H21.581a.872.872,0,0,1,.871.871ZM31.383,12l3.36,5.226H26.516V12ZM29.419,30a2.9,2.9,0,1,1,2.9-2.9,2.9,2.9,0,0,1-2.9,2.9Zm5.806-8.129H34.065a.581.581,0,1,1,0-1.161h1.161Zm0-2.323H34.065a1.742,1.742,0,1,0,0,3.484h1.161v3.484H33.442a4.064,4.064,0,0,0-8.045,0H23.613V10.258h6.651l.374.581h-4.7a.581.581,0,0,0-.581.581v6.387a.581.581,0,0,0,.581.581h9.29Z" transform="translate(-0.387 -3.871)" fill="#689634"/>
      <path id="Path_290" data-name="Path 290" d="M19.355,14.323H17.613a.581.581,0,1,0,0,1.161h1.742a.581.581,0,0,0,0-1.161Z" transform="translate(7.935 1.355)" fill="#689634"/>
      <path id="Path_291" data-name="Path 291" d="M10.645,17.032H15.29a.581.581,0,0,0,0-1.161H10.645a.581.581,0,0,0,0,1.161Z" transform="translate(4.452 2.129)" fill="#689634"/>
      <path id="Path_292" data-name="Path 292" d="M14.323,17.032H12.581a.581.581,0,0,0,0,1.161h1.742a.581.581,0,0,0,0-1.161Z" transform="translate(5.419 2.71)" fill="#689634"/>
    </g>
  </g>
</svg>
