<svg xmlns="http://www.w3.org/2000/svg" xmlns:xlink="http://www.w3.org/1999/xlink" width="36" height="36" viewBox="0 0 36 36">
  <defs>
    <clipPath id="clip-path">
      <rect id="Rectangle_140" data-name="Rectangle 140" width="36" height="36" transform="translate(-0.059 -0.059)" fill="#689634" stroke="#707070" stroke-width="1"/>
    </clipPath>
  </defs>
  <g id="Mask_Group_23" data-name="Mask Group 23" transform="translate(0.059 0.059)" clip-path="url(#clip-path)">
    <g id="search_1_" data-name="search (1)" transform="translate(-0.898 -0.933)">
      <path id="Path_296" data-name="Path 296" d="M12.775,1.307a11.373,11.373,0,0,0-8.1,3.362,11.469,11.469,0,1,0,16.206,0,11.374,11.374,0,0,0-8.1-3.362Zm9.81,15.47A10.592,10.592,0,1,1,18.637,3.96,10.578,10.578,0,0,1,22.585,16.777Z" transform="translate(0.824 0.844)" fill="#689634"/>
      <path id="Path_297" data-name="Path 297" d="M27.312,22.827a.437.437,0,0,0-.618,0l-1.639,1.642L23.884,23.3a13.595,13.595,0,1,0-.617.618l1.17,1.172L22.8,26.731a.437.437,0,0,0,0,.617l7.794,7.808a3.195,3.195,0,0,0,4.515-4.521Zm-4.349.167a12.757,12.757,0,1,1,2.8-4.219,12.715,12.715,0,0,1-2.8,4.219Zm.76,4.046L27,23.754l1.331,1.333-3.28,3.285Zm10.764,7.5a2.315,2.315,0,0,1-3.278,0l-5.537-5.547,3.279-3.285,5.536,5.546a2.33,2.33,0,0,1,0,3.286Z" transform="translate(-0.361 -0.344)" fill="#689634"/>
      <path id="Path_298" data-name="Path 298" d="M4,4.64a.436.436,0,0,0,.3-.12A8.4,8.4,0,0,1,5.033,3.9a.437.437,0,1,0-.526-.7,9.269,9.269,0,0,0-.8.681A.437.437,0,0,0,4,4.64Z" transform="translate(3.596 3.079)" fill="#689634"/>
      <path id="Path_299" data-name="Path 299" d="M4.584,4.1a.437.437,0,0,0-.608.11,9.149,9.149,0,0,0-1.517,6.649.437.437,0,1,0,.864-.135A8.278,8.278,0,0,1,4.694,4.708a.437.437,0,0,0-.11-.608Z" transform="translate(2.088 4.195)" fill="#689634"/>
      <path id="Path_300" data-name="Path 300" d="M13.34,8.925c-.037-.013-.044-.044-.044-.082V8.834a3.569,3.569,0,0,0-7.137,0v.011c0,.036-.006.068-.044.08A3.522,3.522,0,0,0,3.9,11.21,3.862,3.862,0,0,0,4.616,14.7a.947.947,0,0,0,.2.2,4.135,4.135,0,0,0,2.644.858,3.547,3.547,0,0,0,2.217-.924.078.078,0,0,1,.1,0,3.545,3.545,0,0,0,2.216.924q.088,0,.176,0a4.179,4.179,0,0,0,2.467-.862.938.938,0,0,0,.2-.2,3.865,3.865,0,0,0,.72-3.492A3.522,3.522,0,0,0,13.34,8.925Zm.795,5.256a.066.066,0,0,1-.014.014,2.873,2.873,0,0,1-3.752-.005.955.955,0,0,0-1.281,0,2.873,2.873,0,0,1-3.752.005.066.066,0,0,1-.014-.013,3.009,3.009,0,0,1-.579-2.712A2.633,2.633,0,0,1,6.4,9.752a.946.946,0,0,0,.634-.908V8.834a2.7,2.7,0,0,1,5.389,0v.008a.947.947,0,0,0,.634.91,2.645,2.645,0,0,1,1.665,1.718,3.015,3.015,0,0,1-.587,2.711Z" transform="translate(3.811 5.797)" fill="#689634"/>
      <path id="Path_301" data-name="Path 301" d="M5.306,9.119a1.321,1.321,0,0,0,.859-.568,2.576,2.576,0,0,0,.342-1.884C6.3,5.442,5.442,4.6,4.559,4.749a1.321,1.321,0,0,0-.859.568A2.576,2.576,0,0,0,3.357,7.2c.194,1.13.938,1.934,1.745,1.934a1.225,1.225,0,0,0,.2-.017ZM4.219,7.054a1.722,1.722,0,0,1,.194-1.231A.465.465,0,0,1,4.7,5.611a.316.316,0,0,1,.053,0c.332,0,.765.489.888,1.207a1.722,1.722,0,0,1-.194,1.231.465.465,0,0,1-.292.211c-.337.058-.812-.445-.942-1.2Z" transform="translate(3.281 5.071)" fill="#689634"/>
      <path id="Path_302" data-name="Path 302" d="M6.532,8.309C7.578,8.309,8.4,7.158,8.4,5.69S7.578,3.071,6.532,3.071,4.669,4.222,4.669,5.69,5.487,8.309,6.532,8.309Zm0-4.364c.527,0,.99.816.99,1.745s-.463,1.745-.99,1.745-.99-.816-.99-1.745S6.005,3.945,6.532,3.945Z" transform="translate(4.955 3.021)" fill="#689634"/>
      <path id="Path_303" data-name="Path 303" d="M10.074,4.749C9.19,4.6,8.335,5.442,8.125,6.666a2.574,2.574,0,0,0,.342,1.884,1.321,1.321,0,0,0,.859.568,1.224,1.224,0,0,0,.2.017c.808,0,1.552-.8,1.745-1.934a2.572,2.572,0,0,0-.342-1.884,1.321,1.321,0,0,0-.859-.568Zm.34,2.3c-.13.758-.605,1.261-.942,1.2a.465.465,0,0,1-.292-.212,1.722,1.722,0,0,1-.194-1.231c.123-.719.556-1.207.888-1.207a.316.316,0,0,1,.053,0,.465.465,0,0,1,.292.211,1.722,1.722,0,0,1,.194,1.232Z" transform="translate(9.165 5.071)" fill="#689634"/>
      <path id="Path_304" data-name="Path 304" d="M8.369,8.309c1.045,0,1.864-1.151,1.864-2.619S9.415,3.071,8.369,3.071,6.506,4.222,6.506,5.69,7.324,8.309,8.369,8.309Zm0-4.364c.527,0,.99.816.99,1.745S8.9,7.435,8.369,7.435s-.99-.816-.99-1.745S7.842,3.945,8.369,3.945Z" transform="translate(7.222 3.021)" fill="#689634"/>
    </g>
  </g>
</svg>
