<svg xmlns="http://www.w3.org/2000/svg" xmlns:xlink="http://www.w3.org/1999/xlink" width="36" height="36" viewBox="0 0 36 36">
  <defs>
    <clipPath id="clip-path">
      <rect id="Rectangle_139" data-name="Rectangle 139" width="36" height="36" transform="translate(0 0)" fill="#689634" stroke="#707070" stroke-width="1"/>
    </clipPath>
  </defs>
  <g id="Mask_Group_22" data-name="Mask Group 22" transform="translate(0)" clip-path="url(#clip-path)">
    <g id="feed" transform="translate(0 0)">
      <path id="Path_293" data-name="Path 293" d="M34.839,0H31.355a1.162,1.162,0,0,0-1.161,1.161v.37l-.275.33a17.937,17.937,0,0,1-4.37,3.79v-4.6l-2.837.473A6.308,6.308,0,0,0,17.9,5.35a7.751,7.751,0,0,0-7.119.392L9.572,6.47A.581.581,0,0,0,9.8,7.544a6.262,6.262,0,0,1,5.025,3.915,7.751,7.751,0,0,0-2.409,3.148l-2.353,5.715H9.1A4.444,4.444,0,0,0,5.91,27.871H1.161A1.162,1.162,0,0,0,0,29.032v.581A6.4,6.4,0,0,0,6.387,36h15.1A1.741,1.741,0,0,0,23.2,34.552a6.328,6.328,0,0,0,2.352-4.939v-.581a1.162,1.162,0,0,0-1.161-1.161H18.581a1.162,1.162,0,0,0-1.161,1.161v1.742h1.161V29.032h5.806v.581a5.172,5.172,0,0,1-1.485,3.64,1.738,1.738,0,0,0-1.418-.737h-2.9v1.161h2.9a.581.581,0,0,1,0,1.161H13.355a.581.581,0,1,1,0-1.161h2.9V29.032a1.158,1.158,0,0,0-.8-1.1,8.761,8.761,0,0,1,3.162-.769,9.759,9.759,0,0,0,8.507-6.018L30.194,20v14.84A1.162,1.162,0,0,0,31.355,36h3.484A1.162,1.162,0,0,0,36,34.839V1.161A1.162,1.162,0,0,0,34.839,0ZM30.194,16.095,29.81,16a1.026,1.026,0,0,1-.778-1,2.181,2.181,0,0,0-.368-1.214l-.259-.388a3.184,3.184,0,0,1,.611-4.213l1.176-.981ZM13.4,5.971A4.53,4.53,0,0,1,12.46,7.2,7.408,7.408,0,0,0,11.4,6.727,6.405,6.405,0,0,1,13.4,5.971Zm.073,1.868a5.734,5.734,0,0,0,1.273-2.011,6.448,6.448,0,0,1,2.475.492,4.523,4.523,0,0,1-2.418,2.8,7.5,7.5,0,0,0-1.33-1.283ZM15.464,10.1a5.681,5.681,0,0,0,1.99-1.693,6.325,6.325,0,0,0,.29,1.372l.075.226a7.728,7.728,0,0,0-2,.794,7.227,7.227,0,0,0-.352-.7ZM9.1,21.484h1.021l3.557,6.1-.481.289h-.42a1.162,1.162,0,0,0-1.161,1.161v1.742a.581.581,0,0,1-1.161,0V29.032A1.162,1.162,0,0,0,9.29,27.871H8.95L9.7,27.12,8.88,26.3,7.494,27.685l-.372-.279A3.291,3.291,0,0,1,9.1,21.484Zm6,11.032H13.355a1.743,1.743,0,0,0-1.643,2.323H6.387a5.232,5.232,0,0,1-5.226-5.226v-.581H9.29v1.742a1.742,1.742,0,1,0,3.484,0V29.032H15.1ZM27.582,19.738a9.76,9.76,0,0,0,.289-2.319H26.71a8.61,8.61,0,0,1-8.2,8.59,9.8,9.8,0,0,0-3.82,1.006L11.1,20.859l.809-1.965L13.8,20.157a4.443,4.443,0,0,0,5.785-.745l2.906-3.27a2.9,2.9,0,0,0,.733-1.929V12.774H22.065v1.439a1.742,1.742,0,0,1-.44,1.157l-2.906,3.27a3.281,3.281,0,0,1-4.272.55L12.358,17.8,13.49,15.05a6.63,6.63,0,0,1,5.173-4.024l.689-.1-.505-1.516A5.172,5.172,0,0,1,22.9,2.675l1.485-.248V3.484a4.651,4.651,0,0,0-4.645,4.645H20.9a3.487,3.487,0,0,1,3.484-3.484V6.164a4.019,4.019,0,0,1-2.538,3.749l.431,1.078a5.166,5.166,0,0,0,3.188-3.945A19.08,19.08,0,0,0,30.193,3.31V6.7L28.272,8.3a4.347,4.347,0,0,0-.833,5.749l.259.388a1.026,1.026,0,0,1,.172.57,2.185,2.185,0,0,0,1.658,2.123l.665.167v1.467Zm3.772,15.1V1.161h3.484V34.839Z" transform="translate(0 0)" fill="#689634"/>
      <path id="Path_294" data-name="Path 294" d="M4.839,13.29A1.742,1.742,0,1,0,3.1,11.548,1.744,1.744,0,0,0,4.839,13.29Zm0-2.323a.581.581,0,1,1-.581.581A.581.581,0,0,1,4.839,10.968Z" transform="translate(3.871 12.258)" fill="#689634"/>
      <path id="Path_295" data-name="Path 295" d="M6.71,9.1v.581H8.452a2.907,2.907,0,0,0,2.9-2.9V6.194H9.613A2.907,2.907,0,0,0,6.71,9.1Zm1.742-.581H7.97A1.745,1.745,0,0,1,9.613,7.355h.481A1.745,1.745,0,0,1,8.452,8.516Z" transform="translate(8.387 7.742)" fill="#689634"/>
    </g>
  </g>
</svg>
