<svg xmlns="http://www.w3.org/2000/svg" xmlns:xlink="http://www.w3.org/1999/xlink" width="36" height="36" viewBox="0 0 36 36">
  <defs>
    <clipPath id="clip-path">
      <rect id="Rectangle_135" data-name="Rectangle 135" width="36" height="36" fill="#689634" stroke="#707070" stroke-width="1"/>
    </clipPath>
  </defs>
  <g id="Mask_Group_17" data-name="Mask Group 17" clip-path="url(#clip-path)">
    <g id="cow">
      <g id="Group_337" data-name="Group 337">
        <g id="Group_336" data-name="Group 336">
          <path id="Path_274" data-name="Path 274" d="M36,1.125V0H33.891V1.125A5.352,5.352,0,0,1,29.408,6.4H6.592A5.352,5.352,0,0,1,2.109,1.125V0H0V1.125A7.444,7.444,0,0,0,2.856,6.988,5.278,5.278,0,0,0,0,11.672v3.234H3.234a5.25,5.25,0,0,0,3.477-1.313l.788,15.4A7.379,7.379,0,0,0,14.872,36h6.256A7.379,7.379,0,0,0,28.5,28.994l.788-15.4a5.25,5.25,0,0,0,3.477,1.313H36V11.672a5.278,5.278,0,0,0-2.856-4.684A7.444,7.444,0,0,0,36,1.125ZM6.4,9.633A3.168,3.168,0,0,1,3.234,12.8H2.109V11.672A3.168,3.168,0,0,1,5.273,8.508H6.4Zm20,19.254a5.271,5.271,0,0,1-5.267,5H14.872a5.271,5.271,0,0,1-5.267-5l-.094-1.848a11.6,11.6,0,0,1,16.978,0Zm.235-4.594a13.705,13.705,0,0,0-17.259,0L8.563,8.508H27.437Zm7.261-12.62V12.8H32.766A3.168,3.168,0,0,1,29.6,9.633V8.508h1.125A3.168,3.168,0,0,1,33.891,11.672Z" fill="#689634"/>
        </g>
      </g>
      <g id="Group_339" data-name="Group 339" transform="translate(13.078 28.969)">
        <g id="Group_338" data-name="Group 338">
          <circle id="Ellipse_60" data-name="Ellipse 60" cx="1.406" cy="1.406" r="1.406" fill="#689634"/>
        </g>
      </g>
      <g id="Group_341" data-name="Group 341" transform="translate(20.109 28.969)">
        <g id="Group_340" data-name="Group 340">
          <circle id="Ellipse_61" data-name="Ellipse 61" cx="1.406" cy="1.406" r="1.406" fill="#689634"/>
        </g>
      </g>
      <g id="Group_343" data-name="Group 343" transform="translate(10.969 14.484)">
        <g id="Group_342" data-name="Group 342">
          <circle id="Ellipse_62" data-name="Ellipse 62" cx="1.406" cy="1.406" r="1.406" fill="#689634"/>
        </g>
      </g>
      <g id="Group_345" data-name="Group 345" transform="translate(22.219 14.484)">
        <g id="Group_344" data-name="Group 344">
          <circle id="Ellipse_63" data-name="Ellipse 63" cx="1.406" cy="1.406" r="1.406" fill="#689634"/>
        </g>
      </g>
    </g>
  </g>
</svg>
