<svg xmlns="http://www.w3.org/2000/svg" xmlns:xlink="http://www.w3.org/1999/xlink" width="36" height="36" viewBox="0 0 36 36">
  <defs>
    <clipPath id="clip-path">
      <rect id="Rectangle_136" data-name="Rectangle 136" width="36" height="36" transform="translate(0 0)" fill="#689634" stroke="#707070" stroke-width="1"/>
    </clipPath>
  </defs>
  <g id="Mask_Group_21" data-name="Mask Group 21" transform="translate(0)" clip-path="url(#clip-path)">
    <g id="layer1" transform="translate(0.006 0)">
      <path id="path17996" d="M29.151,423.88l-1.8,1.8a.6.6,0,0,0,0,.845l.777.777-3.1,3.1.846.844,3.1-3.1,3.349,3.35-3.1,3.1.847.846,3.1-3.1.776.777a.6.6,0,0,0,.845,0l1.8-1.8a.6.6,0,0,0,0-.845L30,423.88a.582.582,0,0,0-.85,0Zm-7.791,5.4-1.8,1.8a.6.6,0,0,0,0,.849l.773.773L7.227,445.809a1.8,1.8,0,0,0-.065,2.459L5.78,449.654a.6.6,0,0,0,0,.845l.774.774L4.58,453.246a.6.6,0,0,0,0,.849l.476.476L.985,458.643a.6.6,0,1,0,.849.845l4.07-4.071.474.474a.6.6,0,0,0,.85,0L9.2,453.918l.775.775a.6.6,0,0,0,.849,0l1.381-1.381a1.8,1.8,0,0,0,2.464-.065l13.111-13.111.776.776a.6.6,0,0,0,.845,0l1.8-1.8a.6.6,0,0,0,0-.845l-8.989-8.989a.59.59,0,0,0-.85,0Zm-.174,4.266,5.745,5.745L13.818,452.4a.586.586,0,0,1-.849,0l-4.9-4.9a.588.588,0,0,1,0-.85Zm-4.4,6.342a.6.6,0,0,0-.424.177L9.77,446.654a.6.6,0,0,0,0,.85l3.2,3.2a.6.6,0,0,0,.85,0l9.79-9.79a.6.6,0,0,0-.424-1.027ZM8,449.124l3.346,3.346-.95.953-3.349-3.349Zm-.6,3,.947.95L6.8,454.622c-.321-.328-.63-.63-.952-.952Z" transform="translate(-0.779 -423.696)" fill="#689634"/>
    </g>
  </g>
</svg>
